<?xml version="1.0" encoding="utf-8"?>
<!-- Generator: Adobe Illustrator 25.2.1, SVG Export Plug-In . SVG Version: 6.00 Build 0)  -->
<svg version="1.1" id="Layer_1" xmlns="http://www.w3.org/2000/svg" xmlns:xlink="http://www.w3.org/1999/xlink" x="0px" y="0px"
	 viewBox="0 0 200 200" style="enable-background:new 0 0 200 200;" xml:space="preserve">
<style type="text/css">
	.st0{fill:#414042;}
	.st1{fill:#58595B;}
	.st2{fill:#808285;}
	.st3{fill:#D1D3D4;}
	.st4{fill:#939598;}
	.st5{fill:#6D6E71;}
	.st6{fill:#ACD5EA;}
	.st7{fill:#414143;}
	.st8{fill:#A7A9AC;}
	.st9{fill:#231F20;}
	.st10{fill:#D0D2D3;}
	.st11{fill:#07090B;}
	.st12{fill:#161B1E;}
	.st13{fill:#354045;}
	.st14{fill:#919498;}
	.st15{fill:#30393E;}
	.st16{fill:#141B1E;}
	.st17{fill:#FFFFFF;}
	.st18{fill:#2D90C8;}
	.st19{fill:#6FC1E9;}
	.st20{fill:#828487;}
	.st21{fill:#79C3E8;}
	.st22{fill:#2E91C9;}
	.st23{fill:#D7E9F4;}
	.st24{fill:#D6E9F4;}
	.st25{fill:#BEDDEF;}
	.st26{fill:#888A8D;}
	.st27{fill:#50ABDA;}
	.st28{fill:#0F1417;}
	.st29{fill:#9CCCE6;}
	.st30{fill:#58AEDB;}
	.st31{fill:#96989A;}
	.st32{fill:#D0D1D2;}
	.st33{fill:#37697A;}
	.st34{fill:#4D4E4C;}
	.st35{fill:#89B841;}
	.st36{fill:#3A6C7E;}
	.st37{fill:#396D7F;}
	.st38{fill:#386D80;}
	.st39{fill:#2F3B41;}
	.st40{fill:#526B2B;}
	.st41{fill:#374E58;}
	.st42{fill:#38515B;}
	.st43{fill:#607839;}
	.st44{fill:#3E4D54;}
	.st45{fill:#374C57;}
	.st46{fill:#33505C;}
	.st47{fill:#67803F;}
	.st48{fill:#658434;}
	.st49{fill:#1A1B1C;}
	.st50{fill:#F9FBFC;}
	.st51{fill:#1E85C0;}
	.st52{fill:#F6F8F9;}
	.st53{fill:#2483BA;}
	.st54{fill:#101416;}
	.st55{fill:#6ABCE5;}
	.st56{fill:#9BCEE8;}
	.st57{fill:#919395;}
	.st58{fill:#77C1E5;}
	.st59{fill:#BBBDBF;}
	.st60{fill:#12191C;}
	.st61{fill:#151B1E;}
	.st62{fill:#CFD1D2;}
	.st63{fill:#353F44;}
	.st64{fill:#343F44;}
	.st65{fill:#353F45;}
	.st66{fill:#37444A;}
	.st67{fill:#333F44;}
	.st68{fill:#323E44;}
	.st69{fill:#343F45;}
	.st70{fill:#333E44;}
	.st71{fill:#313A3F;}
	.st72{fill:#313A3E;}
	.st73{fill:#242D32;}
	.st74{fill:#232D32;}
	.st75{fill:#242E33;}
	.st76{fill:#13181A;}
	.st77{fill:#3C4348;}
	.st78{fill:#161B1D;}
	.st79{fill:#151A1E;}
	.st80{fill:#151B1D;}
	.st81{fill:#151A1D;}
	.st82{fill:#141B1F;}
	.st83{fill:#131B1F;}
	.st84{fill:#72C3EA;}
	.st85{fill:#D6D8D9;}
	.st86{fill:#3395CC;}
	.st87{fill:#3899CE;}
	.st88{fill:#D0E6F3;}
	.st89{fill:#6DC0E8;}
	.st90{fill:#65BAE4;}
	.st91{fill:#69BDE6;}
	.st92{fill:#6ABEE7;}
	.st93{fill:#81C5E7;}
	.st94{fill:#C7E2F1;}
	.st95{fill:#3798CD;}
	.st96{fill:#C0DEEF;}
	.st97{fill:#D1E7F3;}
	.st98{fill:#C8E2F1;}
	.st99{fill:#B8DBEE;}
	.st100{fill:#89C7E7;}
	.st101{fill:#95CCE8;}
	.st102{fill:#8FC9E8;}
	.st103{fill:#4AA6D7;}
	.st104{fill:#48A5D6;}
	.st105{fill:#ACD5EB;}
	.st106{fill:#44A2D4;}
	.st107{fill:#648236;}
	.st108{fill:#688739;}
	.st109{fill:#0C1005;}
	.st110{fill:#F0F7FB;}
	.st111{fill:#82C5E7;}
	.st112{fill:#8AC7E7;}
	.st113{fill:#93CBE8;}
	.st114{fill:#BADAEC;}
	.st115{fill:#D2E7F3;}
	.st116{fill:#DEEDF6;}
	.st117{fill:#A4D1EA;}
	.st118{fill:#ABD4EB;}
	.st119{fill:#B3D8EC;}
	.st120{fill:#E8F2F9;}
	.st121{fill:#DBDCDD;}
	.st122{fill:#E0E1E2;}
	.st123{fill:#E5E6E6;}
	.st124{fill:#E9EAEA;}
	.st125{fill:#3D9DD1;}
	.st126{fill:#43A1D3;}
	.st127{fill:#5AB2DF;}
	.st128{fill:#60B6E2;}
	.st129{fill:#AED6EC;}
	.st130{fill:#3F9ED1;}
	.st131{fill:#55AEDC;}
	.st132{fill:#4EA9D9;}
	.st133{fill:#9DCFE9;}
	.st134{fill:#A5D2EA;}
</style>
<g>
	<path class="st0" d="M69.05,15.77c0.65,0.33,1.31,0.63,1.95,0.99c30.27,16.78,60.53,33.56,90.79,50.34
		c0.57,0.32,1.22,0.54,1.66,1.06c-0.01,1.14-1.03,1.19-1.73,1.55c-0.98,0.5-2.14,0.69-2.73,1.79c-0.34,0.91-0.18,1.86-0.18,2.78
		c-0.01,23.99-0.01,47.99-0.01,71.98c0,4.2-0.35,4.42-4.05,2.26c-2.41-1.4-5-2.51-7.14-4.37c-0.57-1.13-0.41-2.34-0.41-3.53
		c-0.01-18.64-0.01-37.28-0.01-55.91c0-1.26,0.01-2.53-0.16-3.78c-0.23-1.06-0.95-1.65-1.88-2.17
		c-19.27-10.85-38.49-21.8-57.75-32.67c-5.92-3.34-11.84-6.67-17.73-10.06c-0.88-0.51-1.71-1.06-1.93-2.16
		c-0.29-5.44-0.13-10.89-0.08-16.33C67.68,16.76,67.55,15.54,69.05,15.77z"/>
	<path class="st1" d="M87.79,147.47c-3.17-1.83-6.34-3.67-9.52-5.48c-12.67-7.22-25.35-14.43-38.03-21.64
		c-0.35-0.2-0.7-0.39-1.04-0.6c-1.48-0.9-2.28-2.2-2.26-3.96c0.02-1.73,0.02-3.46,0.04-5.2c0.07-7.33,0.13-14.66,0.21-21.99
		c0.12-10.93,0.27-21.85,0.4-32.78c0.1-8.46,0.2-16.92,0.32-25.38c0.01-0.77-0.25-1.6,0.31-2.3c1.32-0.13,2.23,0.78,3.24,1.35
		c16.42,9.37,32.9,18.64,49.32,28c13.77,7.84,27.57,15.61,41.33,23.46c0.82,0.47,1.64,0.92,1.83,1.97c0.22,1.26,0.14,2.53,0.14,3.79
		c0.02,27.75-0.02,55.51,0.03,83.26c-0.52,2.17-2.24,2.9-4.55,1.79c-2.14-1.02-4.12-2.34-6.2-3.47c-4.67-2.78-9.4-5.45-14.14-8.1
		c-5.9-3.33-11.75-6.75-17.67-10.04c-0.45-0.28-0.87-0.62-1.34-0.88c-0.44-0.26-0.9-0.49-1.35-0.73
		C88.4,148.29,88.05,147.93,87.79,147.47z"/>
	<path class="st2" d="M158.66,70.58c0.99-0.45,2-0.88,2.98-1.36c0.63-0.3,1.34-0.48,1.81-1.05c0.11,0.15,0.31,0.29,0.32,0.45
		c0.05,0.6,0.05,1.2,0.05,1.79c0,26.57,0,53.13,0,79.7c0,0.6-0.01,1.2-0.02,1.8c-0.02,0.87-0.4,1.53-1.15,1.97
		c-1.27,0.73-2.53,1.47-3.81,2.18c-0.39,0.22-0.77,0.14-1.04-0.25c0.35-4.83,0.7-9.66,0.69-14.52c-0.07-22.85-0.03-45.7-0.02-68.55
		C158.47,72.01,158.27,71.26,158.66,70.58z"/>
	<path class="st3" d="M64.24,0.56c0.71-0.64,1.47-0.49,2.2-0.07c2.38,1.33,4.75,2.67,7.11,4.02c2.31,1.32,4.6,2.65,6.91,3.97
		c2.48,1.42,4.95,2.85,7.43,4.26c1.39,0.79,2.79,1.54,4.18,2.33c3.63,2.07,7.25,4.17,10.89,6.23c2.54,1.44,5.12,2.82,7.66,4.26
		c2.31,1.31,4.59,2.67,6.9,3.99c1.38,0.79,2.79,1.54,4.18,2.33c3.63,2.07,7.25,4.17,10.89,6.23c2.54,1.44,5.12,2.82,7.66,4.27
		c3.23,1.84,6.43,3.73,9.67,5.57c1.85,1.05,3.73,2.04,5.6,3.06c0.4,0.22,0.89,0.32,1.13,0.77c-0.08,0.11-0.19,0.19-0.29,0.27
		c-3.03,2.45-5.72,1.86-9-0.06c-15.35-8.98-30.89-17.64-46.35-26.42c-12.16-6.91-24.33-13.81-36.5-20.71
		c-2.49-1.41-2.5-2.15-0.11-3.63c0.18-0.11,0.46-0.08,0.55-0.34C64.65,0.89,64.42,0.77,64.24,0.56z"/>
	<path class="st4" d="M133.46,82.18c-2.9-1.63-5.8-3.25-8.7-4.88c-2.55-1.43-5.1-2.87-7.64-4.31c-3.35-1.91-6.69-3.83-10.04-5.74
		c-2.49-1.41-4.99-2.8-7.47-4.21c-3.7-2.1-7.39-4.22-11.1-6.31c-3.47-1.96-6.96-3.9-10.43-5.87c-3.29-1.87-6.57-3.78-9.86-5.66
		c-2.48-1.42-4.99-2.8-7.48-4.21c-2.43-1.38-4.84-2.78-7.27-4.16c-2.55-1.44-5.11-2.85-7.65-4.3c-2.54-1.45-5.06-2.93-7.59-4.4
		c0.71-0.96,1.86-1.23,2.81-1.79c0.48-0.28,0.9,0.1,1.29,0.32c2.03,1.14,4.04,2.3,6.06,3.45c1.56,0.89,3.12,1.78,4.69,2.65
		c0.4,0.22,0.76,0.54,1.29,0.51c0.62-0.67-0.13-1.71,0.61-2.35c0.08,0.05,0.16,0.1,0.23,0.16c0.63,0.82-0.07,2.08,0.92,2.77
		c9.31,5.39,18.68,10.66,28.06,15.92c2.43,1.36,4.76,2.91,7.34,4c4.06,2.52,8.13,5.02,12.49,6.99c1.81,1.28,3.61,2.58,5.76,3.27
		c5.39,3.54,11.16,6.43,16.71,9.69c2.92,1.71,5.94,3.26,8.84,5.01c0.55,0.33,1.25,0.53,1.41,1.3
		C136.07,81.43,134.93,82.07,133.46,82.18z"/>
	<path class="st5" d="M68.26,34.56c1.31,0.79,2.6,1.6,3.93,2.35c2.54,1.44,5.12,2.82,7.66,4.27c3.23,1.84,6.44,3.72,9.66,5.57
		c1.38,0.79,2.79,1.54,4.18,2.33c4.85,2.75,9.69,5.52,14.55,8.26c3.53,1.99,7.08,3.94,10.6,5.94c4.45,2.52,8.87,5.09,13.31,7.61
		c2.54,1.44,5.11,2.84,7.66,4.26c2.32,1.29,4.63,2.6,6.96,3.88c0.55,0.3,0.53,0.68,0.3,1.15c-0.4,1.1-1.41,1.38-2.37,1.74
		c-0.19,0.03-0.37,0.03-0.56-0.01c-0.37-0.1-0.72-0.25-1.06-0.41c-8.52-4.68-16.92-9.57-25.38-14.36
		C106.35,60.71,95,54.26,83.66,47.81c-9.03-5.13-18.06-10.26-27.1-15.38c-0.59-0.34-1.14-0.69-1.35-1.39
		c-0.07-0.05-0.15-0.09-0.23-0.14c0.85-0.52,1.71-1.02,2.54-1.56c0.52-0.34,0.97-0.29,1.47,0.02c0.68,0.42,1.38,0.79,2.07,1.19
		c2.04,1.18,1.98,1.04,1.98-1.06c-0.01-3.26,0-6.51,0-9.77c0-0.53,0-1.06,0.06-1.59c0.02-0.15,0.22-0.29,0.34-0.43
		c0.71,0.69,0.58,1.59,0.59,2.44c0.03,2.99,0.09,5.99-0.02,8.98c-0.06,1.76,0.55,2.93,2.13,3.67
		C66.97,33.22,67.79,33.69,68.26,34.56z"/>
	<path class="st6" d="M148.32,172.91c1.21,0.7,2.41,1.41,3.62,2.11c0.35,0.2,0.75,0.33,1.04,0.59c1.09,1.02,0.97,1.76-0.1,2.4
		c-1.25,0.75-2.55,1.43-3.82,2.15c-3.48,1.95-6.97,3.89-10.44,5.86c-3.24,1.84-6.44,3.72-9.68,5.57c-2.42,1.38-4.87,2.73-7.3,4.11
		c-1.56,0.88-3.11,1.79-4.67,2.68c-0.12,0.07-0.24,0.13-0.35,0.2c-1.67,1.09-3.34,1.14-5.05,0.05c-0.95-0.61-1.96-1.12-2.94-1.68
		c-5.3-3.05-10.6-6.09-15.9-9.14c-5.07-2.92-10.13-5.86-15.2-8.76c-4.21-2.41-8.45-4.78-12.66-7.18c-1.5-0.85-2.99-1.74-4.48-2.61
		c-0.4-0.23-0.8-0.45-1.03-0.9c-0.2-0.4-0.24-0.78,0.06-1.11c0.36-0.39,0.77-0.73,1.16-1.09c0.46,0.21,0.59,0.71,0.92,1.04
		c2.94,2.34,6.33,3.93,9.55,5.78c12.65,7.23,25.32,14.43,37.99,21.63c0.46,0.26,0.94,0.5,1.43,0.71c1.2,0.58,2.2-0.03,3.18-0.59
		c10.3-5.91,20.69-11.67,30.97-17.6c1.54-0.89,3.33-1.52,3.31-3.76C148.01,173.15,148.14,173.01,148.32,172.91z"/>
	<path class="st7" d="M133.46,82.18c1.04-0.65,2.07-1.3,3.11-1.96c0.1,0.09,0.2,0.18,0.3,0.26c0.51,0.93,0.34,1.95,0.34,2.93
		c0.05,11.96-0.06,23.91,0.07,35.87c-0.18,10.66-0.01,21.33,0.03,31.99c0,0.67,0.18,1.32,0.28,1.98c0.05,0.44-0.16,0.73-0.54,0.92
		c-0.29,0.1-0.39,0.32-0.39,0.61c0.01,3.39,0.02,6.78,0.03,10.17c0.2,0.37,0.35,0.76,0.43,1.18c0.05,0.42,0.05,0.85,0.04,1.28
		c-0.35,2.4-1.13,3.18-3.2,3.23c-0.29-0.2-0.48-0.46-0.49-0.82c-0.02-0.4-0.02-0.8-0.02-1.2C133.45,139.81,133.45,111,133.46,82.18z
		"/>
	<path class="st8" d="M64.24,0.56c0.44,0.08,0.93-0.17,1.4,0.27c-0.45,0.59-1.16,0.84-1.71,1.29C63.62,2.37,63.28,2.58,63,2.86
		c-0.22,0.22-0.17,0.51,0.1,0.67c0.97,0.58,1.94,1.15,2.93,1.7c2.49,1.4,5,2.77,7.49,4.18c2.37,1.34,4.72,2.72,7.09,4.07
		c1.27,0.73,2.54,1.45,3.81,2.17c2.77,1.58,5.54,3.16,8.32,4.73c2.49,1.4,4.99,2.78,7.49,4.19c2.32,1.3,4.63,2.62,6.94,3.94
		c1.33,0.76,2.64,1.54,3.97,2.3c2.83,1.61,5.66,3.23,8.49,4.83c2.49,1.4,5,2.77,7.49,4.18c2.37,1.34,4.72,2.72,7.09,4.07
		c1.33,0.76,2.66,1.5,3.99,2.26c2.72,1.54,5.42,3.1,8.14,4.63c1.62,0.91,3.27,1.78,4.89,2.69c0.59,0.33,1.13,0.33,1.68-0.03
		c0.56-0.36,1.16-0.66,1.67-1.08c0.62-0.51,1.28-0.67,2.04-0.57c0.69,0.36,1.1,1.01,1.38,1.66c0.69,1.6,0.87,1.99-0.85,2.85
		c-0.89,0.44-1.63,1.33-2.62,1.37c-1,0.04-1.78-0.81-2.64-1.29c-3.38-1.86-6.73-3.78-10.08-5.69c-3.53-2-7.06-4.02-10.58-6.02
		c-4.63-2.63-9.26-5.26-13.89-7.89c-4.34-2.46-8.69-4.91-13.03-7.37c-5.79-3.28-11.58-6.56-17.37-9.84
		c-4.34-2.46-8.69-4.92-13.03-7.37c-4.35-2.45-8.7-4.89-13.04-7.36c-1.83-1.04-1.8-1.32,0.06-2.4C62.04,1.8,63.14,1.18,64.24,0.56z"
		/>
	<path class="st9" d="M144.27,81.74c0.94-0.52,1.87-1.04,2.81-1.56c0.34,0.05,0.69,0.17,0.73,0.55c0.06,0.66,0.05,1.33,0.05,1.99
		c0,19.75,0,39.5,0,59.25c0,0.73,0.01,1.46,0.01,2.19c0.97,2.03,0.92,4.06,0.06,6.1c-0.03,1.59-0.13,3.17-0.08,4.76
		c0.03,1-0.31,1.6-1.2,2.01c-0.66,0.31-1.24,0.76-1.89,1.09c-0.38,0.2-0.77,0.1-1.03-0.3c-0.24-4.46,0.31-8.91,0.33-13.36
		c0.07-20.33,0.04-40.66,0.03-60.98C144.08,82.91,143.93,82.3,144.27,81.74z"/>
	<path class="st10" d="M136.68,166.15c0-0.4,0-0.79,0.01-1.19c1.77,1.39,3.81,2.34,5.73,3.48c1.47,0.87,2.99,1.68,4.5,2.48
		c0.83,0.43,1.36,1.03,1.39,1.99c-0.04,0.05-0.08,0.11-0.12,0.16c-1.36,1.65-3.36,2.36-5.13,3.37
		c-9.76,5.58-19.56,11.12-29.34,16.68c-1.1,0.62-2.21,0.9-3.44,0.56c-5.71-3.01-11.21-6.39-16.81-9.58
		c-10.7-6.08-21.4-12.15-32.05-18.32c-0.31-0.23-0.51-0.57-0.79-0.83c-0.17-1.23,0.42-1.94,1.47-2.53
		c3.87-2.15,7.71-4.37,11.55-6.58c4.48-2.56,8.95-5.13,13.42-7.71c0.27-0.16,0.47-0.44,0.71-0.67c0.43,0.23,0.86,0.46,1.29,0.69
		c-0.02,1.46-1.33,1.71-2.24,2.22c-7.28,4.14-14.51,8.36-21.78,12.53c-1.65,0.95-1.67,1.26-0.26,2.55
		c14.49,8.44,29.11,16.63,43.62,25.02c0.52,0.3,1.05,0.57,1.6,0.81c1.2,0.71,2.19,0.01,3.15-0.54c6.2-3.6,12.47-7.05,18.69-10.62
		c3.85-2.22,7.77-4.32,11.59-6.6c0.69-0.41,2.41-0.73,1.02-2.24c-1.88-1.33-4-2.25-5.97-3.43
		C137.75,167.41,137.02,167.01,136.68,166.15z"/>
	<path class="st11" d="M144.27,81.74c0.25,0.55,0.42,1.11,0.38,1.73c-0.03,0.46-0.01,0.93-0.01,1.4c0,20.08,0,40.17,0,60.25
		c0,1.19,0.08,2.38-0.3,3.56c-0.16,0.48-0.07,1.05-0.07,1.59c-0.01,2.06,0,4.12,0,6.18c0,0.54,0.02,1.08-0.54,1.4
		c-0.12,0.03-0.21-0.01-0.26-0.13c-0.31-1.05-0.08-2.14-0.23-3.21c0.09-23.64,0.06-47.28,0.05-70.91c-0.01-0.32-0.11-0.61-0.28-0.88
		c-4.26-2.73-8.74-5.08-13.12-7.6c-6.52-3.75-13.15-7.32-19.56-11.26c-0.23-0.15-0.46-0.31-0.7-0.45c-0.17-0.08-0.33-0.17-0.49-0.25
		c-2.01-0.92-3.84-2.16-5.83-3.13c-3.75-2.3-7.64-4.36-11.43-6.6c-0.23-0.15-0.47-0.3-0.71-0.44c-0.17-0.08-0.34-0.17-0.51-0.25
		c-8.93-4.83-17.69-9.96-26.52-14.96c-2.6-1.47-5.23-2.87-7.78-4.43c-0.44-0.27-0.05,0.81-0.64,0.77c-0.32-0.07-0.66-0.17-0.68-0.56
		c-0.03-0.83-0.15-1.67,0.17-2.48c3.64,2.08,7.27,4.16,10.92,6.23c7.4,4.21,14.8,8.42,22.21,12.62c6.19,3.52,12.38,7.03,18.57,10.54
		c7.69,4.37,15.39,8.74,23.08,13.11c4.11,2.33,8.22,4.66,12.32,6.99c0.4,0.23,0.78,0.5,1.16,0.75c0.19,0.29,0.57,0.22,0.8,0.44
		L144.27,81.74z"/>
	<path class="st1" d="M147.92,150.28c-0.02-2.03-0.04-4.07-0.06-6.1c0.7,0.02,1.26,0.41,1.83,0.74c2.24,1.29,4.47,2.61,6.71,3.9
		c0.5,0.29,1,0.66,1.71,0.66c0.25-0.66,0.13-1.32,0.14-1.96c0.01-7.52,0.01-15.04,0.01-22.56c0-17.31,0-34.61,0-51.92
		c0-0.6,0.01-1.2,0.03-1.8c0.01-0.28,0.17-0.49,0.39-0.66c-0.01,0.87-0.02,1.73-0.02,2.6c0,24.9,0,49.8,0,74.7
		c0,2.26-0.02,4.53-0.01,6.79c0,0.61-0.17,1.04-0.83,1.14c-2.54-1.42-5.08-2.85-7.62-4.27C149.43,151.11,148.67,150.7,147.92,150.28
		z"/>
	<path class="st1" d="M68.26,34.56c-1.32-0.63-2.59-1.34-3.86-2.08c-0.75-0.44-0.98-0.95-0.96-1.77c0.04-2.2,0.02-4.39,0.01-6.59
		c0-2.13-0.01-4.26-0.02-6.39c1.42-0.98,3.07-1.47,4.58-2.26c0.4-0.21,0.76-0.07,1.03,0.3c-0.41,0.09-0.76,0.25-0.77,0.75
		c-0.01,0.46-0.02,0.92-0.02,1.39C68.26,23.46,68.26,29.01,68.26,34.56z"/>
	<path class="st12" d="M143.77,154.85c0.14,0.98,0.28,1.96-0.31,2.87c-0.59-0.16-1.1-0.48-1.58-0.83c-0.06-0.34,0.16-0.48,0.41-0.6
		C143.14,156.17,142.96,154.99,143.77,154.85z"/>
	<path class="st13" d="M142.32,156.51c-0.15,0.12-0.29,0.25-0.44,0.37c-0.91-0.36-1.77-0.81-2.51-1.46
		c0.06-0.29,0.24-0.47,0.51-0.59c0.68-0.07,1.19,0.3,1.72,0.65C141.92,155.77,142.35,155.98,142.32,156.51z"/>
	<path class="st14" d="M60.63,164.95c0.35-0.01,0.64,0.1,0.83,0.41c0.36,0.8,0.81,1.61-0.44,2.06c-0.47-0.31-0.34-0.83-0.45-1.27
		C60.59,165.75,60.61,165.35,60.63,164.95z"/>
	<path class="st15" d="M137.05,154.19c0.15-0.15,0.3-0.3,0.45-0.45c0.92-0.16,1.58,0.24,2.06,0.99c0,0.33-0.22,0.47-0.49,0.56
		C138.33,155.05,137.69,154.61,137.05,154.19z"/>
	<path class="st16" d="M139.07,155.29c0.14-0.12,0.29-0.24,0.43-0.36c0.16-0.08,0.27-0.03,0.33,0.13c-0.15,0.12-0.31,0.24-0.46,0.36
		C139.25,155.44,139.14,155.39,139.07,155.29z"/>
	<path class="st17" d="M41.86,36.9c3.79,2.15,7.59,4.3,11.37,6.47c0.56,0.32,1.24,0.52,1.48,1.23c0.37,0.51,0.49,1.09,0.49,1.7
		c-0.03,5.79,0.15,11.58-0.09,17.37c-0.52,1.68-0.27,3.41-0.28,5.11c-0.04,3.76-0.01,7.52-0.01,11.28c-0.01,1.39-0.01,2.77,0,4.16
		c-0.07,3.9,0.12,7.79-0.1,11.69c-0.63,3.49-0.24,7-0.25,10.5c0.06,0.18,0.15,0.35,0.27,0.5c0.72,0.68,1.55,1.2,2.44,1.62
		c0.16,0.07,0.32,0.15,0.48,0.24c0.77,0.43,1.47,0.98,2.27,1.36c0.37,0.19,0.75,0.38,1.12,0.58c0.42,0.23,0.84,0.47,1.23,0.76
		c0.19,0.13,0.38,0.27,0.59,0.39c0.28,0.15,0.57,0.28,0.86,0.4c0.16,0.06,0.3,0.14,0.45,0.21c0.75,0.41,1.42,0.94,2.21,1.27
		c0.16,0.07,0.32,0.15,0.47,0.23c0.77,0.42,1.46,0.97,2.27,1.33c0.16,0.07,0.31,0.15,0.46,0.24c0.82,0.45,1.55,1.05,2.42,1.44
		c0.38,0.19,0.76,0.37,1.14,0.56c0.84,0.42,1.57,1.04,2.44,1.4c0.16,0.07,0.32,0.15,0.47,0.24c0.78,0.43,1.48,0.98,2.29,1.34
		c0.17,0.07,0.32,0.15,0.48,0.24c0.78,0.43,1.48,0.99,2.28,1.37c0.38,0.19,0.75,0.38,1.13,0.58c0.42,0.23,0.84,0.47,1.23,0.76
		c0.19,0.13,0.38,0.27,0.59,0.39c0.28,0.15,0.57,0.28,0.86,0.4c0.16,0.06,0.3,0.14,0.45,0.21c0.75,0.41,1.42,0.94,2.22,1.27
		c0.16,0.07,0.32,0.15,0.47,0.24c0.77,0.43,1.47,0.98,2.27,1.35c0.37,0.19,0.75,0.38,1.12,0.58c0.42,0.23,0.84,0.47,1.23,0.76
		c0.19,0.13,0.38,0.27,0.59,0.38c0.28,0.15,0.57,0.28,0.86,0.4c0.15,0.06,0.3,0.14,0.45,0.21c0.75,0.41,1.42,0.94,2.21,1.27
		c0.16,0.07,0.32,0.15,0.48,0.24c0.78,0.44,1.49,1,2.31,1.37c0.39,0.2,0.78,0.39,1.15,0.61c0.54,0.39,1.09,0.77,1.71,1.04
		c0.38,0.18,0.76,0.36,1.13,0.55c0.84,0.42,1.56,1.03,2.44,1.4c0.16,0.07,0.32,0.15,0.47,0.24c0.77,0.43,1.47,0.98,2.29,1.34
		c0.17,0.07,0.32,0.15,0.48,0.24c0.78,0.43,1.48,0.99,2.28,1.37c0.38,0.19,0.75,0.38,1.13,0.58c0.42,0.23,0.84,0.47,1.23,0.76
		c0.19,0.13,0.38,0.27,0.59,0.39c0.28,0.15,0.57,0.28,0.86,0.4c0.16,0.06,0.3,0.14,0.45,0.21c0.75,0.41,1.42,0.94,2.22,1.27
		c0.16,0.07,0.32,0.15,0.47,0.24c0.77,0.43,1.47,0.98,2.27,1.35c0.37,0.19,0.75,0.38,1.12,0.58c0.42,0.23,0.84,0.47,1.23,0.76
		c0.19,0.13,0.38,0.27,0.59,0.39c0.28,0.15,0.57,0.28,0.86,0.41c0.16,0.06,0.3,0.14,0.45,0.21c0.75,0.41,1.43,0.95,2.23,1.28
		c0.17,0.07,0.32,0.15,0.48,0.24c0.98,0.66,2.09,1.13,2.95,1.98c0.18,0.07,0.31,0.19,0.4,0.35c-0.01,3.55-0.02,7.11-0.03,10.66
		c-0.15,0.32-0.41,0.64-0.74,0.48c-2.19-1.09-4.66-1.78-6.03-4.09c-0.37-2.55-0.06-5.13-0.21-7.68c0.05-0.99-0.7-1.35-1.4-1.74
		c-4.87-2.71-9.71-5.47-14.55-8.24c-1.04-0.6-1.84-0.39-2.77,0.13c-2.14,1.2-4.15,2.64-6.47,3.49c-1.47-0.2-2.93,0.03-4.39,0.03
		c-3.5-1.51-6.69-3.57-9.99-5.43c-13.98-7.88-27.94-15.8-41.92-23.69c-1.81-1.02-2.48-2.28-2.48-4.32
		c0.01-16.18,0.44-32.36,0.56-48.53c0.06-7.38,0.08-14.77,0.29-22.16C40.93,38.65,40.46,37.41,41.86,36.9z"/>
	<path class="st3" d="M90.26,148.92c0.5,0.12,0.93,0.36,1.26,0.76c0.53,0.77,0.47,1.64,0.47,2.51c0.01,3.66,0.05,7.32-0.02,10.98
		c-0.03,1.66,0.55,2.72,2.04,3.52c4.04,2.18,8.03,4.46,11.99,6.79c0.78,0.46,1.95,0.7,1.76,2.05c-1.2,1.18-2.74,1.22-4.27,1.23
		c-4.9,0.03-9.79,0.37-14.67,0.78c-0.52,0.05-1.07,0.02-1.54,0.32c-0.7,0.35-1.27-0.01-1.84-0.35c-6.81-4.06-13.79-7.83-20.59-11.91
		c-1.19-1.33-0.61-2.2,0.71-2.98c5.13-3,10.31-5.92,15.46-8.9c2.35-1.36,4.74-2.64,7.03-4.09C88.72,149.21,89.4,148.75,90.26,148.92
		z"/>
	<path class="st2" d="M41.86,36.9c-0.57,0.46-0.36,1.1-0.37,1.67c-0.05,4.26-0.05,8.53-0.1,12.79c-0.14,12.98-0.21,25.97-0.49,38.95
		c-0.15,6.79-0.18,13.58-0.27,20.37c-0.03,2.49-0.31,2.02,1.84,3.23c12.51,7.09,25.02,14.18,37.54,21.26
		c4.87,2.75,9.75,5.48,14.62,8.22c0.56,0.36,1.27,0.25,1.84,0.55c0.88,0.51,1.69,0.48,2.6-0.06c1.83-1.08,3.67-2.12,5.53-3.15
		c0.69-0.39,1.4-1.13,2.3-0.35c0.57,2.35,0.25,4.74,0.25,7.11c0,1.72,0.53,2.86,2.13,3.65c1.54,0.76,3.02,1.65,4.53,2.47
		c1.01,0.66,1.79-0.06,2.57-0.48c2.09-1.16,4.14-2.39,6.24-3.54c0.63-0.35,1.27-0.83,2-0.19c0.02,2.92,0.04,5.84,0.06,8.76
		c0.24,0.5,0.55,0.97,0.68,1.51c0.06,1.05,0.91,1.33,1.64,1.76c1.4,0.81,3.01,1.32,4.01,2.71c-0.01,0.45,0.17,0.93-0.22,1.4
		c-0.29-0.11-0.61-0.2-0.89-0.35c-2.55-1.44-5.08-2.9-7.63-4.35c-1.27-0.72-2.55-1.44-3.82-2.17c-2.78-1.58-5.55-3.16-8.33-4.73
		c-2.43-1.37-4.88-2.72-7.31-4.1c-2.78-1.57-5.55-3.16-8.33-4.73c-2.49-1.4-5-2.77-7.49-4.18c-2.37-1.34-4.73-2.72-7.09-4.07
		c-1.33-0.76-2.66-1.51-3.99-2.26c-2.72-1.54-5.43-3.1-8.15-4.64c-1.39-0.79-2.8-1.54-4.19-2.33c-3.88-2.2-7.74-4.41-11.62-6.6
		c-2.55-1.44-5.13-2.83-7.68-4.27c-1.45-0.82-2.85-1.71-4.31-2.51c-0.68-0.38-0.95-0.89-0.9-1.63c0.01-0.2-0.03-0.41,0.03-0.6
		c0.52-1.63,0.32-3.3,0.32-4.96c0.03-8.47,0.03-16.93,0.05-25.4c0-0.86,0-1.72,0.23-2.58c0.17-0.63,0.12-1.32,0.12-1.98
		c0.02-9.13,0.03-18.27,0.05-27.4c0-1.06-0.06-2.12,0.27-3.17c0.15-0.49,0.08-1.06,0.08-1.59c0.01-2.4,0.01-4.8,0.02-7.2
		c0-0.33,0.01-0.67,0.04-1c0.03-0.35,0.34-0.5,0.74-0.36C41.33,36.5,41.66,36.59,41.86,36.9z"/>
	<path class="st8" d="M107.86,175.36c-1.5-1.34-3.37-2.08-5.06-3.09c-2.72-1.63-5.51-3.16-8.27-4.73c-0.63-0.36-1.29-0.68-1.94-1.02
		c-0.77-0.41-1.15-1.01-1.14-1.92c0.05-4.97,0.06-9.95,0.08-14.92c1.41,0.46,2.59,1.36,3.86,2.08c4.36,2.43,8.7,4.9,13.05,7.37
		c0.35,0.2,0.66,0.45,0.99,0.68c0.36,0.5,0.61,1.04,0.61,1.66c0,4.58,0.24,9.16-0.13,13.74c-0.11,0.34-0.26,0.65-0.64,0.78
		c-0.47,0.11-0.87-0.03-1.22-0.34C107.98,175.54,107.92,175.45,107.86,175.36z"/>
	<path class="st18" d="M55.57,44.97c1.39,0.32,2.54,1.13,3.75,1.81c4.7,2.63,9.37,5.3,14.04,7.97c4.21,2.4,8.41,4.83,12.62,7.23
		c3.41,1.94,6.83,3.85,10.24,5.78c0.81,0.46,1.61,0.93,2.41,1.4c0.3,0.54,0.8,0.98,0.82,1.65c0.04,0.32,0.05,0.64,0.13,0.95
		c0.05,0.14,0.09,0.28,0.14,0.43c0.08,0.2,0.17,0.41,0.28,0.61c0.08,0.13,0.15,0.26,0.22,0.4c0.11,0.21,0.22,0.43,0.31,0.65
		c0.06,0.16,0.11,0.32,0.15,0.49c0.07,0.36,0.15,0.72-0.05,1.06c-1.08,0.7-1.93-0.03-2.74-0.53c-8.81-5.45-17.6-10.94-26.37-16.46
		c-4.5-2.83-9.05-5.58-13.52-8.45c-1.28-0.82-1.57-0.64-1.64,0.86c-0.05,1,0.01,1.99,0.04,2.99c0.04,0.77,0.09,1.54-0.11,2.29
		c-0.12,0.44-0.19,1.07-0.96,0.81c-0.54-1.31-0.17-2.69-0.28-4.03c0-1.97-0.02-3.94,0.01-5.9C55.07,46.28,54.84,45.49,55.57,44.97z"
		/>
	<path class="st19" d="M130.97,141c0.03,2.64,0.05,5.29,0.08,7.93c0,0.34-0.04,0.66-0.37,0.86c-1.23,0.2-1.93-0.78-2.86-1.26
		c-0.16-0.09-0.32-0.17-0.49-0.24c-0.85-0.34-1.58-0.88-2.34-1.37c-0.16-0.09-0.32-0.17-0.49-0.24c-0.9-0.43-1.76-0.93-2.6-1.47
		c-0.31-0.18-0.65-0.31-0.97-0.48c-0.83-0.36-1.5-0.99-2.32-1.39c-0.16-0.09-0.32-0.17-0.49-0.24c-0.85-0.34-1.58-0.88-2.34-1.37
		c-0.16-0.09-0.32-0.17-0.48-0.24c-0.84-0.34-1.55-0.89-2.32-1.37c-0.37-0.25-0.8-0.35-1.19-0.56c-0.38-0.22-0.81-0.39-0.92-0.9
		c-0.71-1.21-1.95-1.8-3.05-2.49c-16.85-10.56-33.73-21.08-50.58-31.66c-0.79-0.49-1.7-0.77-2.37-1.46
		c-0.11-0.17-0.19-0.36-0.24-0.55c-0.12-0.62-0.12-1.23,0.21-1.79c0.88-0.63,1.51,0.08,2.14,0.48
		c17.51,10.96,35.04,21.88,52.54,32.85c4.4,2.76,8.85,5.44,13.2,8.27c1,0.65,2.07,1.21,3.25,1.5c1.06,0.36,2.02,0.9,2.99,1.45
		c0.87,0.49,1.07,0.15,1.19-0.74C130.33,143.32,129.48,141.88,130.97,141z"/>
	<path class="st3" d="M133.96,170.65c0.29-0.13,0.58-0.28,0.88-0.4c1.3-0.52,1.95-1.44,1.83-2.86c0.21-0.19,0.45-0.31,0.71-0.17
		c2.46,1.26,5.02,2.34,7.1,4.24c0.15,0.47,0.17,0.99-0.18,1.31c-1.35,1.24-2.79,2.35-4.77,2.31c-0.82-0.4-1.69-0.27-2.54-0.2
		c-4.36,0.34-8.74,0.45-13.11,0.7c-3.24,0.18-6.48,0.48-9.74,0.42c-0.86-0.02-1.74,0.1-2.45-0.55c-0.47-0.5-0.39-1.05,0.13-1.35
		c3.81-2.22,7.37-4.92,11.64-6.3c1.67,0.92,3.33,1.84,5,2.76c0.46,0.25,0.92,0.51,1.37,0.78c1.06,0.65,2.12,0.6,3.17-0.02
		C133.35,171.13,133.65,170.87,133.96,170.65z"/>
	<path class="st20" d="M123.48,167.81c-2.28,1.32-4.57,2.62-6.82,3.98c-1.74,1.05-3.65,1.84-5.24,3.15
		c-0.03,0.06-0.06,0.12-0.09,0.19c-0.15,0.15-0.33,0.26-0.51,0.37c-0.12,0.08-0.24,0.15-0.37,0.21c-0.19,0.1-0.39,0.18-0.61,0.22
		c-0.15,0-0.28-0.05-0.38-0.17c-0.01-5.32-0.03-10.64-0.04-15.96c1.62,0.88,3.24,1.74,4.85,2.65c2.41,1.36,4.79,2.75,7.19,4.13
		C122.14,166.97,122.81,167.4,123.48,167.81z"/>
	<path class="st21" d="M130.97,141c-0.43,0.43-0.3,0.98-0.32,1.5c-0.04,1.24,0.06,2.49-0.07,3.87c-1.85-0.38-3.15-1.6-4.73-2.2
		c-0.18-0.18-0.35-0.38-0.45-0.62c-0.1-0.24-0.19-0.48-0.27-0.73c-0.13-0.5-0.22-1-0.4-1.49c-0.23-0.75-0.47-1.49-0.73-2.22
		c-0.09-0.25-0.16-0.5-0.24-0.75c-0.09-0.25-0.17-0.51-0.24-0.76c-0.14-0.53-0.25-1.07-0.45-1.58c-0.2-0.73-0.58-1.44-0.18-2.22
		c0.72-0.61,1.38-0.12,2.02,0.17c1.26,0.58,2.5,1.21,3.73,1.85c0.76,0.39,1.38,0.41,1.85-0.41c0.15-0.13,0.32-0.15,0.5-0.05
		C131.08,137.25,131.11,139.12,130.97,141z"/>
	<path class="st22" d="M110,75.73c2.04,0.83,3.85,2.08,5.77,3.14c0.72,1.13,1.18,2.39,1.68,3.62c0.29,0.92,0.6,1.84,1.01,2.71
		c0.12,0.31,0.18,0.64,0.2,0.98c0.02,0.31,0.05,0.62,0.15,0.92c0.07,0.14,0.12,0.29,0.18,0.43c0.13,0.3,0.27,0.6,0.29,0.94
		c-0.01,0.18-0.07,0.34-0.17,0.49c-1.23,0.65-2.04-0.39-3-0.78c-0.65-0.26-1.21-0.74-1.83-1.08c-0.15-0.09-0.3-0.19-0.43-0.31
		c-0.12-0.12-0.21-0.27-0.29-0.42c-0.12-0.3-0.22-0.62-0.34-0.93c-0.06-0.15-0.11-0.3-0.15-0.46c-0.09-0.3-0.2-0.6-0.34-0.89
		c-0.25-0.52-0.44-1.06-0.64-1.59c-0.07-0.15-0.12-0.31-0.17-0.47c-0.11-0.41-0.25-0.81-0.44-1.18c-0.38-0.8-0.62-1.66-1.02-2.46
		c-0.07-0.16-0.13-0.33-0.19-0.5c-0.1-0.34-0.22-0.67-0.36-0.99C109.86,76.5,109.41,76.08,110,75.73z"/>
	<path class="st23" d="M117.06,82.57c-0.56-1.19-1.3-2.31-1.29-3.7c4.81,2.71,9.62,5.42,14.42,8.14c0.17,0.1,0.3,0.25,0.46,0.38
		c0.41,0.81,0.11,1.68,0.19,2.52c-0.29,0.75-0.86,0.52-1.31,0.28c-3.94-2.05-7.68-4.44-11.58-6.56
		C117.55,83.42,117.32,82.96,117.06,82.57z"/>
	<path class="st24" d="M110,75.73c0.09,0.4,0.17,0.81,0.26,1.21c0.22,0.23,0.13,0.59,0.34,0.82c0.08,0.09,0.11,0.2,0.08,0.32
		c0.2,1.8-0.93,1.23-1.71,0.85c-1.91-0.92-3.71-2.05-5.55-3.11c-0.75-0.43-1.5-0.85-2.3-1.16c-0.16-0.07-0.31-0.16-0.45-0.27
		c-0.27-0.31-0.22-0.78-0.52-1.09c-0.1-0.11-0.21-0.23-0.31-0.34v0.01c-0.24-0.22-0.19-0.59-0.39-0.83l0.01,0.02
		c-0.29-0.24-0.25-0.62-0.39-0.92c0.01-0.73-0.61-1.32-0.47-2.08c3.59,2.02,7.18,4.04,10.76,6.07
		C109.62,75.35,109.8,75.56,110,75.73z"/>
	<path class="st25" d="M130.64,90.17c0-0.92,0-1.85,0-2.77c0.38,0.15,0.42,0.48,0.42,0.82c-0.02,3.06-0.05,6.12-0.07,9.18
		c-0.34,0.89,0,1.83-0.21,2.72c-0.85,0.69-1.49-0.01-2.11-0.38c-2.21-1.28-4.4-2.58-6.71-3.67c-1.04-1.23-1.67-2.61-1.45-4.27
		c0.88-0.74,1.62-0.13,2.33,0.28c1.93,1.13,3.9,2.2,5.8,3.39c1.06,0.66,1.56,0.5,1.5-0.83c-0.03-0.66-0.03-1.32-0.04-1.98
		C130.1,91.79,130.01,90.9,130.64,90.17z"/>
	<path class="st26" d="M90.26,148.92c-5.31,3.06-10.61,6.12-15.92,9.17c-2.94,1.69-5.91,3.35-8.84,5.05
		c-1.09,0.63-1.11,0.88-0.47,2.27c0.07,0.35,0.02,0.57-0.41,0.38c-0.3-0.13-0.65-0.21-0.89-0.41c-0.99-0.8-0.93-1.75,0.15-2.4
		s2.2-1.25,3.29-1.88c4.09-2.35,8.18-4.71,12.28-7.06c2.37-1.36,4.76-2.67,7.11-4.05c0.9-0.53,1.97-0.84,2.53-1.84
		C89.47,148.41,89.87,148.67,90.26,148.92z"/>
	<path class="st27" d="M130.98,120.55c0.1,2.93,0.12,5.86,0,8.79c-0.97-0.13-0.85-0.97-0.8-1.53c0.16-1.86-0.44-3.2-2.22-3.95
		c-0.41-0.18-0.72-0.57-1.04-0.91c-0.21-0.22-0.4-0.46-0.56-0.71c-0.73-1.43-1.11-2.98-1.62-4.49c-0.08-0.4-0.06-0.8,0.16-1.16
		c0.78-0.66,1.45-0.16,2.14,0.19c0.92,0.46,1.71,1.22,2.83,1.2c0.8,0.21,0.86,0.89,0.97,1.54
		C130.87,119.86,130.77,120.23,130.98,120.55z"/>
	<path class="st28" d="M55.57,44.97c-0.06,2.67-0.11,5.34-0.17,8.01c-0.51,2.11,0.18,4.18,0.21,6.27c0.05,3.76-0.04,7.52,0.05,11.29
		c-0.15,4.57,0.1,9.15-0.14,13.72c-0.05,0.38-0.2,0.73-0.26,1.1c-0.23,5.64,0.29,11.29-0.42,16.91c0.3,1.41,0.47,2.83,0.29,4.27
		c-0.04,0.24-0.12,0.46-0.24,0.67c-0.09,0.08-0.17,0.16-0.26,0.25c-0.12-0.07-0.25-0.15-0.37-0.22c-0.34-3.77-0.29-7.54-0.03-11.31
		c-0.05-0.32-0.15-0.64-0.15-0.95c0.03-3.35,0.08-6.69,0.12-10.04c0-0.26,0.06-0.52,0.09-0.78c0.36-1.43,0.08-2.88,0.17-4.32
		c0-4.71-0.01-9.43,0-14.14c0-0.72-0.11-1.46,0.17-2.17c-0.05-0.32-0.16-0.65-0.15-0.97c0.05-5.73,0.12-11.45,0.19-17.18
		c0-0.27,0.03-0.53,0.05-0.8C55.06,44.57,55.38,44.62,55.57,44.97z"/>
	<path class="st29" d="M130.65,119.77c-0.07-0.63-0.3-1.19-0.77-1.65c-0.16-0.09-0.28-0.22-0.38-0.38c-0.17-0.32-0.31-0.66-0.44-1
		c-0.6-1.79-1.16-3.59-1.89-5.34c-0.06-0.2-0.08-0.4-0.07-0.6c0.04-0.31,0.15-0.59,0.43-0.76c2.58,0.19,2.57,0.19,2.58-2.45
		c0-1.12-0.03-2.25-0.03-3.37c0.05-1.37-0.37-2.81,0.56-4.05c0-0.64,0.01-1.28,0.01-1.92c0-0.33,0.08-0.63,0.33-0.86
		c0.03,0.46,0.08,0.92,0.08,1.38c0,6.61-0.01,13.22-0.03,19.83c0,0.4-0.04,0.79-0.06,1.19
		C130.87,119.95,130.76,119.94,130.65,119.77z"/>
	<path class="st30" d="M127.05,122.57c0.91,0.66,1.77,1.39,2.83,1.82c0.55,0.22,0.8,0.64,0.78,1.25c-0.03,0.86,0,1.73,0,2.59
		c0,0.4,0,0.8,0.33,1.1c0.11,2.01,0.12,4.02,0,6.03c-0.11,0-0.22,0-0.32-0.01c-1.16-1.96-1.31-4.28-2.19-6.33
		c-0.07-0.17-0.12-0.34-0.16-0.52c-0.08-0.33-0.16-0.66-0.27-0.99c-0.06-0.15-0.1-0.31-0.15-0.47c-0.09-0.31-0.19-0.62-0.31-0.92
		c-0.07-0.15-0.12-0.31-0.17-0.47c-0.11-0.33-0.24-0.65-0.36-0.98C126.87,123.99,126.42,123.28,127.05,122.57z"/>
	<path class="st31" d="M131.02,164.14c-1.76-0.94-3.51-1.88-5.27-2.83c-0.23-0.13-0.42-0.32-0.64-0.48
		c-0.43-0.33-0.21-0.7-0.06-1.07c1.22-0.59,1.87,0.57,2.77,0.93c1.02,0.42,1.96,1.03,2.81,1.73c0.15,0.31,0,0.74,0.39,0.96
		C131.02,163.64,131.02,163.89,131.02,164.14z"/>
	<path class="st32" d="M130.69,162.92c-1.81-1.18-3.65-2.3-5.64-3.16c-0.35-0.48-0.51-1.01-0.37-1.61c1.75,1.3,3.74,2.21,5.59,3.34
		c0.25,0.15,0.5-0.04,0.74-0.14c0,0.52,0,1.03-0.01,1.55C130.91,163.12,130.81,163.12,130.69,162.92z"/>
	<path class="st33" d="M123.03,165.36c-0.45-0.01-0.9,0.02-1.25-0.36c-0.34-0.37-0.34-0.82-0.31-1.27c0.03-0.63,0.51-0.88,1.08-0.55
		c0.21,0.12,0.34,0.37,0.51,0.56C123.34,164.29,123.36,164.83,123.03,165.36z"/>
	<path class="st34" d="M83.87,58.16c-0.68-0.65-0.45-1.43-0.26-2.16c0.1-0.4,0.5-0.66,0.91-0.56c0.81,0.21,1.68,0.43,1.72,1.53
		c-0.11,0.13-0.24,0.18-0.41,0.15c-0.23-0.08-0.44-0.2-0.66-0.29c-0.26-0.07-0.47,0-0.67,0.18C84.27,57.39,84.23,57.87,83.87,58.16z
		"/>
	<path class="st35" d="M129.25,167.39c0.69,0.02,1.3,0.88,1.1,1.56c-0.1,0.33-0.73,0.53-1,0.3c-0.41-0.36-0.69-0.8-0.63-1.37
		C128.75,167.57,128.98,167.45,129.25,167.39z"/>
	<path class="st36" d="M127.83,168.16c-0.42-0.01-0.76-0.17-1.06-0.47c-0.69-0.71-0.64-1.06,0.25-1.92c0.35,0.19,0.62,0.47,0.83,0.8
		v-0.01C128.13,167.1,128.16,167.63,127.83,168.16z"/>
	<path class="st37" d="M125.43,166.57c-0.26-0.02-0.54,0.02-0.77-0.07c-0.65-0.26-0.9-0.71-0.75-1.38c0.13-0.62,0.66-0.51,1.1-0.54
		C125.44,165.18,125.95,165.76,125.43,166.57z"/>
	<path class="st38" d="M120.65,162.6c-0.04,0.44,0.1,0.99-0.54,1.09c-0.52,0.09-0.91-0.27-1.03-0.94c-0.06-0.32-0.02-0.65-0.02-0.98
		C120,161.27,120.22,162.13,120.65,162.6z"/>
	<path class="st39" d="M127.82,148.27c0.95,0.51,1.91,1.02,2.86,1.52c0.01,0.13,0,0.26-0.02,0.38c0.1,0.08,0.13,0.15,0.1,0.23
		c-0.03,0.08-0.06,0.11-0.1,0.11c-1.18-0.49-2.3-1.07-3.29-1.89C127.41,148.37,127.65,148.36,127.82,148.27z"/>
	<path class="st40" d="M85.83,56.96c0.14,0,0.27,0.01,0.4,0.01c-0.07,0.69,0.29,1.47-0.4,2.03c-0.07-0.06-0.13-0.13-0.2-0.19
		c-0.26-0.6-0.44-1.21-0.27-1.87C85.53,56.81,85.69,56.82,85.83,56.96z"/>
	<path class="st41" d="M125.43,166.57c0.14-0.72-0.32-1.32-0.42-2C126.01,165.33,126.07,165.6,125.43,166.57z"/>
	<path class="st42" d="M120.65,162.6c-0.54-0.26-0.88-0.9-1.59-0.83C120.01,161.19,120.31,161.34,120.65,162.6z"/>
	<path class="st43" d="M83.87,58.16c0.04-0.55-0.24-1.18,0.4-1.58c0.07,0.06,0.14,0.12,0.21,0.19c0.29,0.49,0.5,1,0.35,1.59
		c-0.06,0.07-0.12,0.15-0.17,0.22C84.39,58.44,84.13,58.3,83.87,58.16z"/>
	<path class="st44" d="M123.03,165.36c0.01-0.54,0.02-1.08,0.02-1.61C123.59,164.55,123.59,164.62,123.03,165.36z"/>
	<path class="st45" d="M127.83,168.16c0.01-0.53,0.01-1.06,0.02-1.59C128.39,167.34,128.39,167.42,127.83,168.16z"/>
	<path class="st46" d="M127.85,166.57c-0.39-0.15-0.65-0.43-0.83-0.8C127.56,165.77,127.84,166.04,127.85,166.57z"/>
	<path class="st30" d="M130.65,119.77c0.11,0,0.23,0.01,0.34,0.02c0,0.26,0,0.51,0,0.77C130.7,120.37,130.65,120.08,130.65,119.77z"
		/>
	<path class="st47" d="M85.84,59.01c-0.29,0.4-0.55,0.35-0.78-0.05c0.05-0.05,0.1-0.1,0.15-0.15c0.21-0.09,0.41-0.07,0.6,0.07
		L85.84,59.01z"/>
	<path class="st2" d="M130.69,162.92c0.1,0,0.2,0,0.31-0.01c0.01,0.16,0.01,0.32,0.02,0.47
		C130.84,163.28,130.22,163.49,130.69,162.92z"/>
	<path class="st48" d="M85.06,58.96c-0.13-0.13-0.27-0.25-0.4-0.38l0.05-0.06c0.29-0.03,0.42,0.1,0.4,0.38L85.06,58.96z"/>
	<path class="st49" d="M130.66,150.51c0.02-0.11,0.01-0.23,0-0.34c0.25,0.09,0.3,0.31,0.38,0.53
		C130.91,150.64,130.78,150.57,130.66,150.51z"/>
	<path class="st50" d="M110.04,63.26c10.48,5.97,20.97,11.95,31.46,17.92c0.63,0.36,1.29,0.67,1.93,1c0.16,0.16,0.23,0.35,0.21,0.57
		c-0.02,0.84,0.05,1.68-0.04,2.52c-0.61,0.66-1.24,0.28-1.77-0.05c-1.62-0.99-3.34-1.81-4.85-2.98c-0.33-0.63,0.13-1.39-0.33-2.01
		l-0.09-0.02c-0.07-0.29-0.3-0.41-0.54-0.54c-5.4-3.04-10.79-6.09-16.19-9.14c-3.02-1.7-6.02-3.43-9.05-5.11
		c-0.55-0.3-0.92-0.74-1.3-1.19c-0.41-0.41-0.93-0.81-0.2-1.39c0.22,0.12,0.44,0.23,0.66,0.35L110.04,63.26z"/>
	<path class="st51" d="M55.71,34.1c0.07-0.45-0.08-0.94,0.29-1.34c0.67,0.1,1.2,0.52,1.77,0.84c10.31,5.85,20.62,11.7,30.92,17.56
		c0.8,0.46,1.58,0.95,2.37,1.43c0.4,0.49,0.91,0.94,0.63,1.69c-0.69-0.03-1.27-0.38-1.85-0.7c-2.38-1.33-4.76-2.67-7.13-4.01
		c-2.6-1.48-5.2-2.97-7.8-4.44c-4.68-2.66-9.37-5.33-14.05-7.98c-1.45-0.82-2.91-1.61-4.35-2.44C56.22,34.53,55.98,34.3,55.71,34.1z
		"/>
	<path class="st52" d="M91.69,54.27c-0.21-0.56-0.42-1.13-0.63-1.69c0.19,0.05,0.37,0.09,0.56,0.14l0.06,0.04
		c3.41,1.95,6.83,3.88,10.23,5.84c0.57,0.33,1.21,0.57,1.65,1.1c0.32,0.41,0.79,0.76,0.51,1.39c-0.24,0.15-0.48,0.2-0.74,0.06
		c-0.88-0.47-1.77-0.93-2.64-1.42c-2.55-1.44-5.09-2.9-7.64-4.35C92.53,55.09,91.98,54.84,91.69,54.27z"/>
	<path class="st53" d="M104.07,61.09c-0.17-0.46-0.34-0.93-0.51-1.39c1.05,0.35,1.95,1,2.9,1.54s1.89,1.08,2.83,1.61
		c-0.28,0.51,0.19,0.92,0.2,1.39c-0.16,0.15-0.36,0.19-0.54,0.08c-1.39-0.76-2.8-1.51-4.16-2.32
		C104.48,61.82,104.31,61.41,104.07,61.09z"/>
	<path class="st54" d="M144.26,81.76c-0.35,0-0.65-0.08-0.8-0.44C143.79,81.36,144.07,81.48,144.26,81.76z"/>
	<path class="st8" d="M61.02,167.42c0.69-0.57,0.33-1.37,0.44-2.06c3.02,1.53,5.9,3.29,8.83,4.99c2.18,1.26,4.38,2.49,6.57,3.74
		c2.47,1.41,4.94,2.84,7.41,4.26c2.25,1.28,4.5,2.54,6.75,3.82c2.42,1.38,4.82,2.78,7.24,4.17c2.13,1.22,4.29,2.39,6.39,3.65
		c1.87,1.13,3.87,2.03,5.61,3.37c0.57,0.8,0.71,1.61,0,2.41c-1.58-0.86-3.16-1.71-4.72-2.59c-2.72-1.53-5.43-3.09-8.15-4.64
		c-2.37-1.35-4.72-2.72-7.09-4.08c-2.25-1.29-4.51-2.56-6.76-3.85c-2.72-1.54-5.43-3.09-8.15-4.64c-2.26-1.28-4.53-2.53-6.78-3.83
		c-2.3-1.33-4.59-2.69-6.87-4.05C61.46,167.93,61.26,167.65,61.02,167.42z"/>
	<path class="st20" d="M110.25,195.76c0-0.8,0-1.61,0-2.41c1.3,0.17,2.43-0.17,3.58-0.86c3.42-2.04,6.93-3.95,10.4-5.92
		c4.57-2.59,9.13-5.19,13.69-7.79c3.12-1.77,6.24-3.55,9.36-5.32c0.29-0.16,0.6-0.27,0.91-0.4c0.13,2.56,0.39,2.36-2.02,3.73
		c-4.73,2.7-9.46,5.4-14.2,8.08c-4.45,2.52-8.91,5.02-13.37,7.54c-1.91,1.08-3.81,2.17-5.72,3.25
		C112.02,196.17,111.15,196.36,110.25,195.76z"/>
	<path class="st55" d="M139.83,155.06c-0.09-0.09-0.2-0.13-0.33-0.13c-0.58-0.55-1.29-0.88-2.01-1.2c-0.46-0.38-0.97-0.7-0.86-1.44
		c0.05-0.32,0.01-0.66,0.01-0.99c0-10.03,0.01-20.06,0.02-30.09c0-0.6,0.06-1.19,0.09-1.79c1.39,0.78,0.7,2.12,0.87,3.23
		c0.05,1.58,0.05,3.16,0.02,4.73c0.01,2.07,0.07,4.13-0.02,6.2c0.07,2.64-0.26,5.32,0.74,7.87c0.97,3.85,2.17,7.63,3.18,11.47
		c0.25,0.94,0.71,1.9-0.09,2.82C140.92,155.52,140.37,155.29,139.83,155.06z"/>
	<path class="st56" d="M137.05,122.57c-0.01-0.76-0.01-1.52-0.02-2.27c0-0.32-0.05-0.63-0.29-0.87c-0.02-1.13-0.07-2.26-0.07-3.39
		c-0.01-11.33-0.01-22.66-0.01-33.99c0-0.6-0.01-1.2-0.02-1.8c0.34,0.16,0.37,0.47,0.38,0.79c0.01,0.38,0.04,0.75,0.06,1.13
		c0.72,0.97,0.53,2.09,0.53,3.17c0.01,1.08,0.06,2.16,0.01,3.25c-0.01,1.33,0.05,2.66,0,3.99c-0.01,1.46,0.07,2.92-0.01,4.39
		c0.03,1.59,0.07,3.18,0,4.77c0.03,1.58,0.07,3.16,0,4.74c0.03,1.07,0.03,2.14,0.02,3.21c-0.05,1.25,0.02,2.5-0.02,3.75
		c-0.46,2.61,0.37,4.4,2.99,5.41c1.15,0.44,2.5,0.95,3.02,2.35c0.01,1.31,0.02,2.61,0,3.92c-0.36,0.8-1.01,0.54-1.47,0.27
		C140.48,124.41,138.64,123.72,137.05,122.57z"/>
	<path class="st4" d="M144.22,171.41c-1.97-1.14-3.94-2.28-5.93-3.4c-0.5-0.28-0.99-0.64-1.62-0.62c0-0.41,0.01-0.82,0.01-1.24
		c1.78,1.03,3.54,2.08,5.33,3.09c0.92,0.52,1.88,0.99,2.68,1.69C144.64,171.19,144.48,171.35,144.22,171.41z"/>
	<path class="st26" d="M144.22,171.41c0.16-0.16,0.32-0.32,0.48-0.47c0.33,0.07,0.64,0.18,0.86,0.46c0.33,0.43,0.37,0.93,0.02,1.26
		c-0.33,0.32-0.71,0.6-1.1,0.83c-2.41,1.4-4.82,2.8-7.24,4.18c-3.69,2.1-7.38,4.2-11.07,6.29c-3.46,1.96-6.93,3.91-10.4,5.86
		c-1.16,0.65-2.31,1.3-3.47,1.95c-0.82,0.46-1.63,0.55-2.43-0.01c-0.13-0.35,0.09-0.52,0.34-0.67c1.89-0.52,3.44-1.71,5.16-2.56
		c0.29-0.14,0.59-0.26,0.87-0.42c0.12-0.09,0.25-0.17,0.38-0.26c0.12-0.1,0.25-0.18,0.38-0.26s0.27-0.15,0.41-0.23
		c0.14-0.08,0.28-0.16,0.42-0.24c0.14-0.09,0.29-0.17,0.44-0.25c1.51-0.92,3.09-1.73,4.59-2.67c1.29-0.63,2.54-1.32,3.76-2.07
		c0.29-0.16,0.6-0.29,0.9-0.43c0.14-0.08,0.28-0.15,0.43-0.22c0.21-0.12,0.42-0.25,0.62-0.39c0.13-0.11,0.27-0.21,0.42-0.31
		c1.75-0.96,3.45-2.02,5.23-2.92c1.91-0.91,3.51-2.45,5.67-2.87c1.3-0.46,2.42-1.27,3.63-1.91
		C144.13,172.72,144.36,172.13,144.22,171.41z"/>
	<path class="st57" d="M110.33,191.33c-0.16,0.14-0.31,0.28-0.47,0.42c-1.52-0.82-3.05-1.62-4.55-2.47
		c-4.56-2.6-9.11-5.21-13.65-7.82c-5.12-2.94-10.24-5.9-15.36-8.84c-3.63-2.08-7.26-4.16-10.88-6.25c-0.28-0.16-0.53-0.38-0.8-0.58
		c0.14-0.13,0.27-0.25,0.41-0.38c2.26,1.26,4.53,2.5,6.78,3.79c3.23,1.84,6.44,3.71,9.66,5.57c1.32,0.76,2.64,1.54,3.96,2.3
		c0.52,0.3,1.01,0.65,1.62,0.73c1.68,0.3,2.95,1.44,4.4,2.2c0.15,0.08,0.29,0.18,0.43,0.27c0.21,0.13,0.41,0.25,0.63,0.37
		c0.15,0.07,0.29,0.15,0.43,0.23c0.22,0.11,0.44,0.23,0.66,0.35c0.73,0.45,1.46,0.88,2.24,1.24c0.16,0.07,0.3,0.16,0.45,0.25
		c0.14,0.09,0.28,0.19,0.41,0.29c0.07,0.05,0.13,0.1,0.2,0.15c0.28,0.19,0.59,0.34,0.9,0.49c1.15,0.53,2.15,1.31,3.31,1.83
		c1.19,0.73,2.41,1.42,3.63,2.1c0.13,0.08,0.26,0.18,0.38,0.28c0.18,0.13,0.36,0.27,0.55,0.38c0.13,0.06,0.25,0.13,0.37,0.2
		c0.12,0.06,0.25,0.13,0.37,0.19c0.13,0.06,0.25,0.12,0.37,0.19c0.19,0.1,0.38,0.19,0.57,0.29c0.14,0.06,0.27,0.14,0.4,0.22
		c0.2,0.13,0.41,0.27,0.62,0.39C109.01,190.23,110.13,190.21,110.33,191.33z"/>
	<path class="st58" d="M143.37,125.36c0-1.48,0-2.95,0-4.43c-0.69-1.25-0.49-2.61-0.5-3.94c0.03-1.33-0.06-2.66,0.02-3.98
		c-0.01-1.09-0.06-2.18-0.02-3.27c0.03-1.58-0.08-3.17,0.01-4.75c-0.03-1.59-0.07-3.18,0-4.77c-0.02-1.46-0.07-2.93,0-4.39
		c-0.02-1.45-0.06-2.91,0-4.36c-0.03-0.96-0.04-1.93,0-2.9c0.01-1.09-0.21-2.22,0.51-3.19c0.05-0.93,0.1-1.87,0.16-2.8l0.16-0.11
		l0.12,0.15c-0.03,10.51-0.06,21.02-0.08,31.53c-0.02,12.84-0.04,25.68-0.05,38.52c0,0.73,0.05,1.46,0.08,2.19
		c-0.06,0.5-0.11,0.99-0.17,1.49c-0.06,0.53-0.15,0.58-0.76,0.38c-0.18-0.06-0.35-0.13-0.53-0.2c-0.29-0.25-0.57-0.51-0.86-0.76
		c0.03-0.87-0.1-1.7-0.37-2.54c-0.51-1.57-0.88-3.18-1.33-4.78c-0.63-2.23-1.27-4.45-1.9-6.67c1.39-0.81,2.4,0.23,3.44,0.8
		c1.23,0.67,1.65,0.41,1.62-0.95c-0.03-1.92-0.01-3.83-0.03-5.75c-0.05-1.78-0.06-3.56-0.01-5.34
		C142.96,128.79,142.42,127,143.37,125.36z"/>
	<polygon class="st53" points="110.04,63.26 109.95,63.3 109.95,63.2 110.04,63.15 	"/>
	<polygon class="st51" points="91.67,52.76 91.59,52.81 91.62,52.72 91.7,52.68 	"/>
	<path class="st54" d="M143.82,82.61l-0.13-0.05l-0.14,0.01c-0.03-0.13-0.07-0.25-0.11-0.38C143.65,82.24,143.78,82.38,143.82,82.61
		z"/>
	<path class="st59" d="M106.64,140.19c-2.48,1.38-5.02,2.67-7.43,4.18c-1.18,0.74-2.05,0.69-3.01-0.17c0.73-0.99,1.97-0.3,2.83-0.85
		c2.29-1.34,4.6-2.66,6.88-4.02c0.65-0.39,1.22-0.36,1.86,0.01c3.34,1.93,6.69,3.84,10.05,5.74c1.74,0.98,3.49,1.93,5.23,2.91
		c0.62,0.35,1.39,0.55,1.56,1.4c-0.32,0.04-0.69-0.02-0.96,0.13c-2.01,1.12-3.99,2.28-5.99,3.42c-0.91,0.52-1.84,1.02-2.78,1.5
		c-0.39,0.2-0.77,0.09-1.05-0.27c-0.01-1.1,0.96-1.32,1.65-1.72c2-1.16,4.03-2.27,6.12-3.55
		C116.67,145.75,111.46,143.31,106.64,140.19z"/>
	<path class="st60" d="M54.63,63.54c0.01,5.54,0.01,11.09,0.02,16.63c-0.11,0.18-0.22,0.17-0.33,0c0-2.78-0.01-5.55,0-8.33
		c0.01-2.32,0.06-4.63,0.09-6.95C54.42,64.43,54.36,63.96,54.63,63.54z"/>
	<path class="st61" d="M54.23,95.94c0.01,3.77,0.02,7.54,0.03,11.31c-0.12-0.15-0.34-0.29-0.34-0.44c0.03-3.5,0.09-7.01,0.15-10.51
		C54.07,96.18,54.17,96.06,54.23,95.94z"/>
	<path class="st62" d="M99.04,143.35c-0.81,0.74-1.82,0.8-2.83,0.85c-0.59-0.15-1.16-0.33-1.57-0.81c0.26-0.03,0.55,0.01,0.78-0.09
		c0.96-0.41,1.89-0.43,2.85-0.01C98.49,143.39,98.78,143.33,99.04,143.35z"/>
	<path class="st63" d="M59.87,110.49c-0.91-0.35-1.77-0.81-2.5-1.46c0.06-0.3,0.25-0.48,0.52-0.59c1.1,0.05,1.89,0.59,2.47,1.5
		C60.37,110.26,60.17,110.42,59.87,110.49z"/>
	<path class="st64" d="M118.62,143.06c0.92,0.34,1.75,0.82,2.5,1.46c-0.03,0.27-0.25,0.3-0.44,0.37c-0.91-0.36-1.76-0.81-2.5-1.46
		C118.21,143.17,118.45,143.16,118.62,143.06z"/>
	<path class="st65" d="M111.08,138.56c0.28,0.25,0.56,0.5,0.84,0.75c-0.03,0.27-0.25,0.3-0.44,0.37c-0.91-0.35-1.76-0.81-2.5-1.46
		c0.04-0.24,0.19-0.39,0.38-0.52c0.13-0.06,0.28-0.09,0.42-0.09c0.21,0.04,0.41,0.13,0.6,0.22c0.13,0.06,0.25,0.13,0.37,0.2
		c0.12,0.08,0.21,0.19,0.28,0.31C111.05,138.42,111.06,138.49,111.08,138.56z"/>
	<path class="st64" d="M90.27,127.69c-0.91-0.35-1.76-0.81-2.5-1.46c0.06-0.3,0.25-0.48,0.52-0.59c1.1,0.05,1.89,0.59,2.47,1.5
		C90.77,127.46,90.57,127.62,90.27,127.69z"/>
	<path class="st13" d="M81.07,122.48c-0.91-0.36-1.76-0.81-2.5-1.46c0.06-0.29,0.25-0.48,0.52-0.59c1.09,0.05,1.89,0.59,2.46,1.5
		C81.57,122.26,81.37,122.42,81.07,122.48z"/>
	<path class="st66" d="M71.88,117.28c-0.91-0.35-1.76-0.81-2.5-1.46c0.06-0.3,0.25-0.48,0.52-0.59c1.09,0.05,1.89,0.59,2.46,1.5
		C72.37,117.06,72.17,117.22,71.88,117.28z"/>
	<path class="st67" d="M78.27,120.89c-0.92-0.35-1.77-0.81-2.51-1.46c0.06-0.3,0.25-0.48,0.52-0.59c1.03,0.16,1.87,0.64,2.48,1.49
		C78.76,120.66,78.54,120.79,78.27,120.89z"/>
	<path class="st68" d="M96.67,131.3c-0.92-0.35-1.77-0.81-2.51-1.46c0.06-0.3,0.25-0.48,0.52-0.59c1.03,0.15,1.88,0.63,2.48,1.49
		C97.17,131.07,96.94,131.2,96.67,131.3z"/>
	<path class="st69" d="M69.07,115.69c-0.92-0.35-1.77-0.81-2.51-1.46c0.06-0.29,0.25-0.48,0.52-0.59c1.02,0.17,1.86,0.64,2.48,1.49
		C69.56,115.46,69.34,115.59,69.07,115.69z"/>
	<path class="st68" d="M66.27,114.1c-0.92-0.35-1.77-0.81-2.51-1.46c0.06-0.3,0.25-0.48,0.52-0.59c1.04,0.15,1.87,0.63,2.49,1.49
		C66.76,113.86,66.53,113.99,66.27,114.1z"/>
	<path class="st70" d="M87.47,126.09c-0.92-0.35-1.77-0.81-2.51-1.46c0.06-0.3,0.25-0.48,0.52-0.59c1.03,0.15,1.87,0.63,2.49,1.49
		C87.96,125.86,87.73,125.99,87.47,126.09z"/>
	<path class="st68" d="M125.01,146.67c0.89,0.38,1.76,0.81,2.49,1.46c-0.04,0.24-0.28,0.26-0.44,0.37
		c-0.92-0.35-1.77-0.81-2.51-1.46C124.59,146.76,124.84,146.76,125.01,146.67z"/>
	<path class="st71" d="M75.47,119.3c-0.92-0.35-1.77-0.82-2.52-1.47c0.06-0.3,0.25-0.48,0.52-0.59c1.04,0.15,1.88,0.63,2.49,1.49
		C75.96,119.06,75.73,119.19,75.47,119.3z"/>
	<path class="st67" d="M57.07,108.9c-0.9-0.34-1.73-0.79-2.44-1.43c-0.05-0.08-0.05-0.16,0.02-0.23c0.14-0.1,0.26-0.22,0.36-0.36
		c0.17-0.05,0.34-0.05,0.51-0.01c0.75,0.41,1.61,0.67,2.07,1.49C57.54,108.66,57.32,108.79,57.07,108.9z"/>
	<path class="st69" d="M99.47,132.89c-0.91-0.35-1.77-0.81-2.51-1.46c0.12-0.25,0.3-0.44,0.54-0.58c1.01,0.17,1.85,0.64,2.45,1.49
		C99.96,132.67,99.77,132.82,99.47,132.89z"/>
	<path class="st72" d="M105.87,136.5c-0.92-0.35-1.77-0.82-2.52-1.46c0.04-0.25,0.2-0.41,0.4-0.53c0.14-0.06,0.29-0.09,0.44-0.08
		c0.14,0.04,0.27,0.1,0.39,0.19c0.06,0.04,0.11,0.09,0.17,0.13c0.17,0.12,0.34,0.23,0.52,0.33c0.12,0.06,0.24,0.13,0.36,0.2
		c0.18,0.1,0.37,0.2,0.54,0.31c0.12,0.09,0.19,0.21,0.23,0.35c0,0.15-0.06,0.28-0.15,0.39C106.13,136.37,105.99,136.43,105.87,136.5
		z"/>
	<path class="st67" d="M108.67,138.09c-0.92-0.35-1.77-0.81-2.51-1.46c0.08-0.22,0.26-0.36,0.42-0.53c0.14-0.07,0.28-0.09,0.43-0.08
		c0.14,0.04,0.27,0.11,0.39,0.19c0.06,0.04,0.11,0.09,0.17,0.13c0.17,0.12,0.34,0.23,0.52,0.33c0.12,0.06,0.24,0.13,0.36,0.19
		c0.19,0.1,0.37,0.19,0.55,0.31c0.12,0.09,0.2,0.21,0.24,0.35c0,0.15-0.06,0.28-0.17,0.38C108.93,137.96,108.8,138.03,108.67,138.09
		z"/>
	<path class="st70" d="M115.81,141.47c0.89,0.38,1.76,0.8,2.49,1.46c-0.04,0.25-0.28,0.26-0.44,0.37c-0.92-0.35-1.77-0.81-2.51-1.46
		C115.39,141.57,115.64,141.56,115.81,141.47z"/>
	<path class="st73" d="M84.66,124.49c-0.33-0.14-0.66-0.27-0.98-0.41l-0.12-0.09c-0.47-0.32-0.94-0.65-1.42-0.97
		c0.07-0.29,0.25-0.48,0.53-0.59c1.03,0.16,1.87,0.63,2.49,1.49C85.16,124.26,84.93,124.39,84.66,124.49z"/>
	<path class="st74" d="M121.86,144.95c1.03,0.38,1.97,0.91,2.83,1.6c-0.1,0.17-0.23,0.29-0.42,0.34c-0.33-0.14-0.66-0.27-0.99-0.41
		l-0.11-0.08c-0.45-0.31-0.9-0.62-1.35-0.93C121.66,145.28,121.67,145.11,121.86,144.95z"/>
	<path class="st74" d="M92.76,129.2c-0.45-0.31-0.9-0.62-1.34-0.93c-0.1-0.11-0.14-0.22-0.12-0.33c0.02-0.12,0.04-0.18,0.07-0.18
		c1.29-0.22,2.18,0.43,2.98,1.33c0.04,0.36-0.2,0.5-0.48,0.61c-0.33-0.14-0.66-0.27-0.98-0.41C92.88,129.29,92.76,129.2,92.76,129.2
		z"/>
	<path class="st75" d="M63.46,112.5c-0.33-0.14-0.66-0.27-0.99-0.41l-0.11-0.08c-0.45-0.31-0.9-0.62-1.35-0.93
		c-0.1-0.11-0.14-0.22-0.12-0.33c0.02-0.12,0.04-0.18,0.07-0.18c1.29-0.22,2.18,0.43,2.98,1.32
		C63.98,112.25,63.75,112.39,63.46,112.5z"/>
	<path class="st74" d="M113.01,139.9c0.88,0.39,1.74,0.8,2.47,1.45c-0.09,0.17-0.24,0.28-0.42,0.34c-0.33-0.14-0.66-0.27-0.98-0.41
		l-0.11-0.09c-0.47-0.32-0.94-0.64-1.41-0.97C112.59,139.95,112.81,139.94,113.01,139.9z"/>
	<path class="st76" d="M54.32,80.17c0.11,0,0.22,0,0.33,0c0,0.98,0,1.95,0,2.93c0,0.4-0.03,0.78-0.36,1.06
		C54.16,82.83,54.17,81.5,54.32,80.17z"/>
	<path class="st77" d="M102.28,134.48c-0.65-0.23-1.27-0.49-1.74-1.03c0.02-0.26,0.18-0.44,0.38-0.58c0.15-0.07,0.3-0.09,0.46-0.08
		c0.15,0.04,0.29,0.11,0.42,0.2c0.06,0.04,0.12,0.09,0.18,0.13c0.18,0.13,0.37,0.26,0.55,0.39c0.12,0.09,0.21,0.21,0.27,0.36
		c0.01,0.15-0.02,0.3-0.11,0.43C102.57,134.39,102.43,134.45,102.28,134.48z"/>
	<path class="st78" d="M73.43,117.5c-0.16,0.11-0.32,0.23-0.48,0.34c-0.43-0.04-0.74-0.33-1.08-0.55c0.15-0.12,0.3-0.25,0.45-0.37
		C72.93,116.65,73.3,116.84,73.43,117.5z"/>
	<path class="st78" d="M113.01,139.9c-0.15,0.11-0.31,0.21-0.46,0.32c-0.44-0.03-0.74-0.32-1.08-0.55c0.15-0.12,0.3-0.25,0.44-0.37
		C112.28,139.51,112.65,139.71,113.01,139.9z"/>
	<path class="st78" d="M102.28,134.48c0.15-0.13,0.3-0.25,0.45-0.38c0.12-0.1,0.26-0.16,0.42-0.18c0.16,0.01,0.3,0.06,0.44,0.15
		c0.12,0.1,0.21,0.23,0.26,0.38c-0.01,0.08-0.01,0.15-0.02,0.23c-0.16,0.12-0.31,0.23-0.47,0.35
		C102.92,134.99,102.62,134.7,102.28,134.48z"/>
	<path class="st79" d="M101.03,133.1c-0.17,0.12-0.33,0.23-0.5,0.35c-0.36-0.19-0.71-0.38-1.07-0.56c0.15-0.12,0.29-0.25,0.44-0.37
		C100.53,132.24,100.9,132.44,101.03,133.1z"/>
	<path class="st12" d="M82.64,122.72c-0.16,0.1-0.32,0.2-0.49,0.31c-0.44-0.02-0.74-0.32-1.08-0.54c0.15-0.12,0.3-0.25,0.45-0.37
		C82.14,121.85,82.52,122.04,82.64,122.72z"/>
	<path class="st80" d="M91.46,127.75c-0.01,0.17-0.03,0.35-0.04,0.52c-0.46-0.05-0.79-0.34-1.14-0.59c0.15-0.12,0.3-0.25,0.44-0.37
		C91.15,127.14,91.47,127.16,91.46,127.75z"/>
	<path class="st81" d="M121.86,144.95c-0.01,0.17-0.03,0.35-0.04,0.52c-0.46-0.05-0.79-0.34-1.15-0.59
		c0.15-0.12,0.29-0.25,0.44-0.37C121.42,144.57,121.66,144.71,121.86,144.95z"/>
	<path class="st80" d="M61.06,110.55c-0.01,0.17-0.03,0.35-0.04,0.52c-0.46-0.05-0.79-0.34-1.14-0.59c0.15-0.12,0.29-0.25,0.44-0.37
		C60.75,109.94,61.07,109.95,61.06,110.55z"/>
	<path class="st61" d="M66.27,114.1c0.15-0.12,0.29-0.25,0.44-0.37c0.16-0.08,0.27-0.03,0.33,0.14c-0.16,0.12-0.31,0.24-0.47,0.36
		C66.44,114.24,66.34,114.2,66.27,114.1z"/>
	<path class="st79" d="M69.07,115.69c0.15-0.12,0.29-0.25,0.44-0.37c0.15-0.07,0.26-0.03,0.32,0.13c-0.15,0.12-0.3,0.25-0.46,0.37
		C69.25,115.84,69.15,115.79,69.07,115.69z"/>
	<path class="st16" d="M75.47,119.3c0.14-0.12,0.29-0.24,0.43-0.36c0.16-0.08,0.28-0.04,0.33,0.14c-0.16,0.12-0.31,0.24-0.47,0.36
		C75.64,119.45,75.54,119.4,75.47,119.3z"/>
	<path class="st61" d="M78.27,120.89c0.15-0.12,0.29-0.25,0.44-0.37c0.16-0.08,0.26-0.02,0.32,0.14c-0.15,0.12-0.31,0.24-0.46,0.36
		C78.45,121.04,78.35,120.99,78.27,120.89z"/>
	<path class="st61" d="M57.07,108.9c0.15-0.12,0.29-0.25,0.44-0.37c0.16-0.07,0.27-0.03,0.32,0.14c-0.15,0.12-0.31,0.24-0.46,0.36
		C57.24,109.04,57.14,109,57.07,108.9z"/>
	<path class="st82" d="M84.66,124.49c0.14-0.11,0.28-0.23,0.42-0.34c0.16-0.09,0.28-0.05,0.34,0.13c-0.16,0.12-0.32,0.24-0.47,0.35
		C84.83,124.65,84.73,124.6,84.66,124.49z"/>
	<path class="st61" d="M87.47,126.09c0.15-0.12,0.29-0.25,0.44-0.37c0.16-0.07,0.27-0.03,0.32,0.14c-0.15,0.12-0.31,0.24-0.46,0.36
		C87.64,126.24,87.54,126.2,87.47,126.09z"/>
	<path class="st16" d="M93.86,129.69c0.14-0.11,0.28-0.23,0.42-0.34c0.17-0.1,0.28-0.05,0.34,0.13c-0.16,0.12-0.32,0.23-0.48,0.35
		C94.03,129.85,93.93,129.81,93.86,129.69z"/>
	<path class="st16" d="M97.43,131.07c-0.16,0.12-0.31,0.24-0.47,0.36c-0.12,0.02-0.22-0.03-0.3-0.13c0.15-0.12,0.29-0.25,0.44-0.37
		C97.27,130.85,97.38,130.89,97.43,131.07z"/>
	<path class="st16" d="M106.62,136.27c-0.15,0.12-0.31,0.24-0.46,0.36c-0.12,0.02-0.22-0.03-0.29-0.13
		c0.14-0.12,0.29-0.24,0.43-0.36c0.07-0.03,0.15-0.05,0.22-0.08C106.55,136.13,106.59,136.2,106.62,136.27z"/>
	<path class="st80" d="M108.67,138.09c0.15-0.12,0.29-0.25,0.44-0.37c0.07-0.02,0.14-0.05,0.21-0.07c0.03,0.07,0.07,0.13,0.1,0.2
		c-0.15,0.12-0.3,0.25-0.45,0.37C108.85,138.24,108.75,138.19,108.67,138.09z"/>
	<path class="st16" d="M115.06,141.69c0.14-0.11,0.28-0.23,0.42-0.34c0.13-0.01,0.24,0.03,0.33,0.12c-0.15,0.12-0.3,0.24-0.46,0.36
		C115.23,141.85,115.13,141.8,115.06,141.69z"/>
	<path class="st82" d="M63.46,112.5c0.14-0.11,0.28-0.23,0.42-0.34c0.17-0.09,0.28-0.06,0.34,0.13c-0.16,0.12-0.32,0.23-0.48,0.35
		C63.63,112.65,63.53,112.61,63.46,112.5z"/>
	<path class="st79" d="M117.87,143.29c0.15-0.12,0.29-0.25,0.44-0.37c0.12,0,0.23,0.05,0.31,0.13c-0.15,0.12-0.3,0.25-0.45,0.37
		C118.04,143.44,117.94,143.4,117.87,143.29z"/>
	<path class="st83" d="M124.26,146.89c0.14-0.11,0.28-0.23,0.42-0.34c0.13-0.01,0.24,0.03,0.33,0.12c-0.15,0.12-0.31,0.24-0.46,0.36
		C124.43,147.05,124.33,147.01,124.26,146.89z"/>
	<path class="st61" d="M127.07,148.5c0.15-0.12,0.29-0.25,0.44-0.37c0.12,0,0.23,0.05,0.31,0.14c-0.15,0.12-0.3,0.24-0.45,0.36
		C127.24,148.64,127.14,148.6,127.07,148.5z"/>
	<polygon class="st84" points="83.57,123.99 83.67,123.97 83.68,124.08 83.57,124.1 	"/>
	<polygon class="st84" points="92.76,129.2 92.87,129.18 92.88,129.29 92.77,129.31 	"/>
	<polygon class="st84" points="62.36,112 62.47,111.98 62.48,112.09 62.37,112.11 	"/>
	<polygon class="st19" points="113.97,141.19 114.07,141.17 114.08,141.28 113.97,141.3 	"/>
	<polygon class="st19" points="123.16,146.4 123.27,146.37 123.28,146.48 123.17,146.51 	"/>
	<path class="st85" d="M91.85,180.58c-1.67-0.81-3.36-1.58-4.8-2.77c-0.08-0.37-0.31-0.82,0.38-0.83c2.9-0.08,5.78-0.63,8.69-0.41
		c0.2,0.02,0.41,0.04,0.59-0.02c1.68-0.58,3.41-0.4,5.12-0.35c2.07,0.06,4.09-0.1,6.04-0.83h-0.01c0.2,0.27,0.59,0.17,0.8,0.41
		c0.27-0.01,0.54-0.01,0.81-0.02c0.13,0.01,0.27,0.02,0.4,0.02c0.2-0.25,0.59-0.16,0.78-0.42h-0.01c0.22-0.22,0.61-0.13,0.8-0.42
		h-0.02c0.75,0.45,1.49,0.63,2.43,0.49c1.36-0.19,2.77-0.05,4.16-0.06c1.19-0.01,2.37,0.09,3.54-0.32c0.48-0.17,1.05-0.06,1.58-0.08
		c1.97-0.08,3.95,0.17,5.92-0.35c0.87-0.23,1.84-0.03,2.77-0.06c1.71-0.05,3.43,0.16,5.12-0.34c0.67-0.2,1.45-0.04,2.17-0.03
		c0.49,0.01,0.67,0.35,0.73,0.78c-1.77,1.24-3.63,2.3-5.6,3.19c-3.73-0.56-7.43,0.14-11.12,0.37c-4.04,0.25-8.09,0.24-12.14,0.59
		c-5.82,0.49-11.67,0.62-17.51,0.89C92.87,180.04,92.3,180.13,91.85,180.58z"/>
	<path class="st8" d="M106.64,140.19c0.21-0.29,0.46-0.2,0.69-0.07c2.52,1.45,5.03,2.92,7.56,4.35c2.3,1.31,4.62,2.58,6.92,3.88
		c0.22,0.12,0.5,0.19,0.55,0.62c-0.77,0.49-1.58,1.04-2.43,1.53c-1.32,0.76-2.66,1.48-4,2.21c-0.76,0.41-1.49,0.85-2.1,1.46
		c-1.92-1.03-3.83-2.1-5.77-3.09c-0.99-0.51-1.46-1.2-1.43-2.35C106.7,145.89,106.65,143.04,106.64,140.19z"/>
	<path class="st3" d="M108.65,175.77c-0.33,0-0.63-0.08-0.8-0.41C108.18,175.37,108.48,175.45,108.65,175.77z"/>
	<path class="st86" d="M55.85,53.37c0-1.26-0.02-2.53,0.01-3.79c0.02-0.94,0.43-1.16,1.31-0.73c0.3,0.15,0.58,0.33,0.86,0.51
		c4.07,2.62,8.18,5.19,12.32,7.69c2.84,1.71,5.58,3.59,8.39,5.34c3.54,2.21,7.12,4.38,10.67,6.58c1.69,1.05,3.35,2.15,5.04,3.2
		c1.63,1.01,3.29,1.99,4.95,2.97c0.43,0.25,0.88,0.35,1.23-0.15c0.08-0.03,0.16-0.06,0.24-0.1c0.84,0.34,0.85,1.2,1.18,1.86
		c0.13,0.31,0.28,0.61,0.44,0.91c0.09,0.15,0.17,0.31,0.25,0.47c0.36,1.13,1.08,2.14,1.07,3.39c-0.61,1.65-1.67,0.92-2.56,0.41
		c-3-1.72-5.89-3.62-8.82-5.45c-11.56-7.22-23.11-14.46-34.68-21.66C57.08,54.39,56.39,53.99,55.85,53.37z"/>
	<path class="st87" d="M55.85,53.37c1.45,0.21,2.49,1.23,3.66,1.93c4.2,2.52,8.34,5.15,12.49,7.75c2.69,1.69,5.36,3.43,8.05,5.11
		c3.65,2.28,7.32,4.53,10.97,6.8c2.7,1.68,5.38,3.39,8.07,5.08c1.07,0.67,2.14,1.33,3.23,1.94c0.55,0.31,0.74,0.17,1.11-0.6
		c0.32-0.16,0.51,0.03,0.69,0.25c0.39,0.79,0.79,1.57,0.92,2.46c0.04,0.31,0.05,0.63,0.14,0.93c0.06,0.14,0.11,0.28,0.16,0.42
		c0.12,0.28,0.26,0.56,0.38,0.84c0.07,0.15,0.12,0.31,0.17,0.47c0.1,0.34,0.2,0.68,0.16,1.04c-0.85,1.32-1.73,0.44-2.52-0.03
		c-4.76-2.82-9.4-5.82-14.09-8.75c-9.89-6.17-19.78-12.34-29.64-18.55c-0.62-0.39-1.26-0.75-1.87-1.15c-0.9-0.58-1.52-0.79-1.7,0.67
		c-0.11,0.88-0.25,0.86-0.99,0.56c0.15-1.19-0.3-2.42,0.26-3.57c0.31-0.3,0.33-0.68,0.33-1.08C55.85,55.06,55.85,54.21,55.85,53.37z
		"/>
	<path class="st60" d="M55.51,56.97c-0.11,1.33-0.15,2.66-0.03,3.99c0.59,0.58,0.45,1.35,0.55,2.05c0.01,1.2,0.03,2.4-0.01,3.61
		c-0.18,1.39,0.61,2.99-0.89,4.1c-0.03-0.59-0.08-1.19-0.08-1.78c0-4.76,0-9.51,0.01-14.27c0-0.58-0.16-1.2,0.34-1.69
		C55.43,54.32,55.47,55.64,55.51,56.97z"/>
	<path class="st88" d="M100.15,73.01c0.58,0.21,0.48,0.7,0.5,1.15c-0.19,0.16-0.3,0.12-0.35-0.12c0.02-0.11-0.01-0.2-0.08-0.28
		C100.03,73.53,100.04,73.27,100.15,73.01z"/>
	<path class="st86" d="M100.3,74.04c0.12,0.05,0.23,0.09,0.35,0.12l0,0c0.23,0.24,0.25,0.5,0.05,0.76l-0.07,0.05
		C100.28,74.75,100.25,74.41,100.3,74.04z"/>
	<path class="st86" d="M99.48,72.13c0.31,0.19,0.39,0.49,0.39,0.83C99.52,72.79,99.45,72.48,99.48,72.13z"/>
	<path class="st86" d="M99.1,71.24c0.3,0.23,0.39,0.55,0.39,0.92C99.09,71.97,99.06,71.62,99.1,71.24z"/>
	<path class="st86" d="M100.15,73.01c0.02,0.25,0.04,0.5,0.07,0.75c-0.31-0.18-0.37-0.48-0.36-0.81
		C99.96,72.98,100.05,73,100.15,73.01z"/>
	<path class="st84" d="M64.23,112.28c-0.09-0.1-0.21-0.14-0.34-0.13c-0.85-0.69-1.8-1.22-2.83-1.6c-0.19-0.23-0.44-0.38-0.74-0.43
		c-0.74-0.64-1.57-1.11-2.48-1.45c-0.09-0.09-0.2-0.14-0.32-0.14c-0.69-0.77-1.82-0.92-2.49-1.73c-0.22-1.28-0.37-2.56,0.1-3.82
		c0.82,0.11,1.51,0.53,2.18,0.95c2.7,1.69,5.37,3.44,8.07,5.13c3.66,2.28,7.36,4.51,11.02,6.8c2.71,1.69,5.37,3.44,8.07,5.12
		c3.66,2.29,7.35,4.53,11.01,6.81c2.37,1.47,4.72,2.98,7.08,4.46c1.86,1.16,3.74,2.29,5.58,3.48c1.16,0.76,2.3,1.56,3.38,2.44
		c0.26,0.22-0.2,0.34-0.44,0.39l-0.02-0.01c-0.17-0.15-0.33-0.31-0.58-0.33c-0.11,0.01-0.19-0.03-0.24-0.12
		c-0.16-0.11-0.3-0.25-0.49-0.3c-0.11,0.01-0.22,0.02-0.32,0.05l0.04-0.13c-0.16-0.09-0.31-0.21-0.45-0.34l0.02,0.02
		c-0.19-0.28-0.57-0.2-0.78-0.43l-0.01-0.01c-0.2-0.23-0.57-0.14-0.74-0.41l-0.05-0.02c-0.17-0.12-0.32-0.27-0.54-0.31
		c-0.1,0.01-0.2,0.03-0.3,0.06l0.04-0.14c-0.17-0.09-0.3-0.23-0.46-0.34l0.04,0.02c-0.18-0.3-0.57-0.22-0.8-0.44h0.01
		c-0.19-0.25-0.57-0.17-0.76-0.43l-0.03-0.01c-0.17-0.14-0.33-0.3-0.56-0.32c-0.09,0.01-0.18,0.04-0.27,0.07l0.04-0.15
		c-0.16-0.12-0.28-0.29-0.5-0.32l0.05,0.04c-0.12-0.38-0.57-0.24-0.77-0.49h0.01c-0.19-0.25-0.57-0.17-0.76-0.43l-0.03-0.02
		c-0.17-0.14-0.33-0.3-0.56-0.32c-0.09,0.01-0.18,0.04-0.26,0.08c-0.37-0.19-0.75-0.39-1.12-0.58c-0.73-0.65-1.59-1.08-2.48-1.45
		c-0.09-0.09-0.2-0.14-0.33-0.14c-0.73-0.65-1.59-1.07-2.48-1.45c-0.09-0.1-0.21-0.14-0.34-0.13c-0.85-0.69-1.8-1.22-2.83-1.6
		c-0.19-0.24-0.44-0.39-0.74-0.43c-0.74-0.64-1.57-1.12-2.48-1.45c-0.09-0.09-0.2-0.14-0.32-0.14c-0.73-0.65-1.59-1.07-2.48-1.45
		c-0.09-0.1-0.21-0.14-0.34-0.13c-0.72-0.64-1.58-1.04-2.45-1.43c-0.37-0.2-0.74-0.4-1.12-0.61c-0.74-0.64-1.57-1.12-2.49-1.45
		c-0.09-0.09-0.2-0.13-0.32-0.14c-0.73-0.65-1.59-1.07-2.48-1.45c-0.09-0.09-0.2-0.14-0.33-0.14c-0.73-0.64-1.59-1.06-2.47-1.44
		c-0.37-0.2-0.74-0.39-1.11-0.59c-0.74-0.64-1.57-1.12-2.49-1.46c-0.09-0.08-0.19-0.13-0.32-0.13c-0.73-0.65-1.59-1.07-2.48-1.45
		c-0.09-0.09-0.2-0.14-0.33-0.14C65.98,113.08,65.11,112.67,64.23,112.28z"/>
	<path class="st89" d="M125.05,141.37c0.59,0.42,0.34,1.05,0.4,1.6c0.14,0.12,0.25,0.29,0.4,0.4c0,0.27,0,0.53,0,0.8
		c-1.21,0.03-2.08-0.77-3.05-1.27c-0.82-0.42-1.56-1-2.33-1.52c-2.92-1.95-5.94-3.74-8.9-5.61c-3.47-2.19-6.99-4.29-10.46-6.49
		c-3.63-2.32-7.34-4.51-11-6.79c-2.7-1.68-5.36-3.43-8.06-5.12c-3.65-2.28-7.33-4.53-10.99-6.81c-2.42-1.51-4.81-3.06-7.23-4.57
		c-2.93-1.82-5.87-3.62-8.8-5.42c-0.3-0.58-0.12-1.2-0.15-1.8c0.84-0.78,1.46-0.02,2.06,0.35c10.68,6.67,21.38,13.33,32.05,20.02
		c11.13,6.97,22.27,13.91,33.39,20.89C123.22,140.57,124.09,141.06,125.05,141.37z"/>
	<path class="st61" d="M55.04,98.57c-0.17,0.66-0.17,1.33-0.03,2c-0.19,0.61-0.2,1.23-0.02,1.85c-0.04,0.14-0.13,0.24-0.26,0.3
		c-0.03-0.73-0.09-1.46-0.09-2.19c0-5.19,0-10.37,0.01-15.56c0.23-0.14,0.43-0.1,0.59,0.12c0.39,0.63,0.32,1.34,0.35,2.03
		c0,1.37,0,2.75,0.01,4.12c0,0.57-0.01,1.13,0.02,1.7c0.01,0.67,0.01,1.35-0.02,2.02c0,0.79,0.04,1.58-0.03,2.37
		C55.54,97.8,55.41,98.24,55.04,98.57z"/>
	<path class="st89" d="M54.73,102.72c0.09-0.1,0.18-0.2,0.26-0.3c0.04,0.19,0.08,0.37,0.12,0.56c-0.03,1.27-0.07,2.54-0.1,3.82
		c-0.06,0.1-0.05,0.19,0.03,0.28c-0.19,0.01-0.3-0.08-0.33-0.27C54.72,105.44,54.73,104.08,54.73,102.72z"/>
	<path class="st3" d="M111.44,174.94c-0.16,0.35-0.46,0.43-0.8,0.42C110.82,175.05,111.11,174.95,111.44,174.94z"/>
	<path class="st3" d="M110.65,175.36c-0.16,0.33-0.45,0.41-0.78,0.42C110.04,175.47,110.32,175.37,110.65,175.36z"/>
	<path class="st90" d="M55.08,94.97c-0.11-0.67-0.12-1.34,0.01-2.01c0.32-0.52,0.1-1.1,0.17-1.64c0.01-0.2,0.11-0.36,0.27-0.47
		c1.97,0.14,3.41,1.43,4.96,2.41c19.62,12.31,39.27,24.56,58.91,36.84c0.81,0.51,1.61,0.95,2.61,0.76c1.07,0.72,1.14,1.79,1.03,2.92
		c0.13,0.8,0.27,1.6,0.4,2.4c0.35,1.22-0.48,0.98-1.08,0.8c-1.22-0.38-2.25-1.14-3.32-1.82c-7.65-4.86-15.36-9.63-23.05-14.43
		c-13.34-8.32-26.63-16.74-40.03-24.97C55.62,95.55,55.36,95.25,55.08,94.97z"/>
	<path class="st91" d="M55.08,94.97c1.74,0.38,3.1,1.5,4.55,2.41c4.11,2.56,8.19,5.17,12.34,7.67c2.84,1.71,5.58,3.59,8.4,5.35
		c3.55,2.22,7.13,4.37,10.68,6.58c1.75,1.09,3.45,2.25,5.19,3.33c4.74,2.94,9.5,5.84,14.23,8.79c3.1,1.93,6.15,3.93,9.23,5.9
		c0.73,0.46,1.46,0.93,2.21,1.34c0.34,0.19,0.74,0.3,1.13,0.36c0.34,0.05,0.39-0.26,0.42-0.53c0.58,0.42,0.35,1.05,0.4,1.6
		c0.14,0.12,0.25,0.29,0.4,0.4c0,0.27,0,0.53,0,0.8c-0.33,1.37-1.23,0.63-1.81,0.38c-1.35-0.56-2.56-1.41-3.79-2.2
		c-15.52-9.8-31.15-19.43-46.69-29.2c-5.63-3.54-11.3-7.01-16.91-10.58C54.94,96.57,54.93,95.77,55.08,94.97z"/>
	<path class="st92" d="M55.04,97.37c0.78-0.07,1.42,0.27,2.05,0.67c4.82,3.06,9.64,6.12,14.48,9.16c4.27,2.69,8.55,5.36,12.84,8.03
		c3.83,2.39,7.68,4.75,11.51,7.15c3.6,2.25,7.17,4.57,10.8,6.78c4.32,2.62,8.61,5.26,12.84,8.02c1.17,0.76,2.42,1.38,3.65,2.05
		c0.39,0.21,0.77,0.13,1.05-0.26c0.57,0.7,0.8,1.51,0.8,2.4c-0.35,0.49-0.77,0.42-1.21,0.15c-1.75-1.08-3.5-2.15-5.24-3.24
		c-4.16-2.59-8.32-5.18-12.48-7.79c-2.64-1.65-5.26-3.34-7.9-4.99c-3.71-2.32-7.43-4.61-11.14-6.93c-2.42-1.51-4.81-3.05-7.23-4.56
		c-3.99-2.49-8-4.96-11.99-7.45c-2.42-1.51-4.81-3.05-7.23-4.56c-1.85-1.16-3.73-2.29-5.59-3.43
		C54.92,98.17,54.92,97.77,55.04,97.37z"/>
	<path class="st93" d="M123.05,133.77c-0.29-0.21-0.34-0.52-0.41-0.85c-0.16-0.69-0.27-1.41-0.78-1.96
		c-1.11-1.35-1.24-3.09-1.85-4.64c-0.05-0.2-0.05-0.4-0.02-0.6c0.05-0.2,0.15-0.37,0.29-0.51c0.89-0.5,1.62-0.03,2.4,0.36
		c1.98,1.02,3.91,2.16,5.99,2.98c1.05,2.15,1.79,4.4,2,6.8c-0.02,0.33,0,0.67-0.06,0.99c-0.09,0.46-0.47,0.69-0.88,0.5
		c-0.91-0.41-1.79-0.88-2.69-1.29C125.7,134.97,124.5,134.09,123.05,133.77z"/>
	<path class="st92" d="M124.25,138.17c-0.13-0.13-0.26-0.27-0.4-0.4C123.98,137.9,124.12,138.04,124.25,138.17z"/>
	<path class="st19" d="M125.85,143.37c-0.13-0.13-0.27-0.27-0.4-0.4C125.58,143.1,125.72,143.24,125.85,143.37z"/>
	<path class="st94" d="M130.64,92.97c0,1.05,0.01,2.11-0.01,3.16c-0.02,0.65-0.35,0.86-0.89,0.56c-0.86-0.47-1.71-0.97-2.56-1.47
		c-1.8-1.07-3.6-2.16-5.4-3.24c-0.36-0.22-0.75-0.2-1.15-0.2c-1.55-0.6-1.2-2.1-1.54-3.27c0.01-0.13-0.02-0.24-0.09-0.35
		c-0.19-0.24-0.12-0.58-0.35-0.8v0.01c-0.23-0.24-0.21-0.51-0.11-0.79c0.16-0.12,0.34-0.17,0.53-0.18
		C123.24,88.06,127.07,90.29,130.64,92.97z"/>
	<path class="st95" d="M119.09,88.51c0.43,0.42,0.54,1.01,0.76,1.53c0.25,0.58,0.31,1.25,0.78,1.73c0.4,1.38,0.72,2.79,1.52,4.02
		c0.34,0.22,0.41,0.6,0.53,0.95c0.08,0.37,0.15,0.73,0.21,1.1c0.01,0.19-0.02,0.38-0.08,0.56c-0.66,0.84-1.41,0.42-2.11,0.1
		c-1.02-0.45-1.91-1.13-2.83-1.75c-0.15-0.1-0.29-0.21-0.42-0.33c-0.12-0.13-0.21-0.27-0.29-0.43c-0.12-0.3-0.21-0.62-0.33-0.92
		c-0.06-0.14-0.1-0.29-0.15-0.45c-0.07-0.22-0.14-0.44-0.22-0.66c-0.07-0.14-0.12-0.29-0.16-0.44c-0.11-0.39-0.26-0.76-0.45-1.12
		c-0.31-0.64-0.51-1.32-0.83-1.96c-0.33-1.28-1.41-2.4-0.78-3.87c1.34,0.73,2.67,1.46,4.01,2.19
		C118.62,88.96,118.89,88.82,119.09,88.51z"/>
	<path class="st96" d="M114.25,86.57c0.4,1.32,0.81,2.65,1.21,3.97c0.36,1.61-0.73,1.07-1.37,0.83c-1.35-0.52-2.51-1.42-3.77-2.14
		c-1.32-0.75-2.63-1.5-4.01-2.12c-0.16-0.08-0.3-0.19-0.43-0.31c-0.22-0.25-0.19-0.63-0.44-0.87c-0.17-0.17-0.24-0.4-0.38-0.59
		l0.01,0.02c-0.26-0.24-0.21-0.61-0.38-0.89c0.02-0.53-0.24-0.98-0.42-1.45c-0.16-0.41-0.27-0.84-0.41-1.26
		c0.93-0.61,1.65,0.09,2.34,0.47c2.01,1.11,3.94,2.36,5.96,3.46c0.57,0.31,1.06,0.79,1.77,0.77
		C114.04,86.49,114.15,86.53,114.25,86.57z"/>
	<path class="st97" d="M130.64,92.97c-0.62-0.02-1.16-0.3-1.62-0.67c-1.77-1.41-3.89-2.22-5.79-3.39c-1.45-0.89-2.91-1.79-4.53-2.38
		c-0.46-0.25-0.02-0.91-0.53-1.14c-0.59-0.85-0.87-1.82-1.1-2.82c0.74,0.43,1.45,0.91,2.21,1.29c1.71,0.85,3.33,1.85,4.97,2.84
		c1.97,1.19,4,2.28,6.01,3.4c0.11,0.06,0.26,0.04,0.39,0.06C130.64,91.1,130.64,92.03,130.64,92.97z"/>
	<path class="st98" d="M113.93,86.46c-0.37,0.57-0.82,0.58-1.34,0.21c-2.36-1.67-4.95-2.98-7.44-4.45
		c-0.39-0.23-0.81-0.46-1.29-0.46c-0.14-0.13-0.28-0.26-0.41-0.38c-0.41-1.19-0.82-2.39-1.23-3.58c0.95-0.81,1.76-0.07,2.55,0.29
		c2.6,1.18,4.79,3.11,7.52,4.05c0.47,0.58,0.65,1.28,0.78,2c0.22,0.23,0.13,0.59,0.35,0.82c0.07,0.1,0.09,0.21,0.08,0.33
		c0.18,0.27,0.11,0.64,0.36,0.88C113.91,86.26,113.94,86.35,113.93,86.46z"/>
	<path class="st88" d="M112.28,82.15c-0.27,0.38-0.67,0.54-1.02,0.28c-1.43-1.06-3.08-1.73-4.56-2.71c-1.34-0.89-2.72-1.9-4.48-1.91
		h0.02c-0.18-0.25-0.13-0.61-0.38-0.83c-0.59-0.56-0.52-1.49-1.14-2.04c-0.02-0.26-0.03-0.51-0.05-0.77
		c1.13-0.05,1.98,0.6,2.89,1.12c2.04,1.18,4.07,2.37,6.11,3.54c0.45,0.26,0.69,0.07,1.04-0.75c0.64,0.87,0.89,1.89,1.16,2.9
		c0.38,0.31,0,0.89,0.43,1.18L112.28,82.15z"/>
	<path class="st94" d="M118.17,85.39c0.55,0.21,0.46,0.71,0.53,1.14l-0.06,0.05c-0.18,0.16-0.29,0.11-0.34-0.12
		C118.25,86.1,118.21,85.75,118.17,85.39z"/>
	<path class="st98" d="M112.28,82.16c-0.5-0.26-0.42-0.74-0.43-1.18C112.23,81.29,112.28,81.71,112.28,82.16z"/>
	<path class="st96" d="M113.84,86.17c-0.35-0.2-0.39-0.52-0.36-0.88C113.77,85.52,113.86,85.82,113.84,86.17z"/>
	<path class="st95" d="M118.3,86.46c0.11,0.04,0.23,0.08,0.34,0.12c0.01,0.26,0.02,0.52,0.03,0.78
		C118.29,87.17,118.25,86.83,118.3,86.46z"/>
	<path class="st95" d="M118.66,87.36c0.28,0.19,0.38,0.47,0.35,0.8C118.7,87.97,118.65,87.68,118.66,87.36z"/>
	<path class="st96" d="M113.41,84.96c-0.31-0.19-0.36-0.49-0.35-0.82C113.33,84.35,113.44,84.63,113.41,84.96z"/>
	<path class="st88" d="M110.61,77.76c-0.31-0.19-0.36-0.49-0.34-0.82C110.53,77.15,110.63,77.43,110.61,77.76z"/>
	<path class="st99" d="M122.28,96.91c-0.04-0.37-0.08-0.74-0.12-1.12c1.99,0.53,3.62,1.78,5.41,2.73c1.03,0.55,1.95,1.29,3.08,1.65
		c0,1.47,0,2.93,0,4.4c-0.88,0.34-1.53-0.22-2.17-0.64c-1.38-0.91-2.87-1.61-4.38-2.27c-1.14-0.92-1.21-2.26-1.39-3.56
		c0.01-0.12-0.02-0.22-0.07-0.32C122.41,97.53,122.48,97.16,122.28,96.91z"/>
	<path class="st100" d="M128.66,128.56c-0.27,0.38-0.66,0.51-1.02,0.26c-1.77-1.27-3.91-1.87-5.68-3.12
		c-0.54-0.38-1.12-0.3-1.7-0.33c-0.13-0.09-0.24-0.21-0.32-0.35c-0.14-0.29-0.28-0.58-0.47-0.84c-0.16-0.21-0.29-0.43-0.39-0.67
		c-0.4-1.13-0.79-2.26-1.13-3.41c-0.06-0.39-0.03-0.76,0.22-1.09c0.75-0.56,1.39-0.06,2.04,0.23c1.53,0.67,2.9,1.62,4.37,2.4
		c0.66,0.35,1.3,0.67,2.08,0.55c0.13,0.13,0.26,0.27,0.4,0.4c0.14,0.79,0.28,1.59,0.42,2.38c0.23,0.23,0.13,0.61,0.39,0.82
		c0.01,0.13,0.01,0.26,0.01,0.38c0.23,0.22,0.13,0.6,0.39,0.82c0.01,0.13,0.01,0.26,0.01,0.39c0.23,0.22,0.14,0.6,0.39,0.81
		C128.65,128.3,128.66,128.43,128.66,128.56z"/>
	<path class="st101" d="M125.04,116.57c0.01,0.39,0.02,0.78,0.02,1.17c0.2,1.56-0.89,0.94-1.45,0.74c-1.7-0.58-3.18-1.65-4.8-2.42
		c-0.72-0.34-1.42-0.73-2.14-1.07c-0.55-0.27-0.81-0.77-1.01-1.31c-0.07-0.16-0.12-0.33-0.17-0.5c-0.07-0.24-0.14-0.49-0.23-0.74
		c-0.07-0.16-0.12-0.32-0.17-0.48c-0.12-0.42-0.29-0.82-0.48-1.22c-0.25-0.64-0.51-1.27,0.01-1.9c1.01-0.52,1.76,0.14,2.57,0.56
		c2.12,1.08,3.98,2.64,6.33,3.27C124.73,113.7,125.03,115.08,125.04,116.57z"/>
	<path class="st102" d="M116.64,114.57c0.37,0.12,0.79,0.17,1.12,0.37c1.39,0.88,3,1.36,4.36,2.32c0.75,0.53,1.61,0.94,2.56,1.04
		c0.32,0.03,0.36-0.31,0.4-0.57c0.8,1.38,1.15,2.92,1.58,4.43c-0.36,0.78-0.57,0.9-1.09,0.61c-1.95-1.09-3.89-2.2-5.85-3.28
		c-0.46-0.25-0.92-0.54-1.47-0.52c-0.07-0.05-0.15-0.1-0.22-0.14c-0.26-0.26-0.47-0.55-0.68-0.84
		C116.81,116.91,115.89,115.91,116.64,114.57z"/>
	<path class="st103" d="M125.04,116.57c-0.52-0.45-0.5-1.14-0.75-1.71c-0.28-0.63-0.32-1.35-0.8-1.9c-0.14-0.11-0.26-0.23-0.37-0.38
		c-0.17-0.31-0.3-0.65-0.42-0.98c-0.17-0.61-0.5-1.2-0.14-1.85c1.03-0.4,1.77,0.25,2.56,0.71c0.74,0.43,1.4,1.05,2.36,0.85
		c0.2,0.33,0.48,0.63,0.59,0.99c0.47,1.54,1.21,3,1.4,4.63c0.21,0.24,0.12,0.62,0.38,0.84c0.02,0.12,0.03,0.24,0.04,0.36
		c-0.32,0.48-0.73,0.5-1.19,0.22c-0.78-0.48-1.58-0.94-2.34-1.46C125.94,116.6,125.51,116.57,125.04,116.57z"/>
	<path class="st104" d="M55.12,86.97c-0.04-0.67-0.09-1.34-0.13-2c-0.09-0.13-0.1-0.26,0-0.39c0.05-4.62,0.09-9.24,0.14-13.86
		c0.38-1.36,0.03-2.78,0.31-4.15c1.04-0.62,1.8,0.15,2.53,0.61c9.83,6.22,19.75,12.29,29.59,18.48c6.81,4.28,13.65,8.51,20.45,12.8
		c0.84,0.53,1.68,1.12,2.77,0.79c1.2,0.79,1.26,2.19,1.82,3.33c0.29,1.46,1.54,2.7,1.01,4.34c-1.05,0.84-1.89,0.1-2.71-0.41
		c-8.6-5.36-17.19-10.72-25.77-16.1c-8.98-5.63-17.99-11.2-26.95-16.85c-0.58-0.37-1.22-1.14-1.94-0.66
		c-0.58,0.38-0.26,1.24-0.28,1.89c-0.03,0.87,0,1.73,0.05,2.6c0.02,1.56,0.05,3.11,0.01,4.67c-0.02,1.36,0.07,2.72-0.08,4.07
		c-0.04,0.23-0.12,0.44-0.23,0.64C55.56,87.01,55.37,87.07,55.12,86.97z"/>
	<path class="st61" d="M54.72,106.8c0.11,0.09,0.22,0.18,0.33,0.27c-0.14,0.05-0.27,0.11-0.41,0.16
		C54.67,107.09,54.69,106.95,54.72,106.8z"/>
	<path class="st76" d="M54.99,84.58c0,0.13,0,0.26,0,0.39c-0.11,0-0.22,0-0.34,0C54.77,84.84,54.88,84.71,54.99,84.58z"/>
	<path class="st105" d="M124.24,101.37c0.2,0.01,0.42-0.05,0.59,0.03c1.06,0.49,2.2,0.88,3.13,1.57c0.86,0.63,1.77,1.11,2.69,1.6
		c0,1.96,0.01,3.93-0.01,5.89c-0.01,0.73-0.29,0.87-1.01,0.59c-0.73-0.29-1.45-0.58-2.18-0.87c-0.14,0.14-0.29,0.16-0.46,0.07
		c-0.12-0.13-0.22-0.27-0.29-0.43c-0.13-0.32-0.25-0.65-0.37-0.98c-0.32-0.99-0.63-1.98-1.1-2.91c-0.08-0.16-0.14-0.33-0.19-0.5
		c-0.12-0.35-0.24-0.69-0.37-1.04C124.48,103.39,123.64,102.48,124.24,101.37z"/>
	<path class="st106" d="M127.05,109.77c0.04,0.1,0.05,0.21,0.04,0.32c0.22,0.26,0.08,0.65,0.35,0.88c0.03,0.11,0.04,0.23,0.04,0.35
		c-0.31,0.74-0.44,0.84-0.88,0.61c-0.35-0.18-0.69-0.38-1-0.61c-0.9-0.66-1.89-1.15-2.93-1.55c-1.01-0.41-0.93-1.45-1.31-2.23
		c-0.07-0.15-0.12-0.32-0.17-0.47c-0.11-0.31-0.25-0.61-0.38-0.91c-0.07-0.15-0.12-0.31-0.17-0.46c-0.1-0.32-0.23-0.64-0.3-0.97
		c-0.05-0.37-0.01-0.71,0.25-1c2-0.23,3.23,1.44,4.91,1.99c0.72,0.95,0.99,2.06,1.17,3.21
		C126.87,109.17,126.79,109.54,127.05,109.77z"/>
	<path class="st103" d="M127.44,110.97c-0.35-0.2-0.39-0.53-0.35-0.88c0.12,0.03,0.24,0.06,0.36,0.09
		C127.44,110.44,127.44,110.7,127.44,110.97z"/>
	<path class="st27" d="M129.85,117.77c-0.33-0.19-0.39-0.5-0.38-0.84C129.77,117.13,129.85,117.43,129.85,117.77z"/>
	<path class="st93" d="M127.85,125.77c-0.33-0.18-0.39-0.48-0.39-0.82C127.77,125.14,127.85,125.44,127.85,125.77z"/>
	<path class="st93" d="M128.24,126.97c-0.32-0.18-0.39-0.48-0.39-0.81C128.17,126.34,128.24,126.64,128.24,126.97z"/>
	<path class="st93" d="M128.64,128.17c-0.32-0.18-0.39-0.48-0.39-0.81C128.57,127.54,128.64,127.84,128.64,128.17z"/>
	<path class="st107" d="M84.27,56.58c0.59-0.53,0.59-0.53,1.16,0.02c-0.06,0.05-0.13,0.11-0.19,0.16c-0.33,0.15-0.64,0.11-0.92-0.12
		L84.27,56.58z"/>
	<path class="st108" d="M85.83,56.96c-0.1-0.01-0.2-0.02-0.3-0.02c-0.16-0.05-0.21-0.16-0.14-0.32l0.04-0.03
		C85.64,56.63,85.78,56.75,85.83,56.96z"/>
	<path class="st109" d="M85.39,56.63c0.02,0.12,0.06,0.23,0.14,0.32c0.3,0.62,0.43,1.25,0.27,1.93c-0.23,0.01-0.47,0.02-0.7,0.02
		c-0.13-0.13-0.27-0.26-0.4-0.38c-0.14-0.62-0.56-1.19-0.38-1.87C84.67,56.64,85.03,56.63,85.39,56.63z"/>
	<path class="st110" d="M143.39,85.37c0,1.07,0,2.13-0.01,3.2c-0.31,0.32-0.76,0.42-1.07,0.19c-1.68-1.22-3.83-1.72-5.23-3.39
		c0-1.07,0.01-2.13,0.01-3.2c1.72,0.39,3.02,1.58,4.52,2.39C142.19,84.87,142.7,85.29,143.39,85.37z"/>
	<path class="st111" d="M143.37,136.16c0.02,2.39,0.05,4.79,0.05,7.18c0,0.64-0.35,0.84-0.91,0.54c-0.93-0.5-1.84-1.05-2.77-1.56
		c-0.58-0.32-1.18-0.62-1.88-0.55c-0.09-0.32-0.15-0.64-0.27-0.95c-0.4-1.06-0.6-2.14-0.55-3.29c0.06-1.25,0.02-2.51,0.02-3.76
		c0.67-0.58,1.39-0.3,2.04-0.01C140.58,134.44,142.1,135.08,143.37,136.16z"/>
	<path class="st112" d="M143.37,136.16c-0.77,0.08-1.38-0.31-2-0.69c-1-0.6-2.03-1.18-3.16-1.51c-0.37-0.11-0.77-0.13-1.15-0.19
		c0-2.13,0-4.27,0-6.4c2.47,0.34,4.53,1.48,6.31,3.18C143.48,132.42,143.47,134.29,143.37,136.16z"/>
	<path class="st113" d="M143.37,130.55c-0.98-0.22-1.71-0.94-2.6-1.34c-1.26-0.56-2.48-1.22-3.71-1.84c0-1.6,0-3.2,0-4.8
		c0.61-0.06,1.15,0.15,1.67,0.43c1.08,0.59,2.24,1.02,3.23,1.78c0.4,0.31,0.88,0.56,1.42,0.58
		C143.37,127.09,143.37,128.82,143.37,130.55z"/>
	<path class="st98" d="M143.37,100.16c0,1.6,0,3.19,0,4.79c-0.57,0.51-1.13,0.16-1.61-0.11c-1.64-0.9-3.42-1.6-4.68-3.08
		c0-1.6,0.01-3.2,0.01-4.79C139.69,97.04,141.53,98.59,143.37,100.16z"/>
	<path class="st114" d="M137.08,101.76c1.1,0.31,1.96,1.04,2.93,1.59c1.09,0.62,2.13,1.32,3.37,1.6c0,1.6,0,3.19,0,4.79
		c-2.35-0.55-4.36-1.79-6.29-3.17C137.08,104.96,137.08,103.36,137.08,101.76z"/>
	<path class="st115" d="M143.37,100.16c-1.21-0.64-2.42-1.3-3.65-1.92c-0.87-0.44-1.75-0.85-2.63-1.27c0-1.46,0-2.93,0-4.39
		c2.67-0.08,4.3,1.91,6.29,3.18C143.37,97.22,143.37,98.69,143.37,100.16z"/>
	<path class="st116" d="M143.37,95.76c-0.93-0.16-1.73-0.63-2.48-1.17c-1.18-0.86-2.44-1.54-3.81-2.02c0-1.33,0-2.67,0-4
		c2.47,0.08,4.32,1.59,6.3,2.79C143.38,92.83,143.37,94.29,143.37,95.76z"/>
	<path class="st117" d="M143.36,116.93c0,1.33,0,2.66,0,4c-1.68-0.91-3.36-1.84-5.06-2.73c-0.94-0.49-1.34-1.2-1.26-2.25
		c0.05-0.72,0.02-1.46,0.03-2.18c0.27-0.24,0.61-0.32,0.9-0.16C139.83,114.62,141.93,115.23,143.36,116.93z"/>
	<path class="st118" d="M143.36,116.93c-1.44-0.77-2.95-1.4-4.32-2.33c-0.58-0.4-1.23-0.77-1.97-0.83c0-1.33,0-2.66,0-3.99
		c2.46,0.35,4.52,1.48,6.29,3.18C143.36,114.28,143.36,115.61,143.36,116.93z"/>
	<path class="st119" d="M143.36,112.96c-2.1-1.06-4.19-2.12-6.29-3.18c0-1.07,0-2.14,0-3.2c0.26,0.02,0.57-0.03,0.78,0.08
		c1.63,0.86,3.25,1.74,4.87,2.63c0.23,0.13,0.43,0.31,0.64,0.46C143.37,110.81,143.36,111.88,143.36,112.96z"/>
	<path class="st120" d="M143.38,91.36c-0.48,0.02-0.88-0.13-1.31-0.35c-1.64-0.85-3.32-1.63-4.98-2.43c0-1.07,0-2.14,0-3.21
		c1.67,0.84,3.42,1.53,4.88,2.72c0.44,0.36,0.89,0.51,1.42,0.48C143.38,89.5,143.38,90.43,143.38,91.36z"/>
	<path class="st121" d="M91.85,180.58c-0.15-0.84-0.04-1.14,0.53-1.16c1.2-0.05,2.4-0.03,3.6-0.05c0.86-0.01,1.72,0.03,2.57-0.27
		c0.48-0.17,1.05-0.12,1.58-0.12c1.4-0.01,2.8,0,4.2-0.01c1.06-0.01,2.1-0.03,3.16-0.28c1.01-0.24,2.12-0.09,3.18-0.12
		c1.06-0.03,2.12,0.1,3.16-0.3c0.41-0.16,0.92-0.09,1.39-0.09c1.53-0.01,3.07,0,4.6-0.01c0.93-0.01,1.84,0.02,2.76-0.27
		c0.61-0.2,1.32-0.1,1.98-0.12c1.59-0.06,3.16,0.02,4.76-0.31c1.34-0.28,2.79-0.07,4.18-0.06c0.49,0,0.68,0.34,0.75,0.77
		c-1.78,1.22-3.64,2.29-5.61,3.19c-1.58-0.33-3.18-0.23-4.76-0.07c-4.1,0.41-8.22,0.37-12.33,0.68c-5.22,0.4-10.47,0.39-15.69,0.95
		c-1.02-0.39-1.95-0.95-2.83-1.6c-0.14-0.12-0.28-0.23-0.42-0.34l0.02,0.02C92.45,180.72,92.07,180.8,91.85,180.58L91.85,180.58z"/>
	<path class="st122" d="M95.87,182.92c0.27-0.53,0.72-0.71,1.3-0.75c3.04-0.25,6.07-0.54,9.13-0.4c0.27,0.01,0.55,0.05,0.79-0.03
		c1.82-0.6,3.69-0.3,5.54-0.37c0.93-0.03,1.85,0.05,2.76-0.29c0.41-0.16,0.92-0.1,1.38-0.1c1.33-0.01,2.66,0,3.99-0.01
		c0.86-0.01,1.7-0.07,2.56-0.25c1.56-0.33,3.18-0.16,4.77-0.09c0.37,0.02,0.5,0.38,0.56,0.73l-0.01,0.01
		c-0.2,0.24-0.58,0.16-0.78,0.42l0.01-0.01c-0.23,0.21-0.62,0.15-0.8,0.45c-1.22,0.97-2.6,1.67-4.02,2.31
		c-4.06-0.52-8.08,0.34-12.13,0.4c-1.85,0.03-3.71,0.25-5.57,0.22c-1.48-0.02-2.92,0.16-4.31,0.67c-1.33-0.44-2.46-1.23-3.58-2.04
		c-0.2-0.26-0.58-0.18-0.78-0.43l-0.01-0.01c-0.15-0.14-0.3-0.28-0.5-0.35C96.05,183.01,95.95,182.98,95.87,182.92z"/>
	<path class="st123" d="M101.03,185.83c0.05-0.34,0.13-0.68,0.49-0.8c0.69-0.23,1.36-0.5,2.12-0.47c1.13,0.05,2.26,0.02,3.39,0.01
		c1.25-0.02,2.49-0.02,3.75-0.29c1.21-0.26,2.51-0.08,3.77-0.1c1.12-0.02,2.23-0.1,3.35-0.28c1.49-0.24,3.04-0.09,4.57-0.07
		c0.37,0.01,0.51,0.37,0.57,0.71c-1.65,1.08-3.31,2.14-5.15,2.88c-1.85-0.69-3.68,0.09-5.52,0.1c-2.46,0.02-4.91,0.09-7.32,0.64
		C103.64,187.52,102.26,186.8,101.03,185.83z"/>
	<path class="st124" d="M105.06,188.15c0.05-0.44,0.27-0.7,0.74-0.77c2.08-0.3,4.16-0.42,6.26-0.41c0.86,0,1.69-0.06,2.54-0.28
		c0.81-0.2,1.71-0.09,2.56-0.08c0.49,0.01,0.63,0.41,0.73,0.81l-0.01-0.03c-0.15,0.1-0.29,0.21-0.43,0.33
		c-0.08,0.07-0.17,0.1-0.28,0.09c-0.22,0.05-0.38,0.2-0.53,0.35h-0.01c-0.21,0.24-0.6,0.16-0.79,0.44c-1.19,0.92-2.53,1.58-3.84,2.3
		c-0.52,0.29-1.09,0.44-1.69,0.42c-0.75-0.64-1.79-0.82-2.48-1.56c-0.15-0.15-0.31-0.31-0.53-0.35c-0.1,0.01-0.2-0.02-0.28-0.08
		c-0.14-0.13-0.29-0.26-0.47-0.33c-0.12,0-0.24-0.04-0.34-0.11c-0.14-0.1-0.27-0.2-0.4-0.31l0.01,0.01
		C105.65,188.32,105.27,188.41,105.06,188.15L105.06,188.15z"/>
	<path class="st121" d="M127.85,181.78c0.16-0.33,0.45-0.41,0.78-0.42C128.46,181.67,128.18,181.77,127.85,181.78z"/>
	<path class="st121" d="M127.06,182.23c0.14-0.37,0.45-0.45,0.8-0.45C127.69,182.09,127.39,182.18,127.06,182.23z"/>
	<path class="st123" d="M115.86,188.6c0.15-0.35,0.45-0.43,0.79-0.44C116.47,188.47,116.18,188.57,115.86,188.6z"/>
	<path class="st123" d="M117.46,187.72c0.14-0.11,0.29-0.22,0.43-0.33C117.83,187.6,117.68,187.71,117.46,187.72z"/>
	<path class="st123" d="M116.65,188.16c0.11-0.22,0.29-0.33,0.53-0.35C117,187.93,116.83,188.05,116.65,188.16z"/>
	<path class="st85" d="M91.84,180.57c0.34,0,0.64,0.08,0.8,0.43C92.31,180.97,92.02,180.88,91.84,180.57z"/>
	<path class="st121" d="M96.67,183.36c0.33,0.02,0.62,0.1,0.78,0.43C97.12,183.76,96.84,183.67,96.67,183.36z"/>
	<path class="st123" d="M105.07,188.16c0.33,0.02,0.62,0.09,0.78,0.43C105.52,188.56,105.24,188.47,105.07,188.16z"/>
	<path class="st85" d="M92.62,180.98c0.14,0.11,0.28,0.23,0.42,0.34C92.83,181.29,92.69,181.18,92.62,180.98z"/>
	<path class="st121" d="M96.16,183c0.17,0.12,0.33,0.23,0.5,0.35C96.49,183.23,96.32,183.12,96.16,183z"/>
	<path class="st123" d="M105.83,188.58c0.13,0.1,0.27,0.21,0.4,0.31C106.03,188.88,105.9,188.76,105.83,188.58z"/>
	<path class="st123" d="M106.57,189c0.16,0.11,0.31,0.22,0.47,0.33C106.88,189.22,106.73,189.11,106.57,189z"/>
	<path class="st123" d="M107.32,189.41c0.24,0.02,0.42,0.14,0.53,0.35C107.67,189.65,107.5,189.53,107.32,189.41z"/>
	<path class="st19" d="M109.74,137.8c0.16,0.1,0.33,0.2,0.49,0.3C110.02,138.09,109.85,138,109.74,137.8z"/>
	<path class="st19" d="M110.48,138.22c0.25,0.01,0.44,0.12,0.58,0.33C110.81,138.53,110.61,138.43,110.48,138.22z"/>
	<path class="st19" d="M104.68,134.95c0.32,0.02,0.61,0.1,0.76,0.43C105.13,135.34,104.85,135.25,104.68,134.95z"/>
	<path class="st19" d="M105.44,135.38c0.34,0,0.65,0.08,0.8,0.44C105.92,135.77,105.61,135.69,105.44,135.38z"/>
	<path class="st19" d="M104.09,134.62c0.24,0.01,0.43,0.12,0.57,0.32C104.42,134.92,104.22,134.83,104.09,134.62z"/>
	<path class="st19" d="M106.2,135.79c0.15,0.11,0.31,0.22,0.46,0.34l-0.18,0.01l-0.18-0.01
		C106.26,136.02,106.22,135.91,106.2,135.79z"/>
	<path class="st19" d="M107.51,136.55c0.31,0.03,0.59,0.11,0.74,0.41C107.94,136.93,107.67,136.83,107.51,136.55z"/>
	<path class="st19" d="M108.26,136.97c0.33,0.01,0.63,0.09,0.78,0.43C108.73,137.35,108.43,137.27,108.26,136.97z"/>
	<path class="st19" d="M106.92,136.21c0.18,0.1,0.36,0.21,0.54,0.31C107.23,136.51,107.04,136.42,106.92,136.21z"/>
	<path class="st19" d="M109.02,137.38c0.15,0.11,0.3,0.22,0.45,0.34l-0.17,0.02l-0.18-0.01
		C109.08,137.61,109.05,137.5,109.02,137.38z"/>
	<path class="st19" d="M101.88,133.36c0.32,0.02,0.61,0.1,0.76,0.43C102.34,133.74,102.05,133.65,101.88,133.36z"/>
	<path class="st19" d="M102.64,133.78c0.36,0.01,0.67,0.08,0.77,0.49c-0.23-0.05-0.46-0.11-0.69-0.16
		C102.7,134,102.67,133.89,102.64,133.78z"/>
	<path class="st19" d="M101.29,133.02c0.24,0.01,0.43,0.12,0.56,0.32C101.62,133.32,101.42,133.22,101.29,133.02z"/>
	<path class="st19" d="M103.36,134.23c0.17,0.11,0.33,0.21,0.5,0.32C103.63,134.54,103.45,134.46,103.36,134.23z"/>
	<path class="st98" d="M101.84,76.97c0.34,0.18,0.41,0.48,0.38,0.83C101.91,77.61,101.84,77.31,101.84,76.97z"/>
	<path class="st125" d="M55.47,62.97c-0.11-0.67-0.11-1.34,0.01-2.01c0.54-0.47,0.31-1.11,0.36-1.69c0.03-0.33-0.01-0.68,0.07-0.99
		c0.07-0.27,0.33-0.46,0.61-0.31c0.99,0.54,1.99,1.07,2.94,1.67c4.17,2.61,8.27,5.31,12.5,7.82c2.85,1.7,5.59,3.59,8.4,5.35
		c3.49,2.19,7.01,4.32,10.51,6.49c1.69,1.05,3.37,2.13,5.06,3.18c2.87,1.8,5.75,3.58,8.62,5.37c0.11,0.07,0.22,0.15,0.34,0.2
		c0.36,0.18,0.62-0.02,0.92-0.68c0.09-0.03,0.19-0.05,0.28-0.08c1.16,1.12,1.46,2.67,2.07,4.07c0.2,0.65,0.46,1.29,0.45,1.99
		c-0.42,1.67-1.44,1-2.28,0.5c-3.3-2-6.56-4.07-9.83-6.12C83.65,79.67,70.74,71.69,57.91,63.6C57.15,63.12,56.32,63.08,55.47,62.97z
		"/>
	<path class="st125" d="M105.06,85.35c0.14,0.14,0.28,0.29,0.43,0.43c0.1,0.11,0.12,0.2,0.07,0.28c-0.05,0.07-0.09,0.11-0.13,0.11
		C105.11,85.98,105.05,85.68,105.06,85.35z"/>
	<path class="st99" d="M105.42,86.17c0.02-0.13,0.04-0.26,0.07-0.39c0.3,0.18,0.36,0.47,0.36,0.79c-0.17,0.15-0.29,0.12-0.36-0.1
		C105.51,86.36,105.48,86.26,105.42,86.17z"/>
	<path class="st125" d="M105.49,86.47c0.12,0.04,0.24,0.07,0.36,0.1l0,0c0.23,0.25,0.25,0.51,0.03,0.78l-0.05,0.03
		C105.49,87.16,105.45,86.83,105.49,86.47z"/>
	<path class="st125" d="M104.69,84.48c0.3,0.22,0.38,0.54,0.38,0.89C104.69,85.18,104.66,84.84,104.69,84.48z"/>
	<path class="st126" d="M55.47,62.97c0.42-0.39,0.75-0.97,1.48-0.45c0.43,0.31,0.94,0.49,1.39,0.77c4.16,2.59,8.32,5.17,12.47,7.78
		c2.69,1.69,5.35,3.43,8.05,5.11c3.2,2,6.43,3.95,9.64,5.94c1.74,1.08,3.46,2.21,5.2,3.3c4.37,2.75,8.75,5.49,13.13,8.23
		c0.22,0.14,0.47,0.26,0.72,0.34c0.59,0.18,0.64-0.27,0.72-0.66c1.19,0.16,1.14,1.25,1.48,2.02c0.28,0.65,0.52,1.32,0.8,1.97
		c0.17,0.67,0.62,1.33,0.1,2.03c-0.36,0.79-0.59,0.94-1.09,0.63c-1.81-1.1-3.62-2.22-5.42-3.34c-4.17-2.59-8.33-5.18-12.49-7.79
		c-2.7-1.69-5.36-3.44-8.06-5.12c-3.66-2.28-7.34-4.52-11-6.8c-2.48-1.54-4.93-3.12-7.39-4.68c-2.52-1.6-5.14-3.04-7.58-4.76
		c-0.63-0.45-1.35-0.86-2.18-0.92C55.29,65.37,55.36,64.17,55.47,62.97z"/>
	<path class="st127" d="M55.12,86.97c0.11,0,0.22,0,0.33,0c0.86,1.33,0.86,2.67,0,4c0,0.13,0,0.27,0,0.4
		c-0.12,0.18-0.24,0.18-0.36,0C54.98,89.9,55.02,88.44,55.12,86.97z"/>
	<path class="st128" d="M55.09,91.37c0.12,0,0.24,0,0.36,0c-0.05,0.55,0.18,1.15-0.36,1.59C55.09,92.43,55.09,91.9,55.09,91.37z"/>
	<path class="st128" d="M55.45,90.97c0-1.33,0-2.67,0-4c0-0.13,0-0.27,0.01-0.4c1.08-0.6,1.77,0.3,2.49,0.75
		c6.93,4.35,13.88,8.66,20.82,13c9.98,6.25,19.96,12.5,29.95,18.73c3.84,2.39,7.66,4.8,11.55,7.12c0.83,1.5,1.34,3.11,1.6,4.8
		c-0.07,0.42-0.18,0.85-0.74,0.6c-0.61-0.27-1.2-0.58-1.76-0.93c-3.73-2.29-7.45-4.6-11.17-6.91c-1.63-1.02-3.23-2.09-4.87-3.1
		c-4.79-2.98-9.59-5.93-14.37-8.92c-2.93-1.83-5.81-3.72-8.73-5.55c-3.43-2.15-6.89-4.24-10.33-6.38c-1.69-1.05-3.33-2.18-5.04-3.2
		C61.71,94.72,58.79,92.49,55.45,90.97z"/>
	<path class="st127" d="M120.25,126.17c-0.14,0.18-0.33,0.23-0.52,0.13c-0.82-0.43-1.67-0.83-2.46-1.31
		c-3.67-2.25-7.34-4.52-11-6.81c-2.76-1.72-5.49-3.49-8.24-5.21c-3.6-2.25-7.22-4.47-10.82-6.72c-1.8-1.12-3.56-2.3-5.37-3.42
		c-4.73-2.94-9.49-5.83-14.22-8.78c-3.09-1.93-6.13-3.95-9.23-5.88c-0.94-0.59-1.83-1.31-2.95-1.58c0-1.47,0.01-2.93,0.01-4.4
		c1.04-0.62,1.8,0.15,2.53,0.61c9.68,6,19.33,12.05,28.99,18.09c9.55,5.96,19.1,11.92,28.63,17.91c0.85,0.54,1.87,0.72,2.64,1.38
		c0.69,1.1,1.05,2.31,1.2,3.59c0.18,0.24,0.24,0.55,0.47,0.75c0.07,0.13,0.11,0.28,0.11,0.43c0.02,0.29-0.05,0.6,0.2,0.83
		C120.25,125.9,120.25,126.03,120.25,126.17z"/>
	<path class="st128" d="M120.24,125.77c-0.32-0.18-0.39-0.48-0.39-0.8c0.14-0.18,0.27-0.17,0.39,0.01c0,0.13,0,0.26,0.01,0.39
		C120.25,125.5,120.25,125.64,120.24,125.77z"/>
	<path class="st129" d="M110.2,97.38c-0.6-0.58-0.68-1.41-0.99-2.13c-0.28-0.66-0.37-1.41-0.94-1.93c-0.15-0.65-0.31-1.3-0.46-1.95
		c0.92-0.41,1.68,0.08,2.4,0.49c2.46,1.39,4.92,2.79,7.33,4.27c0.1,0,0.2,0.01,0.3,0.03c1.15,1.52,1.7,3.27,1.99,5.12
		c-0.09,0.89-0.61,1.2-1.38,0.84C115.57,100.78,112.68,99.43,110.2,97.38z"/>
	<path class="st99" d="M117.54,96.14c-0.7,0.11-1.32-0.12-1.89-0.49c-1.51-0.96-3.08-1.83-4.62-2.75c-1.04-0.62-2.1-1.11-3.22-1.53
		c-0.64-1.34-1.28-2.68-1.93-4.03c-0.01-0.26-0.02-0.52-0.03-0.78c1.87,0.33,3.33,1.51,4.95,2.37c1.33,0.71,2.53,1.67,3.95,2.24
		c0.57,0.23,0.64-0.24,0.72-0.64c0.47,0.59,0.66,1.3,0.79,2.02c0.36,0.32,0,0.9,0.42,1.2l-0.01-0.01c0.2,0.23,0.13,0.58,0.35,0.81
		c0.05,0.11,0.08,0.22,0.06,0.34c0.19,0.26,0.11,0.63,0.36,0.86C117.49,95.89,117.53,96.01,117.54,96.14z"/>
	<path class="st130" d="M119.45,101.36c-0.43-1.36-0.87-2.71-1.3-4.07c-0.12-0.37-0.21-0.75-0.31-1.12
		c1.21,0.78,2.35,1.66,3.68,2.23c0.49,0.21,0.89,0.17,1.19-0.31c0.42,0.43,0.55,1.01,0.76,1.54c0.24,0.59,0.29,1.26,0.77,1.74
		c0.09,1.1,0.84,2.02,0.84,3.14c0.2,0.25,0.11,0.63,0.37,0.86c0.04,0.11,0.06,0.22,0.06,0.33c-0.12,0.17-0.3,0.3-0.49,0.21
		c-0.66-0.3-1.34-0.56-1.94-0.95c-0.77-0.51-1.61-0.85-2.46-1.18C119.14,103.5,119.93,102.12,119.45,101.36z"/>
	<path class="st129" d="M116.67,93.76c-0.5-0.27-0.42-0.75-0.42-1.2C116.65,92.87,116.67,93.31,116.67,93.76z"/>
	<path class="st130" d="M122.28,96.91c0.29,0.21,0.38,0.51,0.36,0.86C122.31,97.57,122.25,97.26,122.28,96.91z"/>
	<path class="st129" d="M117.02,94.56c-0.31-0.19-0.37-0.48-0.35-0.81C116.96,93.94,117.04,94.23,117.02,94.56z"/>
	<path class="st129" d="M117.44,95.77c-0.35-0.19-0.39-0.51-0.36-0.86C117.37,95.12,117.46,95.42,117.44,95.77z"/>
	<path class="st131" d="M118.26,120.17c-0.75,0.05-1.46-0.04-2.11-0.45c-0.95-0.6-1.9-1.21-2.86-1.81
		c-3.94-2.45-7.89-4.88-11.83-7.34c-2.76-1.72-5.48-3.49-8.24-5.21c-3.6-2.25-7.21-4.47-10.81-6.72c-1.8-1.12-3.56-2.3-5.36-3.42
		c-4.73-2.93-9.48-5.84-14.22-8.78c-1.63-1.01-3.23-2.09-4.85-3.12c-0.78-0.5-1.56-1.02-2.51-1.15c0.01-1.73,0.01-3.46,0.02-5.19
		c1.03-0.78,1.77,0.09,2.5,0.53c5.51,3.36,10.99,6.79,16.46,10.21c10.16,6.36,20.3,12.73,30.48,19.04c3.62,2.24,7.1,4.7,10.93,6.59
		c0.26,0.41,0.52,0.82,0.77,1.22c0.07,1.31,0.65,2.45,1.21,3.6c0.25,0.21,0.15,0.59,0.39,0.81h-0.01
		C118.24,119.38,118.25,119.77,118.26,120.17z"/>
	<path class="st128" d="M119.84,124.57c-0.32-0.18-0.39-0.48-0.38-0.82c0.13,0.14,0.27,0.28,0.4,0.41c0.11,0.09,0.14,0.18,0.1,0.27
		C119.92,124.53,119.88,124.57,119.84,124.57z"/>
	<path class="st93" d="M119.84,124.57c0-0.13,0.01-0.27,0.01-0.4c0.32,0.18,0.39,0.48,0.39,0.81c-0.13,0-0.26-0.01-0.39-0.01
		C119.85,124.83,119.85,124.7,119.84,124.57z"/>
	<path class="st132" d="M115.86,113.35c-0.16,0.24-0.4,0.4-0.67,0.27c-0.65-0.32-1.3-0.66-1.92-1.04c-3.67-2.26-7.33-4.52-10.98-6.8
		c-2.75-1.72-5.48-3.48-8.23-5.2c-3.59-2.25-7.2-4.47-10.8-6.72c-1.74-1.09-3.46-2.21-5.21-3.29c-4.78-2.97-9.58-5.92-14.36-8.89
		c-2.31-1.43-4.6-2.89-6.88-4.36c-0.42-0.27-0.84-0.36-1.32-0.34c0-1.47-0.03-2.93,0-4.4c0.01-0.67,0.53-0.94,1.1-0.6
		c1.82,1.1,3.62,2.22,5.43,3.35c4.12,2.56,8.23,5.12,12.34,7.69c2.48,1.55,4.93,3.14,7.4,4.69c3.26,2.05,6.54,4.07,9.81,6.11
		c3.83,2.39,7.67,4.76,11.5,7.16c2.7,1.69,5.4,3.38,8.08,5.11c0.74,0.48,1.44,0.96,2.38,0.87c1.18,0.23,1.14,1.13,1.12,2.02
		c-0.08,0.71,0.4,1.3,0.43,1.99c0.36,0.32,0.02,0.89,0.41,1.2l0,0c0.22,0.22,0.14,0.58,0.38,0.8
		C115.85,113.09,115.86,113.22,115.86,113.35z"/>
	<path class="st133" d="M114.62,108.98c-0.58-0.56-0.45-1.51-1.12-2.02c-0.07-0.98-0.47-1.85-0.84-2.74
		c-0.22-0.53-0.47-1.05-0.45-1.65c0.75-0.31,1.27,0.24,1.82,0.55c2.41,1.4,5,2.46,7.42,3.84c0.71,0.8,0.65,1.94,1.22,2.8
		c0.13,0.66,0.27,1.31,0.4,1.97c0.22,0.24,0.12,0.61,0.37,0.83c0.03,0.13,0.04,0.26,0.05,0.39c-0.73,0.03-1.38-0.08-2.05-0.52
		c-1.66-1.08-3.4-2.03-5.11-3.03C115.8,109.11,115.24,108.91,114.62,108.98z"/>
	<path class="st131" d="M115.46,112.17c-0.48-0.28-0.39-0.76-0.41-1.2C115.5,111.26,115.45,111.73,115.46,112.17z"/>
	<path class="st131" d="M115.83,112.97c-0.31-0.18-0.38-0.47-0.38-0.8C115.76,112.35,115.84,112.64,115.83,112.97z"/>
	<path class="st100" d="M118.24,118.98c-0.32-0.18-0.39-0.48-0.39-0.81C118.17,118.35,118.24,118.65,118.24,118.98z"/>
	<path class="st101" d="M123.44,112.57c-0.32-0.19-0.38-0.49-0.37-0.83C123.37,111.93,123.45,112.23,123.44,112.57z"/>
	<path class="st134" d="M121.45,106.97c-0.16,0.1-0.36,0.31-0.47,0.27c-0.43-0.16-0.84-0.38-1.24-0.61
		c-0.58-0.32-1.12-0.74-1.74-0.97c-2.08-0.76-3.88-2.02-5.78-3.09c-0.52-1.07-1.04-2.15-1.56-3.22c-0.15-0.66-0.3-1.31-0.46-1.97
		c1.65,0.55,3.11,1.48,4.58,2.36c1.32,0.79,2.7,1.42,4.07,2.1c0.45,0.22,0.56-0.12,0.6-0.48c0.29,0.21,0.32,0.54,0.46,0.83
		c0.26,0.52,0.22,1.17,0.7,1.59c0.02,0.38,0.04,0.76,0.06,1.13c0.2,0.25,0.11,0.63,0.37,0.85c0.04,0.11,0.05,0.22,0.04,0.34
		C121.27,106.37,121.19,106.74,121.45,106.97L121.45,106.97z"/>
	<path class="st103" d="M127.05,109.77c-0.35-0.19-0.4-0.51-0.37-0.86C126.97,109.12,127.06,109.42,127.05,109.77z"/>
	<path class="st106" d="M125.44,105.37c-0.33-0.19-0.39-0.51-0.37-0.85C125.37,104.72,125.45,105.03,125.44,105.37z"/>
	<path class="st133" d="M121.04,105.77c-0.33-0.19-0.39-0.51-0.37-0.85C120.97,105.13,121.05,105.43,121.04,105.77z"/>
	<path class="st133" d="M121.45,106.97c-0.35-0.19-0.4-0.51-0.37-0.86C121.38,106.32,121.46,106.63,121.45,106.97z"/>
</g>
</svg>
