<?xml version="1.0" encoding="utf-8"?>
<!-- Generator: Adobe Illustrator 25.2.1, SVG Export Plug-In . SVG Version: 6.00 Build 0)  -->
<svg version="1.1" id="Layer_1" xmlns="http://www.w3.org/2000/svg" xmlns:xlink="http://www.w3.org/1999/xlink" x="0px" y="0px"
	 viewBox="0 0 1920 1080" style="enable-background:new 0 0 1920 1080;" xml:space="preserve">
<style type="text/css">
	.st0{opacity:0.5;fill:#165C7F;}
	.st1{fill:#FF5722;}
	.st2{fill:#A7BAD8;}
	.st3{fill:#2B2F3F;}
	.st4{fill:#1D6C93;}
	.st5{fill:#FFFFFF;}
	.st6{fill:#CECECE;}
	.st7{fill:#AFAFAF;}
	.st8{fill:#D7D9DB;}
	.st9{fill:#FFED6E;}
	.st10{fill:#145B7A;}
	.st11{fill:#CBD2D8;}
	.st12{fill:#3E96CC;}
	.st13{opacity:0.2;fill:#FFFFFF;}
	.st14{fill:#30D8F1;}
	.st15{fill:#343847;}
	.st16{fill:#464F60;}
	.st17{fill:#4098CD;}
	.st18{fill:#FF5E4C;}
	.st19{fill:#46C596;}
	.st20{fill:#DFE82D;}
	.st21{fill:#E58507;}
	.st22{fill:#D16666;}
	.st23{fill:#5B6B69;}
	.st24{fill:#3D3E43;}
	.st25{fill:#ECD4B3;}
	.st26{fill:#E0A177;}
	.st27{opacity:0.4;fill:#3D3E43;}
</style>
<ellipse id="XMLID_4_" class="st0" cx="960.15" cy="962.53" rx="938.85" ry="65.47"/>
<g id="XMLID_252_">
	<g id="XMLID_3_">
		<path id="XMLID_1474_" class="st1" d="M1402.7,81.01l-53.21-14.22c-8.13-2.16-16.67,2.03-19.06,9.39l-6.82,20.9
			c-20.98-1.11-41.67,0.95-61.34,5.87l-11.53-19.15c-4.05-6.73-13.37-9.23-20.82-5.57l-48.73,23.99c-7.44,3.66-10.2,12.1-6.15,18.82
			l11.52,19.15c-15.26,12.26-28.42,26.85-38.78,43.39l-23.11-6.18c-8.13-2.18-16.66,2.03-19.06,9.38l-15.72,48.14
			c-2.41,7.36,2.24,15.07,10.38,17.23l23.11,6.17c-1.23,18.98,1.07,37.68,6.5,55.48l-21.18,10.42c-7.44,3.66-10.19,12.1-6.14,18.83
			l26.51,44.08c4.06,6.73,13.37,9.21,20.81,5.55l21.17-10.42c13.56,13.81,29.69,25.71,47.98,35.07l-6.83,20.92
			c-2.4,7.35,2.24,15.06,10.36,17.24l53.22,14.21c8.13,2.17,16.66-2.03,19.05-9.39l6.83-20.91c20.97,1.12,41.66-0.95,61.33-5.87
			l11.51,19.14c4.04,6.73,13.37,9.22,20.82,5.56l48.74-23.99c7.44-3.66,10.19-12.09,6.14-18.82l-11.53-19.14
			c15.27-12.27,28.42-26.85,38.78-43.39l23.11,6.17c8.14,2.17,16.66-2.03,19.07-9.37l15.7-48.13c2.4-7.35-2.24-15.07-10.37-17.25
			l-23.12-6.17c1.24-18.97-1.05-37.69-6.49-55.47l21.17-10.42c7.44-3.66,10.2-12.09,6.15-18.82l-26.51-44.08
			c-4.05-6.73-13.37-9.23-20.81-5.56l-21.18,10.42c-13.55-13.81-29.68-25.7-47.96-35.07l6.83-20.91
			C1415.46,90.9,1410.82,83.18,1402.7,81.01z M1334.6,200.98c41.09,10.97,64.55,49.99,52.42,87.14
			c-12.14,37.16-55.26,58.38-96.35,47.41c-41.08-10.97-64.55-49.98-52.42-87.15C1250.39,211.23,1293.52,190.01,1334.6,200.98z"/>
		<path id="XMLID_1462_" class="st2" d="M1344.37,171.08c-59.34-15.86-121.64,14.8-139.16,68.48
			c-17.53,53.67,16.37,110.02,75.7,125.87c59.35,15.85,121.65-14.81,139.17-68.48C1437.6,243.28,1403.7,186.93,1344.37,171.08z
			 M1334.6,200.98c41.09,10.97,64.55,49.99,52.42,87.14c-12.14,37.16-55.26,58.38-96.35,47.41c-41.08-10.97-64.55-49.98-52.42-87.15
			C1250.39,211.23,1293.52,190.01,1334.6,200.98z"/>
	</g>
	<g id="XMLID_5_">
		<path id="XMLID_441_" class="st1" d="M961.8,90.87l-31.24-8.35c-4.77-1.27-9.79,1.19-11.19,5.51l-4,12.27
			c-12.32-0.65-24.46,0.56-36.01,3.45l-6.77-11.24c-2.38-3.95-7.85-5.42-12.22-3.27l-28.61,14.08c-4.37,2.15-5.99,7.1-3.61,11.05
			l6.76,11.24c-8.96,7.2-16.68,15.76-22.77,25.47l-13.57-3.63c-4.77-1.28-9.78,1.19-11.19,5.51l-9.23,28.26
			c-1.41,4.32,1.32,8.84,6.09,10.12l13.57,3.62c-0.72,11.14,0.63,22.12,3.82,32.57l-12.44,6.12c-4.37,2.15-5.98,7.1-3.61,11.05
			l15.57,25.88c2.38,3.95,7.85,5.41,12.22,3.26l12.43-6.12c7.96,8.1,17.43,15.09,28.17,20.59l-4.01,12.28
			c-1.41,4.31,1.32,8.84,6.09,10.12l31.25,8.35c4.77,1.28,9.78-1.19,11.19-5.51l4.01-12.28c12.31,0.66,24.46-0.56,36.01-3.45
			l6.76,11.24c2.37,3.95,7.85,5.41,12.22,3.27l28.62-14.08c4.37-2.15,5.98-7.1,3.61-11.05l-6.77-11.24
			c8.97-7.2,16.69-15.77,22.77-25.47l13.57,3.62c4.78,1.28,9.78-1.19,11.2-5.5l9.22-28.26c1.41-4.32-1.32-8.85-6.09-10.13
			l-13.57-3.62c0.73-11.14-0.62-22.12-3.81-32.56l12.43-6.12c4.37-2.15,5.99-7.1,3.61-11.05l-15.57-25.88
			c-2.38-3.95-7.85-5.42-12.22-3.26l-12.44,6.12c-7.96-8.11-17.43-15.09-28.16-20.59l4.01-12.28
			C969.29,96.68,966.57,92.15,961.8,90.87z M921.82,161.31c24.12,6.44,37.89,29.35,30.78,51.16c-7.13,21.82-32.44,34.27-56.57,27.84
			c-24.12-6.44-37.9-29.34-30.77-51.17C872.38,167.32,897.7,154.87,921.82,161.31z"/>
		<path id="XMLID_437_" class="st2" d="M927.55,143.76c-34.84-9.31-71.41,8.69-81.7,40.2c-10.29,31.51,9.61,64.59,44.44,73.9
			c34.84,9.31,71.42-8.69,81.71-40.2C982.29,186.14,962.39,153.06,927.55,143.76z M921.82,161.31
			c24.12,6.44,37.89,29.35,30.78,51.16c-7.13,21.82-32.44,34.27-56.57,27.84c-24.12-6.44-37.9-29.34-30.77-51.17
			C872.38,167.32,897.7,154.87,921.82,161.31z"/>
	</g>
</g>
<g id="XMLID_2974_">
	<path id="XMLID_94_" class="st3" d="M1388.82,332.66v425.88H549.06V332.66c0-17.27,15.5-31.29,34.59-31.29h770.58
		C1373.32,301.38,1388.82,315.39,1388.82,332.66z"/>
	<rect id="XMLID_66_" x="585.82" y="337.15" class="st4" width="766.23" height="421.41"/>
	<polygon id="XMLID_67_" class="st5" points="1078.77,909.46 859.1,909.46 883.2,836.24 1057.15,836.24 	"/>
	<path id="XMLID_92_" class="st5" d="M1388.82,758.54v46.41c0,17.27-15.5,31.29-34.59,31.29H583.65
		c-19.09,0-34.59-14.02-34.59-31.29v-46.41H1388.82z"/>
	<polygon id="XMLID_64_" class="st6" points="883.2,836.24 875.39,859.96 1064.15,859.96 1057.15,836.24 	"/>
	<path id="XMLID_65_" class="st6" d="M1108.59,946.07h-279.3c-11.18,0-20.24-8.19-20.24-18.3l0,0c0-10.11,9.06-18.3,20.24-18.3
		h279.3c11.18,0,20.24,8.19,20.24,18.3l0,0C1128.82,937.87,1119.76,946.07,1108.59,946.07z"/>
	<g id="XMLID_1443_">
		<g id="XMLID_2812_">
			<polygon id="XMLID_2817_" class="st7" points="1065.36,666.14 851.13,473.34 878.17,448.55 1092.4,641.36 			"/>
			<path id="XMLID_2815_" class="st8" d="M811.25,438.33c-2.75-2.45-7.33-0.41-6.93,3.06c1.74,15.21,3.79,25.55,14.61,35.2
				c17.38,15.51,45.45,15.27,62.59-0.45c17.15-15.72,16.78-40.87-0.6-56.38c-9.85-8.79-19.98-8.86-36.85-10.07
				c-3.82-0.27-5.98,3.87-3.24,6.31l16.83,15.02c1.61,1.43,1.62,3.77,0.04,5.22l-21.2,19.43c-1.58,1.45-4.17,1.47-5.78,0.04
				L811.25,438.33z"/>
			<path id="XMLID_2814_" class="st8" d="M1102.34,699.73c2.75,2.45,0.55,6.62-3.29,6.31c-16.84-1.37-28.3-3.09-39.11-12.74
				c-17.38-15.51-17.49-40.9-0.34-56.62s44.96-15.73,62.34-0.22c9.85,8.79,10.07,17.95,11.62,33.19c0.35,3.46-4.2,5.46-6.93,3.02
				l-16.83-15.02c-1.61-1.43-4.19-1.42-5.78,0.03l-21.2,19.43c-1.58,1.45-1.57,3.79,0.04,5.22L1102.34,699.73z"/>
		</g>
		<g id="XMLID_1451_">
			<path id="XMLID_2811_" class="st1" d="M1047,528.18c-24.25,9.55-57.75,22.49-73.16,56.76l-37.49-33.99
				c37.92-13.86,52.31-44.12,62.93-66.04c10.6-21.93,78.63-66.02,91.95-72.49c0.78-0.37,1.58-0.68,2.38-0.92
				c12.75-4.06,26.63,7.44,26.63,7.44s12.69,12.58,8.16,24.1c-0.27,0.72-0.62,1.45-1.03,2.15
				C1120.18,457.23,1071.27,518.65,1047,528.18z"/>
			<path id="XMLID_2809_" class="st9" d="M1128.4,443.04c-0.66-0.3-11.26-4.72-21.52,2.76c-10.58,7.7-17.07,0.59-17.07,0.59
				s-7.84-5.88,0.7-15.44c8.29-9.26,3.43-18.86,3.1-19.46c12.75-4.06,26.63,7.44,26.63,7.44S1132.92,431.52,1128.4,443.04z"/>
			<path id="XMLID_2799_" class="st9" d="M973.86,584.96l-20.7,15.45c-4.06,3.03-10,2.77-13.71-0.6l-19.63-17.8
				c-3.72-3.37-3.99-8.75-0.62-12.41l17.15-18.66L973.86,584.96z"/>
			<path id="XMLID_2790_" class="st10" d="M1025.04,524.08c-3.36,2.15-15.4-5.35-15.4-5.35s-8.26-10.91-5.88-13.94
				c22.33-28.33,59.93-58.88,67.29-60.27c7.34-1.36,15.52,4.8,15.52,4.8s6.81,7.44,5.29,14.07
				C1090.29,470.02,1056.44,503.97,1025.04,524.08z"/>
			<path id="XMLID_2781_" class="st9" d="M1055.95,489.91c-18.03,16.27-35.86,26.55-39.82,22.97c-3.96-3.59,7.46-19.68,25.49-35.96
				c18.03-16.27,35.86-26.55,39.82-22.97C1085.39,457.54,1073.98,473.64,1055.95,489.91z"/>
			<polygon id="XMLID_2400_" class="st11" points="845.9,679.56 830.93,665.99 838.99,661.54 923.53,585.38 935.5,596.24 
				851.03,672.44 			"/>
			<polygon id="XMLID_2398_" class="st11" points="840.47,683.92 826.1,670.89 830.93,665.99 845.9,679.56 			"/>
			<polygon id="XMLID_2395_" class="st12" points="826.2,694.87 814.16,683.95 826.1,670.89 840.47,683.92 			"/>
			<path id="XMLID_2295_" class="st10" d="M1103.18,442.62c-2.54,2.29-6.65,2.28-9.18-0.01c-2.53-2.29-2.53-6.01,0.01-8.3
				c2.54-2.29,6.65-2.29,9.18,0.01C1105.72,436.62,1105.72,440.33,1103.18,442.62z"/>
		</g>
	</g>
	<polygon id="XMLID_2360_" class="st13" points="1353.04,339.16 1353.04,479.77 1042.57,760.55 586.84,760.55 586.84,714.34 
		1001.64,339.16 	"/>
	<polygon id="XMLID_442_" class="st13" points="895.79,337.16 585.84,617.5 585.84,449.9 710.48,337.16 	"/>
	<path id="XMLID_6_" class="st6" d="M987.81,807.66c-0.6,0.06-1.22,0.08-1.85,0.06c-6.81-0.21-12.49-5.47-12.57-11.63
		c-0.06-4.61,2.83-8.59,7.05-10.56c2.48-1.15,2.41-4.33-0.13-5.37c-1.42-0.58-2.99-0.89-4.61-0.89h-2.32l2.3-10.72
		c0.2-0.96-1.26-1.8-3.14-1.8h-3.6h-3.6c-1.88,0-3.35,0.84-3.14,1.8l2.3,10.72h-2.32c-4.27,0-8.18,2.17-10.1,5.62l-4.48,8.03
		c-0.8,1.43-1.22,3.01-1.22,4.61v19.34c0,3.19,1.65,6.21,4.46,8.14l1.33,0.92c1.97,1.36,4.38,2.1,6.86,2.1h9.91h9.91
		c2.48,0,4.89-0.74,6.86-2.1l1.33-0.92c2.81-1.94,4.46-4.95,4.46-8.14v-6.3C991.5,808.79,989.77,807.47,987.81,807.66z"/>
</g>
<g id="XMLID_2_">
	<path id="XMLID_68_" class="st14" d="M507.6,946.04H127.96c-4.09,0-7.41-3.32-7.41-7.41V161.56c0-4.09,3.32-7.41,7.41-7.41H507.6
		c4.09,0,7.41,3.32,7.41,7.41v777.07C515.02,942.73,511.7,946.04,507.6,946.04z"/>
	<path id="XMLID_410_" class="st3" d="M515.02,800.85v115.52c0,16.38-14.65,29.7-32.76,29.7h-328.9c-18.11,0-32.76-13.31-32.76-29.7
		V800.85c0,36.35,32.54,65.79,72.74,65.79h248.95C482.47,866.64,515.02,837.2,515.02,800.85z"/>
	<path id="XMLID_69_" class="st15" d="M492.88,350.49h-345.4c-2.59,0-4.69-2.1-4.69-4.69V234.98c0-2.59,2.1-4.69,4.69-4.69h345.4
		c2.59,0,4.69,2.1,4.69,4.69V345.8C497.58,348.39,495.48,350.49,492.88,350.49z"/>
	<path id="XMLID_70_" class="st16" d="M477.61,295.01H159.76c-1.73,0-3.13-1.4-3.13-3.13v-29.63c0-1.73,1.4-3.13,3.13-3.13h317.85
		c1.73,0,3.13,1.4,3.13,3.13v29.63C480.74,293.61,479.34,295.01,477.61,295.01z"/>
	<path id="XMLID_71_" class="st6" d="M210.14,283.59h-31.87c-4.65,0-8.42-3.41-8.42-7.61l0,0c0-4.21,3.77-7.61,8.42-7.61h31.87
		c4.65,0,8.42,3.41,8.42,7.61l0,0C218.56,280.18,214.79,283.59,210.14,283.59z"/>
	<path id="XMLID_97_" class="st17" d="M417.09,276.59c0,5.29-4.75,9.59-10.6,9.59c-5.85,0-10.6-4.29-10.6-9.59
		c0-5.29,4.74-9.59,10.6-9.59C412.35,267,417.09,271.3,417.09,276.59z"/>
	<ellipse id="XMLID_363_" class="st17" cx="447.53" cy="276.59" rx="10.6" ry="9.59"/>
	<path id="XMLID_100_" class="st5" d="M475.48,195.62h-89.3c-5.98,0-10.82-4.38-10.82-9.79l0,0c0-5.41,4.85-9.79,10.82-9.79h89.3
		c5.98,0,10.82,4.38,10.82,9.79l0,0C486.3,191.24,481.46,195.62,475.48,195.62z"/>
	<path id="XMLID_365_" class="st15" d="M493.04,550.1H141.92c-1.84,0-3.33-1.49-3.33-3.33v-45c0-1.84,1.49-3.33,3.33-3.33h351.12
		c1.84,0,3.33,1.49,3.33,3.33v45C496.38,548.6,494.88,550.1,493.04,550.1z"/>
	<path id="XMLID_366_" class="st5" d="M464.46,533.51h-42.49c-0.3,0-0.55-0.25-0.55-0.55v-18.75c0-0.3,0.25-0.55,0.55-0.55h42.49
		c0.3,0,0.55,0.25,0.55,0.55v18.75C465.01,533.26,464.76,533.51,464.46,533.51z"/>
	<path id="XMLID_367_" class="st15" d="M460.91,522.53h-35.39c-0.25,0-0.46-0.2-0.46-0.46v-4.97c0-0.25,0.2-0.46,0.46-0.46h35.39
		c0.25,0,0.46,0.2,0.46,0.46v4.97C461.37,522.33,461.16,522.53,460.91,522.53z"/>
	<path id="XMLID_370_" class="st5" d="M409.59,533.51H367.1c-0.3,0-0.55-0.25-0.55-0.55v-18.75c0-0.3,0.25-0.55,0.55-0.55h42.49
		c0.3,0,0.55,0.25,0.55,0.55v18.75C410.14,533.26,409.89,533.51,409.59,533.51z"/>
	<path id="XMLID_369_" class="st15" d="M406.04,522.53h-35.39c-0.25,0-0.46-0.2-0.46-0.46v-4.97c0-0.25,0.2-0.46,0.46-0.46h35.39
		c0.25,0,0.46,0.2,0.46,0.46v4.97C406.5,522.33,406.29,522.53,406.04,522.53z"/>
	<g id="XMLID_368_">
		<path id="XMLID_1685_" class="st18" d="M312.97,533.42c-5.83,0-10.57-4.29-10.57-9.57c0-5.27,4.74-9.56,10.57-9.56
			c5.83,0,10.57,4.29,10.57,9.56C323.54,529.13,318.8,533.42,312.97,533.42z M312.97,517.64c-3.79,0-6.86,2.79-6.86,6.21
			c0,3.43,3.08,6.21,6.86,6.21c3.78,0,6.87-2.79,6.87-6.21C319.84,520.43,316.76,517.64,312.97,517.64z"/>
	</g>
	<g id="XMLID_372_">
		<path id="XMLID_1496_" class="st19" d="M342.13,533.42c-5.83,0-10.57-4.29-10.57-9.57c0-5.27,4.74-9.56,10.57-9.56
			c5.83,0,10.57,4.29,10.57,9.56C352.71,529.13,347.97,533.42,342.13,533.42z M342.13,517.64c-3.78,0-6.86,2.79-6.86,6.21
			c0,3.43,3.08,6.21,6.86,6.21c3.79,0,6.87-2.79,6.87-6.21C349,520.43,345.92,517.64,342.13,517.64z"/>
	</g>
	<path id="XMLID_371_" class="st5" d="M303.04,847.87h-18.04c-4.73,0-8.57-3.47-8.57-7.75l0,0c0-4.28,3.84-7.75,8.57-7.75h18.04
		c4.73,0,8.57,3.47,8.57,7.75l0,0C311.6,844.4,307.77,847.87,303.04,847.87z"/>
	<path id="XMLID_374_" class="st5" d="M350.61,847.87h-18.04c-4.73,0-8.57-3.47-8.57-7.75l0,0c0-4.28,3.84-7.75,8.57-7.75h18.04
		c4.73,0,8.57,3.47,8.57,7.75l0,0C359.18,844.4,355.35,847.87,350.61,847.87z"/>
	<ellipse id="XMLID_373_" class="st15" cx="319.89" cy="670.43" rx="59.53" ry="53.84"/>
	<ellipse id="XMLID_375_" class="st5" cx="319.89" cy="670.43" rx="39.15" ry="35.41"/>
	<g id="XMLID_378_">
		<g id="XMLID_377_">
			<path id="XMLID_380_" class="st15" d="M319.89,693.89c-13.41,0-24.32-9.87-24.32-22c0-6.31,3-12.32,8.24-16.5
				c1.89-1.51,4.77-1.34,6.44,0.36c1.66,1.71,1.48,4.32-0.4,5.82c-3.28,2.61-5.15,6.37-5.15,10.32c0,7.58,6.82,13.75,15.2,13.75
				s15.2-6.17,15.2-13.75c0-3.94-1.87-7.7-5.14-10.31c-1.89-1.51-2.06-4.11-0.4-5.82c1.67-1.71,4.54-1.87,6.44-0.36
				c5.22,4.18,8.21,10.18,8.21,16.49C344.21,684.02,333.3,693.89,319.89,693.89z"/>
		</g>
		<g id="XMLID_376_">
			<path id="XMLID_401_" class="st15" d="M319.89,669.66L319.89,669.66c-2.52,0-4.56-1.85-4.56-4.12V651.1
				c0-2.28,2.04-4.12,4.56-4.12l0,0c2.52,0,4.56,1.85,4.56,4.12v14.44C324.45,667.81,322.41,669.66,319.89,669.66z"/>
		</g>
	</g>
</g>
<g id="XMLID_381_">
	<g id="XMLID_382_">
		<path id="XMLID_2973_" class="st19" d="M1800.25,946.07h-639.43c-2.01,0-3.63-1.63-3.63-3.63V537.7c0-2.01,1.63-3.63,3.63-3.63
			h639.43c2.01,0,3.63,1.63,3.63,3.63v404.74C1803.88,944.44,1802.26,946.07,1800.25,946.07z"/>
		<g id="XMLID_2946_">
			<rect id="XMLID_2970_" x="1492.51" y="874.17" class="st20" width="271.58" height="15.2"/>
			<g id="XMLID_2955_">
				<g>
					<g id="XMLID_217_">
						<rect x="1592.63" y="875.06" class="st21" width="10.14" height="5.5"/>
					</g>
					<g id="XMLID_216_">
						<rect x="1592.63" y="882.99" class="st21" width="10.14" height="5.5"/>
					</g>
					<rect id="XMLID_215_" x="1596.11" y="879.81" class="st21" width="3.19" height="4.16"/>
				</g>
			</g>
			<rect id="XMLID_2952_" x="1473.44" y="875.06" class="st5" width="19.07" height="13.43"/>
			<rect id="XMLID_2949_" x="1764.09" y="875.06" class="st5" width="19.07" height="13.43"/>
			<rect id="XMLID_2948_" x="1497.15" y="879.29" class="st21" width="90.98" height="5.2"/>
			<rect id="XMLID_2947_" x="1606.96" y="879.29" class="st21" width="152.52" height="5.2"/>
		</g>
		<g id="XMLID_702_">
			<rect id="XMLID_959_" x="1492.51" y="852.01" class="st20" width="271.58" height="15.2"/>
			<g id="XMLID_941_">
				<g>
					<g id="XMLID_211_">
						<rect x="1592.63" y="852.9" class="st21" width="10.14" height="5.5"/>
					</g>
					<g id="XMLID_210_">
						<rect x="1592.63" y="860.83" class="st21" width="10.14" height="5.5"/>
					</g>
					<rect id="XMLID_209_" x="1596.11" y="857.65" class="st21" width="3.19" height="4.16"/>
				</g>
			</g>
			<rect id="XMLID_936_" x="1473.44" y="852.9" class="st5" width="19.07" height="13.43"/>
			<rect id="XMLID_713_" x="1764.09" y="852.9" class="st5" width="19.07" height="13.43"/>
			<rect id="XMLID_708_" x="1497.15" y="857.13" class="st21" width="90.98" height="5.2"/>
			<rect id="XMLID_706_" x="1606.96" y="857.13" class="st21" width="152.52" height="5.2"/>
		</g>
		<g id="XMLID_962_">
			<rect id="XMLID_1014_" x="1492.51" y="829.85" class="st20" width="271.58" height="15.2"/>
			<g id="XMLID_971_">
				<g>
					<g id="XMLID_208_">
						<rect x="1592.63" y="830.74" class="st21" width="10.14" height="5.5"/>
					</g>
					<g id="XMLID_205_">
						<rect x="1592.63" y="838.67" class="st21" width="10.14" height="5.5"/>
					</g>
					<rect id="XMLID_204_" x="1596.11" y="835.49" class="st21" width="3.19" height="4.16"/>
				</g>
			</g>
			<rect id="XMLID_968_" x="1473.44" y="830.74" class="st5" width="19.07" height="13.43"/>
			<rect id="XMLID_965_" x="1764.09" y="830.74" class="st5" width="19.07" height="13.43"/>
			<rect id="XMLID_964_" x="1497.15" y="834.97" class="st21" width="90.98" height="5.2"/>
			<rect id="XMLID_963_" x="1606.96" y="834.97" class="st21" width="152.52" height="5.2"/>
		</g>
		<g id="XMLID_1030_">
			<rect id="XMLID_1054_" x="1492.51" y="807.69" class="st20" width="271.58" height="15.2"/>
			<g id="XMLID_1039_">
				<g>
					<g id="XMLID_203_">
						<rect x="1592.63" y="808.58" class="st21" width="10.14" height="5.5"/>
					</g>
					<g id="XMLID_202_">
						<rect x="1592.63" y="816.51" class="st21" width="10.14" height="5.5"/>
					</g>
					<rect id="XMLID_201_" x="1596.11" y="813.33" class="st21" width="3.19" height="4.16"/>
				</g>
			</g>
			<rect id="XMLID_1036_" x="1473.44" y="808.58" class="st5" width="19.07" height="13.43"/>
			<rect id="XMLID_1033_" x="1764.09" y="808.58" class="st5" width="19.07" height="13.43"/>
			<rect id="XMLID_1032_" x="1497.15" y="812.81" class="st21" width="90.98" height="5.2"/>
			<rect id="XMLID_1031_" x="1606.96" y="812.81" class="st21" width="152.52" height="5.2"/>
		</g>
		<g id="XMLID_2924_">
			<rect id="XMLID_2943_" x="1512.22" y="910.95" class="st20" width="117.25" height="23.76"/>
			<rect id="XMLID_2942_" x="1517.91" y="913.72" class="st22" width="7.58" height="7.16"/>
			<rect id="XMLID_2941_" x="1517.91" y="924.77" class="st22" width="7.58" height="7.16"/>
			<rect id="XMLID_2940_" x="1530.28" y="913.72" class="st22" width="7.58" height="7.16"/>
			<rect id="XMLID_2939_" x="1530.28" y="924.77" class="st22" width="7.58" height="7.16"/>
			<rect id="XMLID_2938_" x="1542.64" y="913.72" class="st22" width="7.58" height="7.16"/>
			<rect id="XMLID_2937_" x="1542.64" y="924.77" class="st22" width="7.58" height="7.16"/>
			<rect id="XMLID_2936_" x="1555" y="913.72" class="st22" width="7.58" height="7.16"/>
			<rect id="XMLID_2935_" x="1555" y="924.77" class="st22" width="7.58" height="7.16"/>
			<rect id="XMLID_2934_" x="1567.36" y="913.72" class="st22" width="7.58" height="7.16"/>
			<rect id="XMLID_2933_" x="1567.36" y="924.77" class="st22" width="7.58" height="7.16"/>
			<rect id="XMLID_2932_" x="1579.72" y="913.72" class="st22" width="7.58" height="7.16"/>
			<rect id="XMLID_2931_" x="1579.72" y="924.77" class="st22" width="7.58" height="7.16"/>
			<rect id="XMLID_2930_" x="1592.09" y="913.72" class="st22" width="7.58" height="7.16"/>
			<rect id="XMLID_2929_" x="1592.09" y="924.77" class="st22" width="7.58" height="7.16"/>
			<rect id="XMLID_2928_" x="1604.45" y="913.72" class="st22" width="7.58" height="7.16"/>
			<rect id="XMLID_2927_" x="1604.45" y="924.77" class="st22" width="7.58" height="7.16"/>
			<rect id="XMLID_2926_" x="1616.81" y="913.72" class="st22" width="7.58" height="7.16"/>
			<rect id="XMLID_2925_" x="1616.81" y="924.77" class="st22" width="7.58" height="7.16"/>
		</g>
		<g id="XMLID_9_">
			<rect id="XMLID_930_" x="1650.83" y="910.95" class="st20" width="117.25" height="23.76"/>
			<rect id="XMLID_895_" x="1656.53" y="913.72" class="st22" width="7.58" height="7.16"/>
			<rect id="XMLID_826_" x="1656.53" y="924.77" class="st22" width="7.58" height="7.16"/>
			<rect id="XMLID_786_" x="1668.89" y="913.72" class="st22" width="7.58" height="7.16"/>
			<rect id="XMLID_770_" x="1668.89" y="924.77" class="st22" width="7.58" height="7.16"/>
			<rect id="XMLID_769_" x="1681.25" y="913.72" class="st22" width="7.58" height="7.16"/>
			<rect id="XMLID_725_" x="1681.25" y="924.77" class="st22" width="7.58" height="7.16"/>
			<rect id="XMLID_717_" x="1693.61" y="913.72" class="st22" width="7.58" height="7.16"/>
			<rect id="XMLID_714_" x="1693.61" y="924.77" class="st22" width="7.58" height="7.16"/>
			<rect id="XMLID_694_" x="1705.97" y="913.72" class="st22" width="7.58" height="7.16"/>
			<rect id="XMLID_686_" x="1705.97" y="924.77" class="st22" width="7.58" height="7.16"/>
			<rect id="XMLID_685_" x="1718.34" y="913.72" class="st22" width="7.58" height="7.16"/>
			<rect id="XMLID_682_" x="1718.34" y="924.77" class="st22" width="7.58" height="7.16"/>
			<rect id="XMLID_435_" x="1730.7" y="913.72" class="st22" width="7.58" height="7.16"/>
			<rect id="XMLID_434_" x="1730.7" y="924.77" class="st22" width="7.58" height="7.16"/>
			<rect id="XMLID_11_" x="1743.06" y="913.72" class="st22" width="7.58" height="7.16"/>
			<rect id="XMLID_10_" x="1743.06" y="924.77" class="st22" width="7.58" height="7.16"/>
			<rect id="XMLID_12_" x="1755.42" y="913.72" class="st22" width="7.58" height="7.16"/>
			<rect id="XMLID_13_" x="1755.42" y="924.77" class="st22" width="7.58" height="7.16"/>
		</g>
		<g id="XMLID_2882_">
			
				<rect id="XMLID_2901_" x="1151.26" y="682.29" transform="matrix(-1.836970e-16 1 -1 -1.836970e-16 1870.6703 -491.354)" class="st23" width="59.51" height="14.74"/>
			
				<rect id="XMLID_2900_" x="1182.52" y="662.5" transform="matrix(-1.836970e-16 1 -1 -1.836970e-16 1849.1581 -519.7213)" class="st24" width="3.85" height="4.45"/>
			
				<rect id="XMLID_2899_" x="1175.66" y="662.5" transform="matrix(-1.836970e-16 1 -1 -1.836970e-16 1842.303 -512.8662)" class="st24" width="3.85" height="4.45"/>
			
				<rect id="XMLID_2898_" x="1182.52" y="668.77" transform="matrix(-1.836970e-16 1 -1 -1.836970e-16 1855.4325 -513.4468)" class="st24" width="3.85" height="4.45"/>
			
				<rect id="XMLID_2897_" x="1175.66" y="668.77" transform="matrix(-1.836970e-16 1 -1 -1.836970e-16 1848.5774 -506.5917)" class="st24" width="3.85" height="4.45"/>
			
				<rect id="XMLID_2896_" x="1182.52" y="675.04" transform="matrix(-1.836970e-16 1 -1 -1.836970e-16 1861.7068 -507.1726)" class="st24" width="3.85" height="4.45"/>
			
				<rect id="XMLID_2895_" x="1175.66" y="675.04" transform="matrix(-1.836970e-16 1 -1 -1.836970e-16 1854.8517 -500.3175)" class="st24" width="3.85" height="4.45"/>
			
				<rect id="XMLID_2894_" x="1182.52" y="681.32" transform="matrix(-1.836970e-16 1 -1 -1.836970e-16 1867.9814 -500.8979)" class="st24" width="3.85" height="4.45"/>
			
				<rect id="XMLID_2893_" x="1175.66" y="681.32" transform="matrix(-1.836970e-16 1 -1 -1.836970e-16 1861.1263 -494.0428)" class="st24" width="3.85" height="4.45"/>
			
				<rect id="XMLID_2892_" x="1182.52" y="687.59" transform="matrix(-1.836970e-16 1 -1 -1.836970e-16 1874.2557 -494.6236)" class="st24" width="3.85" height="4.45"/>
			
				<rect id="XMLID_2891_" x="1175.66" y="687.59" transform="matrix(-1.836970e-16 1 -1 -1.836970e-16 1867.4006 -487.7685)" class="st24" width="3.85" height="4.45"/>
			
				<rect id="XMLID_2890_" x="1182.52" y="693.87" transform="matrix(-1.836970e-16 1 -1 -1.836970e-16 1880.5306 -488.3488)" class="st24" width="3.85" height="4.45"/>
			
				<rect id="XMLID_2889_" x="1175.66" y="693.87" transform="matrix(-1.836970e-16 1 -1 -1.836970e-16 1873.6755 -481.4936)" class="st24" width="3.85" height="4.45"/>
			
				<rect id="XMLID_2888_" x="1182.52" y="700.14" transform="matrix(-1.836970e-16 1 -1 -1.836970e-16 1886.8052 -482.0743)" class="st24" width="3.85" height="4.45"/>
			
				<rect id="XMLID_2887_" x="1175.66" y="700.14" transform="matrix(-1.836970e-16 1 -1 -1.836970e-16 1879.95 -475.2191)" class="st24" width="3.85" height="4.45"/>
			
				<rect id="XMLID_2886_" x="1182.52" y="706.42" transform="matrix(-1.836970e-16 1 -1 -1.836970e-16 1893.0796 -475.7998)" class="st24" width="3.85" height="4.45"/>
			
				<rect id="XMLID_2885_" x="1175.66" y="706.42" transform="matrix(-1.836970e-16 1 -1 -1.836970e-16 1886.2245 -468.9447)" class="st24" width="3.85" height="4.45"/>
			
				<rect id="XMLID_2884_" x="1182.52" y="712.69" transform="matrix(-1.836970e-16 1 -1 -1.836970e-16 1899.3541 -469.5253)" class="st24" width="3.85" height="4.45"/>
			
				<rect id="XMLID_2883_" x="1175.66" y="712.69" transform="matrix(-1.836970e-16 1 -1 -1.836970e-16 1892.4989 -462.6702)" class="st24" width="3.85" height="4.45"/>
		</g>
		<path id="XMLID_2879_" class="st5" d="M1787.8,669.12c0,4.31-3.86,7.8-8.62,7.8s-8.62-3.49-8.62-7.8c0-4.31,3.86-7.8,8.62-7.8
			S1787.8,664.82,1787.8,669.12z"/>
		<ellipse id="XMLID_2876_" class="st5" cx="1610.75" cy="582.22" rx="8.62" ry="7.8"/>
		<ellipse id="XMLID_2873_" class="st5" cx="1664.57" cy="582.22" rx="8.62" ry="7.8"/>
		<path id="XMLID_2870_" class="st5" d="M1709.6,669.12c0,3.26-2.92,5.9-6.52,5.9c-3.6,0-6.52-2.64-6.52-5.9
			c0-3.26,2.92-5.9,6.52-5.9C1706.68,663.23,1709.6,665.87,1709.6,669.12z"/>
		<path id="XMLID_2867_" class="st5" d="M1709.6,686.99c0,3.26-2.92,5.9-6.52,5.9c-3.6,0-6.52-2.64-6.52-5.9
			c0-3.26,2.92-5.9,6.52-5.9C1706.68,681.09,1709.6,683.73,1709.6,686.99z"/>
		<path id="XMLID_2864_" class="st5" d="M1709.6,704.85c0,3.26-2.92,5.9-6.52,5.9c-3.6,0-6.52-2.64-6.52-5.9
			c0-3.26,2.92-5.9,6.52-5.9C1706.68,698.96,1709.6,701.6,1709.6,704.85z"/>
		<path id="XMLID_2861_" class="st5" d="M1709.6,722.72c0,3.26-2.92,5.9-6.52,5.9c-3.6,0-6.52-2.64-6.52-5.9
			c0-3.26,2.92-5.9,6.52-5.9C1706.68,716.82,1709.6,719.46,1709.6,722.72z"/>
		<path id="XMLID_2858_" class="st5" d="M1787.8,713.02c0,4.31-3.86,7.8-8.62,7.8s-8.62-3.49-8.62-7.8c0-4.31,3.86-7.8,8.62-7.8
			S1787.8,708.71,1787.8,713.02z"/>
		<g id="XMLID_2845_">
			<rect id="XMLID_2855_" x="1744.51" y="634.69" class="st20" width="17.77" height="121.86"/>
			<rect id="XMLID_2854_" x="1747.82" y="637.33" class="st21" width="11.15" height="8.25"/>
			<rect id="XMLID_2853_" x="1747.82" y="650.87" class="st21" width="11.15" height="8.26"/>
			<rect id="XMLID_2852_" x="1747.82" y="664.41" class="st21" width="11.15" height="8.25"/>
			<rect id="XMLID_2851_" x="1747.82" y="677.95" class="st21" width="11.15" height="8.25"/>
			<rect id="XMLID_2850_" x="1747.82" y="691.49" class="st21" width="11.15" height="8.26"/>
			<rect id="XMLID_2849_" x="1747.82" y="705.03" class="st21" width="11.15" height="8.25"/>
			<rect id="XMLID_2848_" x="1747.82" y="718.57" class="st21" width="11.15" height="8.25"/>
			<rect id="XMLID_2847_" x="1747.82" y="732.11" class="st21" width="11.15" height="8.25"/>
			<rect id="XMLID_2846_" x="1747.82" y="745.65" class="st21" width="11.15" height="8.25"/>
		</g>
		<g id="XMLID_2826_">
			
				<rect id="XMLID_2842_" x="1629.77" y="567.9" transform="matrix(6.123234e-17 -1 1 6.123234e-17 1032.3317 2243.2754)" class="st20" width="16.07" height="75.14"/>
			
				<rect id="XMLID_2839_" x="1602.67" y="600.91" transform="matrix(6.123234e-17 -1 1 6.123234e-17 1002.2476 2213.1912)" class="st22" width="10.09" height="9.13"/>
			
				<rect id="XMLID_2836_" x="1617.64" y="600.91" transform="matrix(6.123234e-17 -1 1 6.123234e-17 1017.2172 2228.1609)" class="st22" width="10.09" height="9.13"/>
			
				<rect id="XMLID_2833_" x="1632.61" y="600.91" transform="matrix(6.123234e-17 -1 1 6.123234e-17 1032.1869 2243.1306)" class="st22" width="10.09" height="9.13"/>
			
				<rect id="XMLID_2830_" x="1647.58" y="600.91" transform="matrix(6.123234e-17 -1 1 6.123234e-17 1047.1565 2258.1001)" class="st22" width="10.09" height="9.13"/>
			
				<rect id="XMLID_2827_" x="1662.55" y="600.91" transform="matrix(6.123234e-17 -1 1 6.123234e-17 1062.126 2273.0696)" class="st22" width="10.09" height="9.13"/>
		</g>
		<g id="XMLID_2732_">
			<rect id="XMLID_2825_" x="1717.93" y="718.61" class="st23" width="17" height="25.01"/>
			<g id="XMLID_2797_">
				<g>
					<g id="XMLID_310_">
						<rect x="1734.92" y="720.7" class="st5" width="4.49" height="2.23"/>
					</g>
					<g id="XMLID_309_">
						<rect x="1734.92" y="725.35" class="st5" width="4.49" height="2.23"/>
					</g>
					<g id="XMLID_308_">
						<rect x="1734.92" y="734.65" class="st5" width="4.49" height="2.23"/>
					</g>
					<g id="XMLID_307_">
						<rect x="1734.92" y="730" class="st5" width="4.49" height="2.23"/>
					</g>
					<g id="XMLID_306_">
						<rect x="1734.92" y="739.3" class="st5" width="4.49" height="2.23"/>
					</g>
				</g>
			</g>
			<g id="XMLID_2769_">
				<g>
					<g id="XMLID_322_">
						<rect x="1713.44" y="720.7" class="st5" width="4.49" height="2.23"/>
					</g>
					<g id="XMLID_321_">
						<rect x="1713.44" y="725.35" class="st5" width="4.49" height="2.23"/>
					</g>
					<g id="XMLID_319_">
						<rect x="1713.44" y="734.65" class="st5" width="4.49" height="2.23"/>
					</g>
					<g id="XMLID_315_">
						<rect x="1713.44" y="730" class="st5" width="4.49" height="2.23"/>
					</g>
					<g id="XMLID_313_">
						<rect x="1713.44" y="739.3" class="st5" width="4.49" height="2.23"/>
					</g>
				</g>
			</g>
			<g id="XMLID_2751_">
				<g>
					<g id="XMLID_212_">
						<rect x="1730.34" y="714.5" class="st5" width="2.46" height="4.06"/>
					</g>
					<g id="XMLID_207_">
						<rect x="1720.05" y="714.5" class="st5" width="2.46" height="4.06"/>
					</g>
					<g id="XMLID_206_">
						<rect x="1725.19" y="714.5" class="st5" width="2.46" height="4.06"/>
					</g>
				</g>
			</g>
			<g id="XMLID_2733_">
				<g>
					<g id="XMLID_221_">
						<rect x="1730.34" y="743.62" class="st5" width="2.46" height="4.06"/>
					</g>
					<g id="XMLID_214_">
						<rect x="1720.05" y="743.62" class="st5" width="2.46" height="4.06"/>
					</g>
					<g id="XMLID_213_">
						<rect x="1725.19" y="743.62" class="st5" width="2.46" height="4.06"/>
					</g>
				</g>
			</g>
		</g>
		<g id="XMLID_2638_">
			<rect id="XMLID_2731_" x="1429.87" y="861.52" class="st23" width="17" height="25"/>
			<g id="XMLID_2703_">
				<g>
					<g id="XMLID_332_">
						<rect x="1446.87" y="863.61" class="st5" width="4.49" height="2.23"/>
					</g>
					<g id="XMLID_331_">
						<rect x="1446.87" y="868.26" class="st5" width="4.49" height="2.23"/>
					</g>
					<g id="XMLID_329_">
						<rect x="1446.87" y="877.56" class="st5" width="4.49" height="2.23"/>
					</g>
					<g id="XMLID_328_">
						<rect x="1446.87" y="872.91" class="st5" width="4.49" height="2.23"/>
					</g>
					<g id="XMLID_327_">
						<rect x="1446.87" y="882.21" class="st5" width="4.49" height="2.23"/>
					</g>
				</g>
			</g>
			<g id="XMLID_2675_">
				<g>
					<g id="XMLID_343_">
						<rect x="1425.38" y="863.61" class="st5" width="4.49" height="2.23"/>
					</g>
					<g id="XMLID_342_">
						<rect x="1425.38" y="868.26" class="st5" width="4.49" height="2.23"/>
					</g>
					<g id="XMLID_341_">
						<rect x="1425.38" y="877.56" class="st5" width="4.49" height="2.23"/>
					</g>
					<g id="XMLID_340_">
						<rect x="1425.38" y="872.91" class="st5" width="4.49" height="2.23"/>
					</g>
					<g id="XMLID_338_">
						<rect x="1425.38" y="882.21" class="st5" width="4.49" height="2.23"/>
					</g>
				</g>
			</g>
			<g id="XMLID_2657_">
				<g>
					<g id="XMLID_231_">
						<rect x="1442.28" y="857.41" class="st5" width="2.46" height="4.06"/>
					</g>
					<g id="XMLID_229_">
						<rect x="1432" y="857.41" class="st5" width="2.46" height="4.06"/>
					</g>
					<g id="XMLID_228_">
						<rect x="1437.14" y="857.41" class="st5" width="2.46" height="4.06"/>
					</g>
				</g>
			</g>
			<g id="XMLID_2639_">
				<g>
					<g id="XMLID_239_">
						<rect x="1442.28" y="886.52" class="st5" width="2.46" height="4.06"/>
					</g>
					<g id="XMLID_237_">
						<rect x="1432" y="886.52" class="st5" width="2.46" height="4.06"/>
					</g>
					<g id="XMLID_235_">
						<rect x="1437.14" y="886.52" class="st5" width="2.46" height="4.06"/>
					</g>
				</g>
			</g>
		</g>
		<ellipse id="XMLID_2635_" class="st5" cx="1607.72" cy="650.51" rx="6.52" ry="5.9"/>
		<ellipse id="XMLID_2632_" class="st5" cx="1627.47" cy="650.51" rx="6.52" ry="5.9"/>
		<path id="XMLID_2629_" class="st5" d="M1647.22,644.61c3.6,0,6.52,2.64,6.52,5.9c0,3.26-2.92,5.9-6.52,5.9
			c-3.6,0-6.52-2.64-6.52-5.9C1640.7,647.25,1643.62,644.61,1647.22,644.61z"/>
		<path id="XMLID_2626_" class="st5" d="M1666.97,644.61c3.6,0,6.52,2.64,6.52,5.9c0,3.26-2.92,5.9-6.52,5.9
			c-3.6,0-6.52-2.64-6.52-5.9C1660.45,647.25,1663.37,644.61,1666.97,644.61z"/>
		<polygon id="XMLID_2625_" class="st25" points="1672.46,662.97 1672.46,750.85 1565.42,750.85 1565.42,741.77 1546.99,720.81 
			1546.99,689.7 1565.42,672.06 1565.42,662.97 		"/>
		<rect id="XMLID_2624_" x="1672.46" y="659.09" class="st23" width="18.43" height="95.85"/>
		<g id="XMLID_2619_">
			<g>
				<path id="XMLID_184_" class="st5" d="M1580.42,772.41h-9.87l-20.82-18.83v-8.6l-6.2-5.61c-0.91-0.82-0.91-2.15,0-2.96
					c0.91-0.82,2.37-0.82,3.28,0l7.56,6.83v8.6l18.1,16.37h5.58l9.37-11.71h94.56v-33.66l-7.51-6.8v-25.44l7.29-6.59V656.4
					c0-1.16,1.04-2.1,2.32-2.1c1.28,0,2.32,0.94,2.32,2.1v29.35l-7.29,6.59v21.97l7.51,6.8v39.59h-96.82L1580.42,772.41z"/>
			</g>
		</g>
		<g id="XMLID_2615_">
			<polygon id="XMLID_2618_" class="st5" points="1212.24,927.5 1212.24,904.44 1215.5,904.44 1215.5,900.77 1222.02,900.77 
				1225.24,903.69 1225.24,931.37 1215.65,931.37 1215.66,927.5 			"/>
			<g id="XMLID_2616_">
				<polygon id="XMLID_2617_" class="st17" points="1221.32,926.5 1216.97,926.5 1216.97,907.63 1219.29,907.63 1219.29,924.4 
					1221.32,924.4 				"/>
			</g>
		</g>
		<g id="XMLID_2612_">
			<path id="XMLID_2614_" class="st5" d="M1294.62,863.61c0,11.94-10.7,21.62-23.9,21.62c-13.2,0-23.9-9.68-23.9-21.62
				c0-11.94,10.7-21.62,23.9-21.62C1283.92,841.98,1294.62,851.66,1294.62,863.61z"/>
			<path id="XMLID_2613_" class="st23" d="M1288.82,863.61c0,9.05-8.11,16.38-18.11,16.38c-10,0-18.11-7.33-18.11-16.38
				c0-9.05,8.11-16.38,18.11-16.38C1280.72,847.23,1288.82,854.56,1288.82,863.61z"/>
		</g>
		<ellipse id="XMLID_2611_" class="st5" cx="1226.76" cy="882.21" rx="8.02" ry="7.25"/>
		<g id="XMLID_2608_">
			<rect id="XMLID_2610_" x="1175.01" y="809.45" class="st5" width="17.82" height="28.83"/>
			<rect id="XMLID_2609_" x="1178.2" y="813.25" class="st17" width="11.44" height="21.23"/>
		</g>
		<g id="XMLID_2605_">
			<rect id="XMLID_2607_" x="1175.01" y="765.16" class="st5" width="17.82" height="28.83"/>
			<rect id="XMLID_2606_" x="1178.2" y="768.96" class="st22" width="11.44" height="21.23"/>
		</g>
		<g id="XMLID_2602_">
			<rect id="XMLID_2604_" x="1174.38" y="869.46" class="st5" width="16.42" height="53.11"/>
			<rect id="XMLID_2603_" x="1179.41" y="874" class="st17" width="6.37" height="44.03"/>
		</g>
		<g id="XMLID_2599_">
			
				<rect id="XMLID_2601_" x="1628.89" y="754.11" transform="matrix(-1.836970e-16 1 -1 -1.836970e-16 2419.7915 -852.8456)" class="st5" width="14.85" height="58.72"/>
			
				<rect id="XMLID_2600_" x="1633.44" y="759.14" transform="matrix(-1.836970e-16 1 -1 -1.836970e-16 2419.7915 -852.8456)" class="st17" width="5.76" height="48.68"/>
		</g>
		<path id="XMLID_2598_" class="st5" d="M1460.62,928.35h-31.75c-5.63,0-10.2-4.13-10.2-9.23l0,0c0-5.1,4.57-9.23,10.2-9.23h31.75
			c5.63,0,10.2,4.13,10.2,9.23l0,0C1470.82,924.22,1466.25,928.35,1460.62,928.35z"/>
		<path id="XMLID_2597_" class="st6" d="M1459.24,924.86h-28.99c-3.5,0-6.34-2.57-6.34-5.73l0,0c0-3.17,2.84-5.73,6.34-5.73h28.99
			c3.5,0,6.34,2.57,6.34,5.73l0,0C1465.58,922.29,1462.74,924.86,1459.24,924.86z"/>
		<path id="XMLID_2596_" class="st23" d="M1435.91,919.13c0,1.43-1.28,2.59-2.86,2.59c-1.58,0-2.86-1.16-2.86-2.59
			c0-1.43,1.28-2.59,2.86-2.59C1434.63,916.54,1435.91,917.7,1435.91,919.13z"/>
		<path id="XMLID_2595_" class="st23" d="M1459.3,919.13c0,1.43-1.28,2.59-2.86,2.59c-1.58,0-2.86-1.16-2.86-2.59
			c0-1.43,1.28-2.59,2.86-2.59C1458.02,916.54,1459.3,917.7,1459.3,919.13z"/>
		<rect id="XMLID_2594_" x="1443.42" y="669.9" class="st25" width="66.49" height="22.14"/>
		<rect id="XMLID_2593_" x="1457.11" y="681.95" class="st26" width="39.11" height="8.12"/>
		<rect id="XMLID_2592_" x="1448.13" y="671.43" class="st26" width="57.08" height="4.02"/>
		<polygon id="XMLID_2591_" class="st23" points="1656.36,673.39 1652.06,668.85 1641.44,668.85 1632.65,673.39 1578.28,673.39 
			1578.28,740.09 1632.65,740.09 1641.44,744.63 1652.06,744.63 1656.36,740.09 1657.95,740.09 1657.95,673.39 		"/>
		<polygon id="XMLID_2588_" class="st5" points="1639.31,677.49 1639.31,674.79 1632.65,674.79 1632.65,672 1617.06,672 
			1617.06,674.79 1606.91,674.79 1606.91,677.49 1588.6,677.49 1588.6,697.54 1591.36,697.54 1591.36,716.8 1588.6,716.8 
			1588.6,736.87 1606.91,736.87 1606.91,739.57 1617.06,739.57 1617.06,742.37 1632.65,742.37 1632.65,739.57 1639.31,739.57 
			1639.31,736.87 1655.1,736.87 1655.1,677.49 		"/>
		<g id="XMLID_2577_">
			<rect id="XMLID_2585_" x="1731.57" y="773.54" class="st20" width="35.63" height="19.87"/>
			<g id="XMLID_2578_">
				<rect id="XMLID_2584_" x="1735.88" y="775.86" class="st22" width="6.34" height="5.99"/>
				<rect id="XMLID_2583_" x="1735.88" y="785.1" class="st22" width="6.34" height="5.99"/>
				<rect id="XMLID_2582_" x="1746.22" y="775.86" class="st22" width="6.34" height="5.99"/>
				<rect id="XMLID_2581_" x="1746.22" y="785.1" class="st22" width="6.34" height="5.99"/>
				<rect id="XMLID_2580_" x="1756.55" y="775.86" class="st22" width="6.34" height="5.99"/>
				<rect id="XMLID_2579_" x="1756.55" y="785.1" class="st22" width="6.34" height="5.99"/>
			</g>
		</g>
		<g id="XMLID_2572_">
			<rect id="XMLID_2574_" x="1698.4" y="775.74" class="st5" width="28.97" height="15.46"/>
			<rect id="XMLID_2573_" x="1702.75" y="778.92" class="st17" width="20.28" height="9.1"/>
		</g>
		<g id="XMLID_2561_">
			<rect id="XMLID_2569_" x="1731.57" y="598.51" class="st20" width="35.63" height="19.87"/>
			<g id="XMLID_2562_">
				<rect id="XMLID_2568_" x="1735.88" y="600.83" class="st22" width="6.34" height="5.99"/>
				<rect id="XMLID_2567_" x="1735.88" y="610.07" class="st22" width="6.34" height="5.99"/>
				<rect id="XMLID_2566_" x="1746.22" y="600.83" class="st22" width="6.34" height="5.99"/>
				<rect id="XMLID_2565_" x="1746.22" y="610.07" class="st22" width="6.34" height="5.99"/>
				<rect id="XMLID_2564_" x="1756.55" y="600.83" class="st22" width="6.34" height="5.99"/>
				<rect id="XMLID_2563_" x="1756.55" y="610.07" class="st22" width="6.34" height="5.99"/>
			</g>
		</g>
		<g id="XMLID_2556_">
			<rect id="XMLID_2558_" x="1698.4" y="600.72" class="st5" width="28.97" height="15.46"/>
			<rect id="XMLID_2557_" x="1702.75" y="603.9" class="st17" width="20.28" height="9.1"/>
		</g>
		<g id="XMLID_248_">
			<rect id="XMLID_264_" x="1731.57" y="572.29" class="st20" width="35.63" height="19.87"/>
			<g id="XMLID_250_">
				<rect id="XMLID_263_" x="1735.88" y="574.61" class="st22" width="6.34" height="5.99"/>
				<rect id="XMLID_262_" x="1735.88" y="583.85" class="st22" width="6.34" height="5.99"/>
				<rect id="XMLID_261_" x="1746.22" y="574.61" class="st22" width="6.34" height="5.99"/>
				<rect id="XMLID_260_" x="1746.22" y="583.85" class="st22" width="6.34" height="5.99"/>
				<rect id="XMLID_259_" x="1756.55" y="574.61" class="st22" width="6.34" height="5.99"/>
				<rect id="XMLID_254_" x="1756.55" y="583.85" class="st22" width="6.34" height="5.99"/>
			</g>
		</g>
		<g id="XMLID_14_">
			<rect id="XMLID_218_" x="1698.4" y="574.49" class="st5" width="28.97" height="15.46"/>
			<rect id="XMLID_191_" x="1702.75" y="577.67" class="st17" width="20.28" height="9.1"/>
		</g>
		<g id="XMLID_2537_">
			<rect id="XMLID_2539_" x="1489.08" y="597.97" class="st6" width="40.7" height="26.08"/>
			<rect id="XMLID_2538_" x="1489.08" y="597.97" class="st23" width="40.7" height="8.59"/>
		</g>
		<g id="XMLID_2510_">
			<rect id="XMLID_2536_" x="1411" y="615.72" class="st17" width="3.4" height="9.11"/>
			<rect id="XMLID_2535_" x="1411" y="627.34" class="st17" width="3.4" height="9.11"/>
			<rect id="XMLID_2534_" x="1411" y="638.95" class="st17" width="3.4" height="9.11"/>
			<rect id="XMLID_2533_" x="1411" y="650.57" class="st17" width="3.4" height="9.11"/>
			<rect id="XMLID_2532_" x="1411" y="662.19" class="st17" width="3.4" height="9.11"/>
			<rect id="XMLID_2531_" x="1411" y="673.81" class="st17" width="3.4" height="9.11"/>
			<rect id="XMLID_2530_" x="1411" y="685.43" class="st17" width="3.4" height="9.11"/>
			<rect id="XMLID_2529_" x="1411" y="697.04" class="st17" width="3.4" height="9.11"/>
			<rect id="XMLID_2528_" x="1411" y="708.66" class="st17" width="3.4" height="9.11"/>
			<rect id="XMLID_2527_" x="1411" y="720.28" class="st17" width="3.4" height="9.11"/>
			<rect id="XMLID_2526_" x="1411" y="731.9" class="st17" width="3.4" height="9.11"/>
			<rect id="XMLID_2525_" x="1411" y="743.52" class="st17" width="3.4" height="9.11"/>
			<rect id="XMLID_2524_" x="1411" y="755.13" class="st17" width="3.4" height="9.11"/>
			<rect id="XMLID_2523_" x="1411" y="766.75" class="st17" width="3.4" height="9.11"/>
			<rect id="XMLID_2522_" x="1411" y="778.37" class="st17" width="3.4" height="9.11"/>
			<g id="XMLID_2513_">
				<g>
					<path id="XMLID_242_" class="st5" d="M1430.2,798.83v-11.36h1.3V615.26h-17.09v172.22h1.3v11.36h-7.96v18.41h13.54v-3.21h3.46
						v3.21h13.55v-18.41H1430.2z M1424.76,798.83v7.38h-3.46v-7.38h-1.14v-11.36h5.6v11.36H1424.76z"/>
				</g>
			</g>
			<polygon id="XMLID_2512_" class="st17" points="1420.15,787.48 1420.15,798.83 1421.3,798.83 1421.3,806.21 1424.76,806.21 
				1424.76,798.83 1425.76,798.83 1425.76,787.48 			"/>
			<rect id="XMLID_2511_" x="1419.48" y="621.06" class="st17" width="6.95" height="160.61"/>
		</g>
		<g id="XMLID_2507_">
			<rect id="XMLID_2509_" x="1489.08" y="630.43" class="st6" width="40.7" height="26.08"/>
			<rect id="XMLID_2508_" x="1489.08" y="630.43" class="st23" width="40.7" height="8.59"/>
		</g>
		<g id="XMLID_2504_">
			<rect id="XMLID_2506_" x="1545.37" y="597.97" class="st6" width="40.7" height="26.08"/>
			<rect id="XMLID_2505_" x="1545.37" y="597.97" class="st23" width="40.7" height="8.59"/>
		</g>
		<g id="XMLID_2501_">
			<rect id="XMLID_2503_" x="1545.37" y="630.43" class="st6" width="40.7" height="26.08"/>
			<rect id="XMLID_2502_" x="1545.37" y="630.43" class="st23" width="40.7" height="8.59"/>
		</g>
		<g id="XMLID_2493_">
			<rect id="XMLID_2500_" x="1457.55" y="615.26" class="st6" width="17.09" height="44.99"/>
			<rect id="XMLID_2499_" x="1454.15" y="615.72" class="st23" width="3.4" height="9.11"/>
			<rect id="XMLID_2498_" x="1454.15" y="627.34" class="st23" width="3.4" height="9.11"/>
			<rect id="XMLID_2497_" x="1454.15" y="638.95" class="st23" width="3.4" height="9.11"/>
			<rect id="XMLID_2496_" x="1454.15" y="650.57" class="st23" width="3.4" height="9.11"/>
			<rect id="XMLID_2495_" x="1462.62" y="621.06" class="st23" width="6.95" height="33.38"/>
			<rect id="XMLID_2494_" x="1462.62" y="641" class="st23" width="6.95" height="2.51"/>
		</g>
		<g id="XMLID_2484_">
			<rect id="XMLID_2492_" x="1373.51" y="615.26" class="st5" width="17.09" height="56.6"/>
			<rect id="XMLID_2491_" x="1370.1" y="615.72" class="st17" width="3.4" height="9.11"/>
			<rect id="XMLID_2490_" x="1370.1" y="627.34" class="st17" width="3.4" height="9.11"/>
			<rect id="XMLID_2489_" x="1370.1" y="638.95" class="st17" width="3.4" height="9.11"/>
			<rect id="XMLID_2488_" x="1370.1" y="650.57" class="st17" width="3.4" height="9.11"/>
			<rect id="XMLID_2487_" x="1370.1" y="662.19" class="st17" width="3.4" height="9.11"/>
			<rect id="XMLID_2486_" x="1378.58" y="621.06" class="st17" width="6.95" height="45"/>
			<rect id="XMLID_2485_" x="1378.58" y="651.51" class="st5" width="6.95" height="2.88"/>
		</g>
		<g id="XMLID_2475_">
			<rect id="XMLID_2483_" x="1330.76" y="615.26" class="st5" width="17.09" height="56.6"/>
			<rect id="XMLID_2482_" x="1327.36" y="615.72" class="st17" width="3.4" height="9.11"/>
			<rect id="XMLID_2481_" x="1327.36" y="627.34" class="st17" width="3.4" height="9.11"/>
			<rect id="XMLID_2480_" x="1327.36" y="638.95" class="st17" width="3.4" height="9.11"/>
			<rect id="XMLID_2479_" x="1327.36" y="650.57" class="st17" width="3.4" height="9.11"/>
			<rect id="XMLID_2478_" x="1327.36" y="662.19" class="st17" width="3.4" height="9.11"/>
			<rect id="XMLID_2477_" x="1335.83" y="621.06" class="st17" width="6.95" height="45"/>
			<rect id="XMLID_2476_" x="1335.83" y="651.51" class="st5" width="6.95" height="2.88"/>
		</g>
		<g id="XMLID_2448_">
			<rect id="XMLID_2474_" x="1282.84" y="615.72" class="st17" width="3.4" height="9.11"/>
			<rect id="XMLID_2473_" x="1282.84" y="627.34" class="st17" width="3.4" height="9.11"/>
			<rect id="XMLID_2472_" x="1282.84" y="638.95" class="st17" width="3.4" height="9.11"/>
			<rect id="XMLID_2471_" x="1282.84" y="650.57" class="st17" width="3.4" height="9.11"/>
			<rect id="XMLID_2470_" x="1282.84" y="662.19" class="st17" width="3.4" height="9.11"/>
			<rect id="XMLID_2469_" x="1282.84" y="673.81" class="st17" width="3.4" height="9.11"/>
			<rect id="XMLID_2468_" x="1282.84" y="685.43" class="st17" width="3.4" height="9.11"/>
			<rect id="XMLID_2467_" x="1282.84" y="697.04" class="st17" width="3.4" height="9.11"/>
			<rect id="XMLID_2466_" x="1282.84" y="708.66" class="st17" width="3.4" height="9.11"/>
			<rect id="XMLID_2465_" x="1282.84" y="720.28" class="st17" width="3.4" height="9.11"/>
			<rect id="XMLID_2464_" x="1282.84" y="731.9" class="st17" width="3.4" height="9.11"/>
			<rect id="XMLID_2463_" x="1282.84" y="743.52" class="st17" width="3.4" height="9.11"/>
			<rect id="XMLID_2462_" x="1282.84" y="755.13" class="st17" width="3.4" height="9.11"/>
			<rect id="XMLID_2461_" x="1282.84" y="766.75" class="st17" width="3.4" height="9.11"/>
			<rect id="XMLID_2460_" x="1282.84" y="778.37" class="st17" width="3.4" height="9.11"/>
			<g id="XMLID_2451_">
				<g>
					<path id="XMLID_255_" class="st5" d="M1302.04,798.83v-11.36h1.3V615.26h-17.09v172.22h1.3v11.36h-7.96v18.41h13.54v-3.21h3.46
						v3.21h13.55v-18.41H1302.04z M1296.59,798.83v7.38h-3.46v-7.38h-1.14v-11.36h5.6v11.36H1296.59z"/>
				</g>
			</g>
			<polygon id="XMLID_2450_" class="st17" points="1291.99,787.48 1291.99,798.83 1293.13,798.83 1293.13,806.21 1296.59,806.21 
				1296.59,798.83 1297.59,798.83 1297.59,787.48 			"/>
			<rect id="XMLID_2449_" x="1291.32" y="621.06" class="st17" width="6.95" height="160.61"/>
		</g>
		<g id="XMLID_2436_">
			<polygon id="XMLID_2445_" class="st5" points="1263.54,605.29 1263.54,768.96 1242.07,768.96 1242.07,605.29 1248.89,605.29 
				1248.89,611.85 1256.72,611.85 1256.72,605.29 			"/>
			<rect id="XMLID_2444_" x="1243.99" y="607.14" class="st6" width="2.82" height="2.49"/>
			<rect id="XMLID_2443_" x="1258.65" y="607.14" class="st6" width="2.82" height="2.49"/>
			<rect id="XMLID_2442_" x="1243.99" y="732.9" class="st6" width="2.82" height="2.49"/>
			<rect id="XMLID_2441_" x="1258.65" y="732.9" class="st6" width="2.82" height="2.49"/>
			<rect id="XMLID_2440_" x="1249.33" y="615.26" class="st6" width="6.95" height="146.75"/>
			<rect id="XMLID_2437_" x="1249.33" y="732.4" class="st5" width="6.95" height="3.49"/>
		</g>
		<g id="XMLID_2428_">
			<polygon id="XMLID_2435_" class="st25" points="1221.24,605.29 1221.24,768.96 1199.77,768.96 1199.77,605.29 1206.59,605.29 
				1206.59,611.85 1214.42,611.85 1214.42,605.29 			"/>
			<rect id="XMLID_2434_" x="1201.69" y="607.14" class="st26" width="2.82" height="2.49"/>
			<rect id="XMLID_2433_" x="1216.35" y="607.14" class="st26" width="2.82" height="2.49"/>
			<rect id="XMLID_2432_" x="1201.69" y="732.9" class="st26" width="2.82" height="2.49"/>
			<rect id="XMLID_2431_" x="1216.35" y="732.9" class="st26" width="2.82" height="2.49"/>
			<rect id="XMLID_2430_" x="1207.03" y="615.26" class="st26" width="6.95" height="146.75"/>
			<rect id="XMLID_2429_" x="1207.03" y="732.4" class="st25" width="6.95" height="3.49"/>
		</g>
		<rect id="XMLID_2427_" x="1173.13" y="598.85" class="st5" width="20.57" height="34.72"/>
		<path id="XMLID_2426_" class="st6" d="M1173.13,625.51L1173.13,625.51v-18.61l0,0c-1.92,0-3.48,1.41-3.48,3.14v12.32
			C1169.65,624.11,1171.21,625.51,1173.13,625.51z"/>
		<rect id="XMLID_2423_" x="1177.14" y="545.82" class="st5" width="44.09" height="41.14"/>
		<g id="XMLID_2419_">
			<path id="XMLID_2420_" class="st6" d="M1215.17,581.19h-31.95v-29.61h31.95V581.19z M1190.17,574.9h18.04v-17.03h-18.04V574.9z"
				/>
		</g>
		<g id="XMLID_2411_">
			<rect id="XMLID_2416_" x="1214.06" y="790.88" class="st5" width="44.09" height="41.14"/>
			<g id="XMLID_2412_">
				<path id="XMLID_2413_" class="st6" d="M1252.08,826.26h-31.95v-29.61h31.95V826.26z M1227.09,819.97h18.04v-17.03h-18.04V819.97
					z"/>
			</g>
		</g>
		<g id="XMLID_2404_">
			<rect id="XMLID_2410_" x="1236.11" y="546.95" class="st6" width="54.86" height="38.87"/>
			<rect id="XMLID_2409_" x="1236.11" y="546.95" class="st23" width="7.34" height="6.64"/>
			<rect id="XMLID_2408_" x="1283.63" y="546.95" class="st23" width="7.34" height="6.64"/>
			<rect id="XMLID_2407_" x="1236.11" y="579.18" class="st23" width="7.34" height="6.64"/>
			<rect id="XMLID_2406_" x="1283.63" y="579.18" class="st23" width="7.34" height="6.64"/>
			<rect id="XMLID_2405_" x="1243.45" y="553.59" class="st23" width="40.18" height="25.59"/>
		</g>
		<rect id="XMLID_2403_" x="1303.94" y="591.94" class="st23" width="45.05" height="12.05"/>
		<rect id="XMLID_2402_" x="1368.99" y="591.94" class="st23" width="19.85" height="12.05"/>
		<g id="XMLID_2389_">
			<path id="XMLID_2399_" class="st5" d="M1331.08,554.9c0,4.39-3.94,7.95-8.79,7.95s-8.79-3.56-8.79-7.95
				c0-4.39,3.94-7.95,8.79-7.95S1331.08,550.51,1331.08,554.9z"/>
			<path id="XMLID_2396_" class="st5" d="M1349,554.9c0,4.39-3.93,7.95-8.79,7.95c-4.85,0-8.79-3.56-8.79-7.95
				c0-4.39,3.93-7.95,8.79-7.95C1345.06,546.95,1349,550.51,1349,554.9z"/>
			<path id="XMLID_2393_" class="st5" d="M1331.08,571.23c0,4.39-3.94,7.95-8.79,7.95s-8.79-3.56-8.79-7.95
				c0-4.39,3.94-7.95,8.79-7.95S1331.08,566.84,1331.08,571.23z"/>
			<path id="XMLID_2390_" class="st5" d="M1349,571.23c0,4.39-3.93,7.95-8.79,7.95c-4.85,0-8.79-3.56-8.79-7.95
				c0-4.39,3.93-7.95,8.79-7.95C1345.06,563.29,1349,566.84,1349,571.23z"/>
		</g>
		<g id="XMLID_2376_">
			<path id="XMLID_2386_" class="st5" d="M1359.43,713.45c0,8.57-7.68,15.51-17.15,15.51c-9.47,0-17.15-6.94-17.15-15.51
				c0-8.57,7.68-15.51,17.15-15.51C1351.75,697.93,1359.43,704.88,1359.43,713.45z"/>
			<path id="XMLID_2383_" class="st5" d="M1394.39,713.45c0,8.57-7.68,15.51-17.15,15.51c-9.47,0-17.15-6.94-17.15-15.51
				c0-8.57,7.68-15.51,17.15-15.51C1386.71,697.93,1394.39,704.88,1394.39,713.45z"/>
			<path id="XMLID_2380_" class="st5" d="M1359.43,745.33c0,8.57-7.68,15.51-17.15,15.51c-9.47,0-17.15-6.95-17.15-15.51
				c0-8.57,7.68-15.51,17.15-15.51C1351.75,729.81,1359.43,736.76,1359.43,745.33z"/>
			<path id="XMLID_2377_" class="st5" d="M1394.39,745.33c0,8.57-7.68,15.51-17.15,15.51c-9.47,0-17.15-6.95-17.15-15.51
				c0-8.57,7.68-15.51,17.15-15.51C1386.71,729.81,1394.39,736.76,1394.39,745.33z"/>
		</g>
		<rect id="XMLID_2375_" x="1318.87" y="784.29" class="st23" width="79.58" height="13.45"/>
		<rect id="XMLID_2374_" x="1318.87" y="800.58" class="st23" width="79.58" height="4.02"/>
		<rect id="XMLID_2373_" x="1318.87" y="807.44" class="st23" width="79.58" height="4.02"/>
		<rect id="XMLID_2372_" x="1318.87" y="797.74" class="st24" width="79.58" height="2.84"/>
		<rect id="XMLID_2371_" x="1318.87" y="804.6" class="st24" width="79.58" height="2.84"/>
		<rect id="XMLID_2370_" x="1318.87" y="814.29" class="st23" width="79.58" height="4.02"/>
		<rect id="XMLID_2369_" x="1318.87" y="811.46" class="st24" width="79.58" height="2.84"/>
		<rect id="XMLID_2368_" x="1318.87" y="821.15" class="st23" width="79.58" height="6.58"/>
		<rect id="XMLID_2367_" x="1318.87" y="818.31" class="st24" width="79.58" height="2.84"/>
		<rect id="XMLID_2366_" x="1318.87" y="827.73" class="st24" width="79.58" height="2.96"/>
		<rect id="XMLID_2365_" x="1318.87" y="830.69" class="st23" width="79.58" height="6.58"/>
		<rect id="XMLID_2364_" x="1318.87" y="837.27" class="st24" width="79.58" height="2.96"/>
		<rect id="XMLID_2363_" x="1318.87" y="840.24" class="st23" width="79.58" height="25.11"/>
		<rect id="XMLID_2362_" x="1495.99" y="527.82" class="st23" width="28.01" height="41.06"/>
		<rect id="XMLID_2361_" x="1503.14" y="522.58" class="st24" width="13.18" height="5.24"/>
		<rect id="XMLID_2358_" x="1528.83" y="527.82" class="st5" width="36.89" height="38.57"/>
		<rect id="XMLID_2357_" x="1528.83" y="566.54" class="st25" width="36.89" height="12.64"/>
		<rect id="XMLID_2354_" x="1570.55" y="532.89" class="st5" width="28.2" height="32.67"/>
		<g id="XMLID_2352_">
			<polygon id="XMLID_2353_" class="st6" points="1582.28,547.12 1579.48,544.59 1579.48,536.16 1577.6,536.16 1577.6,544.59 
				1574.8,547.12 1573.16,545.64 1575.28,543.72 1575.28,534.07 1581.8,534.07 1581.8,543.72 1583.92,545.64 			"/>
		</g>
		<rect id="XMLID_2351_" x="1576.95" y="530.52" class="st23" width="3.19" height="4.6"/>
		<g id="XMLID_2349_">
			<polygon id="XMLID_2350_" class="st6" points="1594.66,547.12 1591.86,544.59 1591.86,536.16 1589.97,536.16 1589.97,544.59 
				1587.17,547.12 1585.53,545.64 1587.66,543.72 1587.66,534.07 1594.18,534.07 1594.18,543.72 1596.3,545.64 			"/>
		</g>
		<rect id="XMLID_2348_" x="1589.32" y="530.52" class="st23" width="3.19" height="4.6"/>
		<polygon id="XMLID_2347_" class="st6" points="1672.13,532.82 1645.98,532.82 1619.82,532.82 1607.25,532.82 1607.25,542.32 
			1619.82,542.32 1619.82,558.57 1645.98,558.57 1672.13,558.57 1672.13,542.32 1684.7,542.32 1684.7,532.82 		"/>
		<path id="XMLID_2344_" class="st5" d="M1679.73,522.62h-4.38c-1.58,0-2.86-1.16-2.86-2.59v-0.43c0-0.98-0.88-1.77-1.96-1.77
			h-24.56h-24.55c-1.08,0-1.96,0.79-1.96,1.77v0.43c0,1.43-1.28,2.59-2.86,2.59h-4.38c-1.08,0-1.96,0.79-1.96,1.77v8.5l35.71-0.07
			l35.71,0.07v-8.5C1681.69,523.41,1680.81,522.62,1679.73,522.62z"/>
		<path id="XMLID_2341_" class="st5" d="M1753.73,522.62h-3.64c-1.31,0-2.38-1.16-2.38-2.59v-0.43c0-0.98-0.73-1.77-1.62-1.77h-20.4
			h-20.4c-0.9,0-1.62,0.79-1.62,1.77v0.43c0,1.43-1.06,2.59-2.38,2.59h-3.64c-0.9,0-1.62,0.79-1.62,1.77v8.5l29.66-0.07l29.66,0.07
			v-8.5C1755.35,523.41,1754.62,522.62,1753.73,522.62z"/>
		<polygon id="XMLID_2340_" class="st6" points="1757.96,532.89 1694.07,532.89 1694.07,539.2 1707.92,539.2 1707.92,547.41 
			1744.11,547.41 1744.11,539.2 1757.96,539.2 		"/>
		<rect id="XMLID_2337_" x="1768.34" y="527.47" class="st5" width="29.75" height="35.47"/>
		<rect id="XMLID_2336_" x="1768.34" y="557.7" class="st25" width="29.75" height="5.24"/>
		<rect id="XMLID_2335_" x="1446.64" y="762.14" class="st6" width="74.46" height="25.33"/>
		<rect id="XMLID_2334_" x="1452" y="756.64" class="st23" width="20.43" height="5.5"/>
		<rect id="XMLID_2333_" x="1477.79" y="756.64" class="st23" width="38.97" height="5.5"/>
		<rect id="XMLID_2332_" x="1336.45" y="890.86" class="st6" width="67.31" height="25.33"/>
		<rect id="XMLID_2331_" x="1341.29" y="885.36" class="st23" width="18.47" height="5.5"/>
		<rect id="XMLID_2330_" x="1364.6" y="885.36" class="st23" width="35.23" height="5.5"/>
		<g id="XMLID_2245_">
			<polygon id="XMLID_2248_" class="st5" points="1232.52,927.5 1232.52,904.44 1235.78,904.44 1235.78,900.77 1242.3,900.77 
				1245.53,903.69 1245.53,931.37 1235.93,931.37 1235.94,927.5 			"/>
			<g id="XMLID_2246_">
				<polygon id="XMLID_2247_" class="st17" points="1241.6,926.5 1237.26,926.5 1237.26,907.63 1239.57,907.63 1239.57,924.4 
					1241.6,924.4 				"/>
			</g>
		</g>
		<g id="XMLID_2241_">
			<polygon id="XMLID_2244_" class="st5" points="1252.81,927.5 1252.81,904.44 1256.07,904.44 1256.07,900.77 1262.58,900.77 
				1265.81,903.69 1265.81,931.37 1256.21,931.37 1256.22,927.5 			"/>
			<g id="XMLID_2242_">
				<polygon id="XMLID_2243_" class="st17" points="1261.88,926.5 1257.54,926.5 1257.54,907.63 1259.86,907.63 1259.86,924.4 
					1261.88,924.4 				"/>
			</g>
		</g>
		<g id="XMLID_2237_">
			<polygon id="XMLID_2240_" class="st5" points="1273.09,927.5 1273.09,904.44 1276.35,904.44 1276.35,900.77 1282.87,900.77 
				1286.09,903.69 1286.09,931.37 1276.49,931.37 1276.51,927.5 			"/>
			<g id="XMLID_2238_">
				<polygon id="XMLID_2239_" class="st17" points="1282.17,926.5 1277.82,926.5 1277.82,907.63 1280.14,907.63 1280.14,924.4 
					1282.17,924.4 				"/>
			</g>
		</g>
		<g id="XMLID_2233_">
			<polygon id="XMLID_2236_" class="st5" points="1306.59,927.5 1306.59,904.44 1309.85,904.44 1309.85,900.77 1316.37,900.77 
				1319.59,903.69 1319.59,931.37 1309.99,931.37 1310.01,927.5 			"/>
			<g id="XMLID_2234_">
				<polygon id="XMLID_2235_" class="st17" points="1315.67,926.5 1311.32,926.5 1311.32,907.63 1313.64,907.63 1313.64,924.4 
					1315.67,924.4 				"/>
			</g>
		</g>
		<g id="XMLID_2041_">
			<rect id="XMLID_2232_" x="1717.93" y="679.03" class="st23" width="17" height="25.01"/>
			<g id="XMLID_2204_">
				<g>
					<g id="XMLID_357_">
						<rect x="1734.92" y="681.11" class="st5" width="4.49" height="2.23"/>
					</g>
					<g id="XMLID_348_">
						<rect x="1734.92" y="685.77" class="st5" width="4.49" height="2.23"/>
					</g>
					<g id="XMLID_347_">
						<rect x="1734.92" y="695.07" class="st5" width="4.49" height="2.23"/>
					</g>
					<g id="XMLID_346_">
						<rect x="1734.92" y="690.42" class="st5" width="4.49" height="2.23"/>
					</g>
					<g id="XMLID_345_">
						<rect x="1734.92" y="699.72" class="st5" width="4.49" height="2.23"/>
					</g>
				</g>
			</g>
			<g id="XMLID_2095_">
				<g>
					<g id="XMLID_356_">
						<rect x="1713.44" y="681.11" class="st5" width="4.49" height="2.23"/>
					</g>
					<g id="XMLID_355_">
						<rect x="1713.44" y="685.77" class="st5" width="4.49" height="2.23"/>
					</g>
					<g id="XMLID_354_">
						<rect x="1713.44" y="695.07" class="st5" width="4.49" height="2.23"/>
					</g>
					<g id="XMLID_353_">
						<rect x="1713.44" y="690.42" class="st5" width="4.49" height="2.23"/>
					</g>
					<g id="XMLID_352_">
						<rect x="1713.44" y="699.72" class="st5" width="4.49" height="2.23"/>
					</g>
				</g>
			</g>
			<g id="XMLID_2072_">
				<g>
					<g id="XMLID_257_">
						<rect x="1730.34" y="674.92" class="st5" width="2.46" height="4.06"/>
					</g>
					<g id="XMLID_256_">
						<rect x="1720.05" y="674.92" class="st5" width="2.46" height="4.06"/>
					</g>
					<g id="XMLID_253_">
						<rect x="1725.19" y="674.92" class="st5" width="2.46" height="4.06"/>
					</g>
				</g>
			</g>
			<g id="XMLID_2042_">
				<g>
					<g id="XMLID_251_">
						<rect x="1730.34" y="704.03" class="st5" width="2.46" height="4.06"/>
					</g>
					<g id="XMLID_249_">
						<rect x="1720.05" y="704.03" class="st5" width="2.46" height="4.06"/>
					</g>
					<g id="XMLID_247_">
						<rect x="1725.19" y="704.03" class="st5" width="2.46" height="4.06"/>
					</g>
				</g>
			</g>
		</g>
		<g id="XMLID_710_">
			<rect id="XMLID_2036_" x="1717.93" y="639.45" class="st23" width="17" height="25.01"/>
			<g id="XMLID_1384_">
				<g>
					<g id="XMLID_351_">
						<rect x="1734.92" y="641.53" class="st5" width="4.49" height="2.23"/>
					</g>
					<g id="XMLID_350_">
						<rect x="1734.92" y="646.18" class="st5" width="4.49" height="2.23"/>
					</g>
					<g id="XMLID_349_">
						<rect x="1734.92" y="655.49" class="st5" width="4.49" height="2.23"/>
					</g>
					<g id="XMLID_344_">
						<rect x="1734.92" y="650.84" class="st5" width="4.49" height="2.23"/>
					</g>
					<g id="XMLID_339_">
						<rect x="1734.92" y="660.14" class="st5" width="4.49" height="2.23"/>
					</g>
				</g>
			</g>
			<g id="XMLID_1347_">
				<g>
					<g id="XMLID_337_">
						<rect x="1713.44" y="641.53" class="st5" width="4.49" height="2.23"/>
					</g>
					<g id="XMLID_336_">
						<rect x="1713.44" y="646.18" class="st5" width="4.49" height="2.23"/>
					</g>
					<g id="XMLID_335_">
						<rect x="1713.44" y="655.49" class="st5" width="4.49" height="2.23"/>
					</g>
					<g id="XMLID_334_">
						<rect x="1713.44" y="650.84" class="st5" width="4.49" height="2.23"/>
					</g>
					<g id="XMLID_333_">
						<rect x="1713.44" y="660.14" class="st5" width="4.49" height="2.23"/>
					</g>
				</g>
			</g>
			<g id="XMLID_742_">
				<g>
					<g id="XMLID_246_">
						<rect x="1730.34" y="635.34" class="st5" width="2.46" height="4.06"/>
					</g>
					<g id="XMLID_245_">
						<rect x="1720.05" y="635.34" class="st5" width="2.46" height="4.06"/>
					</g>
					<g id="XMLID_241_">
						<rect x="1725.19" y="635.34" class="st5" width="2.46" height="4.06"/>
					</g>
				</g>
			</g>
			<g id="XMLID_712_">
				<g>
					<g id="XMLID_240_">
						<rect x="1730.34" y="664.45" class="st5" width="2.46" height="4.06"/>
					</g>
					<g id="XMLID_238_">
						<rect x="1720.05" y="664.45" class="st5" width="2.46" height="4.06"/>
					</g>
					<g id="XMLID_236_">
						<rect x="1725.19" y="664.45" class="st5" width="2.46" height="4.06"/>
					</g>
				</g>
			</g>
		</g>
		<g id="XMLID_566_">
			
				<rect id="XMLID_709_" x="1650.97" y="616.8" transform="matrix(6.123234e-17 -1 1 6.123234e-17 1028.0282 2289.2764)" class="st23" width="15.37" height="27.65"/>
			<g id="XMLID_669_">
				<g>
					<g id="XMLID_330_">
						<rect x="1647.14" y="618.87" class="st5" width="2.46" height="4.06"/>
					</g>
					<g id="XMLID_326_">
						<rect x="1652.28" y="618.87" class="st5" width="2.46" height="4.06"/>
					</g>
					<g id="XMLID_325_">
						<rect x="1662.56" y="618.87" class="st5" width="2.46" height="4.06"/>
					</g>
					<g id="XMLID_324_">
						<rect x="1657.42" y="618.87" class="st5" width="2.46" height="4.06"/>
					</g>
					<g id="XMLID_323_">
						<rect x="1667.71" y="618.87" class="st5" width="2.46" height="4.06"/>
					</g>
				</g>
			</g>
			<g id="XMLID_631_">
				<g>
					<g id="XMLID_320_">
						<rect x="1647.14" y="638.31" class="st5" width="2.46" height="4.06"/>
					</g>
					<g id="XMLID_318_">
						<rect x="1652.28" y="638.31" class="st5" width="2.46" height="4.06"/>
					</g>
					<g id="XMLID_317_">
						<rect x="1662.56" y="638.31" class="st5" width="2.46" height="4.06"/>
					</g>
					<g id="XMLID_316_">
						<rect x="1657.42" y="638.31" class="st5" width="2.46" height="4.06"/>
					</g>
					<g id="XMLID_314_">
						<rect x="1667.71" y="638.31" class="st5" width="2.46" height="4.06"/>
					</g>
				</g>
			</g>
			<g id="XMLID_585_">
				<g>
					<g id="XMLID_234_">
						<rect x="1640.29" y="624.86" class="st5" width="4.49" height="2.23"/>
					</g>
					<g id="XMLID_233_">
						<rect x="1640.29" y="634.16" class="st5" width="4.49" height="2.23"/>
					</g>
					<g id="XMLID_232_">
						<rect x="1640.29" y="629.51" class="st5" width="4.49" height="2.23"/>
					</g>
				</g>
			</g>
			<g id="XMLID_567_">
				<g>
					<g id="XMLID_230_">
						<rect x="1672.47" y="624.86" class="st5" width="4.49" height="2.23"/>
					</g>
					<g id="XMLID_227_">
						<rect x="1672.47" y="634.16" class="st5" width="4.49" height="2.23"/>
					</g>
					<g id="XMLID_226_">
						<rect x="1672.47" y="629.51" class="st5" width="4.49" height="2.23"/>
					</g>
				</g>
			</g>
		</g>
		<g id="XMLID_430_">
			
				<rect id="XMLID_565_" x="1609.03" y="616.8" transform="matrix(6.123234e-17 -1 1 6.123234e-17 986.0889 2247.3372)" class="st23" width="15.37" height="27.65"/>
			<g id="XMLID_537_">
				<g>
					<g id="XMLID_312_">
						<rect x="1605.2" y="618.87" class="st5" width="2.46" height="4.06"/>
					</g>
					<g id="XMLID_311_">
						<rect x="1610.34" y="618.87" class="st5" width="2.46" height="4.06"/>
					</g>
					<g id="XMLID_300_">
						<rect x="1620.62" y="618.87" class="st5" width="2.46" height="4.06"/>
					</g>
					<g id="XMLID_299_">
						<rect x="1615.48" y="618.87" class="st5" width="2.46" height="4.06"/>
					</g>
					<g id="XMLID_298_">
						<rect x="1625.77" y="618.87" class="st5" width="2.46" height="4.06"/>
					</g>
				</g>
			</g>
			<g id="XMLID_480_">
				<g>
					<g id="XMLID_305_">
						<rect x="1605.2" y="638.31" class="st5" width="2.46" height="4.06"/>
					</g>
					<g id="XMLID_304_">
						<rect x="1610.34" y="638.31" class="st5" width="2.46" height="4.06"/>
					</g>
					<g id="XMLID_303_">
						<rect x="1620.62" y="638.31" class="st5" width="2.46" height="4.06"/>
					</g>
					<g id="XMLID_302_">
						<rect x="1615.48" y="638.31" class="st5" width="2.46" height="4.06"/>
					</g>
					<g id="XMLID_301_">
						<rect x="1625.77" y="638.31" class="st5" width="2.46" height="4.06"/>
					</g>
				</g>
			</g>
			<g id="XMLID_457_">
				<g>
					<g id="XMLID_225_">
						<rect x="1598.35" y="624.86" class="st5" width="4.49" height="2.23"/>
					</g>
					<g id="XMLID_224_">
						<rect x="1598.35" y="634.16" class="st5" width="4.49" height="2.23"/>
					</g>
					<g id="XMLID_223_">
						<rect x="1598.35" y="629.51" class="st5" width="4.49" height="2.23"/>
					</g>
				</g>
			</g>
			<g id="XMLID_431_">
				<g>
					<g id="XMLID_222_">
						<rect x="1630.54" y="624.86" class="st5" width="4.49" height="2.23"/>
					</g>
					<g id="XMLID_220_">
						<rect x="1630.54" y="634.16" class="st5" width="4.49" height="2.23"/>
					</g>
					<g id="XMLID_219_">
						<rect x="1630.54" y="629.51" class="st5" width="4.49" height="2.23"/>
					</g>
				</g>
			</g>
		</g>
		<g id="XMLID_385_">
			<rect id="XMLID_429_" x="1370.1" y="546.95" class="st6" width="54.86" height="38.87"/>
			<rect id="XMLID_420_" x="1369.84" y="546.95" class="st23" width="7.34" height="6.64"/>
			<rect id="XMLID_418_" x="1369.84" y="579.18" class="st23" width="7.34" height="6.64"/>
			<rect id="XMLID_417_" x="1417.62" y="546.95" class="st23" width="7.34" height="6.64"/>
			<rect id="XMLID_415_" x="1417.62" y="579.18" class="st23" width="7.34" height="6.64"/>
			<rect id="XMLID_404_" x="1377.44" y="553.59" class="st23" width="40.18" height="25.59"/>
		</g>
	</g>
	<path id="XMLID_2792_" class="st27" d="M1388.64,507.23v26.83h-215.56c-8.86,0-16.05,6.51-16.05,14.52v287.65h-28.36V521.75
		c0-8.01,7.19-14.52,16.05-14.52H1388.64z"/>
</g>
</svg>
