<?xml version="1.0" encoding="utf-8"?>
<!-- Generator: Adobe Illustrator 25.2.1, SVG Export Plug-In . SVG Version: 6.00 Build 0)  -->
<svg version="1.1" id="Layer_1" xmlns="http://www.w3.org/2000/svg" xmlns:xlink="http://www.w3.org/1999/xlink" x="0px" y="0px"
	 viewBox="0 0 758.1 687.9" style="enable-background:new 0 0 758.1 687.9;" xml:space="preserve">
<style type="text/css">
	.st0{fill:#2A587D;}
	.st1{clip-path:url(#SVGID_2_);}
	.st2{clip-path:url(#SVGID_4_);}
	.st3{clip-path:url(#SVGID_6_);}
	.st4{clip-path:url(#SVGID_8_);}
	.st5{fill:#060607;}
	.st6{fill:#535359;}
	.st7{fill:#1D374E;}
	.st8{fill:#0A8074;}
	.st9{fill:#30D8F1;}
	.st10{fill:#4BC1B7;}
	.st11{fill:#131315;}
	.st12{fill:#303033;}
	.st13{fill:#E6DAB0;}
	.st14{fill:#BCBEC0;}
	.st15{fill:#939598;}
	.st16{fill:#0E7570;}
	.st17{fill:#B96228;}
	.st18{fill:#F5841F;}
	.st19{fill:#AB1E3B;}
	.st20{fill:#EF4F76;}
	.st21{fill:#EE2F59;}
	.st22{fill:#A7A9AC;}
	.st23{clip-path:url(#SVGID_10_);}
	.st24{fill:#0E0E0F;}
	.st25{fill:#222224;}
	.st26{fill:#FF844C;}
	.st27{fill:#0F6370;}
	.st28{fill:#16B8D1;}
	.st29{fill:#12A89F;}
	.st30{fill:#F0C6B5;}
	.st31{fill:#C7A596;}
	.st32{fill:#255277;}
	.st33{clip-path:url(#SVGID_12_);}
	.st34{clip-path:url(#SVGID_14_);}
	.st35{fill:#603A17;}
	.st36{fill:#0F2033;}
	.st37{fill:#E21F27;}
	.st38{fill:#9C2721;}
	.st39{fill:#2C5E86;}
	.st40{fill:#154767;}
	.st41{fill:#3676AB;}
	.st42{clip-path:url(#SVGID_16_);}
	.st43{clip-path:url(#SVGID_18_);}
	.st44{clip-path:url(#SVGID_20_);}
	.st45{fill:#0E0E0E;}
	.st46{clip-path:url(#SVGID_22_);}
	.st47{clip-path:url(#SVGID_24_);}
	.st48{fill:#EF444E;}
	.st49{fill:#101010;}
	.st50{fill:#B83A00;}
	.st51{clip-path:url(#SVGID_26_);}
	.st52{clip-path:url(#SVGID_28_);}
	.st53{fill:#FFFFFF;}
	.st54{fill:#C7A597;}
	.st55{fill:#075951;}
	.st56{fill:#2A5F8A;}
	.st57{clip-path:url(#SVGID_30_);}
	.st58{clip-path:url(#SVGID_32_);}
	.st59{clip-path:url(#SVGID_34_);}
	.st60{clip-path:url(#SVGID_36_);}
	.st61{fill:#29567B;}
	.st62{clip-path:url(#SVGID_38_);}
	.st63{clip-path:url(#SVGID_40_);}
	.st64{fill:#828282;}
	.st65{clip-path:url(#SVGID_42_);}
	.st66{clip-path:url(#SVGID_44_);}
</style>
<polyline points="455.5,455.4 310,370.8 310,180.4 455.5,264.4 455.5,455.4 "/>
<path class="st0" d="M426,530.3l-6.6-3.8l3.5-2l6.6,3.8L426,530.3 M430.5,527.7l-6.6-3.8l15.5-8.9l6.6,3.8L430.5,527.7 M418.5,525.9
	l-15.4-9l3.4-2l15.5,9L418.5,525.9 M422.9,523.3l-15.5-8.9l1.9-1.1l13.4,7.7l13.6-7.9l2.1,1.2L422.9,523.3 M447,518.3l-6.6-3.8
	l15.5-8.9l6.7,3.9L447,518.3 M402.2,516.4l-15.4-9l3.3-1.9l15.5,8.9L402.2,516.4 M439.4,513.9l-2.1-1.2l15.5-8.9l2.1,1.2
	L439.4,513.9 M406.5,513.9l-15.5-8.9l1.9-1.1l15.5,8.9L406.5,513.9 M463.4,508.9l-6.7-3.9l16.6-9.6l6.7,3.9L463.4,508.9
	 M385.9,506.9l-15.4-9l3.2-1.9l15.5,9L385.9,506.9 M455.8,504.5l-2.1-1.2l16.6-9.6l2.1,1.2L455.8,504.5 M390.1,504.5l-15.5-8.9
	l1.9-1.1l15.5,8.9L390.1,504.5 M480.9,498.7l-6.7-3.9l15.5-8.9l6.7,3.9L480.9,498.7 M369.6,497.4l-15.4-9l3.2-1.8l15.5,8.9
	L369.6,497.4 M373.7,494.9l-15.5-8.9l1.9-1.1l15.5,8.9L373.7,494.9 M473.3,494.3l-2.1-1.2l15.5-8.9l2.2,1.2L473.3,494.3
	 M497.4,489.3l-6.7-3.9l15.5-8.9l6.8,3.9L497.4,489.3 M353.2,487.9l-15.4-9l3.1-1.8l15.5,8.8l-3.2,1.8 M357.3,485.5l-15.5-8.9
	l1.9-1.1l15.5,8.9L357.3,485.5 M489.7,484.8l-2.2-1.2l15.5-8.9l2.2,1.3L489.7,484.8 M513.8,479.8l-6.8-3.9l13.9-8l6.8,3.9
	L513.8,479.8 M336.9,478.4l-15.4-9l3-1.7l15.5,8.9L336.9,478.4 M340.9,476l-15.5-8.9l1.9-1.1l15.5,8.9L340.9,476 M506.1,475.3
	l-2.2-1.3l8.6-5V463l7.5,4.4L506.1,475.3 M320.6,468.8l-15.4-9l2.9-1.7l15.5,8.9L320.6,468.8 M324.5,466.5l-15.5-8.9l1.9-1.1
	l15.5,8.9L324.5,466.5 M304.3,459.3l-15.4-9l2.8-1.6l15.5,8.9L304.3,459.3 M308.1,457l-15.5-8.9l1.9-1.1l15.5,9L308.1,457
	 M288,449.8l-0.9-0.5c0.2-1.1,0.3-1.7,0.3-1.7l0.2-1.2l3.1,1.8L288,449.8 M291.7,447.6l-3.9-2.2l0.3-2l5.4,3.1L291.7,447.6"/>
<g>
	<defs>
		<polyline id="SVGID_1_" points="429.5,528.2 423,524.4 419.4,526.5 418.5,525.9 422,523.9 406.5,515 403.1,516.9 402.2,516.4 
			405.6,514.4 390.1,505.5 386.8,507.4 385.9,506.9 389.2,505 373.7,496 370.5,497.9 369.6,497.4 372.8,495.5 357.3,486.5 
			354.2,488.4 353.2,487.8 356.4,486 340.9,477.1 337.9,478.9 336.9,478.3 340,476.5 324.5,467.6 321.5,469.3 320.6,468.8 
			323.6,467.1 308.1,458.1 305.2,459.8 304.3,459.3 307.2,457.6 291.7,448.7 288.9,450.3 288,449.8 290.8,448.1 287.7,446.3 
			287.8,445.4 291.7,447.6 293.6,446.5 294.5,447 292.6,448.1 308.1,457.1 310,456 310.9,456.5 309,457.6 324.5,466.5 326.4,465.5 
			327.3,466 325.5,467.1 340.9,476 342.8,474.9 343.7,475.5 341.9,476.5 357.3,485.5 359.2,484.4 360.1,484.9 358.3,486 373.7,495 
			375.6,493.9 376.5,494.4 374.7,495.5 390.1,504.4 392,503.4 392.9,503.9 391.1,505 406.5,513.9 408.4,512.8 409.3,513.3 
			407.5,514.4 423,523.4 438.4,514.4 436.3,513.2 437.2,512.7 439.4,513.9 454.8,505 452.7,503.7 453.6,503.2 455.8,504.4 
			472.4,494.8 470.2,493.6 471.2,493 473.3,494.3 488.8,485.4 486.6,484.1 487.5,483.6 489.7,484.8 505.2,475.9 503,474.6 
			503.9,474.1 506.1,475.4 520,467.3 520.9,467.9 507,475.9 513.8,479.8 512.9,480.3 506.1,476.4 490.6,485.4 497.4,489.2 
			496.4,489.8 489.7,485.9 474.2,494.8 480.9,498.7 480,499.2 473.3,495.4 456.7,505 463.4,508.8 462.4,509.3 455.8,505.5 
			440.3,514.4 446.9,518.3 446,518.8 439.4,515 423.9,523.9 430.5,527.7 429.5,528.2 		"/>
	</defs>
	<clipPath id="SVGID_2_">
		<use xlink:href="#SVGID_1_"  style="overflow:visible;"/>
	</clipPath>
	<g class="st1">
		<g>
			<defs>
				<rect id="SVGID_3_" x="287.7" y="445.4" width="233.3" height="82.9"/>
			</defs>
			<clipPath id="SVGID_4_">
				<use xlink:href="#SVGID_3_"  style="overflow:visible;"/>
			</clipPath>
			<g class="st2">
				
					<image style="overflow:visible;enable-background:new    ;" width="337" height="122" xlink:href="87D84985.png"  transform="matrix(0.7079 0 0 -0.7079 286.02 530.2115)">
				</image>
			</g>
		</g>
	</g>
</g>
<path class="st0" d="M288.9,450.3l-32.6-19l2.6-1.5l11.5,6.7c-0.6,0.7-1.2,1.4-1.7,2.2 M288,449.8l-32.4-18.4l6.1-3.2l27.1,15.6
	c-0.8,0,0.3,2-0.4,2.6 M255.4,430.7l-15.4-9l2.6-1.5l15.5,9L255.4,430.7 M258.9,428.6l-15.5-8.9l1.9-1.1l15.5,8.9L258.9,428.6
	 M239,421.2l-16.5-9.6l2.5-1.4l16.6,9.6L239,421.2 M242.5,419.2l-16.6-9.6l1.9-1.1l16.6,9.6L242.5,419.2 M221.6,411l-7.8-4.6
	l2.4-1.4l7.9,4.5L221.6,411 M225,409l-7.9-4.5l8-4.6v7.1l1.7,1L225,409"/>
<g>
	<defs>
		<path id="SVGID_5_" d="M270.5,436.4l-11.5-6.7l-2.6,1.5l-0.9-0.5l2.6-1.5l-15.5-8.9l-2.5,1.5l-0.9-0.5l2.6-1.5l-16.6-9.6l-2.5,1.4
			l-0.9-0.5l2.4-1.4l-7.9-4.6l0.9-0.5l7.9,4.5l1.9-1.1l0.9,0.5l-1.9,1.1l16.6,9.6l1.9-1.1l0.9,0.5l-1.9,1.1l15.5,8.9l1.9-1.1
			l0.9,0.5l-1.9,1.1l11.4,6.5C270.9,435.9,270.7,436.1,270.5,436.4"/>
	</defs>
	<clipPath id="SVGID_6_">
		<use xlink:href="#SVGID_5_"  style="overflow:visible;"/>
	</clipPath>
	<g class="st3">
		<g>
			<defs>
				<rect id="SVGID_7_" x="216.1" y="404.5" width="55" height="31.9"/>
			</defs>
			<clipPath id="SVGID_8_">
				<use xlink:href="#SVGID_7_"  style="overflow:visible;"/>
			</clipPath>
			<g class="st4">
				
					<image style="overflow:visible;enable-background:new    ;" width="84" height="49" xlink:href="87D84987.png"  transform="matrix(0.71 0 0 -0.71 214.51 437.94)">
				</image>
			</g>
		</g>
	</g>
</g>
<polyline class="st5" points="420.2,415.8 314.9,355 314.9,348.2 315.4,348 420.2,409.1 420.2,415.8 "/>
<polyline class="st6" points="227,404.8 420.6,517.8 468.1,491.8 463.9,441 314.9,355 261.3,368 227,404.8 "/>
<polygon class="st6" points="317.5,289.8 237.6,335.9 240.4,337.5 320.3,291.3 317.5,289.8 "/>
<path class="st7" d="M311.2,295.7l-70.8,40.9v-15.8l70.8-40.9V295.7 M225.1,164.1V407l89.8-52V112.2L225.1,164.1"/>
<polyline class="st8" points="359.7,240.4 359.7,240.4 307.8,210.5 306,211.5 359.7,247.1 409.8,398.6 411.6,397.5 411.6,270.4 
	359.7,240.4 "/>
<polyline class="st9" points="306,211.5 306,338.7 409.8,398.6 409.8,271.4 306,211.5 "/>
<polygon class="st8" points="322,224.5 322,231.4 329,235.4 329,228.6 322,224.5 "/>
<polygon class="st10" points="325.8,253.8 325.8,282.8 355.2,299.8 355.2,270.8 325.8,253.8 "/>
<polygon class="st10" points="326.7,319 326.6,348 356,364.9 356,335.9 326.7,319 "/>
<polygon class="st6" points="336.7,235.1 336.7,241 337.8,240.4 337.8,234.4 336.7,235.1 "/>
<polygon class="st11" points="330.8,231.6 335.6,235.5 336.7,235.1 337.8,234.4 331.8,231 330.8,231.6 "/>
<polygon class="st12" points="330.8,231.6 330.8,237.5 336.7,241 336.7,235.1 330.8,231.6 "/>
<polygon class="st13" points="334.3,234.8 334.3,235.9 331.8,234.4 331.8,233.3 334.3,234.8 "/>
<polygon class="st6" points="323.7,241.8 323.8,251.1 324.8,250.5 324.7,241.1 323.7,241.8 "/>
<polygon class="st11" points="317.7,238.3 322.5,242.2 323.7,241.8 324.7,241.1 318.8,237.7 317.7,238.3 "/>
<polygon class="st12" points="317.7,238.3 317.8,247.6 323.8,251.1 323.7,241.8 317.7,238.3 "/>
<polygon class="st13" points="321.3,241.5 321.3,242.6 318.7,241.1 318.7,240 321.3,241.5 "/>
<polygon class="st6" points="321.7,317.9 321.7,323.7 322.8,323.1 322.8,317.2 321.7,317.9 "/>
<polygon class="st11" points="315.7,314.4 320.6,318.3 321.7,317.9 322.8,317.2 316.8,313.8 315.7,314.4 "/>
<polygon class="st12" points="315.7,314.4 315.7,320.3 321.7,323.7 321.7,317.9 315.7,314.4 "/>
<polygon class="st13" points="319.3,317.5 319.3,318.7 316.7,317.2 316.7,316.1 319.3,317.5 "/>
<polygon class="st6" points="318.8,224.3 318.8,234 320.5,232.9 320.5,223.3 318.8,224.3 "/>
<polygon class="st14" points="319.7,223.7 319.7,233.4 320.5,232.9 320.5,223.3 319.7,223.7 "/>
<polygon class="st11" points="309,218.6 316.9,225 318.8,224.3 320.5,223.3 310.7,217.6 309,218.6 "/>
<polygon class="st15" points="309.9,218.1 319.7,223.7 320.5,223.3 310.7,217.6 309.9,218.1 "/>
<polygon class="st12" points="309,218.6 309,228.3 318.8,234 318.8,224.3 309,218.6 "/>
<polygon class="st13" points="317.4,225.3 317.4,228.5 310.2,224.4 310.2,221.2 317.4,225.3 "/>
<polygon class="st6" points="317.3,303.8 317.3,311.1 319,310.1 319,302.7 317.3,303.8 "/>
<polygon class="st14" points="318.2,303.2 318.2,310.5 319,310.1 319,302.7 318.2,303.2 "/>
<polygon class="st11" points="307.5,298.1 315.4,304.5 317.3,303.8 319,302.7 309.2,297.1 307.5,298.1 "/>
<polygon class="st15" points="308.4,297.6 318.2,303.2 319,302.7 309.2,297.1 308.4,297.6 "/>
<polygon class="st12" points="307.5,298.1 307.5,305.4 317.3,311.1 317.3,303.8 307.5,298.1 "/>
<polygon class="st13" points="315.9,304.8 315.9,308 308.7,303.8 308.7,300.6 315.9,304.8 "/>
<polygon class="st12" points="353.1,257 353.1,266.7 354.8,265.6 354.9,256 353.1,257 "/>
<polygon points="343.3,251.4 351.2,257.7 353.1,257 354.9,256 345,250.3 343.3,251.4 "/>
<polygon class="st11" points="343.3,251.4 343.3,261 353.1,266.7 353.1,257 343.3,251.4 "/>
<polygon class="st13" points="348.6,259.7 348.6,262.8 344.5,260.5 344.5,257.3 348.6,259.7 "/>
<polygon class="st12" points="338.1,246 338.1,259.5 340.5,258.1 340.6,244.6 338.1,246 "/>
<polygon points="324.4,238.1 335.5,247 338.1,246 340.6,244.6 326.8,236.7 324.4,238.1 "/>
<polygon class="st11" points="324.4,238.1 324.5,251.6 338.1,259.5 338.1,246 324.4,238.1 "/>
<polygon class="st12" points="338.9,308.6 338.9,322.1 341.3,320.6 341.3,307.1 338.9,308.6 "/>
<polygon points="325.2,300.7 336.2,309.5 338.9,308.6 341.3,307.1 327.7,299.2 325.2,300.7 "/>
<polygon class="st11" points="325.2,300.7 325.2,314.2 338.9,322.1 338.9,308.6 325.2,300.7 "/>
<polygon class="st12" points="319.9,264.9 320,274.3 321.6,273.3 321.6,263.9 319.9,264.9 "/>
<polygon points="310.4,259.4 318.1,265.6 319.9,264.9 321.6,263.9 312.1,258.4 310.4,259.4 "/>
<polygon class="st11" points="310.4,259.4 310.4,268.8 320,274.3 319.9,264.9 310.4,259.4 "/>
<polygon class="st12" points="323,280.3 323,290 324.8,288.9 324.8,279.3 323,280.3 "/>
<polygon points="313.3,274.6 321.1,281 323,280.3 324.8,279.3 315,273.6 313.3,274.6 "/>
<polygon class="st11" points="313.3,274.6 313.3,284.3 323,290 323,280.3 313.3,274.6 "/>
<polygon class="st13" points="318.5,282.9 318.5,286.1 314.4,283.7 314.4,280.6 318.5,282.9 "/>
<polygon class="st12" points="351.5,245.9 351.5,251.8 352.5,251.2 352.5,245.3 351.5,245.9 "/>
<polygon points="341.8,240.3 349,245.6 351.5,245.9 352.5,245.3 342.9,239.7 341.8,240.3 "/>
<polygon class="st11" points="341.8,240.3 341.8,246.2 351.5,251.8 351.5,245.9 341.8,240.3 "/>
<polygon class="st12" points="316.9,337.7 316.9,343.6 317.9,342.9 317.9,337 316.9,337.7 "/>
<polygon points="307.1,332.1 314.3,337.3 316.9,337.7 317.9,337 308.2,331.4 307.1,332.1 "/>
<polygon class="st11" points="307.1,332.1 307.1,338 316.9,343.6 316.9,337.7 307.1,332.1 "/>
<polygon class="st12" points="314.7,237.8 306.9,233.2 308.5,232.3 316.4,236.9 314.7,237.8 "/>
<polygon points="314.7,255 313.3,241.4 314.7,237.8 316.4,236.9 316.4,254.1 314.7,255 "/>
<polygon class="st11" points="314.7,255 306.9,250.4 306.9,233.2 314.7,237.8 314.7,255 "/>
<polygon class="st12" points="318.3,326.4 318.3,336.1 320,335 320,325.3 318.3,326.4 "/>
<polygon points="308.5,320.7 316.4,327.1 318.3,326.4 320,325.3 310.2,319.7 308.5,320.7 "/>
<polygon class="st11" points="308.5,320.7 308.5,330.4 318.3,336.1 318.3,326.4 308.5,320.7 "/>
<polygon class="st13" points="313.7,329 313.7,332.2 309.6,329.8 309.6,326.6 313.7,329 "/>
<polygon class="st12" points="355.4,321 355.4,326.9 356.5,326.2 356.5,320.3 355.4,321 "/>
<polygon points="345.7,315.4 352.9,320.6 355.4,321 356.5,320.3 346.8,314.7 345.7,315.4 "/>
<polygon class="st11" points="345.7,315.4 345.7,321.3 355.4,326.9 355.4,321 345.7,315.4 "/>
<polygon class="st12" points="355.4,328.7 355.4,334.6 356.4,334 356.4,328.1 355.4,328.7 "/>
<polygon points="345.7,323.1 352.8,328.3 355.4,328.7 356.4,328.1 346.8,322.5 345.7,323.1 "/>
<polygon class="st11" points="345.7,323.1 345.7,329 355.4,334.6 355.4,328.7 345.7,323.1 "/>
<polygon class="st8" points="341.1,234.4 341.1,237.2 348.7,241.6 348.7,238.8 341.1,234.4 "/>
<polygon class="st6" points="348.1,274.6 348.1,296.7 352.1,294.3 352.1,272.2 348.1,274.6 "/>
<polygon class="st14" points="350.2,273.3 350.2,295.5 352.1,294.3 352.1,272.2 350.2,273.3 "/>
<polygon class="st11" points="325.6,261.6 343.7,276.1 348.1,274.6 352.1,272.2 329.6,259.2 325.6,261.6 "/>
<polygon class="st15" points="327.8,260.3 350.2,273.3 352.1,272.2 329.6,259.2 327.8,260.3 "/>
<polyline class="st12" points="325.6,261.6 325.6,283.8 348.1,296.7 348.1,274.6 325.6,261.6 "/>
<polygon class="st6" points="344.9,279.9 344.9,287.2 328.5,277.7 328.5,270.4 344.9,279.9 "/>
<polygon class="st6" points="349.7,339.8 349.7,362 353.7,359.6 353.7,337.4 349.7,339.8 "/>
<polygon class="st14" points="351.8,338.5 351.8,360.7 353.7,359.6 353.7,337.4 351.8,338.5 "/>
<polygon class="st11" points="327.2,326.8 345.3,341.4 349.7,339.8 353.7,337.4 331.2,324.4 327.2,326.8 "/>
<polygon class="st15" points="329.4,325.5 351.8,338.5 353.7,337.4 331.2,324.4 329.4,325.5 "/>
<polygon class="st12" points="327.2,326.8 327.2,349 349.7,362 349.7,339.8 327.2,326.8 "/>
<path class="st16" d="M330.4,291.3c-0.2,0-0.4-0.1-0.6-0.2c-0.9-0.6-1.4-1.5-1.5-2.5c0-0.7,0.3-1,0.8-1c0.2,0,0.5,0.1,0.7,0.2
	c0.9,0.6,1.4,1.5,1.4,2.5C331.2,291,330.9,291.3,330.4,291.3"/>
<path class="st17" d="M327.1,292.9l3.5-2c0.2-0.2,0.4-0.5,0.3-0.8c-0.1-0.8-0.5-1.5-1.1-2c-0.3-0.2-0.6-0.2-0.9-0.1l-3.4,2
	L327.1,292.9L327.1,292.9z"/>
<path class="st18" d="M326.2,290.1c0.7,0.5,1.1,1.2,1.2,2c0,0.7-0.5,1-1.2,0.7c-0.7-0.5-1.1-1.2-1.2-2
	C325.1,290,325.6,289.8,326.2,290.1z"/>
<path class="st16" d="M334.2,293.7c-0.2,0-0.5-0.1-0.7-0.2c-0.9-0.5-1.4-1.5-1.5-2.5c0-0.7,0.3-1,0.8-1c0.2,0,0.5,0.1,0.7,0.2
	c0.9,0.6,1.4,1.5,1.5,2.5C335,293.3,334.7,293.7,334.2,293.7"/>
<path class="st17" d="M330.9,295.2l3.4-2c0.2-0.2,0.4-0.5,0.3-0.8c0-0.8-0.5-1.6-1.2-2c-0.2-0.2-0.6-0.2-0.8-0.1l-3.4,2L330.9,295.2
	L330.9,295.2z"/>
<path class="st18" d="M330,292.4c0.7,0.4,1.1,1.2,1.2,2c0,0.8-0.5,1.1-1.2,0.7c-0.7-0.4-1.1-1.2-1.2-2
	C328.8,292.4,329.3,292.1,330,292.4L330,292.4z"/>
<path class="st16" d="M338.4,296c-0.2,0-0.5-0.1-0.7-0.2c-0.9-0.6-1.4-1.5-1.4-2.5c0-0.7,0.3-1,0.8-1c0.2,0,0.5,0.1,0.6,0.2
	c0.9,0.5,1.5,1.5,1.5,2.5C339.3,295.6,338.9,296,338.4,296"/>
<path class="st17" d="M335.1,297.6l3.4-2c0.2-0.2,0.4-0.5,0.3-0.8c-0.1-0.8-0.5-1.6-1.2-2c-0.2-0.2-0.5-0.2-0.8-0.1l-3.5,2
	L335.1,297.6L335.1,297.6z"/>
<path class="st18" d="M334.3,294.8c0.7,0.5,1.1,1.2,1.1,2c0,0.8-0.5,1.1-1.1,0.7c-0.7-0.4-1.1-1.2-1.2-2
	C333.1,294.7,333.6,294.4,334.3,294.8z"/>
<path class="st16" d="M342.2,298.3c-0.2,0-0.5-0.1-0.7-0.2c-0.8-0.6-1.4-1.5-1.4-2.5c0-0.7,0.3-1.1,0.8-1.1c0.2,0,0.4,0.1,0.6,0.2
	c0.9,0.5,1.4,1.5,1.5,2.5C343,298,342.7,298.3,342.2,298.3"/>
<path class="st17" d="M338.9,299.9l3.4-2c0.3-0.2,0.4-0.5,0.3-0.8c0-0.8-0.5-1.6-1.2-2c-0.2-0.2-0.5-0.2-0.8-0.1l-3.5,2L338.9,299.9
	L338.9,299.9z"/>
<path class="st18" d="M338,297.1c0.7,0.4,1.1,1.2,1.2,2c0,0.7-0.5,1-1.2,0.7c-0.7-0.5-1.1-1.2-1.2-2
	C336.8,297,337.3,296.7,338,297.1L338,297.1z"/>
<path class="st16" d="M321.3,342.2c-0.2,0-0.4-0.1-0.6-0.2c-0.8-0.5-1.3-1.3-1.3-2.3c0-0.6,0.3-0.9,0.7-0.9c0.2,0,0.4,0.1,0.6,0.2
	c0.8,0.5,1.3,1.4,1.4,2.3C322,341.9,321.7,342.2,321.3,342.2"/>
<path class="st17" d="M318.3,343.6l3.1-1.8c0.2-0.2,0.3-0.4,0.3-0.7c0-0.7-0.4-1.4-1-1.8c-0.2-0.2-0.5-0.2-0.8-0.1l-3.1,1.8
	L318.3,343.6L318.3,343.6z"/>
<path class="st18" d="M317.5,341.1c0.6,0.4,1,1.1,1.1,1.8c0,0.7-0.5,1-1.1,0.6c-0.6-0.4-1-1.1-1.1-1.8
	C316.4,341,316.9,340.7,317.5,341.1z"/>
<path class="st16" d="M324.6,344.3c-0.2,0-0.4-0.1-0.6-0.2c-0.8-0.5-1.2-1.4-1.3-2.3c0-0.6,0.3-1,0.7-1c0.2,0,0.4,0.1,0.6,0.2
	c0.8,0.5,1.2,1.4,1.3,2.3C325.4,343.9,325.1,344.3,324.6,344.3"/>
<path class="st17" d="M321.7,345.7l3.1-1.8c0.2-0.1,0.4-0.4,0.3-0.7c0-0.8-0.5-1.4-1.1-1.9c-0.2-0.2-0.5-0.2-0.7-0.1l-3.1,1.8
	L321.7,345.7L321.7,345.7z"/>
<path class="st18" d="M320.9,343.2c0.6,0.4,1,1.1,1.1,1.8c0,0.7-0.5,1-1.1,0.6c-0.6-0.4-1-1.1-1.1-1.8
	C319.9,343.1,320.3,342.8,320.9,343.2L320.9,343.2z"/>
<path class="st16" d="M320.8,256.7c-0.1,0-0.3,0-0.4-0.1l0.5-0.3c0.2-0.2,0.3-0.4,0.3-0.7c0-0.7-0.4-1.4-1.1-1.8
	c-0.1-0.1-0.3-0.1-0.5-0.1c-0.1,0-0.2,0-0.3,0.1l-0.5,0.3c0-0.4,0.3-0.7,0.7-0.7c0.2,0,0.4,0.1,0.6,0.2c0.8,0.5,1.3,1.3,1.4,2.3
	C321.6,256.4,321.3,256.7,320.8,256.7"/>
<path class="st17" d="M317.8,258.1l3.1-1.8c0.2-0.2,0.3-0.4,0.3-0.7c0-0.7-0.4-1.4-1.1-1.8c-0.2-0.2-0.5-0.2-0.7-0.1l-3.1,1.8
	L317.8,258.1"/>
<path class="st18" d="M317,255.6c0.6,0.4,1,1.1,1.1,1.8c0,0.7-0.5,0.9-1.1,0.6c-0.6-0.4-1-1.1-1-1.9
	C316,255.5,316.5,255.2,317,255.6L317,255.6z"/>
<path class="st16" d="M324.2,258.8c-0.2,0-0.4-0.1-0.6-0.2c-0.8-0.5-1.3-1.4-1.3-2.3c0-0.6,0.3-1,0.7-1c0.2,0,0.4,0.1,0.6,0.2
	c0.8,0.5,1.3,1.4,1.3,2.3C324.9,258.4,324.7,258.7,324.2,258.8"/>
<path class="st17" d="M321.2,260.2l3.1-1.8c0.2-0.1,0.3-0.4,0.3-0.7c0-0.7-0.4-1.4-1.1-1.8c-0.2-0.2-0.5-0.2-0.7-0.1l-3.1,1.8
	L321.2,260.2L321.2,260.2z"/>
<path class="st18" d="M320.5,257.7c0.6,0.4,1,1.1,1.1,1.8c0,0.7-0.5,0.9-1.1,0.6c-0.6-0.4-1-1.1-1.1-1.8
	C319.4,257.6,319.9,257.4,320.5,257.7L320.5,257.7z"/>
<path class="st16" d="M308.2,273.8c-0.2,0-0.4-0.1-0.6-0.2c-0.8-0.5-1.3-1.4-1.3-2.3c0-0.6,0.3-0.9,0.7-0.9c0.2,0,0.4,0.1,0.6,0.2
	c0.8,0.5,1.3,1.4,1.3,2.3C308.9,273.5,308.6,273.8,308.2,273.8"/>
<path class="st17" d="M305.2,275.2l3.1-1.8c0.2-0.2,0.3-0.4,0.3-0.7c0-0.8-0.4-1.4-1.1-1.8c-0.2-0.2-0.5-0.2-0.7-0.1l-3.1,1.8
	L305.2,275.2L305.2,275.2z"/>
<path class="st18" d="M304.4,272.8c0.6,0.4,1,1.1,1.1,1.8c0.1,0.4-0.2,0.7-0.5,0.8c-0.2,0-0.4,0-0.5-0.1c-0.6-0.4-1-1.1-1.1-1.8
	C303.4,272.7,303.9,272.4,304.4,272.8z"/>
<path class="st16" d="M311.6,276c-0.2,0-0.4-0.1-0.6-0.2c-0.8-0.5-1.3-1.4-1.3-2.3c0-0.6,0.3-0.9,0.8-0.9c0.2,0,0.4,0.1,0.6,0.2
	c0.8,0.5,1.3,1.3,1.3,2.3C312.3,275.7,312,276,311.6,276"/>
<path class="st17" d="M308.6,277.4l3.1-1.8c0.2-0.2,0.3-0.4,0.3-0.7c0-0.8-0.4-1.4-1.1-1.8c-0.2-0.1-0.5-0.2-0.7-0.1l-3.1,1.8
	L308.6,277.4L308.6,277.4z"/>
<path class="st18" d="M307.9,274.8c0.6,0.4,1,1.1,1,1.8c0,0.7-0.5,1-1,0.6c-0.6-0.4-1-1.1-1.1-1.8
	C306.8,274.8,307.3,274.5,307.9,274.8z"/>
<path d="M306,309.7c-0.3-0.4-0.5-1-0.5-1.5c0-0.5,0.2-0.8,0.5-0.9V309.7"/>
<path class="st16" d="M307.3,310.6c-0.2,0-0.4-0.1-0.6-0.2c-0.3-0.2-0.6-0.4-0.8-0.8v-2.5c0.1,0,0.1,0,0.2,0c0.2,0,0.4,0.1,0.6,0.2
	c0.8,0.5,1.3,1.4,1.3,2.3C308.1,310.3,307.8,310.7,307.3,310.6"/>
<path class="st17" d="M304.3,312l3.1-1.8c0.2-0.2,0.3-0.4,0.3-0.7c0-0.8-0.4-1.4-1.1-1.8c-0.2-0.2-0.5-0.2-0.7-0.1l-3.1,1.8
	L304.3,312L304.3,312z"/>
<path class="st18" d="M303.6,309.5c0.6,0.4,1,1.1,1.1,1.8c0,0.7-0.5,0.9-1.1,0.6c-0.6-0.4-1-1.1-1.1-1.8
	C302.5,309.5,303,309.1,303.6,309.5L303.6,309.5z"/>
<path class="st16" d="M310.8,312.8c-0.2,0-0.4-0.1-0.6-0.2c-0.8-0.5-1.2-1.4-1.3-2.3c0-0.6,0.3-1,0.7-1c0.2,0,0.4,0.1,0.5,0.2
	c0.8,0.5,1.3,1.3,1.4,2.3C311.5,312.4,311.2,312.8,310.8,312.8"/>
<path class="st17" d="M307.8,314.2l3.1-1.8c0.2-0.1,0.4-0.4,0.3-0.7c0-0.7-0.4-1.4-1.1-1.8c-0.2-0.2-0.5-0.2-0.8-0.1l-3.1,1.8
	L307.8,314.2L307.8,314.2z"/>
<path class="st18" d="M307,311.6c0.6,0.4,1,1.1,1.1,1.8c0,0.7-0.5,0.9-1.1,0.6c-0.6-0.4-1-1.1-1-1.8
	C306,311.6,306.5,311.3,307,311.6z"/>
<polygon class="st8" points="373.9,254.5 373.9,261.4 380.8,265.4 380.8,258.5 373.9,254.5 "/>
<polygon class="st10" points="377.7,283.8 377.7,312.8 407.1,329.7 407.1,300.7 377.7,283.8 "/>
<polyline class="st10" points="378.5,348.9 378.5,377.9 407.9,394.9 407.9,365.9 378.5,348.9 "/>
<polygon class="st6" points="388.6,265 388.6,270.9 389.7,270.3 389.7,264.4 388.6,265 "/>
<polygon class="st11" points="382.6,261.6 387.5,265.4 388.6,265 389.7,264.4 383.7,261 382.6,261.6 "/>
<polygon class="st12" points="382.6,261.6 382.6,267.5 388.6,270.9 388.6,265 382.6,261.6 "/>
<polygon class="st13" points="386.2,264.7 386.2,265.9 383.6,264.4 383.6,263.2 386.2,264.7 "/>
<polygon class="st6" points="375.5,271.7 375.6,281 376.6,280.4 376.6,271.1 375.5,271.7 "/>
<polygon class="st11" points="369.6,268.2 374.4,272.1 375.5,271.7 376.6,271.1 370.6,267.6 369.6,268.2 "/>
<polygon class="st12" points="369.6,268.2 369.6,277.6 375.6,281 375.5,271.7 369.6,268.2 "/>
<polygon class="st13" points="373.2,271.4 373.2,272.6 370.6,271.1 370.6,269.9 373.2,271.4 "/>
<polygon class="st6" points="373.6,347.8 373.6,353.7 374.7,353.1 374.7,347.2 373.6,347.8 "/>
<polygon class="st11" points="367.6,344.4 372.5,348.2 373.6,347.8 374.7,347.2 368.7,343.7 367.6,344.4 "/>
<polygon class="st12" points="367.6,344.4 367.6,350.3 373.6,353.7 373.6,347.8 367.6,344.4 "/>
<polygon class="st13" points="371.2,347.5 371.2,348.6 368.6,347.2 368.6,346 371.2,347.5 "/>
<polygon class="st6" points="370.6,254.3 370.6,263.9 372.4,262.9 372.4,253.2 370.6,254.3 "/>
<polygon class="st14" points="371.6,253.7 371.6,263.4 372.4,262.9 372.4,253.2 371.6,253.7 "/>
<polygon class="st11" points="360.8,248.6 368.7,254.9 370.6,254.3 372.4,253.2 362.6,247.6 360.8,248.6 "/>
<polygon class="st15" points="361.8,248.1 371.6,253.7 372.4,253.2 362.6,247.6 361.8,248.1 "/>
<polygon class="st12" points="360.8,248.6 360.8,258.3 370.6,263.9 370.6,254.3 360.8,248.6 "/>
<polygon class="st13" points="369.2,255.3 369.2,258.5 362.1,254.3 362.1,251.1 369.2,255.3 "/>
<polygon class="st6" points="370.1,331 370.1,342 372.1,340.8 372.1,329.9 370.1,331 "/>
<polygon class="st14" points="371.2,330.4 371.2,341.4 372.1,340.8 372.1,329.9 371.2,330.4 "/>
<polygon class="st11" points="358.9,324.6 367.9,331.8 370.1,331 372.1,329.9 360.9,323.4 358.9,324.6 "/>
<polygon class="st15" points="359.9,323.9 371.2,330.4 372.1,329.9 360.9,323.4 359.9,323.9 "/>
<polygon class="st12" points="358.9,324.6 358.9,335.5 370.1,342 370.1,331 358.9,324.6 "/>
<polygon class="st12" points="405,287 405,296.7 406.7,295.6 406.8,286 405,287 "/>
<polygon points="395.2,281.3 403.1,287.7 405,287 406.8,286 396.9,280.3 395.2,281.3 "/>
<polygon class="st11" points="395.2,281.3 395.2,291 405,296.7 405,287 395.2,281.3 "/>
<polygon class="st13" points="400.4,289.6 400.4,292.8 396.3,290.4 396.3,287.2 400.4,289.6 "/>
<polygon class="st12" points="390,276 390,289.5 392.4,288 392.4,274.5 390,276 "/>
<polygon points="376.3,268.1 387.3,276.9 390,276 392.4,274.5 378.7,266.6 376.3,268.1 "/>
<polygon class="st11" points="376.3,268.1 376.3,281.6 390,289.5 390,276 376.3,268.1 "/>
<polygon class="st12" points="390.8,338.5 390.8,352 393.2,350.6 393.2,337.1 390.8,338.5 "/>
<polygon points="377.1,330.6 388.1,339.5 390.8,338.5 393.2,337.1 379.5,329.2 377.1,330.6 "/>
<polygon class="st11" points="377.1,330.6 377.1,344.1 390.8,352 390.8,338.5 377.1,330.6 "/>
<polygon class="st12" points="371.8,294.9 371.8,304.3 373.5,303.3 373.5,293.9 371.8,294.9 "/>
<polygon points="362.3,289.4 370,295.5 371.8,294.9 373.5,293.9 364,288.4 362.3,289.4 "/>
<polygon class="st11" points="362.3,289.4 362.3,298.8 371.8,304.3 371.8,294.9 362.3,289.4 "/>
<polygon class="st12" points="406.4,336.3 406.4,346 408.2,345 408.2,335.3 406.4,336.3 "/>
<polygon points="396.6,330.7 404.5,337 406.4,336.3 408.2,335.3 398.4,329.6 396.6,330.7 "/>
<polygon class="st11" points="396.6,330.7 396.6,340.4 406.4,346 406.4,336.3 396.6,330.7 "/>
<polygon class="st13" points="401.9,339 401.9,342.1 397.8,339.8 397.8,336.6 401.9,339 "/>
<polygon class="st12" points="403.3,275.9 403.4,281.8 404.4,281.2 404.4,275.2 403.3,275.9 "/>
<polygon points="393.6,270.3 400.8,275.5 403.3,275.9 404.4,275.2 394.7,269.6 393.6,270.3 "/>
<polygon class="st11" points="393.6,270.3 393.6,276.2 403.4,281.8 403.3,275.9 393.6,270.3 "/>
<polygon class="st12" points="368.7,367.6 368.7,373.5 369.7,372.9 369.7,367 368.7,367.6 "/>
<polygon points="359,362 366.2,367.3 368.7,367.6 369.7,367 360.1,361.4 359,362 "/>
<polygon class="st11" points="359,362 359,367.9 368.7,373.5 368.7,367.6 359,362 "/>
<polygon class="st12" points="366.6,267.7 358.8,263.2 360.4,262.3 368.3,266.8 366.6,267.7 "/>
<polygon points="366.6,284.9 365.2,271.3 366.6,267.7 368.3,266.8 368.3,284 366.6,284.9 "/>
<polygon class="st11" points="366.6,284.9 358.8,280.4 358.8,263.2 366.6,267.7 366.6,284.9 "/>
<polygon class="st12" points="370.2,356.3 370.2,366 371.9,365 371.9,355.3 370.2,356.3 "/>
<polygon points="360.4,350.7 368.2,357 370.2,356.3 371.9,355.3 362.1,349.6 360.4,350.7 "/>
<polygon class="st11" points="360.4,350.7 360.4,360.4 370.2,366 370.2,356.3 360.4,350.7 "/>
<polygon class="st13" points="365.6,359 365.6,362.1 361.5,359.8 361.5,356.6 365.6,359 "/>
<polygon class="st12" points="407.3,350.9 407.3,356.9 408.3,356.2 408.3,350.3 407.3,350.9 "/>
<polygon points="397.6,345.3 404.8,350.6 407.3,350.9 408.3,350.3 398.7,344.7 397.6,345.3 "/>
<polygon class="st11" points="397.6,345.3 397.6,351.2 407.3,356.9 407.3,350.9 397.6,345.3 "/>
<polygon class="st12" points="407.2,358.7 407.2,364.6 408.3,364 408.3,358 407.2,358.7 "/>
<polygon points="397.5,353.1 404.7,358.3 407.2,358.7 408.3,358 398.6,352.4 397.5,353.1 "/>
<polygon class="st11" points="397.5,353.1 397.5,359 407.2,364.6 407.2,358.7 397.5,353.1 "/>
<polygon class="st8" points="393,264.4 393,267.2 400.5,271.5 400.5,268.8 393,264.4 "/>
<polygon class="st6" points="400,304.5 400,326.7 403.9,324.3 404,302.1 400,304.5 "/>
<polygon class="st14" points="402.1,303.2 402.1,325.4 403.9,324.3 404,302.1 402.1,303.2 "/>
<polygon class="st11" points="377.5,291.5 395.6,306.1 400,304.5 404,302.1 381.5,289.2 377.5,291.5 "/>
<polygon class="st15" points="379.6,290.3 402.1,303.2 404,302.1 381.5,289.2 379.6,290.3 "/>
<polygon class="st12" points="377.5,291.5 377.5,313.7 400,326.7 400,304.5 377.5,291.5 "/>
<polygon class="st6" points="396.8,309.9 396.8,317.2 380.4,307.7 380.3,300.4 396.8,309.9 "/>
<polygon class="st6" points="401.6,369.7 401.6,391.9 405.6,389.5 405.6,367.4 401.6,369.7 "/>
<polygon class="st14" points="403.7,368.5 403.7,390.6 405.6,389.5 405.6,367.4 403.7,368.5 "/>
<polygon class="st11" points="379.1,356.8 397.2,371.3 401.6,369.7 405.6,367.4 383.1,354.4 379.1,356.8 "/>
<polygon class="st15" points="381.2,355.5 403.7,368.5 405.6,367.4 383.1,354.4 381.2,355.5 "/>
<polygon class="st12" points="379.1,356.8 379.1,379 401.6,391.9 401.6,369.7 379.1,356.8 "/>
<path class="st16" d="M379.2,321.9c-0.2,0-0.4-0.1-0.6-0.2c-0.8-0.5-1.3-1.4-1.4-2.3c0-0.6,0.3-0.9,0.7-0.9c0.2,0,0.4,0.1,0.6,0.2
	c0.8,0.5,1.2,1.4,1.3,2.3C379.9,321.6,379.6,321.9,379.2,321.9"/>
<path class="st17" d="M376.1,323.3l3.1-1.8c0.2-0.2,0.3-0.4,0.3-0.7c0-0.7-0.4-1.4-1-1.8c-0.2-0.2-0.5-0.2-0.8-0.1l-3,1.8
	L376.1,323.3L376.1,323.3z"/>
<path class="st18" d="M375.4,320.8c0.6,0.4,1,1.1,1,1.9c0,0.7-0.5,0.9-1,0.6c-0.6-0.4-1-1.1-1-1.8c-0.1-0.4,0.2-0.7,0.5-0.8
	C375.1,320.6,375.3,320.7,375.4,320.8z"/>
<path class="st16" d="M382.6,324c-0.2,0-0.4-0.1-0.6-0.2c-0.8-0.5-1.3-1.3-1.3-2.3c0-0.6,0.3-0.9,0.7-0.9c0.2,0,0.4,0.1,0.6,0.2
	c0.8,0.5,1.2,1.4,1.3,2.3C383.3,323.7,383,324,382.6,324"/>
<path class="st17" d="M379.6,325.4l3.1-1.8c0.2-0.2,0.3-0.4,0.3-0.7c0-0.7-0.4-1.4-1-1.8c-0.2-0.2-0.5-0.2-0.8-0.1l-3,1.8
	L379.6,325.4L379.6,325.4z"/>
<path class="st18" d="M378.8,322.9c0.6,0.4,1,1.1,1,1.8c0,0.7-0.5,1-1,0.6c-0.6-0.4-1-1.1-1.1-1.8
	C377.8,322.8,378.2,322.5,378.8,322.9z"/>
<path class="st16" d="M386.4,326.1c-0.2,0-0.4-0.1-0.6-0.2c-0.8-0.5-1.3-1.4-1.3-2.3c0-0.6,0.3-0.9,0.7-0.9c0.2,0,0.4,0.1,0.6,0.2
	c0.8,0.5,1.3,1.3,1.4,2.3C387.1,325.8,386.8,326.1,386.4,326.1"/>
<path class="st17" d="M383.4,327.5l3.1-1.8c0.2-0.1,0.3-0.4,0.3-0.7c0-0.7-0.5-1.4-1.1-1.8c-0.2-0.2-0.5-0.2-0.7-0.1l-3.1,1.8
	L383.4,327.5L383.4,327.5z"/>
<path class="st18" d="M382.6,325c0.6,0.4,1,1.1,1,1.8c0,0.7-0.5,1-1,0.6c-0.6-0.4-1-1.1-1.1-1.8C381.5,324.9,382,324.6,382.6,325z"
	/>
<path class="st16" d="M389.8,328.2c-0.2,0-0.4-0.1-0.6-0.2c-0.8-0.5-1.2-1.3-1.3-2.2c0-0.6,0.3-1,0.7-1c0.2,0,0.4,0.1,0.6,0.2
	c0.8,0.5,1.3,1.3,1.3,2.3C390.5,327.8,390.2,328.2,389.8,328.2"/>
<path class="st17" d="M386.8,329.6l3.1-1.8c0.2-0.2,0.3-0.4,0.3-0.7c0-0.7-0.4-1.4-1-1.8c-0.2-0.2-0.5-0.2-0.7-0.1l-3.1,1.8
	L386.8,329.6L386.8,329.6z"/>
<path class="st18" d="M386,327.1c0.6,0.4,1,1.1,1.1,1.8c0,0.7-0.5,0.9-1.1,0.6c-0.6-0.4-1-1.1-1.1-1.9
	C384.9,327,385.4,326.8,386,327.1L386,327.1z"/>
<path class="st16" d="M373.1,372.2c-0.2,0-0.4-0.1-0.6-0.2c-0.8-0.5-1.3-1.4-1.3-2.3c0-0.6,0.3-0.9,0.7-0.9c0.2,0,0.4,0.1,0.6,0.2
	c0.8,0.5,1.3,1.4,1.3,2.3C373.9,371.8,373.6,372.2,373.1,372.2"/>
<path class="st17" d="M370.1,373.6l3.1-1.8c0.2-0.2,0.3-0.4,0.3-0.7c0-0.7-0.4-1.4-1-1.8c-0.2-0.2-0.5-0.2-0.8-0.1l-3.1,1.8
	L370.1,373.6L370.1,373.6z"/>
<path class="st18" d="M369.4,371.1c0.6,0.4,1,1.1,1.1,1.8c0,0.7-0.5,0.9-1.1,0.6c-0.6-0.4-1-1.1-1.1-1.8
	C368.3,371,368.8,370.7,369.4,371.1z"/>
<path class="st16" d="M376.5,374.3c-0.2,0-0.4-0.1-0.6-0.2c-0.8-0.5-1.3-1.3-1.3-2.3c0-0.6,0.3-1,0.7-1c0.2,0,0.4,0.1,0.6,0.2
	c0.8,0.5,1.2,1.4,1.3,2.3C377.2,374,377,374.3,376.5,374.3"/>
<path class="st17" d="M373.5,375.7l3.1-1.8c0.2-0.2,0.3-0.4,0.3-0.7c0-0.8-0.4-1.4-1.1-1.9c-0.2-0.2-0.5-0.2-0.7-0.1l-3.1,1.8
	L373.5,375.7L373.5,375.7z"/>
<path class="st18" d="M372.8,373.2c0.6,0.4,1,1.1,1.1,1.8c0,0.7-0.5,1-1.1,0.6c-0.6-0.4-1-1.1-1.1-1.8
	C371.7,373.1,372.2,372.8,372.8,373.2z"/>
<path class="st16" d="M372.7,286.7c-0.2,0-0.4-0.1-0.6-0.2c-0.8-0.5-1.3-1.3-1.3-2.3c0-0.6,0.3-0.9,0.7-0.9c0.2,0,0.4,0.1,0.6,0.2
	c0.8,0.5,1.3,1.3,1.3,2.3C373.4,286.3,373.1,286.7,372.7,286.7"/>
<path class="st17" d="M369.7,288.1l3.1-1.8c0.2-0.2,0.3-0.4,0.3-0.7c0-0.8-0.4-1.4-1.1-1.8c-0.2-0.2-0.5-0.2-0.7-0.1l-3.1,1.8
	L369.7,288.1z"/>
<path class="st18" d="M368.9,285.5c0.6,0.4,1,1.1,1.1,1.9c0,0.7-0.5,0.9-1.1,0.6c-0.6-0.4-1-1.1-1-1.9
	C367.9,285.5,368.4,285.2,368.9,285.5z"/>
<path class="st16" d="M376.1,288.8c-0.2,0-0.4-0.1-0.6-0.2c-0.8-0.5-1.3-1.4-1.3-2.3c0-0.6,0.3-1,0.7-1c0.2,0,0.4,0.1,0.6,0.2
	c0.8,0.5,1.3,1.4,1.3,2.3C376.8,288.4,376.5,288.8,376.1,288.8"/>
<path class="st17" d="M373.1,290.2l3.1-1.8c0.2-0.1,0.3-0.4,0.3-0.7c0-0.7-0.4-1.4-1.1-1.8c-0.2-0.2-0.5-0.2-0.7-0.1l-3.1,1.8
	L373.1,290.2L373.1,290.2z"/>
<path class="st18" d="M372.4,287.6c0.6,0.4,1,1.1,1.1,1.8c0.1,0.4-0.2,0.7-0.5,0.7c-0.2,0-0.4,0-0.5-0.1c-0.6-0.4-1-1.1-1.1-1.8
	C371.3,287.6,371.8,287.3,372.4,287.6L372.4,287.6z"/>
<path class="st16" d="M360.1,303.8c-0.2,0-0.4-0.1-0.6-0.2c-0.8-0.5-1.3-1.4-1.3-2.3c0-0.6,0.3-0.9,0.7-0.9c0.2,0,0.4,0.1,0.6,0.2
	c0.8,0.5,1.3,1.4,1.3,2.3C360.8,303.5,360.5,303.8,360.1,303.8"/>
<path class="st17" d="M357.1,305.2l3.1-1.8c0.2-0.2,0.3-0.4,0.3-0.7c0-0.7-0.4-1.4-1.1-1.8c-0.2-0.2-0.5-0.2-0.7-0.1l-3.1,1.8
	L357.1,305.2L357.1,305.2z"/>
<path class="st18" d="M356.3,302.7c0.6,0.4,1,1.1,1.1,1.8c0.1,0.4-0.2,0.7-0.5,0.8c-0.2,0-0.4,0-0.5-0.1c-0.6-0.4-1-1.1-1.1-1.8
	C355.2,302.6,355.7,302.4,356.3,302.7z"/>
<path class="st16" d="M363.5,305.9c-0.2,0-0.4-0.1-0.6-0.2c-0.8-0.5-1.3-1.4-1.3-2.3c0-0.6,0.3-0.9,0.8-0.9c0.2,0,0.4,0.1,0.6,0.2
	c0.8,0.5,1.3,1.4,1.3,2.3C364.2,305.6,363.9,305.9,363.5,305.9"/>
<path class="st17" d="M360.5,307.3l3.1-1.8c0.2-0.2,0.3-0.4,0.3-0.7c0-0.8-0.4-1.4-1.1-1.8c-0.2-0.2-0.5-0.2-0.7-0.1l-3.1,1.8
	L360.5,307.3L360.5,307.3z"/>
<path class="st18" d="M359.7,304.8c0.6,0.4,1,1.1,1,1.8c0,0.7-0.5,1-1,0.6c-0.6-0.4-1-1.1-1.1-1.8
	C358.7,304.7,359.1,304.5,359.7,304.8z"/>
<path class="st16" d="M359.2,340.6c-0.1,0-0.3,0-0.4-0.1l0.5-0.3c0.2-0.2,0.3-0.4,0.3-0.7c0-0.7-0.4-1.4-1.1-1.8
	c-0.1-0.1-0.3-0.1-0.5-0.1c-0.1,0-0.2,0-0.3,0.1l-0.5,0.3c0-0.4,0.3-0.7,0.7-0.7c0.2,0,0.4,0.1,0.6,0.2c0.8,0.5,1.3,1.4,1.3,2.3
	C360,340.3,359.6,340.6,359.2,340.6"/>
<path class="st17" d="M356.2,342l3.1-1.8c0.2-0.2,0.3-0.4,0.3-0.7c0-0.7-0.4-1.4-1.1-1.8c-0.2-0.2-0.5-0.2-0.7-0.1l-3.1,1.8
	L356.2,342"/>
<path class="st18" d="M355.5,339.5c0.6,0.4,1,1.1,1.1,1.8c0,0.7-0.5,0.9-1.1,0.6c-0.6-0.4-1-1.1-1.1-1.8
	C354.4,339.4,354.9,339.1,355.5,339.5z"/>
<path class="st16" d="M362.6,342.7c-0.2,0-0.4-0.1-0.6-0.2c-0.8-0.5-1.2-1.4-1.3-2.3c0-0.6,0.3-1,0.7-1c0.2,0,0.4,0.1,0.6,0.2
	c0.8,0.5,1.3,1.3,1.4,2.3C363.4,342.4,363.1,342.8,362.6,342.7"/>
<path class="st17" d="M359.6,344.1l3.1-1.8c0.2-0.2,0.4-0.4,0.3-0.7c0-0.7-0.4-1.4-1.1-1.8c-0.2-0.2-0.5-0.2-0.8-0.1l-3.1,1.8
	L359.6,344.1L359.6,344.1z"/>
<path class="st18" d="M358.9,341.6c0.6,0.4,1,1.1,1.1,1.8c0,0.7-0.5,0.9-1.1,0.6c-0.6-0.4-1-1.1-1-1.8
	C357.9,341.5,358.3,341.2,358.9,341.6z"/>
<polygon class="st19" points="365.9,326 365.9,334.1 373.5,329.7 373.5,321.5 365.9,326 "/>
<polygon class="st20" points="303.1,289.7 315.1,299.4 365.9,326 373.5,321.5 310.6,285.3 303.1,289.7 "/>
<polygon class="st21" points="303.1,289.7 303.1,297.9 365.9,334.1 365.9,326 303.1,289.7 "/>
<polygon class="st11" points="363.2,329.8 305.2,296.3 305.2,294 363.2,327.5 363.2,329.8 "/>
<polygon class="st11" points="424.9,280.6 372.1,250.2 372.1,478.4 424.9,508.8 424.9,280.6 "/>
<polygon points="442.2,311.7 377.3,274.2 377.3,260.9 442.2,298.4 442.2,311.7 "/>
<polygon points="442.2,329.3 377.3,291.8 377.3,278.6 442.2,316.1 442.2,329.3 "/>
<polygon points="442.2,347 377.3,309.5 377.3,296.2 442.2,333.7 442.2,347 "/>
<polygon points="442.2,364.6 377.3,327.1 377.3,313.9 442.2,351.4 442.2,364.6 "/>
<polygon points="442.2,382.3 377.3,344.8 377.3,331.5 442.2,369 442.2,382.3 "/>
<polyline points="442.2,400 377.3,362.4 377.3,349.2 442.2,386.7 442.2,400 "/>
<polyline points="442.2,417.6 377.3,380.1 377.3,366.8 442.2,404.3 442.2,417.6 "/>
<polygon points="442.2,435.2 377.3,397.8 377.3,384.5 442.2,422 442.2,435.2 "/>
<polygon points="442.2,452.9 377.3,415.4 377.3,402.1 442.2,439.6 442.2,452.9 "/>
<polygon points="442.2,470.6 377.3,433 377.3,419.8 442.2,457.3 442.2,470.6 "/>
<polygon points="442.2,488.2 377.3,450.7 377.3,437.5 442.2,475 442.2,488.2 "/>
<polygon points="442.2,505.9 377.3,468.4 377.3,455.1 442.2,492.6 442.2,505.9 "/>
<polygon class="st14" points="287.7,261 358.9,162.2 308.8,133.4 237.6,174.5 287.7,261 "/>
<polygon class="st15" points="237.6,232.1 287.7,261 287.7,203.3 237.6,174.5 237.6,232.1 "/>
<polygon class="st6" points="258.5,232.6 280.7,245.4 280.7,225.8 258.5,213 258.5,232.6 "/>
<polygon class="st22" points="287.7,261 358.9,219.9 358.9,162.2 287.7,203.3 287.7,261 "/>
<polyline class="st7" points="422.7,521.1 512.5,469.1 512.5,226.3 422.7,278.2 421.4,465.2 422.7,521.1 "/>
<path class="st12" d="M227.5,170.4l192.7,111.5v232.4L227.5,402.9V170.4 M225.1,164.1V407l197.6,114.1V278.2L225.1,164.1"/>
<polygon class="st12" points="436,286.3 436,312.9 500.3,275.7 500.3,249.1 436,286.3 "/>
<polygon class="st12" points="436,316.9 436,343.5 500.3,306.3 500.3,279.7 436,316.9 "/>
<polygon class="st12" points="436,347 436,373.7 500.3,336.5 500.3,309.9 436,347 "/>
<polygon class="st7" points="225.1,164.1 314.9,112.2 512.5,226.3 422.7,278.2 225.1,164.1 "/>
<polygon points="449,393 449,398.2 503.9,366.5 503.9,348.2 499.3,350.9 499.3,363.9 449,393 "/>
<polyline class="st12" points="449,379.9 449,393 499.3,363.9 499.3,350.9 449,379.9 "/>
<polygon class="st22" points="489.1,362.5 496.6,358.2 496.6,353.9 489.1,358.2 489.1,362.5 "/>
<polygon points="490.4,361 495.3,358.2 495.3,355.4 490.4,358.2 490.4,361 "/>
<polygon class="st22" points="489.1,368.2 496.6,363.9 496.6,359.6 489.1,363.9 489.1,368.2 "/>
<polygon points="490.4,366.7 495.3,363.9 495.3,361.1 490.4,363.9 490.4,366.7 "/>
<polygon points="432.8,463.3 432.8,468.6 503.9,427.5 503.9,376.2 499.3,378.8 499.3,424.9 432.8,463.3 "/>
<polygon class="st12" points="432.8,417.2 432.8,463.3 499.3,424.9 499.3,378.8 432.8,417.2 "/>
<polygon points="432.8,483.8 432.8,489.1 503.9,448 503.9,436.5 499.3,439.1 499.3,445.4 432.8,483.8 "/>
<polygon class="st12" points="432.8,477.6 432.8,483.8 499.3,445.4 499.3,439.1 432.8,477.6 "/>
<polygon points="432.8,501.1 432.8,506.4 503.9,465.3 503.9,453.7 499.3,456.4 499.3,462.6 432.8,501.1 "/>
<polygon class="st12" points="432.8,494.8 432.8,501.1 499.3,462.6 499.3,456.4 432.8,494.8 "/>
<g>
	<defs>
		<path id="SVGID_9_" d="M435.9,399.2c-1.8,0-3.1-1.5-3.1-4c0.2-3.9,2.3-7.5,5.5-9.6c0.7-0.5,1.6-0.7,2.5-0.8c1.8,0,3.1,1.5,3.1,4
			c-0.2,3.9-2.3,7.5-5.5,9.6C437.6,398.9,436.8,399.2,435.9,399.2"/>
	</defs>
	<clipPath id="SVGID_10_">
		<use xlink:href="#SVGID_9_"  style="overflow:visible;"/>
	</clipPath>
	<g class="st23">
		<rect x="432.8" y="384.9" class="st24" width="11.1" height="14.3"/>
	</g>
</g>
<path class="st8" d="M441.9,394L441.9,394l-3.1,5.4l-3.2-1.8c-0.9-0.7-1.4-1.7-1.3-2.9c0.2-3.1,1.8-6,4.5-7.7
	c0.9-0.7,2.1-0.8,3.1-0.3l3.2,1.8L441.9,394z"/>
<path class="st9" d="M441.8,388.8c-2.6,1.7-4.3,4.6-4.5,7.7c0,2.8,2,4,4.5,2.5c2.6-1.7,4.3-4.6,4.4-7.7
	C446.2,388.5,444.2,387.4,441.8,388.8L441.8,388.8z"/>
<path class="st25" d="M481.5,368.6c-0.7,0-1.2-0.6-1.2-1.6c0.1-1.6,0.9-3,2.2-3.8c0.3-0.2,0.6-0.3,1-0.3c0.7,0,1.2,0.6,1.2,1.6
	c-0.1,1.6-0.9,3-2.2,3.8C482.2,368.5,481.9,368.6,481.5,368.6"/>
<path class="st8" d="M483.9,366.5L483.9,366.5l-1.2,2.2l-1.3-0.7c-0.4-0.3-0.5-0.7-0.5-1.1c0.1-1.3,0.7-2.4,1.8-3.1
	c0.4-0.3,0.8-0.3,1.2-0.1l1.3,0.7L483.9,366.5z"/>
<path class="st10" d="M483.9,364.4c-1.1,0.7-1.7,1.8-1.8,3.1c0,1.1,0.8,1.6,1.8,1c1-0.7,1.7-1.8,1.8-3.1
	C485.7,364.3,484.9,363.8,483.9,364.4L483.9,364.4z"/>
<path class="st9" d="M483.9,365.4c-0.6,0.4-1,1.1-1.1,1.8c0,0.7,0.4,1,1.1,0.6c0.6-0.4,1-1.1,1-1.9
	C484.9,365.3,484.5,365,483.9,365.4z"/>
<path class="st25" d="M475.8,371.8c-0.7,0-1.2-0.6-1.2-1.6c0.1-1.6,0.9-3,2.2-3.8c0.3-0.2,0.6-0.3,1-0.3c0.7,0,1.2,0.6,1.2,1.6
	c-0.1,1.6-0.9,3-2.2,3.8C476.5,371.7,476.2,371.8,475.8,371.8"/>
<path class="st17" d="M478.2,369.7L478.2,369.7l-1.2,2.2l-1.3-0.7c-0.4-0.3-0.6-0.7-0.5-1.1c0.1-1.2,0.8-2.3,1.8-3
	c0.4-0.3,0.9-0.3,1.3-0.1l1.3,0.7L478.2,369.7L478.2,369.7z"/>
<path class="st26" d="M478.2,367.6c-1.1,0.7-1.7,1.8-1.8,3.1c0,1.1,0.8,1.6,1.8,1c1-0.7,1.7-1.8,1.7-3.1
	C480,367.5,479.2,367.1,478.2,367.6z"/>
<path d="M478.2,368.6c-0.6,0.4-1,1.1-1.1,1.8c0,0.7,0.5,1,1.1,0.6c0.6-0.4,1-1.1,1-1.9C479.2,368.5,478.8,368.2,478.2,368.6z"/>
<path class="st25" d="M470,375.2c-0.7,0-1.2-0.6-1.2-1.6c0.1-1.6,0.9-3,2.2-3.9c0.3-0.2,0.6-0.3,1-0.3c0.7,0,1.3,0.6,1.3,1.6
	c-0.1,1.6-0.9,3-2.2,3.8C470.7,375.1,470.4,375.2,470,375.2"/>
<path class="st19" d="M472.4,373.1L472.4,373.1l-1.3,2.2l-1.3-0.7c-0.4-0.3-0.5-0.7-0.5-1.2c0.1-1.2,0.7-2.4,1.8-3.1
	c0.4-0.3,0.9-0.3,1.3-0.1l1.3,0.7L472.4,373.1L472.4,373.1z"/>
<path class="st20" d="M472.4,371c-1,0.7-1.7,1.8-1.8,3.1c0,1.1,0.8,1.6,1.8,1c1.1-0.7,1.7-1.8,1.8-3.1
	C474.2,370.9,473.3,370.4,472.4,371z"/>
<path d="M472.4,371.9c-0.6,0.4-1,1.1-1.1,1.9c0,0.7,0.5,0.9,1.1,0.6c0.6-0.4,1-1.1,1-1.9C473.4,371.9,473,371.6,472.4,371.9z"/>
<path class="st27" d="M432.3,481.5c2.2-0.6,4.6,0.7,5.2,3c0.1,0.2,0.1,0.4,0.1,0.6c0.8,3.4,2,9.3,2.6,9.7c1,0,2,0.1,2.9,0.4
	l-0.4,4.5c0,0-4.1,0.2-5.2-0.4s-5.5-15.9-5.5-15.9L432.3,481.5z"/>
<path class="st28" d="M444.6,499.2c0,0-0.6,2.2-3.7,0.9c-1.7-0.7-1.5-4.5,0-5.3c2.6-1.5,3.6,0.8,3.6,0.8L444.6,499.2L444.6,499.2z"
	/>
<path class="st15" d="M448.7,495.7c0,0,0.7-1.6,1.4-1.7c0.7-0.1,1.4,0,2.1,0.3c0.2,0.1,0.3,0.4,0.4,0.6c0.7,0.1,1.4,0.5,1.9,1
	c0.8,1.1-0.3,3.2-1.1,3.5c-1.6,0.4-3.2,0.2-4.6-0.7l-0.8-0.6l-0.2-1.9L448.7,495.7L448.7,495.7z"/>
<path class="st22" d="M450.2,501.4l0.1,1.2l0.7-2.2c0,0-0.3-0.1-0.4,0.4C450.6,501,450.4,501.2,450.2,501.4L450.2,501.4z"/>
<path class="st18" d="M450.4,500.8c0,0.2,0.1,0.3,0.2,0.4c0.2,0.1,0.4-0.2,0.4-0.2l0.8-2.8c0.1-0.2,0-0.4-0.2-0.5l0,0
	c-0.2,0-0.4,0.1-0.4,0.3L450.4,500.8L450.4,500.8z"/>
<path class="st17" d="M450.8,500.5c0.1,0,0.3,0,0.4-0.1v0.1C451.1,500.6,450.9,500.6,450.8,500.5c-0.2,0.1-0.3-0.1-0.3-0.2v-0.1
	C450.6,500.3,450.7,500.4,450.8,500.5L450.8,500.5z"/>
<path class="st29" d="M451.5,496.5c0.1-0.2,0.3-0.4,0.5-0.3l0,0c0.2,0.1,0.3,0.3,0.3,0.5c0,0,0,0,0,0l-1,3.5l-0.1,0.1
	c-0.1,0.1-0.2,0.1-0.4,0.1c-0.1,0-0.2-0.1-0.3-0.3V500L451.5,496.5L451.5,496.5z"/>
<path class="st8" d="M451.6,497.6c0.2,0,0.3,0,0.5-0.1v0.1c-0.1,0.1-0.3,0.2-0.5,0.1c-0.2,0-0.3-0.2-0.3-0.4v-0.1
	C451.3,497.4,451.4,497.6,451.6,497.6z"/>
<path class="st29" d="M452.4,492.9c0.1-0.3,0.3-0.5,0.6-0.4l0,0c0.3,0.1,0.4,0.4,0.3,0.7l-1.2,4.2l-0.1,0.2
	c-0.1,0.1-0.3,0.2-0.5,0.1c-0.2,0-0.3-0.2-0.3-0.3v-0.2L452.4,492.9L452.4,492.9z"/>
<path class="st18" d="M453.1,494.1c0,0,0.3,0.1,0.2,0.3l-0.7,2.5c-0.1,0.4-0.3,0.7-0.5,1l1-3.6H453h-0.1l0.1-0.3L453.1,494.1
	L453.1,494.1z"/>
<path class="st15" d="M452.4,496.1c-0.3,0.9-0.9,1.4-1.4,1.2s-0.6-1-0.4-1.8s0.9-1.4,1.4-1.2S452.7,495.3,452.4,496.1z"/>
<path class="st30" d="M443.1,495.2c1.8,0.4,3.7,0.5,5.6,0.5c-0.5,1-0.5,2.1,0.1,3.1c-1.9,0.1-3.7,0.4-5.5,0.8
	C441.4,499.8,441.5,495,443.1,495.2L443.1,495.2z"/>
<path class="st31" d="M424.2,479.4c0,1.4-0.4,2.8-1.1,4l2.1,1.9l1.9,1.1h2.2l1.6-1.3l-1.4-4.4l-2.6-2
	C426.9,478.7,424.2,478.7,424.2,479.4L424.2,479.4z"/>
<path class="st28" d="M429.6,484.1c0,0,0.7,0.8-0.7,1.5c-1.8,1.2-5.8-2.6-5.8-2.6l-0.9,1.1l-0.8,1l-1.1,0.8l-0.7,0.8l5,20l5,0.7
	l7.2-5.2c0,0,1.2-11.6,0.8-14.1s-4.2-5.1-4.2-5.1L429.6,484.1L429.6,484.1z"/>
<path class="st32" d="M429,559.2h-0.6l10.9-6.3l3.4,1.9c-0.7,0.6-1.5,1.2-2.3,1.6C436.9,558.3,433,559.2,429,559.2 M426.7,559.1
	c-3.2-0.2-6.3-1.1-9.1-2.6c-3.4-2-5-4.7-4.7-7.2l10-5.8l15.5,8.9L426.7,559.1 M443.3,554.1l-3.1-1.8l4.9-2.8
	C445.2,551.2,444.5,552.9,443.3,554.1 M439.3,551.8l-15.5-8.9l4-2.3c0.4,0,0.8,0,1.1,0c4-0.1,7.9,0.9,11.4,2.7
	c2.6,1.5,4.1,3.3,4.6,5.3L439.3,551.8 M413.2,548c0.9-2,2.4-3.7,4.4-4.7c0.9-0.5,1.8-0.9,2.8-1.3l1.6,0.9L413.2,548 M422.9,542.3
	l-1.3-0.8c1.4-0.4,2.7-0.7,4.1-0.8L422.9,542.3"/>
<g>
	<defs>
		<path id="SVGID_11_" d="M428.5,559.2c-0.6,0-1.1,0-1.7-0.1l11.7-6.8l-15.4-8.9l-10,5.8c0.1-0.4,0.2-0.8,0.3-1.2l8.8-5.1l-1.6-0.9
			c0.4-0.1,0.8-0.3,1.2-0.4l1.3,0.8l2.8-1.6c0.7-0.1,1.4-0.1,2.1-0.2l-4,2.3l15.5,8.9l5.5-3.3c0.1,0.3,0.1,0.7,0.1,1l-4.9,2.8
			l3.1,1.8c-0.2,0.2-0.4,0.5-0.7,0.7l-3.4-1.9L428.5,559.2"/>
	</defs>
	<clipPath id="SVGID_12_">
		<use xlink:href="#SVGID_11_"  style="overflow:visible;"/>
	</clipPath>
	<g class="st33">
		<g>
			<defs>
				<rect id="SVGID_13_" x="412.9" y="540.5" width="32.3" height="18.6"/>
			</defs>
			<clipPath id="SVGID_14_">
				<use xlink:href="#SVGID_13_"  style="overflow:visible;"/>
			</clipPath>
			<g class="st34">
				
					<image style="overflow:visible;enable-background:new    ;" width="52" height="31" xlink:href="87D84982.png"  transform="matrix(0.71 0 0 -0.71 411.18 561)">
				</image>
			</g>
		</g>
	</g>
</g>
<path class="st35" d="M435.7,544c1.3,1.9,5.6,2.6,5.6,4c0,0.3,0.2,1.4-0.5,1.7c-2.3,0.6-6.6-1.8-6.6-1.8s-4-0.1-4.3-0.9s0-3.4,0-3.4
	S435.4,543.5,435.7,544L435.7,544z"/>
<path class="st36" d="M437.9,510.4c0.6,8.3-1.8,15.6-2.1,17.4c-0.8,6.5,0.2,14.3,0.2,16s-6,3.1-6.8,0.1c-0.4-2.8-0.4-11.3,0.6-15.4
	c0.4-1.6-1.4-14.5-1.4-14.5S437.8,508.7,437.9,510.4L437.9,510.4z"/>
<path class="st35" d="M424.3,549.5c-0.1,0.9,2.5,5,1.9,6.1s-3.6,0.6-4.8-0.3s-2.1-4-2.4-5.1c-0.1-0.9-0.1-1.8,0-2.7l5.3,0.4
	C424.3,548.4,424.3,548.9,424.3,549.5L424.3,549.5z"/>
<path class="st7" d="M437.8,504.1c0,0-6.9,5.1-9.4,5c-2-0.2-3.8-1.1-5-2.7c-0.8,1.4-1.5,2.9-2.1,4.4c-0.5,1.7-0.3,17.3-1.1,19.5
	c-0.6,1.4-1.2,2.9-1.6,4.3c-0.4,1.7-0.5,10.3-0.2,13s4.7,3.6,6.2,1.7c-0.2-7,0-14,1.3-16.3c1.8-3.3,4.4-15.6,4.6-16.1
	c3.6-1.8,7.5-6,7.5-6.7C437.9,509.5,437.9,510,437.8,504.1L437.8,504.1z"/>
<path class="st7" d="M429.1,479.9c6.2,2.3,8.5,8.9,8.5,8.9l-1.8,1.3c0,0-2.6-7.4-8.8-8.5C427,481.2,428.6,480.1,429.1,479.9z"/>
<path class="st7" d="M428,509c2.3-6-0.4-14.7-0.4-14.7s7-2.8,10.2-6.3c0.8,5.4,0.8,10.9,0,16.2l-1.2,3.5l-5,2
	C431.7,509.6,427.4,511,428,509L428,509z"/>
<path class="st7" d="M422.2,484.1c6.2,2.3,8.5,9.6,8.5,9.6l-2.3,0.9c-0.9-4.2-4-7.5-8.1-8.7C420.4,485.4,421.7,484.2,422.2,484.1
	L422.2,484.1z"/>
<polygon class="st37" points="445.4,496.4 437.7,510.2 437.1,509.8 438.4,499.7 444.7,496 445.4,496.4 "/>
<polygon class="st38" points="444.1,506.5 437.7,510.2 439,500.1 445.4,496.4 444.1,506.5 "/>
<path class="st15" d="M435,505.2c0.2-0.8,0.5-1.5,0.9-2.2c0.5-0.7,1.4-1,2.2-0.8l-0.2,1.2l1.8-0.2c0,0,1.4-0.9,1.8-0.8
	s0.4,0.5,0.3,0.8c-0.2,2.3-1.1,3-2.1,3.6c-1,0.5-2.1,0.9-3.1,1.2L435,505.2z"/>
<path class="st30" d="M430.3,504.7c1.6,0.4,3.2,0.6,4.8,0.4c1.7,0.3,1.9,2.5,1.5,2.8c-2.4,1-7.5,0.8-7.5,0.8L430.3,504.7
	L430.3,504.7z"/>
<path class="st28" d="M426.1,503.9c0,0,1.3-1.6,3.8,0.1c1.5,1.1,0.9,4.6-0.7,5.3c-1.4,0.7-3.2,0.2-4-1.2L426.1,503.9L426.1,503.9z"
	/>
<path class="st27" d="M419.7,486.7c0,0-4.9,1.6-1.4,9.3c0.6,2,2.4,10,3.4,10.9c1.7,1.6,4.5,2,5.7,2.1s1.8-4.7,0.3-5
	c-0.8-0.1-1.5-0.2-2.3-0.1c-0.4-3.7-1-7.3-1.8-10.9C422.7,487.9,419.7,486.7,419.7,486.7L419.7,486.7z"/>
<path class="st30" d="M431.9,473.2c1.6,1.4,2.3,3.6,1.7,5.7c0,0-0.7,5.3-1.2,5.8c-0.5,0.4-1,0.7-1.7,0.8c-0.9,0.1-4.2-2.3-4.7-2.9
	c-0.3-0.5-0.4-1.1-0.3-1.7c-0.9-0.4-1.5-1.1-1.7-2.1c-0.1-0.8-0.1-1.5,0-2.3l1.2-2.6l2.5-1.6h2.1
	C430.6,472.7,431.3,472.9,431.9,473.2L431.9,473.2z"/>
<path class="st35" d="M424.1,479c0,0,0.4-1.6,1.2-0.7c0.4,0.4,0.2,0.7,0.6,1.2s1.1,0.8,1.3,0.6c0.3-1,0.3-2.1,0.2-3.2
	c-0.2-0.7-1.5-1.3-0.6-2.3s4.2,1.9,5.4,0.8c0.8-0.8-1.1-6.1-6.8-2.6C422.2,474.7,424.1,479,424.1,479z"/>
<path class="st39" d="M433.9,477c0,0-1,1.4-5.6,1.4c-1.8-0.1-3.4-0.8-4.8-2c0-2,0.6-4.2,3.9-4.9c1.7-0.3,4.5-0.2,5.5,1.4
	C433.5,474.2,433.9,475.6,433.9,477L433.9,477z"/>
<path class="st40" d="M429.4,472c0,0.2-0.3,0.3-0.7,0.3s-0.7-0.1-0.7-0.3s0.3-0.3,0.7-0.3S429.4,471.9,429.4,472z"/>
<path class="st40" d="M435.9,478.7l-2.5-1c0,0,0.5-0.6,1-0.5c0.5,0,0.9,0.2,1.2,0.5C435.8,477.9,435.9,478.3,435.9,478.7
	L435.9,478.7z"/>
<path class="st41" d="M427.8,478.3c0,0,2.1,1.8,3.4,1.8c0.8,0,1.1-1.9,2.9-2.4c2.1-0.5,1.5,1.1,1.8,0.9c0-1.5-1.5-1.8-2.1-2.1
	s-1.7-0.3-1.7-0.3C430.6,476.6,429.1,477.3,427.8,478.3L427.8,478.3z"/>
<g>
	<defs>
		<path id="SVGID_15_" d="M334.6,525.6c-1.8,0-3.6-0.4-5.3-1.2c-0.7-0.4-1.3-1-1.8-1.6l9.5-5.5c1,0.2,2,0.5,2.8,1
			c2.9,1.7,2.9,4.4,0,6.1C338.2,525.2,336.4,525.6,334.6,525.6 M327.2,521.8c-0.3-1.3,0.4-2.6,2.1-3.6c1.6-0.9,3.4-1.3,5.3-1.3
			c0.3,0,0.6,0,0.9,0L327.2,521.8"/>
	</defs>
	<clipPath id="SVGID_16_">
		<use xlink:href="#SVGID_15_"  style="overflow:visible;"/>
	</clipPath>
	<g class="st42">
		<rect x="326.9" y="517" class="st32" width="15.8" height="8.6"/>
	</g>
</g>
<g>
	<defs>
		<path id="SVGID_17_" d="M327.5,522.7c-0.2-0.3-0.3-0.6-0.4-0.9l8.3-4.8c0.5,0,1,0.1,1.5,0.2L327.5,522.7"/>
	</defs>
	<clipPath id="SVGID_18_">
		<use xlink:href="#SVGID_17_"  style="overflow:visible;"/>
	</clipPath>
	<g class="st43">
		<g>
			<defs>
				<rect id="SVGID_19_" x="327.2" y="517" width="9.8" height="5.7"/>
			</defs>
			<clipPath id="SVGID_20_">
				<use xlink:href="#SVGID_19_"  style="overflow:visible;"/>
			</clipPath>
			<g class="st44">
				
					<image style="overflow:visible;enable-background:new    ;" width="20" height="12" xlink:href="87D84983.png"  transform="matrix(0.71 0 0 -0.71 325.46 524.23)">
				</image>
			</g>
		</g>
	</g>
</g>
<path class="st45" d="M337.2,462.3c-0.5-0.3-1-0.6-1.5-1c-0.4-0.2-0.8-0.3-1.2-0.2v4.5c0.8,0,1.6-0.1,2.3-0.2l1,0.1v-1.9
	L337.2,462.3L337.2,462.3z"/>
<path class="st30" d="M344.4,464.4c-3.1-1.6-3.8-0.8-7.2-2.1c0.4,1,0.3,2.2-0.4,3.1c2,1.3,2.9,3.4,7.6,3.6c1.8-0.4,3.6-1.2,5.1-2.3
	c1.7-1,0.3-1.1,1-2.9c-0.3-0.8-1.6-1.4-1.6-1.4C347.4,463.1,345.9,463.8,344.4,464.4z"/>
<path class="st27" d="M360.5,458.3c1.2,2.7-1.3,4.8-4.1,6.5c-3.6,0.3-7,2.7-7.6,3c-1.6,0.6-4.2-3.4-2.8-4.8c2.5-1.4,4.9-2.9,7.1-4.5
	C356,456.6,358.7,455.8,360.5,458.3L360.5,458.3z"/>
<path class="st31" d="M366.9,455.1c-0.1,1.3,0.1,2.6,0.5,3.7l-0.4,1.7l-3.7,3l-3.1-1.4l-1-3.1l3.4-3.9
	C362.6,455.1,367,454.6,366.9,455.1L366.9,455.1z"/>
<path class="st28" d="M361.7,459c0,0-0.9,1.7,0.5,2.5c1.8,1.2,5.3-2.6,5.3-2.6l1.6,1.6l0.4,1.4l1.5,0.4l1.5,0.8c0,0-0.2,6.9-0.1,7.9
	s-4.7,6.6-4,10.6c0.4,0.8-2.1,4-6,3.5c0.3-1.6-1.3-2.2-2.2-2.8c-1.7-0.9-3.5-1.5-5.3-1.9c0,0-0.9-11.9-0.9-15c0-4.5,6.2-8.3,6.2-8.3
	L361.7,459L361.7,459z"/>
<path class="st32" d="M361,532.8c-4,0.1-7.9-0.9-11.4-2.7c-0.3-0.2-0.6-0.4-0.9-0.6l8.7-5l12.1,7C366.7,532.4,363.9,532.9,361,532.8
	 M370.6,531l-12.3-7.1l13.1-7.6c0.4,0.2,0.7,0.3,1,0.5c6.3,3.6,6.3,9.5,0,13.2C371.8,530.5,371.2,530.8,370.6,531 M347.8,528.9
	c-3.8-3.1-4-7.1-0.6-10.3l9.2,5.3L347.8,528.9 M357.4,523.5L348,518c0.5-0.4,1-0.8,1.6-1.1c3.5-1.9,7.4-2.9,11.4-2.8
	c3.2,0,6.4,0.6,9.4,1.7L357.4,523.5"/>
<g>
	<defs>
		<path id="SVGID_21_" d="M369.4,531.4l-12.1-7l-8.7,5c-0.3-0.2-0.6-0.4-0.8-0.6l8.6-5l-9.2-5.3c0.2-0.2,0.5-0.4,0.8-0.6l9.4,5.4
			l13-7.5c0.4,0.1,0.7,0.3,1,0.5l-13.1,7.6l12.3,7.2C370.2,531.2,369.8,531.3,369.4,531.4"/>
	</defs>
	<clipPath id="SVGID_22_">
		<use xlink:href="#SVGID_21_"  style="overflow:visible;"/>
	</clipPath>
	<g class="st46">
		<g>
			<defs>
				<rect id="SVGID_23_" x="347.2" y="515.9" width="24.2" height="15.5"/>
			</defs>
			<clipPath id="SVGID_24_">
				<use xlink:href="#SVGID_23_"  style="overflow:visible;"/>
			</clipPath>
			<g class="st47">
				
					<image style="overflow:visible;enable-background:new    ;" width="40" height="26" xlink:href="87D8498D.png"  transform="matrix(0.71 0 0 -0.71 345.24 533.25)">
				</image>
			</g>
		</g>
	</g>
</g>
<path class="st35" d="M358,518.1c-1.3,1.9-5,2.3-6.5,4.1c-0.5,0.5-0.5,2.1,0.3,2.5c2.3,0.6,7-1.9,7-1.9s3.6-0.2,4.1-0.9
	c0.6-0.9,0.2-3.9,0.2-3.9S358.3,517.6,358,518.1L358,518.1z"/>
<path class="st36" d="M354.5,483.9c-0.6,8.3,1.5,17.1,1.8,19c0.5,5,0.7,10,0.6,15.1c0,1.4,6.2,2.6,6.8,0.1c0.4-2.8-0.1-9.5-1.2-13.6
	c-0.4-1.6,1.7-16.5,1.7-16.5S354.6,482.3,354.5,483.9L354.5,483.9z"/>
<path class="st35" d="M367.4,523.9c0.1,0.9-2.6,3.8-1.6,5.2c0.7,1,3,1.3,4.2,0.3s2-3.7,2-5.3c0-1.1-0.1-2.3-0.1-2.3l-4.4,0.4
	C367.3,522.8,367.3,523.4,367.4,523.9L367.4,523.9z"/>
<path class="st7" d="M354.6,479c0,0,6.7,5,9.3,4.9c1.8-0.1,3.6-1,4.6-2.5c0.8,1.4,1.5,2.8,2.1,4.4c0.9,3.2,1.1,16.8,1.9,19
	c0.6,1.5,1.1,3.1,1.5,4.8c0.4,1.7,0,10.8-0.3,13.5s-5.9,2.5-6.5,0.5c0.2-7,0.8-13.8-0.5-16.2c-1.8-3.3-4.7-15.2-4.9-15.7
	c-3.6-1.8-7.4-5.6-7.4-6.3C354.4,484.4,354.6,481.6,354.6,479L354.6,479z"/>
<path class="st37" d="M333.7,519.1c0.5,0.3,0.8,0.9,0.9,1.5c0,0.5-0.4,0.8-0.8,0.5c-0.5-0.3-0.8-0.9-0.9-1.5
	C332.9,519,333.3,518.8,333.7,519.1L333.7,519.1z"/>
<path class="st48" d="M335,522.1c0.3-0.3,0.5-0.7,0.5-1.1v-3l-2.1-1.2v-1.6l3.5,2v2.9c0,0.4-0.1,0.8-0.5,1.1L335,522.1L335,522.1z"
	/>
<path class="st38" d="M333.7,519.1c0.5,0.3,0.8,0.9,0.9,1.5c0,0.5-0.4,0.8-0.8,0.5c-0.5-0.3-0.8-0.9-0.9-1.5
	C332.9,519,333.3,518.8,333.7,519.1L333.7,519.1z M335.5,518.1l-3.5-2v2.9c0.1,1.2,0.7,2.3,1.7,3l0,0c0.9,0.5,1.7,0.1,1.7-1
	L335.5,518.1L335.5,518.1z"/>
<polygon class="st49" points="335,522.1 335,522.1 335,522.1 "/>
<path class="st50" d="M339.7,492.2l0.1,20.9c0,2.8-2.3,5.2-5.1,5.2c0,0,0,0,0,0h-0.1c-2.8,0-5.2-2.3-5.2-5.1c0,0,0,0,0,0l-0.1-20.9
	L339.7,492.2L339.7,492.2z"/>
<path class="st48" d="M330.8,494.4c2.3,1.2,5.1,1.2,7.4,0c2-1.2,2-3.1,0-4.2c-2.3-1.2-5.1-1.2-7.4,0
	C328.8,491.3,328.8,493.2,330.8,494.4z"/>
<path class="st50" d="M339.6,488.5v2.7c-0.1,0.9-0.7,1.8-1.5,2.1c-2.3,1.2-5,1.2-7.4,0c-0.9-0.4-1.5-1.2-1.5-2.1v-2.7L339.6,488.5
	L339.6,488.5z"/>
<path class="st48" d="M330.8,490.6c2.3,1.2,5,1.2,7.4,0c2-1.2,2-3.1,0-4.2c-2.3-1.2-5-1.2-7.4,0
	C328.8,487.6,328.8,489.5,330.8,490.6L330.8,490.6z"/>
<polygon class="st15" points="335.8,449.5 334.5,445.3 333.3,444.6 334.2,444 335.4,444.7 336.7,448.9 335.5,451.6 335.7,488.5 
	334.7,489 334.6,452.2 335.8,449.5 "/>
<polygon class="st14" points="335.8,449.5 334.6,452.2 334.7,489 333.4,488.3 333.2,451.4 332,447.3 333.3,444.6 334.5,445.3 
	335.8,449.5 "/>
<path class="st17" d="M333.6,513v0.5c0,0.5,0.4,0.9,0.9,0.9l0,0c0.5,0,0.9-0.4,0.9-0.9V513c0,0.5-0.4,0.9-0.9,0.9l0,0
	C334.1,513.9,333.6,513.5,333.6,513C333.6,513,333.6,513,333.6,513z"/>
<path class="st18" d="M333.6,499.1l0.1,13.9c0,0.5,0.4,0.9,0.9,0.9c0,0,0,0,0,0l0,0c0.5,0,0.9-0.4,0.9-0.9l-0.1-13.9
	c0-0.5-0.4-0.9-0.9-0.9l0,0C334,498.2,333.6,498.6,333.6,499.1L333.6,499.1z"/>
<path class="st17" d="M329.9,496.9l0.1,14.4c0,0.6,0.3,1.1,0.8,1.4l0,0c0.2,0.1,0.4,0.1,0.6,0l-0.1,0l0,0c-0.5-0.3-0.8-0.8-0.8-1.4
	l0-14.4c0-0.2,0.1-0.4,0.2-0.5C330.2,496.2,329.9,496.4,329.9,496.9L329.9,496.9z"/>
<path class="st18" d="M330.4,496.9l0,14.4c0,0.6,0.3,1.1,0.8,1.4l0,0l0.1,0c0.2-0.1,0.3-0.3,0.2-0.5l-0.1-14.4
	c0-0.6-0.3-1.1-0.8-1.4l0,0l-0.1,0C330.4,496.5,330.4,496.7,330.4,496.9L330.4,496.9z"/>
<path class="st17" d="M337.7,512.7c0.2,0.1,0.4,0.1,0.6-0.1l0,0c0.5-0.3,0.8-0.8,0.8-1.4l-0.1-14.4c0-0.5-0.3-0.7-0.7-0.5
	c0.2,0.1,0.2,0.3,0.2,0.5l0.1,14.4c0,0.6-0.3,1.1-0.8,1.4l0,0L337.7,512.7L337.7,512.7z"/>
<path class="st18" d="M337.4,497.8l0,14.3c0,0.2,0.1,0.4,0.2,0.5l0.1-0.1l0,0c0.5-0.3,0.8-0.8,0.8-1.4l-0.1-14.4
	c0-0.2-0.1-0.4-0.2-0.5h-0.1l0,0C337.7,496.7,337.4,497.2,337.4,497.8L337.4,497.8z"/>
<path class="st7" d="M362.9,456.1c-7.1,2.8-7.8,8.6-7.8,8.6l1.7,1.2c0.5-4.1,3.5-7.4,7.5-8.4C364.3,457,363.4,456.2,362.9,456.1z"/>
<path class="st7" d="M364.3,484.6c-2.2-5.8,0.3-14.9,0.3-14.9s-6.7-2.8-9.9-6.1c-0.8,5.1-0.8,10.2-0.2,15.3l1.3,2.2l3.9,3.4
	C359.8,484.6,364.9,486.6,364.3,484.6L364.3,484.6z"/>
<path class="st7" d="M369.1,460.4c-7.1,2.9-7.5,8.9-7.5,8.9l2.2,0.9c0,0,1-7,7.3-7.9C371.1,461.7,369.6,460.5,369.1,460.4
	L369.1,460.4z"/>
<path class="st30" d="M359.9,448.3c-2.2,1.6-1.9,5.4-1.9,5.4s0.4,5.3,0.8,5.8c0.5,0.4,1.1,0.7,1.7,0.8c0.9,0.1,4.1-1.9,4.6-2.5
	c0.3-0.5,0.4-1.1,0.4-1.7c0,0,1.5-0.1,1.8-2.2c0.1-0.8,0.1-1.6-0.1-2.3l-1.2-2.6l-2.5-1.6h-2.1C361.3,447.5,360.2,448.1,359.9,448.3
	L359.9,448.3z"/>
<path class="st35" d="M367.1,454.7c0,0,0.4-2.5-0.9-1.4c-0.4,0.4-0.2,0.7-0.5,1.2s-0.9,0.7-1.1,0.5c-0.3-1-0.4-2.1-0.2-3.2
	c0.2-0.7,1.8-1.4,0.9-2.4s-4,1.3-5.1,0.2c-0.8-0.8,0.9-5.3,5.8-2.6C370.3,450.3,367.1,454.7,367.1,454.7z"/>
<path class="st30" d="M377.1,475.9c-2.4,1.5-4.1,4.5-6.9,7.6c-0.6,1.3,0.8,2.7,1.9,2.3c2.6-1.9,10.2-6.7,10.3-8.9
	c-0.1-1.6-1.6-4.3-3.3-6.6c-1.4-0.3-3.6,2.1-3.9,3.4C375.1,474,377.2,475.9,377.1,475.9z"/>
<path class="st45" d="M364.3,488.1c-0.4,0.6,0.9,2.3,2,2.2c1.1-0.2,2.1-0.7,3-1.3c1.8-1.3,1-1.6,2.8-3.2c0-1.1-0.8-2-1.9-2.3
	c-1.3,0.3-2.5,0.8-3.7,1.4C365.5,485.7,364.7,486.8,364.3,488.1L364.3,488.1z"/>
<path class="st27" d="M370.1,463.2c4.7-2.6,10.5,8.5,11.1,9c0.8,1.5-3.5,4.5-4.9,3.2c-2.3-2.6-3.1-3.1-5.4-5.7
	C368.2,466.8,369.2,463.6,370.1,463.2L370.1,463.2z"/>
<path class="st45" d="M334.6,462.2c0,0.9,0.3,1.6,0.7,1.6s0.7-0.7,0.7-1.6s-0.3-1.6-0.7-1.6S334.6,461.3,334.6,462.2z"/>
<path class="st45" d="M334.1,462.5c0.3,0.5,0.5,3,0,3.5s-1.1,0.1-1.4-0.2s-1-3.1-0.6-3.9c0.3-0.4,0.7-0.6,1.2-0.7v0.8
	C333.6,462.1,333.9,462.3,334.1,462.5L334.1,462.5z"/>
<path class="st32" d="M187.5,482.9c4,0,6.8-0.9,7.4-2.8c0.4-1.4-0.4-3.1-2.2-4.8l-11.9,6.9C182.9,482.7,185.2,482.9,187.5,482.9
	 M179.3,481.9l12.6-7.3l-0.1-0.1l-9.8-5.7c-1.4-0.6-2.8-1.1-4.3-1.6c-0.9-0.3-1.7-0.5-2.6-0.8l-13.9,8c3.8,2.5,7.9,4.4,12.2,5.8
	C175.4,481,177.4,481.5,179.3,481.9 M160.4,473.9l13.5-7.8c-3.4-0.9-6.8-1.4-10.3-1.5c-4,0-6.8,0.9-7.4,2.8S157.2,471.6,160.4,473.9
	"/>
<g>
	<defs>
		<path id="SVGID_25_" d="M180.7,482.2l11.9-6.9c-0.2-0.2-0.5-0.4-0.7-0.6l-12.6,7.3L180.7,482.2 M191.8,474.7
			c-3-2.4-6.3-4.3-9.9-5.7L191.8,474.7 M161.1,474.6l13.9-8l-1.3-0.3l-13.5,7.7L161.1,474.6"/>
	</defs>
	<clipPath id="SVGID_26_">
		<use xlink:href="#SVGID_25_"  style="overflow:visible;"/>
	</clipPath>
	<g class="st51">
		<g>
			<defs>
				<rect id="SVGID_27_" x="160.3" y="466.2" width="32.3" height="16"/>
			</defs>
			<clipPath id="SVGID_28_">
				<use xlink:href="#SVGID_27_"  style="overflow:visible;"/>
			</clipPath>
			<g class="st52">
				
					<image style="overflow:visible;enable-background:new    ;" width="52" height="27" xlink:href="87D8498F.png"  transform="matrix(-0.71 0 0 -0.71 194.05 484.11)">
				</image>
			</g>
		</g>
	</g>
</g>
<path class="st53" d="M188,473.6c1.9,1.4,3.9,2.7,6,3.9c0.9,0.4,0.1,2.8,0,2.9c-1.3,0.4-2.6,0.3-3.8-0.2c-1.1-0.4-2.2-1-3.1-1.7
	c-1.5-0.3-2.9-0.9-4.2-1.7c-0.4-1,0.1-3.4,0.1-3.4L188,473.6L188,473.6z"/>
<path class="st39" d="M182.4,431.6c3.6,12.1,4.2,31.3,7.2,41.5c0.4,1.5-5.5,2.7-7.3,0.6c-1.4-10.9-8.5-35.7-8.5-35.7L182.4,431.6
	L182.4,431.6z"/>
<path class="st53" d="M158.9,464.7c0,0-1.3,2.5-0.6,3.6c0.5,0.8,2.6,5.4,3.5,6.6c1.1,1.6,4.2,0.8,4.8,0.5c0.9-0.6,1.1-1.9,0.5-2.8
	c-0.1-0.1-0.1-0.1-0.2-0.2c-1.6-1.6-2.7-3.6-3.4-5.8L158.9,464.7L158.9,464.7z"/>
<path class="st41" d="M165.6,432.5c-1.9,7.2,0.3,19.2-0.3,22.6c-2.9,2.5-4.6,7-6.2,8.7c-1.8,1.9,3.6,7,5.6,3.9
	c3.2-5.1,6.5-7.4,7-9.3c1.6-5.7,3-18,3-18s4.9-1.8,7.5-8.3C182.2,430.5,165.8,431.9,165.6,432.5L165.6,432.5z"/>
<path class="st26" d="M166,401.1c-0.5,1.4,0.8,5.7-2.1,8.8c-4.7-8.3,1.2-11,1.2-11S166.4,400.7,166,401.1L166,401.1z"/>
<path d="M165,400.2c0.3,0.8,0.9,1.2,1.3,1s0.5-0.9,0.2-1.7s-0.9-1.2-1.3-1S164.7,399.5,165,400.2L165,400.2z"/>
<path class="st30" d="M184,411.9c0,0,1.2,1.7,2,2.6c2,0.2,6.5,3.2,10.3,3.9c0.4,0,0.5-0.9,1.5-0.9c0.6,0,1.2,0.4,1.4,0.9
	c0,0,2.1,0.5,2.1,1.3s-2.1,3.5-3.4,3.4c-1-0.1-2-0.6-2.6-1.4c-3.9-0.9-9.9-1.1-12.4-3.3c-1.2-1-3.9-3.5-3.9-3.5L184,411.9L184,411.9
	z"/>
<path class="st12" d="M174.7,403c-3.6,1.8-0.5,5.5,0.5,7.2c0.5,0.8,2.5,3.5,3.4,4.8c1.2,1.7,6.8-2.3,6-3.5c-0.6-0.9-1.8-2.7-2.6-3.7
	C180.8,406.3,178.5,401.2,174.7,403L174.7,403z"/>
<path class="st54" d="M166.7,401.3c0.1,0.8,0,1.6-0.3,2.4l-0.5,2l3.4,3.2h4.6l1.4-2l-2.2-4l-5.4-1.7
	C167.8,401.3,167,400.9,166.7,401.3L166.7,401.3z"/>
<path class="st6" d="M161.2,409c1.8-1.7,3.6-3.4,5.2-5.3c0.3,2.7,4.4,5.4,7,3.7c2-1.2,0.2-3.5-0.8-4.1c0.7-0.5,1.6-0.9,2.5-1
	c2.4,2.4,4.1,5.5,4.6,8.9c0.6,5.2,1.3,11.3,3.1,20.1c0.3,1.4-5.9,5.1-11.4,5.7s-6.7-1.4-6.7-3.1c-0.1-6.3-0.9-12.6-2.5-18.7
	L161.2,409z"/>
<path class="st30" d="M164.4,421.1c-0.2,2.4-0.7,4.8-1.4,7.1c1.8,0.7,4,5.2,4.8,5.9l-1,2.7c-3.4-2.1-7.3-3.8-8.2-7.5
	c-0.5-1.9,0.3-8.8,0.3-8.8h2.1C161,420.4,163.9,420.2,164.4,421.1z"/>
<path class="st18" d="M175.1,419.8c1.2-0.8,2.1-1.8,2.1-2.3l-4.2,2.8C172.9,420.8,173.9,420.6,175.1,419.8z M176,414.4
	c-0.4,0.3-0.6,0.7-0.6,1.2c0,0.4,0.3,0.6,0.7,0.4c0.4-0.3,0.6-0.7,0.6-1.2C176.6,414.3,176.3,414.2,176,414.4z M173.6,415
	c-0.4,0.4-0.6,1-0.5,1.6c0,0.7,0.3,1,0.6,0.8c0.4-0.4,0.6-1,0.5-1.6C174.3,415.1,173.9,414.8,173.6,415L173.6,415z M173.2,414.1l3-2
	c0.9-0.6,1.6-0.2,1.6,0.8l0.3,4.5c0,1.1-0.5,2.2-1.4,2.9l-3,2c-0.9,0.6-1.6,0.2-1.7-0.8l-0.2-4.5
	C171.8,415.9,172.3,414.8,173.2,414.1L173.2,414.1z"/>
<path class="st30" d="M175,394.6c0.9,1.2,1.4,2.6,1.5,4.1c-0.1,0.4-0.2,0.8-0.4,1.1c0.1,0.4,0.2,0.9,0.2,1.3
	c-0.1,0.7-0.5,4.4-0.9,4.9c-0.6,0.5-1.3,0.8-2.1,0.7c-2.5-0.5-4.1-2.5-4.7-3.2c-0.2-0.4-0.3-0.8-0.4-1.2c-0.8-0.1-1.5-0.6-1.7-1.4
	c-0.8-1.9-0.2-2.2-0.2-2.2l2.5-2.9l3.8-1.7L175,394.6L175,394.6z"/>
<path class="st26" d="M166.8,399.1c0.7,0.1,1.3,0.5,1.8,1.1c0,0,1,0.1,1.5-1.3c0.3-0.8,0.5-1.8,0.8-2c0.6-0.3,1.5,0.4,3.4-0.6
	c2.5-1.3-0.1-4.8-4.6-4.3c-4.7,0.5-4.3,5-4.3,6.1c0.1,1.1,0.5,2.1,1.2,2.9C166.5,400.9,166,399,166.8,399.1L166.8,399.1z"/>
<path class="st12" d="M162.9,409.1c-3.9-1-4,3.8-4.4,5.8c-0.2,0.9-0.4,4.3-0.6,5.8c-0.2,2,6.6,2.7,6.8,1.2c0.2-1.1,0.4-3.2,0.5-4.5
	C165.3,415.6,166.9,410.1,162.9,409.1L162.9,409.1z"/>
<polygon class="st37" points="178.4,422.9 178.4,421.1 171.8,425.6 178.4,422.9 "/>
<path class="st30" d="M167.8,434l-1.1,0.4l-0.4,1l0.5,1.3c1.7,0.5,3.6,0.7,5.4,0.4c0.8-0.2,1.4-0.7,1.9-1.3c0.1-0.1,1.6-2.8,0.9-2.8
	s-2.6,1.3-2.6,1.3c-0.5-0.1-1-0.1-1.5,0c-0.2-0.3-0.5-0.5-0.8-0.5L167.8,434L167.8,434z"/>
<polygon class="st55" points="191,445.9 220.8,428.7 220.8,427.5 161.2,427.5 161.2,428.7 191,445.9 "/>
<polygon class="st27" points="191,444.6 220.8,427.5 191,410.2 161.2,427.5 191,444.6 "/>
<path class="st9" d="M211.4,427.5L191,439.2l-20.4-11.8l20.4-11.8L211.4,427.5L211.4,427.5z M191,440.1l21.9-12.6L191,414.8
	l-21.9,12.6L191,440.1z"/>
<polygon class="st6" points="191,436.8 207.2,427.5 207.2,425.8 174.9,425.8 174.9,427.5 191,436.8 "/>
<polygon class="st14" points="191,435.1 207.2,425.8 191,416.5 174.9,425.8 191,435.1 "/>
<polygon class="st15" points="184.5,427.4 193.7,422 191.2,420.6 182,425.9 184.5,427.4 "/>
<polygon class="st15" points="188.9,431.6 201.2,424.5 197.8,422.6 185.5,429.7 188.9,431.6 "/>
<polygon class="st15" points="173,433 174.7,432 174.7,431.4 172,431.9 172,432.5 173,433 "/>
<polygon class="st14" points="173,432.4 174.7,431.4 173.8,430.9 172,431.9 173,432.4 "/>
<polygon class="st15" points="177.6,435.7 179.4,434.7 179.4,434.1 176.7,434.6 176.7,435.2 177.6,435.7 "/>
<polygon class="st14" points="177.6,435.1 179.4,434.1 178.5,433.6 176.7,434.6 177.6,435.1 "/>
<polygon class="st15" points="182.3,438.4 184.1,437.4 184.1,436.8 181.4,437.3 181.4,437.9 182.3,438.4 "/>
<polygon class="st14" points="182.3,437.8 184.1,436.8 183.1,436.3 181.4,437.3 182.3,437.8 "/>
<path class="st30" d="M170.2,433.8c0,0,2.2-1.7,1.7-2.1s-3.5,0.8-4.1,2.4l1.2,0.5L170.2,433.8L170.2,433.8z"/>
<polygon class="st15" points="204.9,421.9 206.7,420.9 206.7,420.2 204,420.7 204,421.3 204.9,421.9 "/>
<polygon class="st14" points="204.9,421.3 206.7,420.2 205.8,419.7 204,420.7 204.9,421.3 "/>
<polygon class="st15" points="209.6,424.6 211.4,423.5 211.4,423 208.7,423.4 208.7,424 209.6,424.6 "/>
<polygon class="st14" points="209.6,424 211.4,423 210.4,422.4 208.7,423.4 209.6,424 "/>
<polygon class="st15" points="200.3,419.2 202,418.2 202,417.6 199.3,418 199.3,418.6 200.3,419.2 "/>
<polygon class="st14" points="200.3,418.6 202,417.6 201.1,417 199.3,418 200.3,418.6 "/>
<polygon class="st15" points="195.6,416.5 197.4,415.5 197.4,414.9 194.7,415.4 194.7,415.9 195.6,416.5 "/>
<polygon class="st14" points="195.6,415.9 197.4,414.9 196.4,414.3 194.7,415.4 195.6,415.9 "/>
<path class="st56" d="M239.5,557.9c-6.6,0-13.1-0.6-19.5-2l14.9-8.6l17,9.8C247.8,557.7,243.6,558,239.5,557.9 M254.1,556.8
	l-17.9-10.3l22.3-12.9l22.3,12.9l-10.2,5.9C265.3,554.5,259.7,556,254.1,556.8 M218.1,555.5c-6.2-1.4-12.1-3.7-17.6-6.9
	c-2.4-1.4-4.7-3-6.8-4.8l17.6-10.2l22.3,12.9L218.1,555.5 M282.2,545.8l-22.3-12.9l22.3-12.8l12.5,7.2c-0.4,5.9-3.5,11.7-9.5,16.8
	L282.2,545.8 M234.9,545.7l-22.3-12.9l22.3-12.9l22.3,12.9L234.9,545.7 M192.6,542.9c-6.9-6.4-9.6-14-7.8-21.2l2.9-1.7l22.3,12.8
	L192.6,542.9 M258.6,532l-22.3-12.9l22.3-12.9l22.3,12.9L258.6,532 M211.4,532L189,519.2l22.3-12.9l22.3,12.9L211.4,532
	 M294.8,525.7l-11.2-6.5l7.7-4.4C293.4,518,294.6,521.8,294.8,525.7 M185.3,519.8c0.1-0.3,0.2-0.6,0.4-1l0.6,0.4L185.3,519.8
	 M282.2,518.4l-22.3-12.9l10.4-6c2.9,1.1,5.6,2.4,8.3,3.9c4.6,2.5,8.7,6,11.9,10.2L282.2,518.4 M234.9,518.4l-22.3-12.9l19.3-11.1
	c1.8-0.1,3.7-0.2,5.6-0.3l19.8,11.4L234.9,518.4 M187.7,518.4l-1.4-0.8c2.4-5.2,7.2-10.1,14.2-14.1c1-0.6,2-1.1,3-1.6l6.4,3.7
	L187.7,518.4 M258.5,504.8l-18.4-10.7c9.7,0,19.4,1.6,28.6,4.8L258.5,504.8 M211.3,504.8l-6.3-3.6c7.5-3.4,15.5-5.5,23.7-6.4
	L211.3,504.8"/>
<g>
	<defs>
		<path id="SVGID_29_" d="M252,557.1l-17-9.8l-15,8.6l-1.9-0.4l15.5-9l-22.3-12.9l-17.6,10.2l-1-0.9l17.4-10L187.7,520l-2.9,1.7
			c0.1-0.6,0.3-1.2,0.5-1.8l1-0.6l-0.6-0.4c0.2-0.4,0.3-0.8,0.5-1.2l1.4,0.8l22.3-12.9l-6.4-3.7c0.5-0.2,1-0.5,1.5-0.7l6.3,3.6
			l17.4-10c1.1-0.1,2.1-0.2,3.2-0.3l-19.3,11.1l22.3,12.9l22.3-12.9l-19.8-11.4c0.7,0,1.4,0,2.1,0h0.6l18.5,10.7l10.1-5.9
			c0.5,0.2,1.1,0.4,1.6,0.6l-10.4,6l22.3,12.9l8.3-4.8c0.3,0.4,0.5,0.7,0.8,1.1l-7.7,4.4l11.2,6.5c0,0.5,0,1,0,1.5l-12.6-7.3
			l-22.3,12.8l22.3,12.9l3-1.7c-2.1,1.7-4.3,3.3-6.6,4.6c-2.5,1.5-5.2,2.7-7.9,3.8l10.2-5.9l-22.3-12.9l-22.3,12.9l17.9,10.3
			L252,557.1 M235,520l-22.3,12.9l22.3,12.9l22.3-12.9L235,520 M258.6,506.4l-22.3,12.9l22.3,12.9l22.3-12.9L258.6,506.4
			 M211.3,506.4L189,519.2l22.3,12.9l22.3-12.9L211.3,506.4"/>
	</defs>
	<clipPath id="SVGID_30_">
		<use xlink:href="#SVGID_29_"  style="overflow:visible;"/>
	</clipPath>
	<g class="st57">
		<g>
			<defs>
				<rect id="SVGID_31_" x="184.8" y="494.1" width="110" height="63"/>
			</defs>
			<clipPath id="SVGID_32_">
				<use xlink:href="#SVGID_31_"  style="overflow:visible;"/>
			</clipPath>
			<g class="st58">
				
					<image style="overflow:visible;enable-background:new    ;" width="117" height="67" xlink:href="87D84980.png"  transform="matrix(1.0048 0 0 -1.0048 182.2006 559.43)">
				</image>
			</g>
		</g>
	</g>
</g>
<path class="st17" d="M254.7,507.4c-7-6.4-22.9-6.5-30-0.2c-3.6,3.2-3.6,7.5,0,10.7c0.6,0.6,1.3,1.1,2.1,1.6
	c7-4.3,18.8-4.2,25.7,0.2c0.8-0.4,1.5-1,2.1-1.5C258.3,514.9,258.3,510.6,254.7,507.4L254.7,507.4z"/>
<path class="st26" d="M254.7,518.1c-0.7,0.6-1.4,1.1-2.1,1.5c-7,4.3-18.8,4.2-25.7-0.2c-0.7-0.5-1.4-1-2.1-1.6
	c-3.5-3.2-3.5-7.5,0-10.7c7.1-6.4,22.9-6.3,30,0.2C258.3,510.6,258.2,514.9,254.7,518.1L254.7,518.1z M220.9,495.1l-11.7-6.8
	l-11.3,6.5l11.7,6.8c-0.2,0.2-0.4,0.4-0.6,0.6c-1.7,1.6-3,3.5-3.9,5.7H199l-10.6-0.1v9.2l16.6,0.1c0.3,0.8,0.7,1.6,1.2,2.3
	c0.9,1.5,2,2.8,3.3,4l-11.8,6.7l1.2,0.7l9.8,5.7l0.2,0.1l11.8-6.7c1.1,0.4,2.2,0.7,3.3,1.1c2.5,0.7,5.1,1.3,7.7,1.6v2.8v6.8l16,0.1
	v-6.8v-2.8c2.6-0.3,5.2-0.8,7.7-1.5c1.1-0.3,2.2-0.7,3.2-1l11.7,6.8l0.2-0.1l9.9-5.6l1.3-0.7l-11.7-6.8c1.3-1.2,2.4-2.5,3.4-4
	c0.5-0.7,0.9-1.5,1.2-2.3l16.6,0.1v-9.2l-10.7-0.1h-5.9c-0.9-2.1-2.2-4.1-3.9-5.7c-0.2-0.2-0.4-0.4-0.6-0.6l11.8-6.7l-11.2-6.6
	l-11.8,6.7c-3.6-1.3-7.2-2.2-11-2.7l0.1-9.6l-16-0.1v9.6C228.1,493.1,224.4,493.9,220.9,495.1L220.9,495.1z"/>
<polygon class="st18" points="197.7,530.1 208.9,536.7 208.8,550.5 197.6,544 197.7,530.1 "/>
<polygon class="st17" points="220.7,530 220.6,543.8 208.8,550.5 208.9,536.7 220.7,530 "/>
<polygon class="st18" points="247.5,542.3 247.5,556.2 231.5,556.1 231.6,542.3 247.5,542.3 "/>
<path class="st18" d="M231.6,532.7l-0.1,13.8c-3.7-0.5-7.4-1.4-10.9-2.7l0.1-13.8C224,531.4,231.6,532.7,231.6,532.7L231.6,532.7z"
	/>
<polygon class="st17" points="204.9,517.1 204.9,526 197.7,530.1 197.7,530.9 188.3,530.8 188.3,517 204.9,517.1 "/>
<path class="st18" d="M204.9,517.1c1,2.4,2.5,4.6,4.5,6.3l-4.6,2.6L204.9,517.1L204.9,517.1z"/>
<polygon class="st18" points="270.2,537 270.2,550.9 258.5,544 258.5,530.2 270.2,537 "/>
<polygon class="st17" points="281.6,530.6 281.5,544.4 270.2,550.9 270.2,537 281.6,530.6 "/>
<path class="st17" d="M258.5,530.2c0.1-0.9-0.1,13.8-0.1,13.8c-3.6,1.3-7.2,2.1-11,2.5c0-0.8,0.1-13.8,0.1-13.8
	C251.3,532.3,254.9,531.4,258.5,530.2L258.5,530.2z"/>
<polygon class="st18" points="291,517.5 291,531.4 281.6,531.3 281.6,530.6 274.4,526.4 274.5,517.5 291,517.5 "/>
<path class="st17" d="M274.5,517.5l-0.1,8.9l-4.5-2.6C271.8,522,273.3,519.8,274.5,517.5z"/>
<path class="st17" d="M281.8,495.2l-0.1,13.1l-7.2-0.1c-1-2.4-2.6-4.6-4.5-6.3L281.8,495.2L281.8,495.2z"/>
<path class="st17" d="M209.5,501.6c-1.9,1.8-3.5,3.9-4.6,6.3h-7.2l0.1-13.1L209.5,501.6L209.5,501.6z"/>
<path class="st56" d="M292.2,608.1c-2.8,0-5.6-0.3-8.3-0.9l6.3-3.7l7.2,4.2C295.8,608,294,608.1,292.2,608.1 M298.4,607.7l-7.6-4.4
	l9.5-5.5l9.5,5.5l-4.3,2.5C303.2,606.7,300.9,607.3,298.4,607.7 M283.2,607.1c-2.6-0.6-5.1-1.6-7.5-2.9c-1-0.6-2-1.2-2.9-2l7.5-4.3
	l9.5,5.5L283.2,607.1 M310.4,603l-9.5-5.5l9.5-5.5l5.3,3.1c-0.3,2.8-1.7,5.4-4,7.1L310.4,603 M290.4,603l-9.5-5.5l9.5-5.5l9.5,5.5
	L290.4,603 M272.3,601.8c-2.9-2.7-4-5.9-3.3-9l1.2-0.7l9.5,5.5L272.3,601.8 M300.3,597.2l-9.5-5.5l9.5-5.5l9.5,5.5L300.3,597.2
	 M280.3,597.2l-9.5-5.5l9.5-5.5l9.5,5.5L280.3,597.2 M315.7,594.5l-4.8-2.8l3.3-1.9C315.1,591.3,315.6,592.9,315.7,594.5 M269.3,592
	c0-0.1,0.1-0.3,0.1-0.4l0.3,0.2L269.3,592 M310.3,591.4l-9.5-5.5l4.4-2.5c1.2,0.5,2.4,1,3.5,1.7c1.9,1.1,3.7,2.5,5,4.3L310.3,591.4
	 M290.3,591.4l-9.5-5.5l8.2-4.7c0.8-0.1,1.6-0.1,2.4-0.1l8.4,4.8L290.3,591.4 M270.3,591.4l-0.6-0.3c1.3-2.6,3.4-4.7,6-6
	c0.4-0.2,0.9-0.5,1.3-0.7l2.7,1.6L270.3,591.4 M300.3,585.6l-7.8-4.5c4.1,0,8.2,0.7,12.1,2L300.3,585.6 M280.3,585.6l-2.7-1.5
	c3.2-1.4,6.6-2.3,10.1-2.7L280.3,585.6"/>
<g>
	<defs>
		<path id="SVGID_33_" d="M297.5,607.8l-7.2-4.2l-6.3,3.7l-0.8-0.2l6.6-3.8l-9.5-5.5l-7.5,4.3l-0.5-0.4l7.4-4.2l-9.5-5.5l-1.2,0.7
			c0.1-0.3,0.1-0.5,0.2-0.8l0.4-0.2l-0.3-0.2c0.1-0.2,0.1-0.4,0.2-0.5l0.6,0.3l9.5-5.5l-2.7-1.6l0.6-0.3l2.7,1.5l7.4-4.3l1.4-0.1
			l-8.2,4.7l9.5,5.5l9.5-5.5l-8.4-4.8h1.1l7.8,4.5l4.3-2.5l0.7,0.3l-4.4,2.5l9.5,5.5l3.5-2c0.1,0.2,0.2,0.3,0.3,0.5l-3.3,1.9
			l4.8,2.8c0,0.2,0,0.4,0,0.6l-5.3-3.1l-9.5,5.5l9.5,5.5l1.3-0.7c-0.9,0.7-1.8,1.4-2.8,2c-1.1,0.6-2.2,1.2-3.4,1.6l4.3-2.5l-9.5-5.5
			l-9.5,5.5l7.6,4.4L297.5,607.8 M290.3,592.1l-9.5,5.5l9.5,5.5l9.5-5.5L290.3,592.1 M300.3,586.3l-9.5,5.5l9.5,5.5l9.5-5.5
			L300.3,586.3 M280.3,586.3l-9.5,5.5l9.5,5.5l9.5-5.5L280.3,586.3"/>
	</defs>
	<clipPath id="SVGID_34_">
		<use xlink:href="#SVGID_33_"  style="overflow:visible;"/>
	</clipPath>
	<g class="st59">
		<g>
			<defs>
				<rect id="SVGID_35_" x="269" y="581.1" width="46.6" height="26.7"/>
			</defs>
			<clipPath id="SVGID_36_">
				<use xlink:href="#SVGID_35_"  style="overflow:visible;"/>
			</clipPath>
			<g class="st60">
				
					<image style="overflow:visible;enable-background:new    ;" width="116" height="66" xlink:href="87D84981.png"  transform="matrix(0.43 0 0 -0.43 267.79 608.79)">
				</image>
			</g>
		</g>
	</g>
</g>
<path class="st17" d="M298.7,586.7c-3-2.7-9.7-2.8-12.7-0.1c-1.3,0.9-1.5,2.7-0.6,4c0.2,0.2,0.4,0.4,0.6,0.6
	c0.3,0.2,0.6,0.5,0.9,0.7c3.4-1.8,7.5-1.8,10.9,0.1c0.3-0.2,0.6-0.4,0.9-0.7c1.3-0.9,1.5-2.7,0.6-4
	C299.1,587.1,298.9,586.9,298.7,586.7L298.7,586.7z"/>
<path class="st26" d="M298.7,591.3c-0.3,0.2-0.6,0.5-0.9,0.7c-3.4,1.8-7.5,1.8-10.9-0.1c-0.3-0.2-0.6-0.4-0.9-0.7
	c-1.3-0.9-1.5-2.7-0.6-4c0.2-0.2,0.4-0.4,0.6-0.6c3-2.7,9.7-2.7,12.7,0.1c1.3,0.9,1.5,2.7,0.6,4
	C299.1,590.9,298.9,591.1,298.7,591.3L298.7,591.3z M284.4,581.5l-5-2.9l-4.8,2.7l5,2.9c-0.1,0.1-0.2,0.2-0.3,0.3
	c-0.7,0.7-1.3,1.5-1.7,2.4h-2.5h-4.5v3.9h7c0.1,0.3,0.3,0.7,0.5,1c0.4,0.6,0.9,1.2,1.4,1.7l-5,2.8l0.5,0.3l4.1,2.4h0.1l5-2.8
	c0.5,0.2,0.9,0.3,1.4,0.5c1.1,0.3,2.2,0.5,3.2,0.7v4.1h6.8v-2.9v-1.2c1.1-0.1,2.2-0.4,3.3-0.7c0.5-0.1,0.9-0.3,1.4-0.4l5,2.9h0.1
	l4.2-2.4l0.5-0.3l-5-2.9c0.5-0.5,1-1.1,1.4-1.7c0.2-0.3,0.4-0.7,0.5-1h7V587h-4.5H307c-0.4-0.9-0.9-1.7-1.6-2.4
	c-0.1-0.1-0.2-0.2-0.3-0.3l5-2.8l-4.8-2.8l-5,2.8c-1.5-0.6-3.1-0.9-4.6-1.1v-4.1h-6.8v4.1C287.3,580.6,285.8,581,284.4,581.5
	L284.4,581.5z"/>
<polygon class="st18" points="274.5,596.4 279.3,599.2 279.2,605 274.5,602.2 274.5,596.4 "/>
<polygon class="st17" points="284.3,596.3 284.2,602.2 279.2,605 279.3,599.2 284.3,596.3 "/>
<polygon class="st18" points="295.6,601.5 295.6,607.4 288.9,607.4 288.9,601.5 295.6,601.5 "/>
<path class="st18" d="M288.9,597.4v5.9c-1.6-0.2-3.1-0.6-4.6-1.1v-5.9C285.8,596.8,287.3,597.2,288.9,597.4L288.9,597.4z"/>
<polygon class="st17" points="277.6,590.8 277.6,594.6 274.5,596.4 274.5,596.7 270.5,596.7 270.5,590.8 277.6,590.8 "/>
<path class="st18" d="M277.6,590.8c0.4,1,1.1,1.9,1.9,2.7l-1.9,1.1L277.6,590.8L277.6,590.8z"/>
<polygon class="st18" points="305.3,599.3 305.2,605.2 300.3,602.3 300.3,596.4 305.3,599.3 "/>
<polygon class="st17" points="310.1,596.6 310.1,602.4 305.2,605.2 305.3,599.3 310.1,596.6 "/>
<path class="st17" d="M300.3,596.4c0-0.4,0,5.9,0,5.9c-1.5,0.5-3.1,0.9-4.6,1.1c0-0.3,0-5.9,0-5.9
	C297.2,597.3,298.8,596.9,300.3,596.4L300.3,596.4z"/>
<polygon class="st18" points="314.1,591 314.1,596.9 310.1,596.9 310.1,596.6 307,594.8 307.1,591 314.1,591 "/>
<path class="st17" d="M307.1,591v3.8l-1.9-1.1C306,592.9,306.6,592,307.1,591L307.1,591z"/>
<path class="st17" d="M310.2,581.5v5.6h-3.1c-0.4-1-1.1-1.9-1.9-2.7L310.2,581.5L310.2,581.5z"/>
<path class="st17" d="M279.5,584.2c-0.8,0.7-1.5,1.7-1.9,2.7h-3v-5.5L279.5,584.2L279.5,584.2z"/>
<path class="st61" d="M48.2,503.7c-1.4,0-2.8-0.4-4.1-1h-0.1c-1-0.5-1.7-1.6-1.7-2.7l8-4.6l7.3,4.2l-4.8,2.8
	C51.5,503.3,49.9,503.7,48.2,503.7 M42.4,499.2c0.2-0.9,0.8-1.7,1.6-2.2l4.6-2.6l1.1,0.6L42.4,499.2 M58.2,499.2l-7.3-4.2l10.5-6
	l7.1,4.1L58.2,499.2 M50.3,494.7l-1.1-0.6l10.6-6l1,0.6L50.3,494.7 M69.1,492.8l-7.1-4.1l11.7-6.8l6.6,3.8c-0.2,0.3-0.5,0.6-0.8,0.8
	L69.1,492.8 M61.4,488.3l-1-0.6l10-5.7c0.7-0.4,1.3-0.6,2.1-0.8l0.6,0.4L61.4,488.3 M80.7,485.2l-6.3-3.6l1.1-0.6
	c1.4,0.1,2.9,0.6,4.1,1.4h0.1C80.6,482.9,81,484.1,80.7,485.2 M73.7,481.1l-0.3-0.2l0.8-0.1L73.7,481.1"/>
<g>
	<defs>
		<path id="SVGID_37_" d="M42.3,500c0-0.3,0-0.5,0-0.8l7.3-4.2l-1.1-0.6l0.6-0.4l1.1,0.6l10.5-6.1l-1-0.6l0.6-0.4l1,0.6l11.7-6.7
			l-0.6-0.4c0.3-0.1,0.6-0.1,0.9-0.2l0.3,0.2l0.5-0.3h0.5c0.2,0,0.5,0,0.7,0l-1.1,0.6l6.3,3.6c-0.1,0.2-0.2,0.4-0.3,0.6l-6.6-3.8
			l-11.7,6.8l7.1,4.1l-0.6,0.4l-7.1-4l-10.5,6l7.3,4.2l-0.6,0.4l-7.3-4.2L42.3,500"/>
	</defs>
	<clipPath id="SVGID_38_">
		<use xlink:href="#SVGID_37_"  style="overflow:visible;"/>
	</clipPath>
	<g class="st62">
		<g>
			<defs>
				<rect id="SVGID_39_" x="42.3" y="480.9" width="38.3" height="19.2"/>
			</defs>
			<clipPath id="SVGID_40_">
				<use xlink:href="#SVGID_39_"  style="overflow:visible;"/>
			</clipPath>
			<g class="st63">
				
					<image style="overflow:visible;enable-background:new    ;" width="88" height="44" xlink:href="87D84986.png"  transform="matrix(0.48 0 0 -0.48 41.05 501.35)">
				</image>
			</g>
		</g>
	</g>
</g>
<path class="st15" d="M67.8,483.2c-0.5-0.5-0.8-1.2-0.8-1.9v2.4L67.8,483.2L67.8,483.2z"/>
<polygon class="st64" points="79.7,481.2 79.7,481.3 79.7,481.2 79.7,481.2 "/>
<path class="st15" d="M77.9,483.9c-2.4,1.2-5.1,1.4-7.7,0.6l-17.2,10c1,1.1,0.7,2.6-1,3.6c-2.4,1.2-5.2,1.2-7.5,0
	c-0.9-0.4-1.4-1.2-1.6-2.1l0,0v3.2l0,0c0.1,0.9,0.7,1.7,1.6,2.1c2.4,1.2,5.2,1.2,7.5,0c0.9-0.4,1.5-1.2,1.5-2.2v-1.7l16.7-9.6
	c2.5,0.8,5.3,0.6,7.7-0.6c1.1-0.5,1.8-1.5,1.9-2.7l0,0v-3.1C79.7,482.5,78.9,483.5,77.9,483.9L77.9,483.9z"/>
<polygon class="st22" points="51.1,494.2 47.2,493.6 47.2,496.8 50.6,497.3 51.1,497.1 51.1,494.2 "/>
<polygon class="st15" points="45.8,497.6 45.3,497.5 44.3,495.2 47.2,493.6 47.2,496.8 45.8,497.6 "/>
<polygon class="st15" points="51.1,497.1 51.1,494.2 52.1,496.5 51.1,497.1 "/>
<polygon class="st22" points="76.7,482.6 72.1,481.9 72.1,478.7 76.7,479.4 76.7,482.6 "/>
<polygon class="st15" points="72.1,481.9 69.9,483.1 68.8,480.6 72.1,478.7 72.1,481.9 "/>
<polygon class="st15" points="77.9,482 76.8,482.7 76.7,482.6 76.7,479.4 77.9,482 "/>
<path class="st14" d="M78,482l-3.4,2l-4.6-0.7l-1.2-2.6l3.4-1.9l4.6,0.7L78,482z M52.1,496.5l-2.9,1.7l-3.9-0.6l-1-2.3l2.9-1.7
	l3.9,0.6L52.1,496.5L52.1,496.5z M68.9,478.7c-2.1,1.2-2.4,3-1,4.4l-17.2,10c-2.1-0.6-4.3-0.4-6.2,0.6c-2.1,1.2-2.1,3.1,0,4.4
	c2.4,1.2,5.2,1.2,7.5,0c1.7-1,2-2.4,1-3.6l17.2-10c2.5,0.8,5.3,0.6,7.7-0.6c2.5-1.4,2.5-3.8,0-5.2C75.1,477.2,71.8,477.2,68.9,478.7
	L68.9,478.7z"/>
<path class="st61" d="M64.4,510.6c-1.4,0-2.8-0.4-4.1-1l-0.1,0c-1.6-0.8-2.2-2.7-1.4-4.3c0.3-0.6,0.7-1,1.3-1.3l2.5-1.5l9,5.2
	l-2.6,1.6C67.6,510.2,66,510.6,64.4,510.6 M72.3,507.4l-9-5.2l10.5-6.1l8.9,5.1L72.3,507.4 M83.3,500.8l-8.8-5.1L86,489l8.7,5
	l-11.5,6.9 M95.3,493.6l-8.7-5l10.5-6.1l8.5,4.9L95.3,493.6 M106.3,487.1l-8.5-4.9l0.8-0.5c2.9-1.6,6.3-1.5,9.1,0.3l0.1,0
	c1.1,0.7,1.5,2.2,0.8,3.4c-0.2,0.3-0.5,0.6-0.8,0.8L106.3,487.1"/>
<g>
	<defs>
		<path id="SVGID_41_" d="M71.6,507.7l-9-5.2l0.6-0.4l9,5.2L71.6,507.7 M82.7,501.2l-8.9-5.1l0.6-0.4l8.8,5.1L82.7,501.2 M94.7,494
			l-8.7-5l0.6-0.4l8.7,5L94.7,494 M105.7,487.5l-8.5-4.9l0.6-0.4l8.5,4.9L105.7,487.5"/>
	</defs>
	<clipPath id="SVGID_42_">
		<use xlink:href="#SVGID_41_"  style="overflow:visible;"/>
	</clipPath>
	<g class="st65">
		<g>
			<defs>
				<rect id="SVGID_43_" x="62.6" y="482.1" width="43.7" height="25.6"/>
			</defs>
			<clipPath id="SVGID_44_">
				<use xlink:href="#SVGID_43_"  style="overflow:visible;"/>
			</clipPath>
			<g class="st66">
				
					<image style="overflow:visible;enable-background:new    ;" width="96" height="57" xlink:href="A242A04E.png"  transform="matrix(0.48 0 0 -0.48 61.63 508.98)">
				</image>
			</g>
		</g>
	</g>
</g>
<path class="st15" d="M96,482.9c-0.5-0.5-0.8-1.2-0.8-1.9l0,0v2.4L96,482.9z"/>
<path class="st15" d="M106,483.7c-2.4,1.2-5.1,1.4-7.7,0.6l-29.2,17.1c1,1.1,0.7,2.6-1,3.6c-2.4,1.2-5.2,1.2-7.6,0
	c-0.8-0.4-1.4-1.2-1.5-2.1l0,0v3.2l0,0c0.1,0.9,0.7,1.7,1.6,2.1c2.4,1.2,5.2,1.2,7.6,0c0.9-0.4,1.5-1.2,1.5-2.2v-1.7l28.7-16.8
	c2.5,0.8,5.3,0.6,7.7-0.6c1.1-0.5,1.8-1.5,1.9-2.7l0,0v-3.1C107.8,482.2,107.1,483.2,106,483.7L106,483.7z"/>
<polygon class="st22" points="67.2,501.1 63.3,500.5 63.3,503.7 66.8,504.2 67.2,504 67.2,501.1 "/>
<polygon class="st15" points="61.9,504.5 61.5,504.4 60.4,502.1 63.3,500.5 63.3,503.7 61.9,504.5 "/>
<polygon class="st15" points="67.2,504 67.2,501.1 68.3,503.4 67.2,504 "/>
<polygon class="st22" points="104.9,482.3 100.3,481.6 100.3,478.4 104.9,479.1 104.9,482.3 "/>
<polygon class="st15" points="100.3,481.6 98.1,482.9 96.9,480.4 100.3,478.4 100.3,481.6 "/>
<polygon class="st15" points="106.1,481.8 104.9,482.5 104.9,482.3 104.9,479.1 106.1,481.8 "/>
<path class="st14" d="M106.1,481.8l-3.4,2l-4.6-0.8l-1.2-2.6l3.4-1.9l4.6,0.7L106.1,481.8L106.1,481.8z M68.3,503.4l-2.9,1.6
	l-3.9-0.6l-1-2.3l2.9-1.7l3.9,0.6L68.3,503.4L68.3,503.4z M97,478.5c-2.1,1.2-2.4,3-1,4.4L66.7,500c-2.1-0.6-4.3-0.4-6.2,0.6
	c-2.1,1.2-2.1,3.1,0,4.4c2.4,1.2,5.2,1.2,7.6,0c1.7-1,2-2.4,1-3.6l29.2-17.1c2.5,0.8,5.3,0.6,7.7-0.6c2.5-1.4,2.5-3.8,0-5.2
	C103.2,477,99.9,477,97,478.5L97,478.5z"/>
</svg>
