<?xml version="1.0" encoding="utf-8"?>
<!-- Generator: Adobe Illustrator 25.2.1, SVG Export Plug-In . SVG Version: 6.00 Build 0)  -->
<svg version="1.1" id="Layer_1" xmlns="http://www.w3.org/2000/svg" xmlns:xlink="http://www.w3.org/1999/xlink" x="0px" y="0px"
	 viewBox="0 0 300 300" style="enable-background:new 0 0 300 300;" xml:space="preserve">
<style type="text/css">
	.st0{fill:#024154;}
	.st1{fill:#054257;}
	.st2{fill:#FFFFFF;}
	.st3{fill:#FAFDFC;}
</style>
<path class="st0" d="M276.69,211.75c4.48,8.43,8.96,16.85,13.44,25.28c1.27,2.5,1.37,3.1,2.81,5.18l-0.01-0.01
	c0.43,0.85,0.03-0.01,0.62,1.24c0.29,0.77,0.31,0.47-0.07,0.6c-1.04,0.08-2.18,0.15-2.86,0.11c-1.15-0.01,0,0-1.06,0.01
	c-1.38-0.06-2.53-0.04-3.69-0.04c-89.98,0.02-179.95,0-269.93,0.01c-2.21,0-4.42-0.13-6.63,0.2c-1.38-0.05-2.32-0.48-1.68-2.26
	c0.11-1.96,1.81-3.08,2.25-4.87c0.91-3.48,3.25-6.08,4.84-9.15c6.17-9.38,10.76-19.79,16.73-29.3c0.2,0.07,0.4,0.13,0.61,0.2
	c0.42,0.12,0.85,0.2,1.28,0.23c23.5,0.12,46.99,0.04,70.49,0.04c51.64,0.02,103.28,0,154.93,0.01c1.98,0,3.95-0.08,5.92,0.1
	c1.05,0.64,2.14,0.53,3.91-0.42c0.15-0.03,0.31-0.05,0.46-0.07c2.62,3.13,3.94,7.14,6.22,10.51
	C276.08,209.91,276.31,210.88,276.69,211.75z"/>
<path class="st0" d="M39.2,38.37c0-7.22,5.72-8.26,14.38-8.23c65.23,0,133.54,0.15,198.78,0.12c0.58,0,1.16-0.02,1.73-0.05
	c1.04,0,1.25-0.02,2.94,0.05c0.33,0.01,1.07,0,1.42,0.02c1.17-0.01,0.81-0.02,1.44-0.02c0.69,0.03,0.35-0.03,1.7,0.05
	c0.6-0.01,0.67,0.02,1.7,0.1c0.83,0.2,0.32,0.07,0.72,0.17c2.71,1.32,2.86,1.98,2.81,5.12c0.09,2.05,0.05,4.17-0.02,6.64
	c0.07,2.67,0.07,1.94,0,2.89c0.03,2.03-0.01,3.65-0.01,5.52c-0.01,41.61,0,83.22-0.02,124.83c0,2.11,0.24,4.25-0.41,6.33
	c-0.32,0.72-0.81,1.24-1.46,1.59c-1.57,0.63-3.22,0.46-4.84,0.46c-71.57,0.01-143.15,0.01-214.72,0.01c-1.16,0-2.33,0.03-3.49-0.13
	c-1.61-0.22-2.49-1.21-2.66-2.93c-0.14-1.37-0.11-2.75-0.11-4.12c0-43.86,0-87.72-0.01-131.59"/>
<path class="st1" d="M14.13,257.3c-3.2-1.3-6.62-2.21-9.51-5.76c97.32,0,193.88,0,290.78,0c-2.11,3.14-5.2,4.17-8.07,5.58
	c-1.12,1.01-2.48,0.56-3.69,0.56c-88.81-0.14-177.62,0.01-266.42-0.05C16.18,257.62,15.11,257.88,14.13,257.3z"/>
<path class="st2" d="M107.57,238.07c0.74-2.62,1.62-5.2,2.18-7.87c0.5-2.39,1.34-3.41,3.92-3.39c19.33,0.15,38.66,0.07,57.99,0.11
	c1.33,0,3.02-0.11,3.23,2.07c0.09,3.66,0.02,4.75,0.09,8.36c0.02,1.1,0.06,0.8,0.04,2.5c-0.01,1.68-1.96,2.29-2.7,2.29
	c-2.23,0-2.15,0-3.65,0c-18.17-0.02-36.33,0-54.5-0.02c-2.09,0-4.79,0.32-6.18-1.01c-0.2-0.25-0.2-0.25-0.38-0.68
	C107.4,239.72,107.25,238.68,107.57,238.07z"/>
<path class="st3" d="M253.49,171.05c-67.03,0-134.05,0.01-201.08,0.01c-0.78-1.13-0.4-2.42-0.4-3.63
	c-0.02-40.12,0.02-80.24-0.1-120.36c-0.01-3.19,0.91-4.15,3.63-3.97c1.62,0.1,3.25,0.08,4.88,0.08c63.09-0.01,126.18-0.01,189.27,0
	c4.8,0,4.24-0.52,4.24,4.65c0.01,39.75,0.01,79.49-0.02,119.24C253.91,168.38,254.34,169.81,253.49,171.05z"/>
</svg>
