<svg version="1.1" id="Layer_1" xmlns="http://www.w3.org/2000/svg" xmlns:xlink="http://www.w3.org/1999/xlink" x="0px" y="0px"
	 width="100%" viewBox="0 0 491 105" enable-background="new 0 0 491 105" xml:space="preserve">
<path fill="#00000000" opacity="1.000000" stroke="none" 
	d="
M358.000000,106.000000 
	C238.716507,106.000000 119.933022,106.000000 1.074765,106.000000 
	C1.074765,71.064659 1.074765,36.129116 1.074765,1.096785 
	C164.666641,1.096785 328.333313,1.096785 491.971863,1.096785 
	C491.971863,36.066860 491.971863,71.033447 491.971863,106.000000 
	C447.462494,106.000000 402.981262,106.000000 358.000000,106.000000 
M28.463488,31.837202 
	C23.974535,27.704319 20.733957,27.527397 17.386248,31.232433 
	C14.404321,34.532646 15.095861,37.648197 19.547127,41.683014 
	C20.339224,42.401009 20.904932,43.462498 21.339155,44.467365 
	C27.005325,57.579830 32.569710,70.736702 38.314281,83.814507 
	C39.434742,86.365288 41.022949,88.774361 42.734535,90.986397 
	C45.142803,94.098808 47.673584,93.822334 50.840042,91.404709 
	C56.763542,86.882042 58.665478,80.674606 59.982903,73.796646 
	C61.812061,64.247086 64.192009,54.803024 66.446175,44.826897 
	C71.023712,46.409492 74.911987,47.397533 78.435242,49.128521 
	C80.092209,49.942589 82.442497,53.028446 82.076698,53.634056 
	C80.557556,56.149147 78.683739,58.983429 74.626511,57.199345 
	C70.297951,55.295944 66.705902,56.700272 65.059265,60.462914 
	C63.610245,63.773956 65.028419,67.841438 68.269310,69.382195 
	C72.591057,71.436790 75.127991,68.675491 77.575546,65.789490 
	C78.899666,64.228180 79.934952,62.264927 81.556160,61.139111 
	C89.588745,55.561043 89.449516,49.610638 80.954369,44.779087 
	C79.806847,44.126446 78.538742,43.668549 77.294876,43.205311 
	C66.392761,39.145126 55.488003,35.091885 44.570457,31.073458 
	C43.229012,30.579710 41.807808,30.302662 40.423565,29.925192 
	C40.129745,30.340740 39.835922,30.756287 39.542103,31.171835 
	C41.203804,32.654739 42.648834,34.569695 44.570831,35.533543 
	C49.020573,37.764996 53.690601,39.561394 58.292728,41.482883 
	C60.429359,42.374973 61.137955,43.421078 60.502792,46.043270 
	C58.115089,55.900543 56.292027,65.894157 53.931141,75.758598 
	C53.172874,78.926849 51.621471,81.971008 50.044464,84.859879 
	C48.314659,88.028671 46.419609,87.918442 44.862492,84.499451 
	C38.936821,71.488403 32.930031,58.513988 27.086891,45.466171 
	C26.497501,44.150051 26.369745,42.291931 26.799313,40.928417 
	C27.563910,38.501469 28.918867,36.260509 30.768169,33.907784 
	C33.883171,40.691864 37.143242,47.415569 40.009682,54.303097 
	C40.713444,55.994095 40.579975,58.349792 40.051399,60.173870 
	C38.817146,64.433174 40.192734,68.071297 44.266644,69.475403 
	C47.997967,70.761436 50.837204,69.335312 52.515381,65.929169 
	C54.332947,62.240101 52.539730,58.320904 48.590630,56.545795 
	C47.317120,55.973354 45.552364,55.413757 45.059067,54.358822 
	C41.545898,46.845840 37.820557,39.373325 35.115917,31.558065 
	C32.572880,24.209766 37.368378,19.466320 44.735214,21.947449 
	C57.623470,26.288177 70.338699,31.155800 83.022522,36.070808 
	C84.346497,36.583851 85.410110,38.785980 85.834557,40.403805 
	C86.911865,44.510212 89.836227,46.836178 93.823631,46.049294 
	C97.395470,45.344425 99.359329,42.977486 99.447151,39.425953 
	C99.521645,36.413582 94.617882,32.656025 91.426186,32.863182 
	C90.149910,32.946018 88.726273,33.138878 87.595482,32.699982 
	C79.712135,29.640221 71.964081,26.218739 64.020988,23.330257 
	C57.640991,21.010191 51.153748,18.761642 44.525581,17.396877 
	C32.999268,15.023564 28.262079,19.642559 29.565214,31.106514 
	C29.596167,31.378801 29.291615,31.689226 28.463488,31.837202 
M349.945648,79.021469 
	C351.515839,78.927345 353.086060,78.833221 354.579468,78.743698 
	C354.579468,63.571999 354.579468,48.973934 354.579468,34.233540 
	C352.552246,34.233540 350.797943,34.233540 348.431213,34.233540 
	C348.431213,45.326782 348.431213,56.175827 348.431213,67.024872 
	C346.480225,66.056435 345.498322,64.837151 344.682404,63.515408 
	C339.610840,55.299919 334.294678,47.216568 329.644531,38.767475 
	C327.190582,34.308807 324.240936,32.985203 319.431519,34.518337 
	C319.431519,49.185394 319.431519,63.919369 319.431519,78.748291 
	C321.471436,78.748291 323.221222,78.748291 325.493103,78.748291 
	C325.493103,67.444092 325.493103,56.404297 325.493103,43.886150 
	C327.273468,46.389122 328.257538,47.635445 329.095703,48.973194 
	C334.575470,57.719406 339.981537,66.512192 345.523712,75.218460 
	C346.441406,76.660118 347.908508,77.752029 349.945648,79.021469 
M470.214752,64.961563 
	C470.568298,69.550117 470.921814,74.138672 471.277740,78.758301 
	C474.129608,78.758301 476.366913,78.758301 478.875641,78.758301 
	C474.116699,71.691948 480.112244,61.937538 471.864685,56.099815 
	C477.291229,52.366764 478.063232,47.268265 476.663177,41.739334 
	C475.501984,37.153683 471.740845,34.675407 467.473175,34.428345 
	C459.087982,33.942917 450.654846,34.285507 441.955719,34.285507 
	C441.955719,41.983166 441.955688,49.288113 441.955688,56.593063 
	C441.955688,64.009644 441.955719,71.426224 441.955719,78.768692 
	C444.338165,78.768692 445.947632,78.768692 448.111450,78.768692 
	C448.111450,72.156029 448.111450,65.762268 448.111450,59.030563 
	C453.629150,59.030563 458.598114,58.924007 463.559723,59.068302 
	C466.827087,59.163322 469.315033,60.608093 470.214752,64.961563 
M381.131317,79.010300 
	C391.048248,77.945793 396.423950,72.494553 398.415070,61.483700 
	C400.453461,50.211281 396.447662,39.746307 388.558655,35.846470 
	C387.376282,35.261982 386.101929,34.485340 384.858734,34.464180 
	C377.301910,34.335545 369.741760,34.400009 362.360901,34.400009 
	C362.360901,49.433441 362.360901,64.129074 362.360901,79.013458 
	C368.580231,79.013458 374.393616,79.013458 381.131317,79.010300 
M420.500610,79.009056 
	C425.951355,79.009056 431.402100,79.009056 437.191650,79.009056 
	C437.050476,77.032051 436.951721,75.649727 436.820221,73.808319 
	C427.884827,73.808319 419.304047,73.808319 410.683533,73.808319 
	C410.683533,68.376633 410.683533,63.439449 410.683533,57.903931 
	C418.819000,57.903931 426.723755,57.903931 434.967926,57.903931 
	C434.736603,55.884968 434.578217,54.502529 434.374542,52.724800 
	C426.217224,52.724800 418.465881,52.724800 410.702637,52.724800 
	C410.702637,48.006191 410.702637,43.741474 410.702637,38.921761 
	C419.534668,38.921761 428.112518,38.921761 437.036102,38.921761 
	C436.838562,36.949139 436.700287,35.568638 436.579895,34.366547 
	C425.577850,34.366547 415.019470,34.366547 404.421143,34.366547 
	C404.421143,49.325256 404.421143,63.907219 404.421143,79.009056 
	C409.606262,79.009056 414.554565,79.009056 420.500610,79.009056 
M197.947906,74.874336 
	C195.002090,73.169083 191.349594,72.073250 189.249863,69.638382 
	C184.035965,63.592319 184.658875,49.003952 189.745590,42.833755 
	C195.521881,35.827065 207.165833,36.403709 210.767807,44.247787 
	C212.499954,48.019920 214.469681,48.777725 219.121521,47.088749 
	C217.116882,43.810543 215.753723,40.345520 213.357910,37.886723 
	C204.937088,29.244568 188.169830,31.780128 182.363190,42.592667 
	C177.463699,51.715958 177.730301,61.238216 182.304108,70.403839 
	C186.096390,78.003334 194.808945,81.592690 203.565781,79.798576 
	C212.239578,78.021484 217.813675,71.494133 218.425797,62.322742 
	C216.520325,62.322742 214.624817,62.322742 212.849136,62.322742 
	C209.612671,71.993042 206.581161,74.656670 197.947906,74.874336 
M171.271667,57.999722 
	C175.301224,58.163837 174.225082,55.668385 173.781799,52.934143 
	C165.915787,52.934143 158.170074,52.934143 150.336731,52.934143 
	C150.336731,48.057007 150.336731,43.685478 150.336731,38.880741 
	C159.122360,38.880741 167.556488,38.880741 176.356552,38.880741 
	C176.214645,37.038395 176.108673,35.662647 175.999710,34.248108 
	C165.159912,34.248108 154.736374,34.248108 144.092896,34.248108 
	C144.092896,49.193695 144.092896,63.887039 144.092896,78.667130 
	C155.138580,78.667130 165.863144,78.667130 176.945160,78.667130 
	C176.759033,76.917732 176.612457,75.539963 176.422272,73.752266 
	C167.439896,73.752266 158.856827,73.752266 150.229309,73.752266 
	C150.229309,68.366608 150.229309,63.443771 150.229309,58.002422 
	C157.085480,58.002422 163.699158,58.002422 171.271667,57.999722 
M230.910980,52.783112 
	C230.473572,46.609795 230.036148,40.436474 229.578751,33.981266 
	C227.632034,34.073254 225.900970,34.155048 224.188721,34.235958 
	C224.188721,49.350723 224.188721,63.944763 224.188721,78.714310 
	C226.187073,78.714310 227.914322,78.714310 230.235107,78.714310 
	C230.235107,71.716225 230.235107,64.987877 230.235107,58.309952 
	C238.090530,58.309952 245.345932,58.309952 253.176025,58.309952 
	C253.176025,65.329193 253.176025,72.063766 253.176025,79.050476 
	C255.516907,78.935112 257.260895,78.849167 258.945129,78.766167 
	C258.945129,63.635139 258.945129,49.041607 258.945129,34.286003 
	C256.925903,34.286003 255.195587,34.286003 252.869415,34.286003 
	C252.869415,40.613243 252.869415,46.671898 252.869415,52.960533 
	C245.461136,52.960533 238.648254,52.960533 230.910980,52.783112 
M277.431946,76.039337 
	C277.431946,70.142509 277.431946,64.245689 277.431946,57.881538 
	C285.090851,57.881538 292.007050,57.881538 299.252136,57.881538 
	C299.069794,55.984745 298.936890,54.601967 298.760468,52.766457 
	C291.511261,52.766457 284.612549,52.766457 277.699463,52.766457 
	C277.699463,48.009426 277.699463,43.748367 277.699463,39.018570 
	C285.865906,39.018570 293.780487,39.018570 301.886230,39.018570 
	C301.886230,37.165409 301.886230,35.786137 301.886230,34.333702 
	C291.582947,34.333702 281.551392,34.333702 271.521423,34.333702 
	C271.521423,49.371174 271.521423,64.061577 271.521423,80.289955 
	C274.107422,78.817879 275.762726,77.875580 277.431946,76.039337 
M126.492638,33.994476 
	C119.067039,33.994476 111.641434,33.994476 104.289986,33.994476 
	C104.289986,35.988998 104.289986,37.259739 104.289986,39.108849 
	C109.249069,39.108849 113.979721,39.108849 119.244843,39.108849 
	C119.244843,52.722256 119.244843,65.760719 119.244843,78.733246 
	C121.585709,78.733246 123.352188,78.733246 125.719055,78.733246 
	C125.719055,65.437813 125.719055,52.401512 125.719055,38.935333 
	C130.900208,38.935333 135.493683,38.935333 140.225342,38.935333 
	C140.225342,37.098949 140.225342,35.712120 140.225342,33.994476 
	C135.760925,33.994476 131.624329,33.994476 126.492638,33.994476 
M311.949799,69.455383 
	C311.949799,57.737728 311.949799,46.020073 311.949799,34.326889 
	C309.575836,34.326889 307.851257,34.326889 306.139130,34.326889 
	C306.139130,49.338608 306.139130,64.010780 306.139130,78.666733 
	C308.183075,78.666733 309.901367,78.666733 311.949738,78.666733 
	C311.949738,75.701569 311.949738,73.070694 311.949799,69.455383 
z"/>
<path fill="#21C8E3" opacity="1.000000" stroke="none" 
	d="
M30.026909,33.941761 
	C28.918867,36.260509 27.563910,38.501469 26.799313,40.928417 
	C26.369745,42.291931 26.497501,44.150051 27.086891,45.466171 
	C32.930031,58.513988 38.936821,71.488403 44.862492,84.499451 
	C46.419609,87.918442 48.314659,88.028671 50.044464,84.859879 
	C51.621471,81.971008 53.172874,78.926849 53.931141,75.758598 
	C56.292027,65.894157 58.115089,55.900543 60.502792,46.043270 
	C61.137955,43.421078 60.429359,42.374973 58.292728,41.482883 
	C53.690601,39.561394 49.020573,37.764996 44.570831,35.533543 
	C42.648834,34.569695 41.203804,32.654739 39.542103,31.171835 
	C39.835922,30.756287 40.129745,30.340740 40.423565,29.925192 
	C41.807808,30.302662 43.229012,30.579710 44.570457,31.073458 
	C55.488003,35.091885 66.392761,39.145126 77.294876,43.205311 
	C78.538742,43.668549 79.806847,44.126446 80.954369,44.779087 
	C89.449516,49.610638 89.588745,55.561043 81.556160,61.139111 
	C79.934952,62.264927 78.899666,64.228180 77.575546,65.789490 
	C75.127991,68.675491 72.591057,71.436790 68.269310,69.382195 
	C65.028419,67.841438 63.610245,63.773956 65.059265,60.462914 
	C66.705902,56.700272 70.297951,55.295944 74.626511,57.199345 
	C78.683739,58.983429 80.557556,56.149147 82.076698,53.634056 
	C82.442497,53.028446 80.092209,49.942589 78.435242,49.128521 
	C74.911987,47.397533 71.023712,46.409492 66.446175,44.826897 
	C64.192009,54.803024 61.812061,64.247086 59.982903,73.796646 
	C58.665478,80.674606 56.763542,86.882042 50.840042,91.404709 
	C47.673584,93.822334 45.142803,94.098808 42.734535,90.986397 
	C41.022949,88.774361 39.434742,86.365288 38.314281,83.814507 
	C32.569710,70.736702 27.005325,57.579830 21.339155,44.467365 
	C20.904932,43.462498 20.339224,42.401009 19.547127,41.683014 
	C15.095861,37.648197 14.404321,34.532646 17.386248,31.232433 
	C20.733957,27.527397 23.974535,27.704319 28.767485,31.923206 
	C29.071482,32.009212 29.044786,31.936895 28.997257,32.289711 
	C29.318579,33.089825 29.687431,33.537121 30.029846,33.986965 
	C30.003405,33.989513 30.026909,33.941761 30.026909,33.941761 
z"/>
<path fill="#f7f7f7" opacity="1.000000" stroke="none" 
	d="
M349.533691,79.013519 
	C347.908508,77.752029 346.441406,76.660118 345.523712,75.218460 
	C339.981537,66.512192 334.575470,57.719406 329.095703,48.973194 
	C328.257538,47.635445 327.273468,46.389122 325.493103,43.886150 
	C325.493103,56.404297 325.493103,67.444092 325.493103,78.748291 
	C323.221222,78.748291 321.471436,78.748291 319.431519,78.748291 
	C319.431519,63.919369 319.431519,49.185394 319.431519,34.518337 
	C324.240936,32.985203 327.190582,34.308807 329.644531,38.767475 
	C334.294678,47.216568 339.610840,55.299919 344.682404,63.515408 
	C345.498322,64.837151 346.480225,66.056435 348.431213,67.024872 
	C348.431213,56.175827 348.431213,45.326782 348.431213,34.233540 
	C350.797943,34.233540 352.552246,34.233540 354.579468,34.233540 
	C354.579468,48.973934 354.579468,63.571999 354.579468,78.743698 
	C353.086060,78.833221 351.515839,78.927345 349.533691,79.013519 
z"/>
<path fill="#f7f7f7" opacity="1.000000" stroke="none" 
	d="
M470.149750,64.533676 
	C469.315033,60.608093 466.827087,59.163322 463.559723,59.068302 
	C458.598114,58.924007 453.629150,59.030563 448.111450,59.030563 
	C448.111450,65.762268 448.111450,72.156029 448.111450,78.768692 
	C445.947632,78.768692 444.338165,78.768692 441.955719,78.768692 
	C441.955719,71.426224 441.955688,64.009644 441.955688,56.593063 
	C441.955688,49.288113 441.955719,41.983166 441.955719,34.285507 
	C450.654846,34.285507 459.087982,33.942917 467.473175,34.428345 
	C471.740845,34.675407 475.501984,37.153683 476.663177,41.739334 
	C478.063232,47.268265 477.291229,52.366764 471.864685,56.099815 
	C480.112244,61.937538 474.116699,71.691948 478.875641,78.758301 
	C476.366913,78.758301 474.129608,78.758301 471.277740,78.758301 
	C470.921814,74.138672 470.568298,69.550117 470.149750,64.533676 
M450.748047,53.990303 
	C455.244843,53.964634 459.764343,54.209343 464.231781,53.834236 
	C468.371124,53.486683 470.854340,51.036221 470.965088,46.604721 
	C471.067566,42.505512 469.263672,39.537300 465.167419,39.224686 
	C459.602081,38.799953 453.979950,39.118900 448.039398,39.118900 
	C448.039398,43.450401 447.919647,47.259365 448.120056,51.051407 
	C448.172882,52.050598 449.215149,52.997490 450.748047,53.990303 
z"/>
<path fill="#f7f7f7" opacity="1.000000" stroke="none" 
	d="
M29.107515,31.995539 
	C29.291615,31.689226 29.596167,31.378801 29.565214,31.106514 
	C28.262079,19.642559 32.999268,15.023564 44.525581,17.396877 
	C51.153748,18.761642 57.640991,21.010191 64.020988,23.330257 
	C71.964081,26.218739 79.712135,29.640221 87.595482,32.699982 
	C88.726273,33.138878 90.149910,32.946018 91.426186,32.863182 
	C94.617882,32.656025 99.521645,36.413582 99.447151,39.425953 
	C99.359329,42.977486 97.395470,45.344425 93.823631,46.049294 
	C89.836227,46.836178 86.911865,44.510212 85.834557,40.403805 
	C85.410110,38.785980 84.346497,36.583851 83.022522,36.070808 
	C70.338699,31.155800 57.623470,26.288177 44.735214,21.947449 
	C37.368378,19.466320 32.572880,24.209766 35.115917,31.558065 
	C37.820557,39.373325 41.545898,46.845840 45.059067,54.358822 
	C45.552364,55.413757 47.317120,55.973354 48.590630,56.545795 
	C52.539730,58.320904 54.332947,62.240101 52.515381,65.929169 
	C50.837204,69.335312 47.997967,70.761436 44.266644,69.475403 
	C40.192734,68.071297 38.817146,64.433174 40.051399,60.173870 
	C40.579975,58.349792 40.713444,55.994095 40.009682,54.303097 
	C37.143242,47.415569 33.883171,40.691864 30.397539,33.924774 
	C30.026909,33.941761 30.003405,33.989513 30.287769,33.681831 
	C30.063017,32.895069 29.553902,32.415981 29.044786,31.936895 
	C29.044786,31.936895 29.071482,32.009212 29.107515,31.995539 
M43.949551,62.660469 
	C45.068779,63.636616 46.188007,64.612762 47.307232,65.588913 
	C47.797760,64.346413 49.042278,62.706615 48.636448,61.936420 
	C47.452084,59.688717 45.629696,59.648460 43.949551,62.660469 
z"/>
<path fill="#f7f7f7" opacity="1.000000" stroke="none" 
	d="
M380.669189,79.011879 
	C374.393616,79.013458 368.580231,79.013458 362.360901,79.013458 
	C362.360901,64.129074 362.360901,49.433441 362.360901,34.400009 
	C369.741760,34.400009 377.301910,34.335545 384.858734,34.464180 
	C386.101929,34.485340 387.376282,35.261982 388.558655,35.846470 
	C396.447662,39.746307 400.453461,50.211281 398.415070,61.483700 
	C396.423950,72.494553 391.048248,77.945793 380.669189,79.011879 
M392.672668,56.498192 
	C391.934357,40.100830 384.522552,37.205753 368.436768,39.668423 
	C368.436768,51.054501 368.436768,62.426899 368.436768,73.990616 
	C372.156128,73.990616 375.479797,74.018867 378.802826,73.984589 
	C385.218323,73.918419 389.157745,71.196808 391.108765,65.130501 
	C391.914978,62.623711 392.145630,59.931816 392.672668,56.498192 
z"/>
<path fill="#f7f7f7" opacity="1.000000" stroke="none" 
	d="
M420.001709,79.009056 
	C414.554565,79.009056 409.606262,79.009056 404.421143,79.009056 
	C404.421143,63.907219 404.421143,49.325256 404.421143,34.366547 
	C415.019470,34.366547 425.577850,34.366547 436.579895,34.366547 
	C436.700287,35.568638 436.838562,36.949139 437.036102,38.921761 
	C428.112518,38.921761 419.534668,38.921761 410.702637,38.921761 
	C410.702637,43.741474 410.702637,48.006191 410.702637,52.724800 
	C418.465881,52.724800 426.217224,52.724800 434.374542,52.724800 
	C434.578217,54.502529 434.736603,55.884968 434.967926,57.903931 
	C426.723755,57.903931 418.819000,57.903931 410.683533,57.903931 
	C410.683533,63.439449 410.683533,68.376633 410.683533,73.808319 
	C419.304047,73.808319 427.884827,73.808319 436.820221,73.808319 
	C436.951721,75.649727 437.050476,77.032051 437.191650,79.009056 
	C431.402100,79.009056 425.951355,79.009056 420.001709,79.009056 
z"/>
<path fill="#1EC8E2" opacity="1.000000" stroke="none" 
	d="
M198.349792,74.912651 
	C206.581161,74.656670 209.612671,71.993042 212.849136,62.322742 
	C214.624817,62.322742 216.520325,62.322742 218.425797,62.322742 
	C217.813675,71.494133 212.239578,78.021484 203.565781,79.798576 
	C194.808945,81.592690 186.096390,78.003334 182.304108,70.403839 
	C177.730301,61.238216 177.463699,51.715958 182.363190,42.592667 
	C188.169830,31.780128 204.937088,29.244568 213.357910,37.886723 
	C215.753723,40.345520 217.116882,43.810543 219.121521,47.088749 
	C214.469681,48.777725 212.499954,48.019920 210.767807,44.247787 
	C207.165833,36.403709 195.521881,35.827065 189.745590,42.833755 
	C184.658875,49.003952 184.035965,63.592319 189.249863,69.638382 
	C191.349594,72.073250 195.002090,73.169083 198.349792,74.912651 
z"/>
<path fill="#16C6E1" opacity="1.000000" stroke="none" 
	d="
M170.792252,58.001072 
	C163.699158,58.002422 157.085480,58.002422 150.229309,58.002422 
	C150.229309,63.443771 150.229309,68.366608 150.229309,73.752266 
	C158.856827,73.752266 167.439896,73.752266 176.422272,73.752266 
	C176.612457,75.539963 176.759033,76.917732 176.945160,78.667130 
	C165.863144,78.667130 155.138580,78.667130 144.092896,78.667130 
	C144.092896,63.887039 144.092896,49.193695 144.092896,34.248108 
	C154.736374,34.248108 165.159912,34.248108 175.999710,34.248108 
	C176.108673,35.662647 176.214645,37.038395 176.356552,38.880741 
	C167.556488,38.880741 159.122360,38.880741 150.336731,38.880741 
	C150.336731,43.685478 150.336731,48.057007 150.336731,52.934143 
	C158.170074,52.934143 165.915787,52.934143 173.781799,52.934143 
	C174.225082,55.668385 175.301224,58.163837 170.792252,58.001072 
z"/>
<path fill="#18C6E2" opacity="1.000000" stroke="none" 
	d="
M231.373169,52.871822 
	C238.648254,52.960533 245.461136,52.960533 252.869415,52.960533 
	C252.869415,46.671898 252.869415,40.613243 252.869415,34.286003 
	C255.195587,34.286003 256.925903,34.286003 258.945129,34.286003 
	C258.945129,49.041607 258.945129,63.635139 258.945129,78.766167 
	C257.260895,78.849167 255.516907,78.935112 253.176025,79.050476 
	C253.176025,72.063766 253.176025,65.329193 253.176025,58.309952 
	C245.345932,58.309952 238.090530,58.309952 230.235107,58.309952 
	C230.235107,64.987877 230.235107,71.716225 230.235107,78.714310 
	C227.914322,78.714310 226.187073,78.714310 224.188721,78.714310 
	C224.188721,63.944763 224.188721,49.350723 224.188721,34.235958 
	C225.900970,34.155048 227.632034,34.073254 229.578751,33.981266 
	C230.036148,40.436474 230.473572,46.609795 231.373169,52.871822 
z"/>
<path fill="#f7f7f7" opacity="1.000000" stroke="none" 
	d="
M277.424988,76.486313 
	C275.762726,77.875580 274.107422,78.817879 271.521423,80.289955 
	C271.521423,64.061577 271.521423,49.371174 271.521423,34.333702 
	C281.551392,34.333702 291.582947,34.333702 301.886230,34.333702 
	C301.886230,35.786137 301.886230,37.165409 301.886230,39.018570 
	C293.780487,39.018570 285.865906,39.018570 277.699463,39.018570 
	C277.699463,43.748367 277.699463,48.009426 277.699463,52.766457 
	C284.612549,52.766457 291.511261,52.766457 298.760468,52.766457 
	C298.936890,54.601967 299.069794,55.984745 299.252136,57.881538 
	C292.007050,57.881538 285.090851,57.881538 277.431946,57.881538 
	C277.431946,64.245689 277.431946,70.142509 277.424988,76.486313 
z"/>
<path fill="#17C6E1" opacity="1.000000" stroke="none" 
	d="
M126.990189,33.994476 
	C131.624329,33.994476 135.760925,33.994476 140.225342,33.994476 
	C140.225342,35.712120 140.225342,37.098949 140.225342,38.935333 
	C135.493683,38.935333 130.900208,38.935333 125.719055,38.935333 
	C125.719055,52.401512 125.719055,65.437813 125.719055,78.733246 
	C123.352188,78.733246 121.585709,78.733246 119.244843,78.733246 
	C119.244843,65.760719 119.244843,52.722256 119.244843,39.108849 
	C113.979721,39.108849 109.249069,39.108849 104.289986,39.108849 
	C104.289986,37.259739 104.289986,35.988998 104.289986,33.994476 
	C111.641434,33.994476 119.067039,33.994476 126.990189,33.994476 
z"/>
<path fill="#f7f7f7" opacity="1.000000" stroke="none" 
	d="
M311.949768,69.947601 
	C311.949738,73.070694 311.949738,75.701569 311.949738,78.666733 
	C309.901367,78.666733 308.183075,78.666733 306.139130,78.666733 
	C306.139130,64.010780 306.139130,49.338608 306.139130,34.326889 
	C307.851257,34.326889 309.575836,34.326889 311.949799,34.326889 
	C311.949799,46.020073 311.949799,57.737728 311.949768,69.947601 
z"/>
<path fill="#00000000" opacity="1.000000" stroke="none" 
	d="
M28.997257,32.289711 
	C29.553902,32.415981 30.063017,32.895069 30.314209,33.679283 
	C29.687431,33.537121 29.318579,33.089825 28.997257,32.289711 
z"/>
<path fill="#00000000" opacity="1.000000" stroke="none" 
	d="
M450.275513,53.979351 
	C449.215149,52.997490 448.172882,52.050598 448.120056,51.051407 
	C447.919647,47.259365 448.039398,43.450401 448.039398,39.118900 
	C453.979950,39.118900 459.602081,38.799953 465.167419,39.224686 
	C469.263672,39.537300 471.067566,42.505512 470.965088,46.604721 
	C470.854340,51.036221 468.371124,53.486683 464.231781,53.834236 
	C459.764343,54.209343 455.244843,53.964634 450.275513,53.979351 
z"/>
<path fill="#00000000" opacity="1.000000" stroke="none" 
	d="
M44.021427,62.287453 
	C45.629696,59.648460 47.452084,59.688717 48.636448,61.936420 
	C49.042278,62.706615 47.797760,64.346413 47.307232,65.588913 
	C46.188007,64.612762 45.068779,63.636616 44.021427,62.287453 
z"/>
<path fill="#00000000" opacity="1.000000" stroke="none" 
	d="
M392.655365,56.911152 
	C392.145630,59.931816 391.914978,62.623711 391.108765,65.130501 
	C389.157745,71.196808 385.218323,73.918419 378.802826,73.984589 
	C375.479797,74.018867 372.156128,73.990616 368.436768,73.990616 
	C368.436768,62.426899 368.436768,51.054501 368.436768,39.668423 
	C384.522552,37.205753 391.934357,40.100830 392.655365,56.911152 
z"/>
</svg>