<svg id="Layer_1" data-name="Layer 1" xmlns="http://www.w3.org/2000/svg" viewBox="0 0 833.73 697.27"><defs><style>.cls-1{fill:#bcbec0;}.cls-2{fill:#fff;}.cls-3{fill:#3676ab;}.cls-4{fill:#303033;}.cls-5{fill:#535359;}.cls-6{fill:#131315;}.cls-7{fill:#bdaf83;}.cls-8{fill:#939598;}.cls-9{fill:#a7a9ac;}</style></defs><polygon class="cls-1" points="386.51 489.45 691.41 260.75 476.84 136.81 171.77 313.23 386.51 489.45 386.51 489.45"/><polygon class="cls-2" points="489.14 323.7 367.65 253.56 490.85 182.42 612.34 252.57 489.14 323.7 489.14 323.7"/><polygon class="cls-3" points="632.74 240.78 511.25 170.66 490.85 182.42 612.34 252.57 632.74 240.78 632.74 240.78"/><polygon class="cls-1" points="570.11 252.24 477.26 198.63 487.22 192.88 580.07 246.49 570.11 252.24 570.11 252.24"/><polygon class="cls-1" points="458.8 265.66 410 237.47 419.96 231.71 468.76 259.9 458.8 265.66 458.8 265.66"/><polygon class="cls-1" points="474.76 294.47 393.01 247.28 402.98 241.53 484.73 288.73 474.76 294.47 474.76 294.47"/><polygon class="cls-1" points="535.45 272.24 442.61 218.64 465.48 205.44 558.33 259.04 535.45 272.24 535.45 272.24"/><polygon class="cls-4" points="171.77 365.43 386.51 489.45 386.51 437.04 171.77 313.23 171.77 365.43 171.77 365.43"/><polygon class="cls-5" points="279.22 410.54 374.45 465.64 374.45 444.57 279.08 389.63 279.22 410.54 279.22 410.54"/><polygon class="cls-6" points="386.51 489.45 691.41 313.23 691.41 260.75 386.51 437.04 386.51 489.45 386.51 489.45"/><polygon class="cls-7" points="682.16 283.55 567.21 349.93 567.21 342.88 682.16 276.51 682.16 283.55 682.16 283.55"/><path class="cls-8" d="M440.15,328.86c-3.46-8.8-11.19-17.24-23-24.17-34.26-19.58-89.36-19.58-123.46,0-11.89,6.93-19.62,15.37-23.17,24.17H268.1v3.08c0,12.95,8.53,25.83,25.58,35.55,34.1,19.73,89.2,19.73,123.46,0,16.8-9.72,25.43-22.6,25.43-35.55v-3.08Z"/><path class="cls-9" d="M417.14,364.47c-34.26,19.66-89.36,19.66-123.46,0s-34-51.48,0-71.23c34.1-19.59,89.2-19.59,123.46,0,33.94,19.75,33.94,51.56,0,71.23Z"/></svg>