<svg id="Layer_1" data-name="Layer 1" xmlns="http://www.w3.org/2000/svg" viewBox="0 0 1080 1080"><defs><style>.cls-1{fill:#f0c6b5;}.cls-2{fill:#e6e7e8;}.cls-3{fill:#f5841f;}.cls-4{fill:#ff844c;}.cls-5{fill:#f99c2a;}.cls-6{fill:#535359;}.cls-7{fill:#303033;}.cls-8{fill:#131315;}.cls-9{fill:#b96228;}.cls-10{fill:#255277;}.cls-11{fill:#f5f5f5;}.cls-12{fill:#3b2416;}.cls-13{fill:#603a17;}.cls-14{fill:#c7a597;}.cls-15{fill:#fff;}.cls-16{fill:#8b7269;}.cls-17{fill:#b2b3b3;}.cls-18{fill:#1d374e;}.cls-19{fill:#d1d3d4;}.cls-20{fill:#bcbec0;}.cls-21{fill:#0f2033;}</style></defs><path class="cls-1" d="M773.05,359.5A74.77,74.77,0,0,1,784,352.24c-7.28-19-6.49-62.05-8.54-68.14-1.52-2.46-17.17-11.16-18.77-14.44s-3.3-13.42-.46-14.34,6.13,4.91,8.43,5.68c2.73-7.48-8.29-31.72-4.11-33.66s35.15,16.81,35.5,25.94.9,24.12.9,24.12,20.94,43.26,23.91,62.78-4.7,33-8.45,37-23.88,16.55-23.88,16.55L773.05,359.5Z"/><path class="cls-2" d="M696.34,419.07c9.72,28.83,32.55,35.58,40.06,22.38,16.62-29.15,42.48-33.84,52.52-39.07,13.71-7.17-9.53-51.17-20-46.26-7.58,3.53-18.65,9.3-32,14.53-12.89,5-50.56,18.76-40.6,48.42"/><polygon class="cls-3" points="132.39 577.36 81.61 606.67 81.61 597.33 85.09 595.3 87.27 586.44 126.71 563.69 128.9 570.01 132.39 567.98 132.39 577.36 132.39 577.36"/><polygon class="cls-4" points="181 595.02 126.71 563.69 87.27 586.44 141.59 617.78 181 595.02 181 595.02"/><polygon class="cls-4" points="139.4 626.63 85.09 595.3 81.61 597.33 135.89 628.65 139.4 626.63 139.4 626.63"/><polygon class="cls-5" points="186.67 599.34 132.39 567.98 128.9 570.01 183.18 601.37 186.67 599.34 186.67 599.34"/><polygon class="cls-3" points="186.67 608.69 135.89 638 135.89 628.65 139.4 626.63 141.59 617.78 181 595.02 183.18 601.37 186.67 599.34 186.67 608.69 186.67 608.69"/><polygon class="cls-3" points="135.89 638 81.61 606.67 81.61 597.33 135.89 628.65 135.89 638 135.89 638"/><polygon class="cls-3" points="139.4 626.63 85.09 595.3 87.27 586.44 141.59 617.78 139.4 626.63 139.4 626.63"/><polygon class="cls-6" points="261.52 621.74 283.8 656.21 261.4 669.15 201.75 656.28 129.64 614.64 189.42 580.12 261.52 621.74 261.52 621.74"/><polygon class="cls-7" points="201.75 691.59 129.64 649.96 129.64 614.64 201.75 656.28 201.75 691.59 201.75 691.59"/><polygon class="cls-8" points="261.4 704.47 201.75 691.59 201.75 656.28 261.4 669.15 261.4 704.47 261.4 704.47"/><polygon points="283.8 691.52 261.4 704.47 261.4 669.15 283.8 656.21 283.8 691.52 283.8 691.52"/><path class="cls-7" d="M298.38,710.91l14.09-23.37-33-19.35h0c-1.77-1-4.17-.85-6.81.69-5.32,3.08-9.67,10.58-9.67,16.73,0,3,1,5.08,2.65,6.14l32.79,19.17Z"/><path d="M305.26,687.94c5.35-3.07,9.68-.57,9.68,5.58s-4.33,13.66-9.68,16.74-9.65.58-9.65-5.6,4.33-13.63,9.65-16.72Z"/><path class="cls-8" d="M350.67,726.12c-16.28,0-33-5.5-50.89-17.56-3.57-2.39-3-8.21.36-13.23s7.92-7.52,11.17-5.33c20.57,14,38.52,17.51,54.52,11.51,50.62-19.06,82-134.78,109.67-236.89C504.59,357.29,532,255.91,583.42,233c16.6-7.4,34.51-6.35,53.32,3.11a10.92,10.92,0,0,1-9.82,19.51c-12.8-6.48-24.15-7.34-34.61-2.67-41.9,18.71-69.26,119.72-95.74,217.37-31.85,117.57-61.93,228.62-123,251.62a64.67,64.67,0,0,1-22.85,4.18Z"/><path class="cls-6" d="M678.8,101.31c-1.52-.93-3.65-.83-6,.55l-54.51,31.46c-4.66,2.69-8.46,9.27-8.46,14.63V341.6c0,2.8,1,4.73,2.71,5.56L788.09,447.87l67.72-244.34-177-102.22Z"/><polygon class="cls-7" points="720.54 258.07 632.36 207.14 632.36 196.35 720.54 247.26 720.54 258.07 720.54 258.07"/><path class="cls-7" d="M850.12,204.23c4.65-2.69,8.44-.48,8.44,4.86V402.75c0,5.37-3.79,11.93-8.44,14.62l-54.54,31.48c-4.61,2.7-8.43.5-8.43-4.85V250.32c0-5.35,3.82-11.94,8.43-14.62l54.54-31.47Z"/><path class="cls-9" d="M826.77,420.38l13-21.39-11.46-6.66h0c-1.59-.91-3.8-.78-6.22.63-4.89,2.81-8.86,9.67-8.86,15.33,0,2.74.92,4.67,2.44,5.63l11.17,6.47Z"/><path class="cls-4" d="M833.08,399.35c4.91-2.82,8.86-.52,8.86,5.11s-4,12.52-8.86,15.34-8.82.51-8.82-5.12,4-12.51,8.82-15.33Z"/><path class="cls-8" d="M833.08,402.29c3.52-2,6.33-.38,6.33,3.65a13.88,13.88,0,0,1-6.33,10.93c-3.45,2-6.31.39-6.31-3.64a14,14,0,0,1,6.31-10.94Z"/><path class="cls-9" d="M860.5,253.62l-11.32-6.5c-1.5-.83-3.72-.43-6.18,1.39l-41.24,30.75c-4.6,3.43-8.38,10.61-8.38,16v94.21c0,2.9,1.14,5.07,2.86,6.13h0l11.25,6.52L811.13,392l31.87-13c4.6-1.88,8.36-7.79,8.36-13.17V279.16l9.14-25.54Z"/><path class="cls-4" d="M854.09,254.88c4.61-3.39,8.37-1.82,8.37,3.54V372.15c0,5.35-3.76,11.29-8.37,13.15l-41.24,16.88c-4.59,1.91-8.34-1-8.34-6.31V301.63c0-5.34,3.75-12.56,8.34-16l41.24-30.77Z"/><path class="cls-6" d="M851.54,264.45c4-3,7.33-1.62,7.33,3.08v99.65c0,4.68-3.29,9.89-7.33,11.54L815.4,393.51c-4,1.64-7.32-.85-7.32-5.54V305.4c0-4.71,3.28-11,7.32-14l36.14-26.95Z"/><path class="cls-8" d="M816.7,373.14c2.11-1.23,3.78-.24,3.78,2.17a8.29,8.29,0,0,1-3.78,6.54c-2.07,1.19-3.77.23-3.77-2.18a8.34,8.34,0,0,1,3.77-6.53Z"/><path class="cls-8" d="M816.7,353.65c2.11-1.23,3.78-.24,3.78,2.18a8.23,8.23,0,0,1-3.78,6.53c-2.07,1.22-3.77.25-3.77-2.17a8.37,8.37,0,0,1,3.77-6.54Z"/><path class="cls-8" d="M816.7,334.18c2.11-1.21,3.78-.23,3.78,2.18a8.29,8.29,0,0,1-3.78,6.53c-2.07,1.21-3.77.25-3.77-2.19a8.35,8.35,0,0,1,3.77-6.52Z"/><path class="cls-8" d="M816.7,314.7c2.11-1.2,3.78-.24,3.78,2.17a8.29,8.29,0,0,1-3.78,6.55c-2.07,1.22-3.77.22-3.77-2.18a8.39,8.39,0,0,1,3.77-6.54Z"/><path class="cls-8" d="M816.7,295.23c2.11-1.21,3.78-.24,3.78,2.18A8.31,8.31,0,0,1,816.7,304c-2.07,1.21-3.77.23-3.77-2.18a8.34,8.34,0,0,1,3.77-6.54Z"/><path class="cls-8" d="M848.67,354.66c2.09-1.19,3.76-.22,3.76,2.18a8.3,8.3,0,0,1-3.76,6.56c-2.09,1.2-3.78.24-3.78-2.18a8.35,8.35,0,0,1,3.78-6.56Z"/><path class="cls-8" d="M848.67,335.21c2.09-1.22,3.76-.23,3.76,2.17a8.29,8.29,0,0,1-3.76,6.53c-2.09,1.22-3.78.24-3.78-2.17a8.3,8.3,0,0,1,3.78-6.53Z"/><path class="cls-8" d="M848.67,315.74c2.09-1.23,3.76-.25,3.76,2.17a8.32,8.32,0,0,1-3.76,6.54c-2.09,1.19-3.78.22-3.78-2.18a8.28,8.28,0,0,1,3.78-6.53Z"/><path class="cls-8" d="M848.67,296.25c2.09-1.2,3.76-.23,3.76,2.18a8.29,8.29,0,0,1-3.76,6.53c-2.09,1.23-3.78.25-3.78-2.18a8.37,8.37,0,0,1,3.78-6.53Z"/><path class="cls-8" d="M848.67,276.78c2.09-1.21,3.76-.23,3.76,2.16a8.28,8.28,0,0,1-3.76,6.55c-2.09,1.23-3.78.25-3.78-2.18a8.31,8.31,0,0,1,3.78-6.53Z"/><path class="cls-8" d="M833.08,372.31c2.12-1.19,3.8-.22,3.8,2.17a8.23,8.23,0,0,1-3.8,6.54c-2.06,1.22-3.76.24-3.76-2.16a8.36,8.36,0,0,1,3.76-6.55Z"/><path class="cls-8" d="M833.08,352.82c2.12-1.2,3.8-.21,3.8,2.19a8.33,8.33,0,0,1-3.8,6.55c-2.06,1.19-3.76.22-3.76-2.19a8.47,8.47,0,0,1,3.76-6.55Z"/><path class="cls-8" d="M833.08,333.36c2.12-1.21,3.8-.23,3.8,2.18a8.29,8.29,0,0,1-3.8,6.54c-2.06,1.21-3.76.22-3.76-2.19a8.42,8.42,0,0,1,3.76-6.53Z"/><path class="cls-8" d="M833.08,313.88c2.12-1.21,3.8-.23,3.8,2.2a8.3,8.3,0,0,1-3.8,6.53c-2.06,1.19-3.76.22-3.76-2.18a8.39,8.39,0,0,1,3.76-6.55Z"/><path class="cls-8" d="M833.08,294.4c2.12-1.2,3.8-.22,3.8,2.18a8.31,8.31,0,0,1-3.8,6.56c-2.06,1.2-3.76.21-3.76-2.19a8.39,8.39,0,0,1,3.76-6.55Z"/><path class="cls-9" d="M826.77,268.1l13-21.4-11.46-6.65h0c-1.59-.92-3.8-.78-6.22.62-4.89,2.83-8.86,9.68-8.86,15.32,0,2.75.92,4.69,2.44,5.65l11.17,6.47Z"/><path class="cls-4" d="M833.08,247.06c4.91-2.82,8.86-.5,8.86,5.13s-4,12.5-8.86,15.33-8.82.52-8.82-5.11,4-12.52,8.82-15.35Z"/><path class="cls-8" d="M833.08,250c3.52-2,6.33-.38,6.33,3.64a13.9,13.9,0,0,1-6.33,10.94c-3.45,2-6.31.38-6.31-3.66A14,14,0,0,1,833.08,250Z"/><path class="cls-10" d="M720.16,956.16c-2.06,0-4.14,0-6.26-.06l-98.31-56.76L689,856.93c63.64,13.92,111.4,39.29,117.46,62l-62.89,36.3c-7.36.61-15.21.92-23.44.92m-20.71-.62A428.26,428.26,0,0,1,650,949.67c-30.91-5.46-58.87-13.69-81.3-23.25l40.17-23.19,90.6,52.31m61.24-2.38,46.22-26.69c0,.3-.11.59-.17.88-2.78,12.61-20,21.48-46,25.81M561.09,923c-31.52-14.73-50-32.06-46.59-47.28,1.53-7,7.44-12.75,16.79-17.29l70.81,40.89-41,23.68m47.76-27.57L539.16,855.2c15.34-5.4,36.82-8.27,61.9-8.27a408.92,408.92,0,0,1,70.19,6.48q4,.71,7.85,1.47l-70.25,40.57"/><path class="cls-10" d="M713.9,956.1q-7-.14-14.45-.56l-90.6-52.31-40.17,23.19c-2.6-1.11-5.15-2.25-7.59-3.4l41-23.68-70.81-40.89a71.47,71.47,0,0,1,7.87-3.25l69.69,40.25,70.25-40.57c3.36.65,6.66,1.33,9.93,2l-73.44,42.41L713.9,956.1m29.7-.86,62.89-36.3a17.53,17.53,0,0,1,.42,7.53l-46.22,26.69c-5.34.88-11.05,1.58-17.09,2.08"/><path class="cls-11" d="M745.21,890.33C754,894,767,901.85,791.7,905.48c5.9.89,13.63,17.59,6.66,20.4-4.89,2-10.57,4.83-23.18,4.79-11.65,0-26.49-7.08-26.49-7.08s-20.91,7.12-31-.69c-4.27-3.31-4.44-29.36-4.44-29.36s28.47-3.77,32-3.21Z"/><path class="cls-12" d="M732.09,603.2c15.27,48.59,13.54,196.9,26.44,282.78,2.23,14.92-53.78,25-56,1.87-11.72-122-32-218.51-34.6-241.93s58.35-52.2,64.15-42.72Z"/><path class="cls-11" d="M575.15,848.62c1.56,18.34,20.64,35.74,25.13,42.1,2.64,3.85,3.62,13.1-2.15,15.91s-22.31,7.75-33,.28c-9.51-6.66-33.66-38.91-36-45.81-7.27-21.2,11.43-30,11.43-30s34.58,14.17,34.6,17.47Z"/><path class="cls-13" d="M622.85,580.2c-28.57,33-25.5,150-31.88,174.64-21.64,16.9-38.91,48.78-52.2,70.1C524.32,848.1,568.25,879,580.07,855c22.18-45.06,52.71-65.23,57.41-78.81C651.47,736,679,657.86,679,657.86s48.49-40.31,48.78-92c1.06-11.31-102.09,11.09-104.91,14.33Z"/><path class="cls-14" d="M654,387.48c.15,9.68-5.06,18.34-5.06,18.34l16,28.62,27.81,14.82,22.51-11.43-6-26.64L696.82,386l-36.64-6.82s-4.74,6-6.16,8.34"/><path class="cls-15" d="M607.83,437.22s17.35-16.05,37.3-28.28c.42,11.74,22.71,23.89,35.14,29.73,0,0,11.09,5.88,19.62,2.21,7.14-4.43,5.5-12.31,5.5-12.31,3.16-8.5-1.44-18.61-6.63-22.13,7.42-5.55,13.47-9.86,13.47-9.86s25.32,17.35,28.17,63.74c2.35,37.86-10.11,78.69-5.24,135.61,1.35,16.41.48,30.18-21.32,38.71-5.08-6.31-7.66-15.44-7.66-15.44a89.32,89.32,0,0,0-3.43,20.33c-40.35,16.48-53-17.38-70.41-21.7-20.87-5.21-29.26,16.73-29.26,16.73,5.09-67.37,9.2-147.14,9.2-147.14l-4.45-50.2"/><path class="cls-16" d="M702.25,436.76c.87-1.69,2.9-12,3.91-17.35a17.92,17.92,0,0,1-.77,9.16,12.88,12.88,0,0,1-.87,7.09c-.76.35-1.52.71-2.27,1.1"/><path class="cls-17" d="M704.52,435.66a12.88,12.88,0,0,0,.87-7.09,17.92,17.92,0,0,0,.77-9.16c.37-1.92.6-3.19.6-3.19l4.19-2.29c8,4.7,14.42,15.83,14.42,15.83a81.53,81.53,0,0,0-20.85,5.9"/><path class="cls-10" d="M661.53,428.34c-6.39-4.24-12.11-9.08-14.8-14l11.72,8.52,3.08,5.52"/><path class="cls-16" d="M691.65,442a33.53,33.53,0,0,1-11.38-3.33l14.53,1.53s-1.23.65-3.15,1.8m-11.38-3.33a152.82,152.82,0,0,1-18.74-10.33l-3.08-5.52,21.82,15.85"/><path class="cls-17" d="M675.68,454.08C647.5,437,644,412.3,644,412.3l2.75,2c2.69,5,8.41,9.8,14.8,14a152.82,152.82,0,0,0,18.74,10.33h0A33.53,33.53,0,0,0,691.65,442a88.41,88.41,0,0,0-16,12.08"/><path class="cls-18" d="M700.16,446.57c12.48,29.33,12.07,149.35,12.07,149.35l8.56,7.28,7-20.18s.93-108.48-24.39-138.27a4,4,0,0,0-3.48-2.15s.77,2.63.27,4Z"/><path class="cls-19" d="M723,428.57S716.87,413.7,703.13,404c.51,3.57,6.87,14.55,6.87,14.55l13,10Z"/><path class="cls-20" d="M716,420.77c4.08,1.28,7.07,7.8,7.07,7.8s-8.1-4.15-10.81-5l3.74-2.79Z"/><path class="cls-18" d="M703.35,435.22s3.81-4.86,3.72-7.35l2.14.08c.89,5.54-4.44,11.81-4.44,11.81l-1.68-2.3.26-2.24Z"/><path class="cls-11" d="M701,438.67s6.39-17.09-6.22-44.92c0,0,17.17,19.45,21.17,27a98.24,98.24,0,0,0-15,17.9Z"/><path class="cls-18" d="M692.75,441.38s-10.8-4.72-13.2-6.92c-2.63-.34-3.46,3-2.95,3.59,7.32,6.34,17.82,6.88,17.82,6.88l.38-2.53-2-1Z"/><path class="cls-20" d="M685,437.57c8.32,6.2,11.82,3.1,11.82,3.1s-20.54-6.13-33.07-13.81c4.63,8.24,15.55,11,15.55,11a39.4,39.4,0,0,0,5.7-.29Z"/><polygon class="cls-21" points="692.75 441.38 703.35 435.22 704.77 439.76 703.37 444.75 700.16 446.57 694.42 444.93 692.75 441.38 692.75 441.38"/><path class="cls-11" d="M643.39,409.7a59.23,59.23,0,0,0,8.17-11.08C662,421.68,685,437.57,685,437.57c-6.12,5.2-9.87,14.11-9.87,14.11s-28.5-23.11-31.74-42Z"/><path class="cls-1" d="M714.94,335.81a56.76,56.76,0,0,1,10.79,29.47c.14,2.56-2.53,8.23-2.53,8.23a24.69,24.69,0,0,1,1.29,9.68c-.34,4.85-3.75,32.28-6.5,35.61s-10.36,5.95-15.31,5.07c-18.28-3.33-28.66-17.32-33-22.28-2-2.33-3.28-8.53-3.28-8.53s-5.24,2.81-11.09-3.63a260.82,260.82,0,0,1-10.19-26.16l25-18.42,27.62-12.61,17.18,3.57Z"/><path class="cls-13" d="M689.83,355.6c28.56,0,35.9,7.57,40.51-3,3-6.87-15.34-31.63-36.49-39.66-24.14-9.19-36.08,9.59-36.08,9.59s-23.38,4.42-18.95,33.45c3.58,23.43,16.5,33.49,16.5,33.49s-7.61-18.77,1.36-19.17c6-.24,12.52,11.62,12.52,11.62s3-6.34,7-8c13.2-5.54,11.67-18.34,13.62-18.24Z"/><path class="cls-12" d="M660.32,324.54c2.39-2.05,24.18,22.69,24.18,22.69s-26.56-20.65-24.18-22.69Z"/><path class="cls-1" d="M616.09,520.81a156.37,156.37,0,0,1-21.12,39c7.24,24.68,1.51,91.15,4.73,98.39l-20.94,3.21c-7-31.42-26.5-81.34-20.23-108.31,3.27-14.1,20.92-58.92,20.92-58.92L607.28,503s8.41,10.57,8.81,17.78Z"/><path class="cls-1" d="M578.76,661.42s2.51,32.52,4.2,37c4.58,11.71,25.49,25,28.79,23.09s-5.91-25-5.91-25l2.23-12s8.87,14.39,13.36,11.89-4-18.9-6.82-23.4-14.91-14.71-14.91-14.71l-13-6.42-7.93,9.63Z"/><path class="cls-2" d="M623.83,440.42c-26.4-15.08-36.7,20.2-43.21,33.92-2.93,6.21-11.27,31-15.28,41.63-5.46,14.44,43.09,32.73,47.64,22.12,3.27-7.69,9.27-22.79,12.07-32.36,3.94-13.25,26-49.81-1.22-65.31Z"/></svg>