<?xml version="1.0" encoding="utf-8"?>
<!-- Generator: Adobe Illustrator 25.2.1, SVG Export Plug-In . SVG Version: 6.00 Build 0)  -->
<svg version="1.1" id="Layer_1" xmlns="http://www.w3.org/2000/svg" xmlns:xlink="http://www.w3.org/1999/xlink" x="0px" y="0px"
	 viewBox="0 0 150 200" style="enable-background:new 0 0 130 200;" xml:space="preserve">
<style type="text/css">
	.st0{fill:#0F6370;}
	.st1{fill:#F0C6B5;}
	.st2{fill:#C7A596;}
	.st3{fill:#F5841F;}
	.st4{fill:#FF844C;}
	.st5{fill:#1D374E;}
	.st6{clip-path:url(#SVGID_1_);}
	.st7{fill:#603A17;}
	.st8{fill:#0F2033;}
	.st9{fill:#0E0E0E;}
</style>
<path class="st0" d="M63.46,60.01c3.9,10.72,7.94,13.55,16.87,12.85c7.13-0.56,11.92-5.9,12.95-14.73c0.37-3.12,0.38-6.29,0.31-9.43
	c-0.2-9.02-4.19-14.95-10.88-16.43c-7.67-1.7-20.77,11.62-25.66,20.58c-5.19-15.9,8.59-40.17,23.49-46.68
	c15.73-6.87,36.9-2.22,46.09,10.39c14.86,20.4,11.76,58.76-7.48,75.21c-16.79,14.35-40.16,13.41-54.42-2.91
	c-1.19-1.36-1.24-2.47-1.25-3.79C63.43,77.19,63.46,69.3,63.46,60.01z"/>
<path class="st1" d="M83.29,80.47c0,0,2.01,2.09,2.46,2.82c1.3-1.61,6.29-2.92,10.89-5.57c0.78-0.37,5.44,2.65,5.44,2.65
	s-9.77,11.52-16.53,12.04c-3.49,0.26-10.76-6.06-10.76-6.06l8.49-5.89L83.29,80.47z"/>
<path class="st2" d="M43.75,59.43c0.3,3.55-1.49,6.62-1.49,6.62l2.07,3.97l5.79,1.9l5.09,1.78l3.3-4.15l-3.15-7.76l-5.69-3.51
	c0,0-5.94,0.14-5.94,1.14H43.75z"/>
<path class="st3" d="M59.47,63.61c-2.97,6.41,12.79,22.01,13.52,23.44c2.62,2.15,13.06-3.88,11.38-6.99c0,0-5.91-5.5-11.13-10.71
	C68.91,65.25,66.09,61.17,59.47,63.61z"/>
<path class="st4" d="M56.12,66.78c0,0,1.88,3.32-1.16,4.69c-4,2.07-12.71-5.43-12.71-5.43c-0.59,1.11-3.86,3.14-3.86,3.14
	l-0.61,2.55l-3.58,0.61l-2.58,1.59c0,0,1.2,14.15,1.07,15.83c-0.13,1.67,9.77,9.53,8.45,16.83c-0.94,1.36,4.65,7.14,13.15,6.31
	c-0.68-2.88,2.85-3.98,4.96-4.9c3.45-1.51,7.16-2.61,11.01-3.25c0,0,2.07-21.07,2.07-25.61c0-8.9-13.68-14.8-13.68-14.8L56.12,66.78
	L56.12,66.78z"/>
<path class="st5" d="M52.6,62.25c15.08,4.81,17.67,15.28,17.67,15.28l-2.99,2.15c0,0-3.99-12.59-18.08-15.33
	C49.21,63.56,51.47,62.47,52.6,62.25z"/>
<path class="st5" d="M49.85,113.33c4.81-10.23-0.64-26.43-0.64-26.43s14.83-4.88,21.78-10.85c2.79,15.38,0.37,27.2,0.37,27.2
	l-2.9,3.93l-8.66,5.97C59.8,113.16,48.55,116.71,49.85,113.33L49.85,113.33z"/>
<path class="st5" d="M38.4,69.18c16.32,5.63,17.48,16.34,17.48,16.34l-4.81,1.52c0,0-0.91-11.97-16.85-14.69
	C34.24,71.54,37.28,69.4,38.4,69.18z"/>
<g>
	<defs>
		<path id="SVGID_5_" d="M21.03,176.66c1.68-1.57,3.93-3.04,6.75-4.35c2.95-1.34,6.09-2.4,9.36-3.13L21.03,176.66"/>
	</defs>
	<clipPath id="SVGID_1_">
		<use xlink:href="#SVGID_5_"  style="overflow:visible;"/>
	</clipPath>
	<g class="st6">
		<g>
			<defs>
				<rect id="SVGID_7_" x="18.24" y="167.66" width="70.09" height="32.75"/>
			</defs>
			<clipPath id="SVGID_2_">
				<use xlink:href="#SVGID_7_"  style="overflow:visible;"/>
			</clipPath>
		</g>
	</g>
</g>
<path class="st7" d="M67.13,169.41c2.94,3.32,11.13,3.55,14.26,6.69c1,0.9,1.04,3.58-0.66,4.21c-5.1,0.99-13.62-2.51-13.62-2.51
	s-9.82-0.47-10.87-1.8c-1.33-1.64-0.97-5.94-0.97-5.94S66.35,168.51,67.13,169.41L67.13,169.41z"/>
<path class="st8" d="M72.37,111.01c1.28,14.73-3.93,27.77-4.71,31.04c-1.7,11.56,0.58,23.98,0.69,27.02
	c0.09,2.53-13.45,5.36-14.78,0.86c-0.95-5.04-0.9-18.69,1.46-25.95c0.91-2.84-4.76-26.55-4.76-26.55S72.02,108.06,72.37,111.01
	L72.37,111.01z"/>
<path class="st7" d="M41.29,184.9c0.03,2,4,8.66,2.51,10.61c-1.36,1.76-6.27,1.05-8.93-0.63c-2.67-1.68-3.67-6.09-3.67-8.95
	c0-2,0.24-4.12,0.24-4.12l9.71,0.63C41.15,182.44,41.48,183.28,41.29,184.9L41.29,184.9z"/>
<path class="st5" d="M71.37,103.25c0,0-14.14,8.54-19.78,8.3c-7.04-0.29-10.43-4.98-10.43-4.98s-3.55,5.24-4.6,8.24
	c-1.05,3-1.28,30.61-3.12,34.53c-1.84,3.92-2.74,4.73-3.63,7.73c-0.89,3-1.13,20.39-0.54,25.18c0.59,4.79,12.42,4.54,13.79,1
	c-0.39-12.46,0.09-24.89,2.85-29.05c3.88-5.85,9.81-27.74,10.17-28.6c7.91-3.28,16.47-10.29,16.47-11.5
	C72.42,110.47,72.03,106.85,71.37,103.25L71.37,103.25z"/>
<path class="st1" d="M60.31,48.27c6.14,4.25,3.8,10.13,3.8,10.13s-1.52,9.46-2.55,10.37c-1.03,0.91-3.04,1.42-3.73,1.46
	c-2.06,0.16-9.1-3.71-10.13-4.74c-1.03-1.02-0.84-2.97-0.84-2.97S43.51,62.3,43,58.61c-0.35-2.55,0.15-4.16,0.15-4.16l2.64-4.66
	l5.62-2.8H56c0,0,3.53,0.81,4.29,1.27L60.31,48.27z"/>
<path class="st7" d="M43.28,59.75c0,0-0.28-4.44,2.57-2.5c0.92,0.78,0.56,1.23,1.24,2.14s2.38,1.45,2.81,1.08
	c0.43-0.37,0.89-4.36,0.39-5.68s-3.32-2.35-1.37-4.1c1.95-1.75,9.4,3.34,11.91,1.37c1.72-1.5-2.65-11.99-15.11-5.83
	C36.87,50.94,43.28,59.75,43.28,59.75L43.28,59.75z"/>
<path class="st9" d="M52.89,118.64c0.74,1.12-1.45,2.27-3.11,3.27c-1.21,0.73-3.81-0.09-6.82-0.63c-4.72-1.41-4.84-3.04-8.75-5.77
	c-2.02-0.78,1.74-4,4.93-4.49c2.53,0.51,7.07-0.06,7.59,3.68c0.91,0.54,5.41,2.81,6.14,3.94L52.89,118.64z"/>
<path class="st1" d="M25.66,101.94c5.35,1.95,6.51,4.94,13.48,9.07c-4.99,1.04-4.93,4.49-4.93,4.49
	c-4.52-1.99-20.61-7.47-19.51-12.57c0.84-2.77,1.17-6.2,4.6-11.93c3.04,0.25,8.53,3.11,8.38,5.42c-0.04,0.57-2.13,5.44-2.01,5.52
	L25.66,101.94z"/>
<path class="st3" d="M35.93,74.28c-10.17-4.61-20.31,20.03-21.15,21.57c-0.99,2.9,9.77,6.84,12.25,4.1
	c3.91-5.34,5.38-9.01,9.57-13.52C41.57,81.06,38.1,74.76,35.93,74.28L35.93,74.28z"/>
<path class="st9" d="M96.71,66.26c0.95-0.01,5.51,2.92,5.77,5.62c0.26,2.66,0.32,7.35-0.39,8.49c-0.71,1.14-5.74,1.71-6.03-1.82
	c-0.71-2.28-2.91-2.36-3.37-5.31C92.23,70.29,93.02,67.18,96.71,66.26z"/>
</svg>
