<svg id="Layer_1" data-name="Layer 1" xmlns="http://www.w3.org/2000/svg" viewBox="0 0 1080 1080"><defs><style>.cls-1{fill:#b96228;}.cls-2{fill:#255277;}.cls-3{fill:#2b5478;}.cls-4{fill:#f0c6b5;}.cls-5{fill:#e6e7e8;}.cls-6{fill:#c7a597;}.cls-7{fill:#f5f5f5;}.cls-8{fill:#0f2033;}.cls-9{fill:#1d374e;}.cls-10{fill:#fff;}.cls-11{fill:#8b7269;}.cls-12{fill:#b2b3b3;}.cls-13{fill:#f5841f;}.cls-14{fill:#d1d3d4;}.cls-15{fill:#bcbec0;}.cls-16{fill:#303033;}.cls-17{fill:#ef4f76;}.cls-18{fill:#131315;}.cls-19{fill:#b83a00;}.cls-20{fill:#ee2f59;}.cls-21{fill:#0a8074;}.cls-22{fill:#12a89f;}.cls-23{fill:#4bc1b7;}.cls-24{fill:#535359;}.cls-25{fill:#e6dab0;}.cls-26{fill:#939598;}.cls-27{fill:#222224;}.cls-28{fill:#603a17;}</style></defs><polygon class="cls-1" points="527.5 355.52 527.35 389.14 499.78 404.81 499.92 371.24 527.5 355.52 527.5 355.52"/><path class="cls-2" d="M369.3,957.37,342.71,942l81.54-47.08,69.59,40.17-7.06,4.08L369.3,957.37m-110.86-2.83c-34.57,0-60.34-8.06-61.83-20.88a12.63,12.63,0,0,1,2.46-8.52l37.61-21.7a205.71,205.71,0,0,1,20.2-5.33L332.93,942l-3.7,2.14a233.71,233.71,0,0,1-42.18,8.68,250.46,250.46,0,0,1-28.61,1.7m79.38-15.34-81.55-47.08L337.82,845l81.55,47.09L337.82,939.2m160.91-6.91-69.59-40.17L510.69,845l69.6,40.19-81.56,47.07m-74.48-43-81.54-47.08,81.54-47.08,81.55,47.08-81.55,47.08m-172.86,0L249,887.92l31.46-67.84,7.06-4.08,45.4,26.21-81.54,47.08m333.79-6.89-69.61-40.19,81.55-47.08,69.62,40.19L585.18,882.4m-74.49-43-81.55-47.08,81.55-47.08,81.55,47.08-81.55,47.08m-172.87,0-45.4-26.21L374,766.12l45.37,26.19-81.55,47.08m333.81-6.89L602,792.31l81.54-47.08,69.64,40.2L671.63,832.5m-74.51-43L515.57,742.4l81.55-47.08,81.55,47.08-81.55,47.08m-172.87,0-45.36-26.19,81.57-47.06L505.8,742.4l-81.55,47.08m333.84-6.88-69.65-40.2L770,695.32l69.65,40.22L758.09,782.6m-74.54-43L602,692.51l81.54-47.1,81.55,47.1-81.55,47.07m-172.86,0L465.35,713.4l81.57-47.06,45.32,26.17-81.55,47.07m333.84-6.87-69.65-40.2,81.54-47.1,52.29,30.2c1.29,11.54-5.64,23.34-20.84,32.09l-43.34,25m-74.54-43-81.55-47.09L770,595.52l81.55,47.07L770,689.68m-172.87,0-45.31-26.17,81.57-47.06,45.29,26.14-81.55,47.09M907,669l-45.73-26.41,7.77-4.49L887.94,649c9.84,5.69,16.2,12.66,19.1,20m-50.62-29.23-81.54-47.08,29.54-17.06a326.06,326.06,0,0,1,41.16-15.54c8.34-2.54,16.58-4.73,24.6-6.54L938,592.69l-81.55,47.08m-172.87,0-45.27-26.14,43.36-25c13.94-8.05,32.27-12.06,50.61-12.06,1.7,0,3.39,0,5.08.11l27.77,16-81.55,47.08M885,628.91l57.85-33.39,4.45,2.56c-15.25,11-36.92,22-62.3,30.83m66.54-34-3.8-2.2,15.77-9.1a83,83,0,0,1-12,11.3m-8.69-5L877.3,552a265.91,265.91,0,0,1,37.05-5,148.92,148.92,0,0,1,10.48,18,10.64,10.64,0,0,0,10,6.31c9.56,0,21.37-9.82,22-20.12,7,2.65,11.72,6.48,13.48,11.46,1.28,3.64.89,7.67-1,11.92l-26.51,15.31m-172.87,0-21.14-12.21a100.1,100.1,0,0,1,28.44,8l-7.3,4.22"/><path class="cls-3" d="M363.4,958.29l-28-16.18q-3,1.07-6.15,2l3.7-2.14-76.05-43.91,1.65-.35-11.11-6.41,1.59-3.43,2.38,1.37,81.54-47.08L287.53,816l4.89-2.82,45.4,26.21,81.55-47.08L374,766.12l4.89-2.83,45.36,26.19L505.8,742.4l-45.34-26.17,4.89-2.83,45.34,26.18,81.55-47.07-45.32-26.17,4.89-2.83,45.31,26.17,81.55-47.09-45.29-26.14,4.9-2.82,45.27,26.14,81.55-47.08-27.77-16c3.86.15,7.72.48,11.52,1L770,589.87l7.3-4.22q2.13,1,4.12,2.05a239.16,239.16,0,0,1,23-12.07l-29.54,17.06,81.54,47.08L938,592.69l-67.79-39.14c2.39-.54,4.76-1.06,7.12-1.53l65.56,37.85,26.51-15.31a38.06,38.06,0,0,1-5.85,9l-15.77,9.1,3.8,2.2c-1.35,1.06-2.77,2.13-4.24,3.19l-4.45-2.56L885,628.91q-6.66,2.33-13.65,4.47c-2.35.71-4.67,1.34-7,2l4.73,2.72-7.77,4.49L907,669a26.19,26.19,0,0,1,1.67,6.61l-52.29-30.2-81.54,47.1,69.65,40.2-4.89,2.83L770,695.32,688.44,742.4l69.65,40.2-4.9,2.83-69.64-40.2L602,792.31l69.62,40.19-4.89,2.82-69.62-40.19-81.55,47.08,69.61,40.19-4.89,2.82L510.69,845l-81.55,47.09,69.59,40.17-4.89,2.82-69.59-40.17L342.71,942l26.59,15.35-5.9.92M337.82,845l-81.55,47.09,81.55,47.08,81.55-47.08L337.82,845m86.43-49.9-81.54,47.08,81.54,47.08,81.55-47.08-81.55-47.08m86.44-49.9-81.55,47.08,81.55,47.08,81.55-47.08-81.55-47.08m86.43-49.91L515.57,742.4l81.55,47.08,81.55-47.08-81.55-47.08m86.43-49.91L602,692.51l81.54,47.07,81.55-47.07-81.55-47.1M770,595.52l-81.55,47.07L770,689.68l81.55-47.09L770,595.52M199.07,925.14c5.39-8,19.06-15.75,37.61-21.7l-37.61,21.7"/><path class="cls-4" d="M201.45,646.22c7.09-1.81,15.26-1.09,16.92,1.7S218,664.13,210,665s-19.06-2.75-19.06-2.75l-2-16.68a20.5,20.5,0,0,0,12.55.66Z"/><path class="cls-4" d="M803.4,267.19S797,276,792.83,281.06c-10.78,1.07-34.45,17.11-54.25,20.3-2-.28-2.79-4.71-7.81-4.83s-7.62,4.83-7.62,4.83-10.9,2.44-11,7,10.8,18.17,17.65,18.1,10.88-4.52,13.84-7.5c20.55-4.86,52.07-5.76,65.4-17.56,6.13-5.43,20.5-18.57,20.5-18.57l-26.17-15.6Z"/><path class="cls-5" d="M852.22,219.84c19,9.27,2.8,29-2.53,38.12-2.42,4.12-13.38,18.64-17.9,25.09-6.17,8.82-35.71-11.9-31.39-18.67,3.13-4.92,9.44-14.26,13.83-19.62,6.09-7.49,18.45-34.46,38-24.92"/><path class="cls-6" d="M890,210a37.6,37.6,0,0,0,1.54,12.84l2.77,10.78-18.18,16.76-24.52.09-7.17-10.28L856.08,219l28.34-9s3.87-2,5.59,0"/><path class="cls-7" d="M781.83,595.15A121.53,121.53,0,0,1,752,613.2c-4,1.75-5.92,16.41-.52,17,3.81.45,8.84.6,17.12-1.13s18.59-9.07,18.59-9.07,17.16-.83,20.78-4.21c2.84-2.68,2-18.76,2-18.76s-25.81-3-28.17-1.93Z"/><path class="cls-8" d="M817.71,355.28C789.66,429.1,787.64,530.41,778.3,592.7c-1.62,10.85,40,18.24,40.61,1.36,3-88.73,36.89-170.24,38.8-187.22s-35.8-58.46-40-51.56Z"/><path class="cls-7" d="M930.12,561.41c-1.12,13.31-15,25.93-18.19,30.56-1.94,2.78-2.65,9.48,1.55,11.52s16.17,5.62,23.91.21c6.91-4.83,24.4-28.21,26.13-33.24,5.26-15.37-8.28-21.7-8.28-21.7S930.15,559,930.12,561.41Z"/><path class="cls-9" d="M893.79,365.65c20.74,23.93,18.5,108.82,23.13,126.68,15.72,12.26,28.22,35.39,37.87,50.83,10.48,16.82-21.4,39.26-30,21.83-16.08-32.69-38.24-47.3-41.65-57.17-10.12-29.15-27.53-83.54-27.53-83.54s-37.74-31.53-37.95-69c-.78-8.24,74.06,8,76.09,10.37"/><path class="cls-10" d="M926,257.36a314.85,314.85,0,0,1-27.34-28c-.92,8.47-8.95,16.9-18.25,20.49a18.8,18.8,0,0,1-19.84,6c-6-4.42-3.29-12.1-3.29-12.1-1.83-6.32,4.69-13.93,8.63-16.2-5.07-4.4-13.2-5.29-13.2-5.29s-21,19.56-24.38,46.84-5.54,60.41-13.89,87c-3.58,11.39-2.64,24,13.92,35a29.35,29.35,0,0,0,5.74-9.33,43.21,43.21,0,0,1,1.68,13.61c28.34,14.09,35.83-9.37,48.65-11.58,15.36-2.65,23,18.38,23,18.38-.14-49,12.94-111.94,12.94-111.94L926,257.36"/><path class="cls-11" d="M852.43,246q-1.14-.58-2.31-1.08a12.88,12.88,0,0,1,0-7.64,8.63,8.63,0,0,1-.32-2.43c.79,4.05,2,10.05,2.58,11.15"/><path class="cls-12" d="M850.12,244.89a58.88,58.88,0,0,0-14.48-4s4.67-8.07,10.48-11.49l3,1.66s.29,1.6.71,3.76a8.63,8.63,0,0,0,.32,2.43,12.88,12.88,0,0,0,0,7.64"/><path class="cls-11" d="M860.55,250c-1.64-1-2.72-1.58-2.72-1.58l10.53-1.08,3.83-2.79A18.77,18.77,0,0,1,860.55,250m14.16-7.28,11-8.05a32.76,32.76,0,0,1-11,8.05"/><path class="cls-12" d="M876.11,259.54A63.43,63.43,0,0,0,865,251.06a18.74,18.74,0,0,0,11.63-5.46l2.52-1.83a32.78,32.78,0,0,0,11.06-8l8.92-6.49s-2.56,17.94-23,30.3"/><path class="cls-13" d="M858.36,254.12c-9.06,21.27-19.89,108-19.89,108l-6.22,5.27-5-8.93s10.47-84,28.83-105.62a2.9,2.9,0,0,1,2.54-1.54,6.11,6.11,0,0,0-.21,2.87"/><path class="cls-14" d="M837.33,240a46.09,46.09,0,0,1,14.45-17.83c-.37,2.59-5,10.55-5,10.55L837.33,240Z"/><path class="cls-15" d="M842.47,234.37c-2.94.93-5.14,5.66-5.14,5.66s5.89-3,7.86-3.63l-2.72-2Z"/><path class="cls-13" d="M851.62,244.84s-2.77-3.52-2.69-5.34l-1.57.05c-.62,4,3.22,8.59,3.22,8.59l1.24-1.67-.2-1.63Z"/><path class="cls-7" d="M853.3,247.37s-4.62-12.41,4.53-32.59c0,0-12.44,14.1-15.36,19.59a70.61,70.61,0,0,1,10.83,13Z"/><path class="cls-13" d="M859.32,249.32s7.84-3.42,9.56-5A2.11,2.11,0,0,1,871,246.9c-5.31,4.61-12.93,5-12.93,5l-.27-1.84,1.49-.74Z"/><path class="cls-15" d="M865,246.57c-6,4.48-8.6,2.23-8.6,2.23s14.9-4.45,24-10c-3.36,6-11.3,8-11.3,8a31.2,31.2,0,0,1-4.11-.18Z"/><polygon class="cls-1" points="859.32 249.32 851.62 244.84 850.58 248.14 851.61 251.76 853.94 253.09 858.1 251.9 859.32 249.32 859.32 249.32"/><path class="cls-7" d="M899.55,227.37s-3.09-4-3.94-7.67c-7.59,16.72-26.24,27.9-26.24,27.9,4.41,3.75,7.17,10.22,7.17,10.22s20.66-16.77,23-30.45Z"/><path class="cls-4" d="M909.37,320.86c.73,17.07,7.61,37.24,7.61,37.24-9.39,3.81-21,27.41-25.4,31.1l5.19,14.13c18-11.17,38.49-20.09,43-39.67,2.41-10.21-1.77-46.48-1.77-46.48H927.2s-15.26-.89-17.83,3.68Z"/><path class="cls-4" d="M850.77,176A41.08,41.08,0,0,0,843,197.33c-.1,1.86,1.83,6,1.83,6a18.22,18.22,0,0,0-.95,7c.26,3.54,2.73,23.41,4.74,25.83s7.49,4.32,11.08,3.68c13.26-2.4,21.44-13.3,24.59-16.91,1.47-1.69,1.92-6.26,1.92-6.26a10.8,10.8,0,0,0,9.12-7.53c4.46-9.79,1.36-11.39,1.36-11.39l-13.37-15.22-20-9.15L850.77,176Z"/><path class="cls-16" d="M893.91,199.81c-5.78.69-9.38,5.58-9.38,5.58s-5.53.66-8.06-6.84c-1.45-4.31-2.22-7.77-3.24-9.14-1.52-2.06-5.19-3.34-9.18-2.93-2.56.25-5.5,4.37-4.67,9.65-13-7-28.78-38.77,19.57-33.93,24.84,2.51,22.73,26.12,22.76,31.94,0,8.67-6.43,15-6.43,15s3-9.83-1.37-9.31Z"/><path class="cls-5" d="M914.5,252.17c20.44-5.47,21.13,20.07,23.08,30.46.89,4.69,2.13,22.84,2.95,30.68,1.12,10.68-34.77,14.42-36,6.48-.84-5.75-2.21-17-2.42-23.91-.28-9.62-8.65-38.09,12.35-43.71Z"/><path class="cls-4" d="M891.58,389.2l5.83,1.84,2.22,5.33-2.86,7s-11.84,4.21-28.18,2.3c-5.57-.67-9.44-6.41-9.93-7S850,384,854,384s13.55,7,13.55,7,4.92-1.12,7.82-.14c1.06-2.48,4.36-2.51,4.36-2.51l11.87.89Z"/><path class="cls-4" d="M876,382.1s-11.42-9.14-9-11.31,18.25,4.14,21.87,12.89l-6.59,2.65L876,382.1Z"/><polygon class="cls-17" points="548.84 674.56 568.39 663.26 568.39 676.93 548.84 688.2 548.84 674.56 548.84 674.56"/><polygon class="cls-18" points="523.48 659.92 542.96 666.9 548.84 674.56 548.84 688.2 523.48 673.63 523.48 659.92 523.48 659.92"/><polygon class="cls-16" points="523.48 659.92 543.11 648.62 568.39 663.26 548.84 674.56 523.48 659.92 523.48 659.92"/><polygon class="cls-17" points="579.82 695.22 606.56 679.74 606.56 698.52 579.82 713.95 579.82 695.22 579.82 695.22"/><polygon class="cls-19" points="545.1 675.13 571.6 684.74 579.82 695.22 579.82 713.95 545.1 693.87 545.1 675.13 545.1 675.13"/><polygon class="cls-20" points="545.1 675.13 571.87 659.75 606.56 679.74 579.82 695.22 545.1 675.13 545.1 675.13"/><path class="cls-8" d="M586.61,704.31s-2.27-3.31,1-9c2.8-4.89,10.55-7.59,10.55-7.59,47,32.95,93.28,42.13,123.81,24.4,17.2-9.93,26.35-27.38,24.61-46.57-2.83-30.36-31.22-57.93-76.13-73.93l6.88-19.16c27.41,9.81,49.34,23.3,65,40.06,14.32,15.37,22.78,33.09,24.44,51.18a67.57,67.57,0,0,1-7.39,37.91,70.34,70.34,0,0,1-27.22,28.08C714.76,739.85,692.86,743.4,669,740c-26.38-3.73-54.12-15.75-82.34-35.64Z"/><polygon class="cls-17" points="484.73 711.54 504.3 700.33 504.3 713.95 484.73 725.28 484.73 711.54 484.73 711.54"/><polygon class="cls-18" points="459.49 696.97 478.82 703.92 484.73 711.54 484.73 725.28 459.49 710.64 459.49 696.97 459.49 696.97"/><polygon class="cls-16" points="459.49 696.97 479.06 685.68 504.3 700.33 484.73 711.54 459.49 696.97 459.49 696.97"/><polygon class="cls-17" points="515.57 732.16 542.46 716.78 542.35 735.46 515.63 750.95 515.57 732.16 515.57 732.16"/><polygon class="cls-19" points="480.99 712.22 507.52 721.71 515.57 732.16 515.63 750.95 480.99 730.97 480.99 712.22 480.99 712.22"/><polygon class="cls-20" points="480.99 712.22 507.78 696.73 542.46 716.78 515.57 732.16 480.99 712.22 480.99 712.22"/><path class="cls-9" d="M522.66,741.61s-2.29-3.35,1-9.1c2.84-4.86,10.49-7.56,10.49-7.56,47.05,33,93.37,42.09,123.88,24.42,17.2-10,26.35-27.37,24.66-46.57-2.83-30.32-31.3-57.94-76.16-73.91l6.76-19.18c27.55,9.79,49.44,23.29,65,40,14.4,15.41,22.92,33.15,24.55,51.23a68.58,68.58,0,0,1-7.36,37.91,69.7,69.7,0,0,1-27.29,28.06c-17.51,10.26-39.43,13.78-63.29,10.28-26.34-3.69-54.07-15.71-82.29-35.56Z"/><polygon class="cls-21" points="184.54 645.69 184.54 632.66 842.16 496.28 842.16 509.38 395.27 767.39 184.54 645.69 184.54 645.69"/><polygon class="cls-22" points="184.54 632.66 631.45 374.63 842.16 496.28 395.27 754.38 184.54 632.66 184.54 632.66"/><polygon class="cls-21" points="262.77 662.51 286.92 648.57 315.25 664.85 291.07 678.89 262.77 662.51 262.77 662.51"/><polygon class="cls-23" points="373.46 616.69 475.35 557.83 594.7 626.73 492.74 685.49 373.46 616.69 373.46 616.69"/><polygon class="cls-23" points="604.14 487.29 706.15 428.44 825.36 497.29 723.41 556.18 604.14 487.29 604.14 487.29"/><polygon class="cls-24" points="329.71 692.97 350.49 680.96 350.38 686 329.64 697.97 329.71 692.97 329.71 692.97"/><polygon class="cls-18" points="305.35 678.96 328.8 688.02 329.71 692.97 329.64 697.97 305.33 684.02 305.35 678.96 305.35 678.96"/><polygon class="cls-16" points="305.35 678.96 326.18 667.02 350.49 680.96 329.71 692.97 305.35 678.96 305.35 678.96"/><polygon class="cls-25" points="323.84 685.11 327.77 682.84 317.36 676.83 313.39 679.09 323.84 685.11 323.84 685.11"/><polygon class="cls-24" points="255.37 651.61 289.39 631.98 289.24 640.22 255.25 659.86 255.37 651.61 255.37 651.61"/><polygon class="cls-15" points="255.28 656.03 289.32 636.4 289.24 640.22 255.25 659.86 255.28 656.03 255.28 656.03"/><polygon class="cls-18" points="215.56 628.67 253.91 643.51 255.37 651.61 255.25 659.86 215.48 636.91 215.56 628.67 215.56 628.67"/><polygon class="cls-26" points="215.56 633.02 255.28 656.03 255.25 659.86 215.48 636.91 215.56 633.02 215.56 633.02"/><polygon class="cls-16" points="215.56 628.67 249.59 609.02 289.39 631.98 255.37 651.61 215.56 628.67 215.56 628.67"/><polygon class="cls-25" points="256.19 644.74 267.37 638.23 238.22 621.48 227.05 627.89 256.19 644.74 256.19 644.74"/><polygon class="cls-16" points="440.13 706.07 474.16 686.42 473.95 694.64 440 714.27 440.13 706.07 440.13 706.07"/><polygon points="400.36 683.05 438.69 697.97 440.13 706.07 440 714.27 400.26 691.32 400.36 683.05 400.36 683.05"/><polygon class="cls-18" points="400.36 683.05 434.44 663.52 474.16 686.42 440.13 706.07 400.36 683.05 400.36 683.05"/><polygon class="cls-25" points="440.22 684.71 451.38 678.27 434.69 668.71 423.49 675.1 440.22 684.71 440.22 684.71"/><polygon class="cls-16" points="616.66 611.05 650.59 591.4 650.47 599.57 616.49 619.21 616.66 611.05 616.66 611.05"/><polygon points="576.84 588.06 615.13 602.88 616.66 611.05 616.49 619.21 576.66 596.3 576.84 588.06 576.84 588.06"/><polygon class="cls-18" points="576.84 588.06 610.87 568.46 650.59 591.4 616.66 611.05 576.84 588.06 576.84 588.06"/><polygon class="cls-25" points="616.71 589.73 627.83 583.24 611.21 573.56 600.02 579.99 616.71 589.73 616.71 589.73"/><polygon class="cls-16" points="397.81 722.79 418.58 710.78 418.43 715.85 397.69 727.8 397.81 722.79 397.81 722.79"/><polygon points="358.39 700.06 391.38 714.74 397.81 722.79 397.69 727.8 358.29 705.11 358.39 700.06 358.39 700.06"/><polygon class="cls-18" points="358.39 700.06 379.18 688.04 418.58 710.78 397.81 722.79 358.39 700.06 358.39 700.06"/><polygon class="cls-16" points="669.63 584.35 690.43 572.34 690.4 577.35 669.61 589.35 669.63 584.35 669.63 584.35"/><polygon points="630.28 561.63 663.31 576.24 669.63 584.35 669.61 589.35 630.18 566.63 630.28 561.63 630.28 561.63"/><polygon class="cls-18" points="630.28 561.63 651.08 549.61 690.43 572.34 669.63 584.35 630.28 561.63 630.28 561.63"/><polygon class="cls-16" points="696.68 568.5 717.44 556.49 717.4 561.48 696.62 573.46 696.68 568.5 696.68 568.5"/><polygon points="657.37 545.73 690.43 560.42 696.68 568.5 696.62 573.46 657.33 550.76 657.37 545.73 657.37 545.73"/><polygon class="cls-18" points="657.37 545.73 678.15 533.72 717.44 556.49 696.68 568.5 657.37 545.73 657.37 545.73"/><polygon class="cls-21" points="336.38 709.66 346.12 704.06 376.83 721.78 367.07 727.37 336.38 709.66 336.38 709.66"/><path class="cls-18" d="M548.56,418.35c5.21-6.85,12.66-13.23,22.38-18.82,41.79-24.18,109.47-24.18,151.22,0,15.67,9.05,25.47,20.15,29.38,31.83L599.79,498.72s2.87-55.67-51.23-80.37M390,504c41.8-24.15,109.47-24.15,151.23,0,15.66,9.08,25.47,20.15,29.37,31.84L418.82,603.2A131.6,131.6,0,0,1,390,591.34C348.22,567.2,348.17,528,390,504m498-59.6c15.11-8.79,22-20.54,20.72-32l.06-.05V339.4l-231.4-79.48L325.82,462.13l-45.35,94.68L486.78,675.89,887.94,444.4"/><polygon points="247.42 628.09 363.4 622.12 486.78 603.02 486.78 675.89 363.4 695.02 247.42 628.09 247.42 628.09"/><path class="cls-24" d="M509.33,453l-.86-6.87H454.7l1,6.87,12.73,35.17a71.47,71.47,0,0,1,28.17,0L509.33,453Z"/><path class="cls-26" d="M508.47,446.08H454.7l12.83,35.21a69.19,69.19,0,0,1,28.15,0l12.79-35.21Z"/><path class="cls-24" d="M392.2,473.85l1,6.93,52.15,19.64s5.26-7.51,19.89-11.51l-.94-6.9-72.06-8.16Z"/><path class="cls-26" d="M430.18,451.9l-38,22,52.17,19.7S449.6,486,464.26,482L430.18,451.9Z"/><path class="cls-24" d="M571.85,480.78l-.9-6.93-72,8.16.88,6.9s13.14,3.07,20,11.51l52.08-19.64Z"/><path class="cls-26" d="M571,473.85l-38-21.91L498.92,482s13,3.09,19.94,11.54L571,473.85Z"/><path d="M453.41,540.36c16.07,9.3,42.09,9.27,58.19,0,8.17-4.76,12.21-11.05,11.89-17.31l.09,0V489.35l-82,2.19-.13,31.37h.11c-.39,6.25,3.56,12.62,11.89,17.45Z"/><path class="cls-16" d="M453.46,507c-16.1-9.24-16.1-24.23,0-33.6,16-9.21,42.09-9.21,58.14,0,16,9.37,16,24.36,0,33.6s-42.12,9.28-58.14,0Z"/><path class="cls-24" d="M382.09,519l.91,6.91,61-7.39-1-6.89s-57.38,1.64-60.93,7.37Z"/><path class="cls-26" d="M382.09,488v31L443,511.65c-1.75-6.73-1.48-16.44-1.48-16.44L382.09,488Z"/><path class="cls-24" d="M582,525.93v-31l-.93-6.93-57.53,7s5.18,9.43-3.4,16.63l.91,6.89L582,525.93Z"/><path class="cls-26" d="M581.11,519V488l-57.53,7s.84,6.62-3.4,16.63L581.11,519Z"/><polygon class="cls-24" points="533.94 561.97 571.85 540.1 570.95 533.19 498.92 525.05 499.83 531.94 533.94 561.97 533.94 561.97"/><path class="cls-26" d="M533,555.06l38-21.87-52.09-19.64s-5.34,7.51-19.94,11.5l34.08,30Z"/><polygon class="cls-24" points="393.16 540.1 431.13 561.97 465.2 531.94 464.26 525.05 392.2 533.19 393.16 540.1 393.16 540.1"/><path class="cls-26" d="M392.2,533.19l38,21.94,34.08-30.08s-13-3.11-19.92-11.5L392.2,533.19Z"/><path class="cls-24" d="M455.71,567.89h53.62l-.86-6.91s-35.4-7.18-53.77,0l1,6.91Z"/><path class="cls-26" d="M454.7,561h53.77l-12.79-35.17a71,71,0,0,1-28.15,0L454.7,561Z"/><path class="cls-24" d="M687.58,342.92l-.85-6.87H633l1,6.87L646.7,378.1a71.18,71.18,0,0,1,28.16,0l12.72-35.18Z"/><path class="cls-26" d="M686.73,336.05H633l12.82,35.2a69.21,69.21,0,0,1,28.15,0l12.8-35.2Z"/><path class="cls-24" d="M570.45,363.82l1,6.94,52.15,19.64s5.25-7.52,19.88-11.52l-.94-6.91-72.06-8.15Z"/><path class="cls-26" d="M608.43,341.88l-38,21.94,52.19,19.7S627.85,376,642.51,372l-34.08-30.09Z"/><path class="cls-24" d="M750.1,370.76l-.89-6.94-72,8.15.86,6.91s13.14,3.05,20,11.52l52.07-19.64Z"/><path class="cls-26" d="M749.21,363.82l-38-21.92L677.19,372s13,3.1,19.92,11.55l52.1-19.7Z"/><path d="M634.37,435.84c16.06,9.32,42.08,9.28,58.19,0,8.17-4.75,12.21-11.06,11.89-17.31l.09.05V384.84l-82,2.19-.13,31.36h.11c-.39,6.27,3.55,12.62,11.88,17.45Z"/><path class="cls-16" d="M634.42,402.53c-16.11-9.26-16.11-24.24,0-33.6,16-9.21,42.09-9.21,58.14,0,16,9.36,16,24.34,0,33.6s-42.13,9.28-58.14,0Z"/><path class="cls-24" d="M563.05,414.5l.92,6.91,61-7.36-1-6.92s-57.38,1.66-60.92,7.37Z"/><path class="cls-26" d="M563.05,383.46v31L624,407.13c-1.76-6.72-1.46-16.43-1.46-16.43l-59.46-7.24Z"/><path class="cls-24" d="M763,421.41v-31l-.92-7-57.53,7.07s5.18,9.41-3.41,16.6l.93,6.92L763,421.41Z"/><path class="cls-26" d="M762.07,414.5v-31l-57.53,7.07s.83,6.61-3.41,16.6l60.94,7.37Z"/><polygon class="cls-24" points="714.89 457.45 752.81 435.58 751.92 428.68 679.89 420.56 680.79 427.41 714.89 457.45 714.89 457.45"/><path class="cls-26" d="M714,450.54l38-21.86L699.82,409s-5.34,7.53-19.93,11.53l34.07,30Z"/><polygon class="cls-24" points="574.12 435.58 612.1 457.45 646.15 427.41 645.21 420.56 573.15 428.68 574.12 435.58 574.12 435.58"/><path class="cls-26" d="M573.15,428.68l38,21.94,34.08-30.06s-13-3.14-19.93-11.53l-52.13,19.65Z"/><path class="cls-24" d="M636.67,463.4h53.61l-.84-6.91s-35.41-7.19-53.78,0l1,6.91Z"/><path class="cls-26" d="M635.66,456.49h53.78L676.63,421.3a70.82,70.82,0,0,1-28.15,0l-12.82,35.22Z"/><path class="cls-16" d="M587.49,340c41.79-24.1,109.54-24.18,151.28,0s41.73,63.18-.06,87.27-109.43,24.19-151.22,0-41.81-63.15,0-87.27M409.83,442.6c41.8-24.11,109.55-24.16,151.28,0s41.72,63.21-.05,87.29-109.43,24.16-151.23,0-41.81-63.15,0-87.29m478-71.07c28-16.12,28-42.56.07-58.71l-104.6-60.38c-28-16.15-73.73-16.15-101.7,0L280.47,483.9,486.78,603,887.87,371.53"/><path class="cls-13" d="M654.63,268l9-5.13,150.05,86.65c27.36,15.83,27.36,41.54,0,57.36L480.18,599.29l-9-5.21L804.57,401.64c22.45-13,22.45-34,0-46.94L654.63,268Z"/><polygon class="cls-18" points="247.42 555.18 280.47 483.9 486.78 603.02 363.4 622.12 247.42 555.18 247.42 555.18"/><polygon class="cls-25" points="309.98 479.51 378.73 439.87 386.37 444.27 317.6 483.9 309.98 479.51 309.98 479.51"/><polygon points="363.4 622.12 247.42 555.18 247.42 628.09 363.4 695.02 363.4 622.12 363.4 622.12"/><polygon class="cls-16" points="363.4 695.02 363.4 622.12 486.78 603.02 486.78 675.89 363.4 695.02 363.4 695.02"/><path class="cls-27" d="M853.13,344.8a18.38,18.38,0,0,1-9.14-2.21c-5.07-3-5.07-7.66,0-10.58a18.29,18.29,0,0,1,9.14-2.24,18.57,18.57,0,0,1,9.2,2.24c5,2.92,5,7.68,0,10.58a18.66,18.66,0,0,1-9.2,2.21"/><path class="cls-20" d="M853.31,330.6H842.86v6.09c0,1.55,1.06,3.05,3,4.2,4.08,2.32,10.69,2.39,14.7,0,2.06-1.15,3.13-2.72,3-4.3l.09-6Z"/><path class="cls-17" d="M860.65,335.15a16.61,16.61,0,0,1-14.74,0c-4-2.42-4-6.23,0-8.54a16.17,16.17,0,0,1,14.74,0c4.06,2.31,4.06,6.15,0,8.54Z"/><path class="cls-4" d="M208.71,624.77s-1.71,7.57-2.47,11.51c-2.32,12-6.1,11.51-10,23-2.36,6.91-12.62,1.19-12.62-6.55,0-11.06-4.34-16,2.73-30.33,1.75-3.59,1.47-8.78,1.47-8.78l20.92,11.13Z"/><path class="cls-15" d="M227.57,561.42c.94-4.79,3.45-6.6,3.45-6.6l3.17,5.75-2.31,8.64h-5.37s.46-4.71,1.06-7.79Z"/><path class="cls-4" d="M279.45,516.08s5.86,12.53,2.88,20.66c-2,18.72-5.49,28.4-8.62,29.87s-7.33-.07-8.32.57-2.16,13.05-2.16,13.05L242.36,582,229,575.76l-1.23-6.43s2-4.62,2.13-13.12c1.45-8.58,7.94-28.71,7.94-28.71l41.61-11.42Z"/><path class="cls-5" d="M214,569.34c17.33,4,10.75,29.73,8.48,40.54-1.19,5.73-1.42,3.6-2.9,11.29-2,10.57-37,4.94-34.47-7.53,2-9.92.67-16.5,2.44-25.22,1.23-6,7.16-23.5,26.45-19.08Z"/><path class="cls-28" d="M335.76,900.25c8.91,1.63,18.51-.8,21.95,1.19,4.24,2.44,8.38,13.22.49,17.95-10.73,6.43-14.93,6.35-23.93,9.4-8.4,3.27-17.06,7.86-22.54,6-9.66-3.37-4.77-27.7-4.77-27.7s24.27-8.06,28.8-6.84Z"/><path class="cls-28" d="M231.16,907.18c11,3,17.52,1,23.22,4.21,4.25,2.4,5.72,8.08-2.49,12.25s-15,5.86-24,8.91c-6.51,3.37-14.19,11-20.76,9.15-12.64-3.59-1.14-20.29-.88-28.32,3.22.37,20.36-7.41,24.92-6.2Z"/><path class="cls-18" d="M216.17,723.86c-.41,25.89,5.92,81.53,0,95.94-11.39,27.73-11.49,59.67-12.66,94.31-.38,11,37.17,8.62,37.21-8.42.09-52.48,28.88-137.85,29.36-158.89l-53.91-22.94Z"/><path class="cls-16" d="M227,681.89c-6.29,9.3-15.74,42.3-7.94,53.53,8.33,12,49.29,24.77,49.29,24.77s24.21,56.13,32.87,150.46c1,11,38.51,6.44,37.64-10.56-5.95-115.18-19.48-152.8-28-183.16-4.7-16.59-4.67-26-4.67-26s-77.85-11.3-79.14-9Z"/><path class="cls-28" d="M305.13,674.69a121.88,121.88,0,0,0,1.05,16.23c1.49,10.64-26.57,14.31-40.42,12.14-29.57-4.64-39.66-16.65-38.72-21.17a131.33,131.33,0,0,0,2-16l76.09,8.79Z"/><path class="cls-10" d="M289.3,607.18s-14.77-15.08-25.66-22c-34.14-1-39.1-12.38-39.1-12.38s-17.07-.49-23.75,7.91-4,24.75,1.89,41.09,23.6,38.38,25.83,48,18.56,23.52,47.27,24.25,29-14.6,29-14.6L289.3,607.18Z"/><path class="cls-13" d="M279.45,516.08c-1.33,1.48,4.5,9.94.38,14.89s-4.3,14.18-5.45,15.51-3.85-4.19-6.6-1.33c-4.14,4.31-4.45,15.34-4.45,15.34s-2.29,8-12.06,8.27c-17.32.57-21.66-8.7-21.66-8.7s-13.35-18.24-6.07-39.84,33.18-17.14,47.2-18.63c10.65-1.13,11.51,9.87,8.71,14.49Z"/><path class="cls-1" d="M252.77,516.85c-.37,3,26.68-.77,26.68-.77s-26.32-2.18-26.68.77Z"/><path class="cls-4" d="M319.84,658.93a99.43,99.43,0,0,1,12.87,24.51c9.16,8.73,30.27,46.2,41.83,56.91,4.74-.78,27.95-.61,28.81,4.84.51,3-11.35,2-11.55,3.29,2.95,7,22.82,4.46,24.44,7.92S399.08,770.09,393,770.09s-26-13-28.58-15.75c-17.07-17.89-47.77-36.75-55.7-58.53-1.92-5.3-10.88-14-14.48-21.53,7.19-2.6,19.08-9.78,25.63-15.35Z"/><path class="cls-5" d="M273.31,606.21c15.29-9.09,28.3,14.1,34.11,23.49,3.09,5,10.89,19.33,15.12,25.93,5.81,9.06-26.56,28.36-31.42,19.5s-16.91-25.3-21.63-32.85c-3.23-5.14-13.19-26,3.82-36.07Z"/><path class="cls-15" d="M223.44,572.79s-5.74,10.9,16.71,16.54c19.8,5,26.46-2.15,26.46-2.15l-43.17-14.39Z"/><path class="cls-10" d="M227.57,561.42s-1.6,6.86-3.72,9.28c-5.1,17.63,34.48,23.13,45.75,14.85,0,0-3.8-7.89-4.11-10.47-27.79,7.19-39.31-4.7-37.92-13.66Z"/></svg>