<?xml version="1.0" encoding="utf-8"?>
<!-- Generator: Adobe Illustrator 25.2.1, SVG Export Plug-In . SVG Version: 6.00 Build 0)  -->
<svg version="1.1" id="Layer_1" xmlns="http://www.w3.org/2000/svg" xmlns:xlink="http://www.w3.org/1999/xlink" x="0px" y="0px"
	 viewBox="0 0 1080 1080" style="enable-background:new 0 0 1080 1080;" xml:space="preserve">
<style type="text/css">
	.st0{fill:#255277;}
	.st1{clip-path:url(#SVGID_2_);}
	.st2{clip-path:url(#SVGID_4_);}
	.st3{fill:#BCBEC0;}
	.st4{fill:#F0C6B5;}
	.st5{fill:#E6E7E8;}
	.st6{fill:#C7A597;}
	.st7{fill:#603A17;}
	.st8{fill:#131315;}
	.st9{fill:#303033;}
	.st10{fill:#231F20;}
	.st11{fill:#8B7269;}
	.st12{fill:#B2B3B3;}
	.st13{fill:#F5841F;}
	.st14{fill:#D1D3D4;}
	.st15{fill:#F5F5F5;}
	.st16{fill:#B96228;}
	.st17{fill:#0A8074;}
	.st18{fill:#30D8F1;}
	.st19{fill:#4BC1B7;}
	.st20{fill:#535359;}
	.st21{fill:#E6DAB0;}
	.st22{fill:#939598;}
	.st23{fill:#0E7570;}
	.st24{clip-path:url(#SVGID_6_);}
	.st25{clip-path:url(#SVGID_8_);}
</style>
<path class="st0" d="M612.2,995.3c-21.4,0-47.4-2.8-75.6-8.7c-20.8-4.3-41.2-10.1-61.2-17.2l57-32.9l100.3,57.8
	C625.9,995,619,995.3,612.2,995.3 M639.3,991.1L538.5,933l32.9-19c55.3,16.8,96.3,40.8,97.6,59.4c0,0.2,0,0.4,0,0.6L639.3,991.1
	 M653.5,989.9l11.4-6.6C662.3,986,658.4,988.2,653.5,989.9 M468,966.6c-40.5-15.6-68.4-34.5-69.4-49.8c-1-14.2,21.5-21.9,56.6-21.9
	c1.8,0,3.5,0,5.4,0.1l65.8,38L468,966.6 M532.4,929.5l-58.7-33.9c19.2,1.4,38.3,4.1,57.2,8.1c11.1,2.3,22,5,32.4,8L532.4,929.5"/>
<g>
	<defs>
		<path id="SVGID_1_" d="M632.7,994.3l-100.2-57.8l-57,32.9c-2.5-0.9-4.9-1.8-7.4-2.7l58.3-33.6l-65.8-38c4.2,0.1,8.6,0.3,13.1,0.6
			l58.7,33.9l30.9-17.8c2.7,0.8,5.4,1.5,8,2.3l-32.9,19l100.8,58.2L669,974c0,3.5-1.4,6.9-4,9.3l-11.4,6.6
			C646.8,992.1,639.8,993.6,632.7,994.3"/>
	</defs>
	<clipPath id="SVGID_2_">
		<use xlink:href="#SVGID_1_"  style="overflow:visible;"/>
	</clipPath>
	<g class="st1">
		<g>
			<defs>
				<rect id="SVGID_3_" x="460.6" y="895" width="208.4" height="99.3"/>
			</defs>
			<clipPath id="SVGID_4_">
				<use xlink:href="#SVGID_3_"  style="overflow:visible;"/>
			</clipPath>
			<g class="st2">
				
					<image style="overflow:visible;enable-background:new    ;" width="54" height="27" xlink:href="B52CD691.png"  transform="matrix(4.4296 0 0 -4.4296 448.41 1006.69)">
				</image>
			</g>
		</g>
	</g>
</g>
<path class="st3" d="M581.9,431.7c0,0,7.3-12.4,25.3-1.6c14.6,8.8,10.9,18.6,10.9,18.6l-9.9,16.1l-26-4.9l-3.5-14.5L581.9,431.7
	L581.9,431.7z"/>
<path class="st4" d="M581.9,431.7c0,0,10.7-17.7,15.8-27.7c5.5-25.1,26.1-81.6,26.1-81.6s-8.6-17.1-8.7-20.4s2-22.5,5.8-23.2
	s3,16,3.8,16.3c5.4-2.1,6.1-12.8,6.1-12.8s-0.1-19.6,5.7-21.1s17.4,23.8,17.3,29s-12.1,37.1-12.1,37.1s-0.4,64.9-12.2,86.5
	c-4.4,8-25.7,53.6-25.7,53.6l-28-14.4L581.9,431.7L581.9,431.7z"/>
<path class="st5" d="M560.8,512.8c-18.7-8.7-11.9-30.7-9-36.6c7.9-16.1,25.5-32.9,30-44.5c-3.2,13.5,18.8,35.6,36.3,17
	c-4.5,11.8-24.2,51.2-26.9,67.1C589.1,528.3,581.6,522.5,560.8,512.8"/>
<path class="st6" d="M510.1,471.7c1,5,1.6,10.1,1.8,15.2l2.4,16.8l26.1,28l29.9-5.8v-23.1l-17.2-42.8l-38.5,1.6
	C514.7,461.5,512.3,469,510.1,471.7"/>
<path class="st7" d="M625,937c6.6,5.6,16,13.9,36.4,23.7c4.9,2.3,6.7,20.7-0.1,21.3c-4.8,0.4-11,0.4-21.3-2.1s-22.8-12.1-22.8-12.1
	s-21.3-1.8-25.7-6.1c-3.4-3.4-1.7-23.5-1.7-23.5S622.1,935.5,625,937z"/>
<path class="st8" d="M590.4,636.5c31.8,93.2,30.1,219.5,39.2,297.6c1.6,13.5-50.7,21-50.7,0c0-110.7-38.9-213.7-40.5-235
	S585.4,627.7,590.4,636.5L590.4,636.5z"/>
<path class="st7" d="M441.6,888.7c0.9,16.6,17.6,33,21.4,38.8c2.3,3.6,2.9,11.9-2.4,14.3s-20.4,6.3-29.8-0.7
	c-8.4-6.3-29.2-36.2-31.2-42.5c-5.9-19.4,11.2-26.7,11.2-26.7S441.7,885.8,441.6,888.7L441.6,888.7z"/>
<path class="st9" d="M495.1,646.3c-26.8,29-27.6,134.8-34.1,156.9c-20.1,14.6-36.6,42.9-49.3,61.8c-13.8,20.5,25,49.8,36.4,28.5
	c21.4-40.1,49.6-57.4,54.3-69.5c13.8-35.9,37.8-103,37.8-103s48.3-37.7,50.2-84.4C591.7,626.3,497.7,643.4,495.1,646.3L495.1,646.3z
	"/>
<path class="st7" d="M591.3,621.7l-0.9,14.8c0,0-26.5,27.2-69.8,22.6c-20.5-2.2-25.5-12.8-25.5-12.8l3.1-11.8L591.3,621.7
	L591.3,621.7z"/>
<path class="st10" d="M473.2,522.2c4.6-5.4,24.8-19.6,33.5-28.9l31.2,25.6l18.4,3.5l2-4.6l-2.4-39.4h8.5c0,0,39.5,18.1,35.6,73.2
	c-2.5,35.1-8.3,58.8-7.7,67.9s-33.1,28.6-61.8,28.6c-22.7,0-32.3-9-33.5-15.7c-3.2-19-27.2-58.4-30.9-67S478,533,473.2,522.2"/>
<path class="st11" d="M558,517c0.1-0.2,0.2-0.4,0.2-0.5v0.4L558,517"/>
<path class="st12" d="M558.2,516.9v-0.4c1.2-3.5,3.8-17.9,3.8-17.9l3.7-2c7.2,4.2,13,14.2,13,14.2
	C571.7,511.7,564.8,513.8,558.2,516.9"/>
<path class="st11" d="M549.5,521.1l-11.6-2.2l-5.2-4.3l5.7,4.1l13,1.4C551.3,520.1,550.6,520.4,549.5,521.1"/>
<path class="st12" d="M534.2,532.5c-25.3-15.3-28.4-37.5-28.4-37.5l26.9,19.5l5.2,4.3l11.6,2.2C543.9,524.3,538.8,528.1,534.2,532.5
	"/>
<path class="st13" d="M556.1,525.8c11.2,26.3,8.7,133.5,8.7,133.5l7.7,6.5l6.2-11.1c0,0,3-103.8-19.8-130.6
	c-0.6-1.2-1.8-1.9-3.1-1.9C555.9,522.2,556.6,524.6,556.1,525.8L556.1,525.8z"/>
<path class="st14" d="M576.6,509.6c0,0-5.5-13.3-17.8-22.1c0.4,3.2,6.1,13.1,6.1,13.1L576.6,509.6z"/>
<path class="st3" d="M570.3,502.7c3.6,1.1,6.3,7,6.3,7s-7.3-3.7-9.7-4.5L570.3,502.7L570.3,502.7z"/>
<path class="st13" d="M559,515.6c0,0,3.4-4.4,3.3-6.6l2,0.1c0.8,5-4,10.6-4,10.6l-1.5-2L559,515.6L559,515.6z"/>
<path class="st15" d="M556.9,518.7c0,0,5.7-15.3-5.6-40.3c0,0,15.4,17.5,19,24.2C565.2,507.5,560.7,512.8,556.9,518.7L556.9,518.7z"
	/>
<path class="st13" d="M549.5,521.1c0,0-9.7-4.2-11.8-6.2c-2.4-0.3-3.1,2.7-2.7,3.2c6.5,5.7,16,6.2,16,6.2l0.3-2.3L549.5,521.1
	L549.5,521.1z"/>
<path class="st3" d="M542.5,517.7c7.5,5.6,10.6,2.8,10.6,2.8s-18.4-5.5-29.7-12.4c4.2,7.4,14,9.8,14,9.8
	C539.1,518,540.8,517.9,542.5,517.7L542.5,517.7z"/>
<polygon class="st16" points="549.5,521.1 559,515.6 560.2,519.7 559,524.2 556.1,525.8 551,524.3 549.5,521.1 "/>
<path class="st15" d="M505.2,492.7c0,0,3.8-4.9,4.9-9.5c9.4,20.6,32.4,34.5,32.4,34.5c-5.5,4.7-8.8,12.6-8.8,12.6
	S508.1,509.6,505.2,492.7z"/>
<path class="st4" d="M545,409.4c19.7,8.2,18,28,18.5,31.1c2.9,3.5,7.2,39.6,6.8,41.7c-0.8,3.2-5.4,7.3-10.8,7.8
	c-15.6,1.2-32.8-6.5-37-10.1c-2.9-2.4-5.5-8.4-5.5-8.4s-6.5,4-9.8-1.3c-8.7-11.6-11.8-25.8-11.8-25.8l9.6-23.1l19.8-14.1
	C524.8,407.2,541.9,408.5,545,409.4L545,409.4z"/>
<path class="st3" d="M446.3,506.2c0,0-3.5-11.5,15.4-20.8c20.8-10.2,26.9,4.8,26.9,4.8l1.9,19.1l-16.2,13.9l-20.5-3.2L446.3,506.2
	L446.3,506.2z"/>
<path class="st4" d="M452.5,514.7c0,0-3.3-10.2-6.2-22s-3.6-55.1-7.9-75.7c6,0.9,17.9-2.3,20.4-4.6c5.5,16.2,17,44.5,19,70.3
	c4.1,3.9,11.5,20.6,11.5,20.6l-7.9,14.9l-19.6,4.1L452.5,514.7L452.5,514.7z"/>
<path class="st5" d="M485.7,569.2c-19.8,6-29.3-15-31-21.4c-4.8-17.3-3.9-30-8.4-41.6c6.6,12.2,41.7,9.5,42.3-16
	c4.5,11.8,11.3,30.3,14.3,38.6C507.2,540.8,507.8,562.6,485.7,569.2L485.7,569.2z"/>
<path class="st7" d="M507.1,470.2c0,0-8.3-14.9-4-18.7s9.6,3,9.6,3c1.1-2.7,2.1-5.5,2.9-8.3c0.7-3,3.4-4.4,4.8-7.1
	s-0.6-7.9,0.6-10.2s29.6-4.9,32.5-14.5c1.3-4.2-29-25.8-55.5,1.8C473.9,441.2,507.1,470.2,507.1,470.2L507.1,470.2z"/>
<path class="st4" d="M438.4,417c0,0-18.7-8.5-22.9-11.4s-10.7-12.8-11.7-14.1s-2.8-15.7,0.6-16.2c5.2-0.8,20.3,3.9,24,7.3
	s4.6,11.6,4.6,11.6c8,3.1,15.6,7.1,22.7,11.8c2.3,1.5,3.1,6.4,3.1,6.4l-2.4,5.9L443,421L438.4,417L438.4,417z"/>
<polyline class="st17" points="208,386.1 208,378.3 801.5,255.2 801.5,263 398.2,495.9 208,386.1 "/>
<polyline class="st18" points="208,378.3 611.3,145.4 801.5,255.2 398.2,488.1 208,378.3 "/>
<polygon class="st17" points="278.6,405.2 300.5,392.6 326.1,407.3 304.2,420 278.6,405.2 "/>
<polyline class="st19" points="378.5,363.8 470.5,310.7 578.2,372.9 486.2,426 378.5,363.8 "/>
<polyline class="st19" points="586.7,247.1 678.7,194 786.3,256.1 694.3,309.2 586.7,247.1 "/>
<polygon class="st20" points="339.1,432.7 357.8,421.9 357.7,426.4 339,437.2 339.1,432.7 "/>
<polygon class="st8" points="317.1,420 338.2,428.2 339.1,432.7 339,437.2 317.1,424.6 317.1,420 "/>
<polygon class="st9" points="317.1,420 335.9,409.2 357.8,421.9 339.1,432.7 317.1,420 "/>
<polygon class="st21" points="333.7,425.6 337.3,423.5 327.9,418.1 324.3,420.1 333.7,425.6 "/>
<polygon class="st20" points="336.4,379.1 366.1,362.1 366,366.6 336.3,383.6 336.4,379.1 "/>
<polygon class="st8" points="314.4,366.4 335.5,374.6 336.4,379.1 336.3,383.6 314.4,371 314.4,366.4 "/>
<polygon class="st9" points="314.4,366.4 344.1,349.5 366.1,362.1 336.4,379.1 314.4,366.4 "/>
<polygon class="st21" points="331,372 334.6,369.9 325.2,364.5 321.6,366.6 331,372 "/>
<polygon class="st20" points="574.2,233.5 592.9,222.7 592.9,227.2 574.1,238 574.2,233.5 "/>
<polygon class="st8" points="552.3,220.9 573.3,229 574.2,233.5 574.1,238 552.2,225.4 552.3,220.9 "/>
<polygon class="st9" points="552.3,220.9 571,210 592.9,222.7 574.2,233.5 552.3,220.9 "/>
<polygon class="st21" points="568.8,226.4 572.4,224.3 563,218.9 559.4,221 568.8,226.4 "/>
<polygon class="st20" points="272,395.4 302.7,377.7 302.5,385.1 271.9,402.8 272,395.4 "/>
<polygon class="st3" points="271.9,399.4 302.6,381.6 302.5,385.1 271.9,402.8 271.9,399.4 "/>
<polygon class="st8" points="236.1,374.6 270.7,388.1 272,395.4 271.9,402.8 236,382 236.1,374.6 "/>
<polygon class="st22" points="236,378.6 271.9,399.4 271.9,402.8 236,382 236,378.6 "/>
<polygon class="st9" points="236.1,374.6 266.8,356.9 302.7,377.7 272,395.4 236.1,374.6 "/>
<polygon class="st21" points="272.7,389.1 282.8,383.3 256.5,368.2 246.4,374 272.7,389.1 "/>
<polygon class="st20" points="465,277.8 538.5,235.3 538.4,242.6 464.9,285.1 465,277.8 "/>
<polygon class="st3" points="465,281.7 538.5,239.2 538.4,242.6 464.9,285.1 465,281.7 "/>
<polygon class="st8" points="429.1,257 463.7,270.4 465,277.8 464.9,285.1 429,264.4 429.1,257 "/>
<polygon class="st22" points="429.1,260.9 465,281.7 464.9,285.1 429,264.4 429.1,260.9 "/>
<polygon class="st9" points="429.1,257 502.6,214.5 538.5,235.3 465,277.8 429.1,257 "/>
<polygon class="st21" points="465.8,271.5 475.9,265.6 449.6,250.5 439.5,256.3 465.8,271.5 "/>
<polygon class="st9" points="438.8,444.5 469.4,426.8 469.2,434.2 438.6,451.9 438.8,444.5 "/>
<polygon points="402.8,423.7 437.4,437.2 438.8,444.5 438.6,451.9 402.7,431.2 402.8,423.7 "/>
<polygon class="st8" points="402.8,423.7 433.5,406.1 469.4,426.8 438.8,444.5 402.8,423.7 "/>
<polygon class="st21" points="438.8,425.2 448.9,419.4 433.8,410.7 423.7,416.5 438.8,425.2 "/>
<polygon class="st9" points="376.3,417 419.2,392.3 419,402.6 376.2,427.4 376.3,417 "/>
<polygon points="326.2,388.1 374.5,406.8 376.3,417 376.2,427.4 326.1,398.5 326.2,388.1 "/>
<polygon class="st8" points="326.2,388.1 369.1,363.4 419.2,392.3 376.3,417 326.2,388.1 "/>
<polygon class="st9" points="576.2,304.9 619.1,280.2 618.9,290.6 576,315.3 576.2,304.9 "/>
<polygon points="526,276 574.3,294.7 576.2,304.9 576,315.3 525.9,286.4 526,276 "/>
<polygon class="st8" points="526,276 569,251.3 619.1,280.2 576.2,304.9 526,276 "/>
<polygon class="st9" points="403.1,324.8 432.9,307.5 432.8,314.8 402.9,332 403.1,324.8 "/>
<polygon points="368.1,304.6 401.8,317.7 403.1,324.8 402.9,332 368,311.8 368.1,304.6 "/>
<polygon class="st8" points="368.1,304.6 398,287.4 432.9,307.5 403.1,324.8 368.1,304.6 "/>
<polygon class="st9" points="597.9,358.7 628.6,341 628.5,348.4 597.8,366.1 597.9,358.7 "/>
<polygon points="562,338 596.6,351.4 597.9,358.7 597.8,366.1 561.9,345.4 562,338 "/>
<polygon class="st8" points="562,338 592.7,320.3 628.6,341 597.9,358.7 562,338 "/>
<polygon class="st21" points="598,339.5 608.1,333.6 593,325 583,330.8 598,339.5 "/>
<polygon class="st9" points="400.5,459.6 419.2,448.8 419.1,453.3 400.4,464.1 400.5,459.6 "/>
<polygon points="365,439.1 394.8,452.3 400.5,459.6 400.4,464.1 364.8,443.6 365,439.1 "/>
<polygon class="st8" points="365,439.1 383.7,428.2 419.2,448.8 400.5,459.6 365,439.1 "/>
<polyline class="st9" points="628.1,181.7 646.8,170.8 646.8,175.4 628,186.2 628.1,181.7 "/>
<polygon points="592.6,161.2 622.4,174.4 628.1,181.7 628,186.2 592.5,165.7 592.6,161.2 "/>
<polygon class="st8" points="592.6,161.2 611.3,150.3 646.8,170.8 628.1,181.7 592.6,161.2 "/>
<polygon class="st9" points="307.4,358 278.6,341.4 278.8,348.3 307.5,364.9 307.4,358 "/>
<polygon points="362,326.5 316.2,346.8 307.4,358 307.5,364.9 362.1,333.4 362,326.5 "/>
<polygon class="st8" points="362,326.5 333.2,309.9 278.6,341.4 307.4,358 362,326.5 "/>
<polygon class="st9" points="594.9,207 625.7,189.2 625.5,196.6 594.8,214.4 594.9,207 "/>
<polygon points="559,186.2 593.6,199.6 594.9,207 594.8,214.4 558.9,193.6 559,186.2 "/>
<polygon class="st8" points="559,186.2 589.7,168.5 625.7,189.2 594.9,207 559,186.2 "/>
<polygon class="st21" points="595,187.7 605,181.9 590,173.2 579.9,179 595,187.7 "/>
<polygon class="st9" points="645.8,334.6 664.5,323.9 664.5,328.3 645.7,339.2 645.8,334.6 "/>
<polygon points="610.2,314.1 640.1,327.4 645.8,334.6 645.7,339.2 610.2,318.7 610.2,314.1 "/>
<polygon class="st8" points="610.2,314.1 629,303.3 664.5,323.9 645.8,334.6 610.2,314.1 "/>
<polygon class="st9" points="670.2,320.3 689,309.5 688.9,314.1 670.2,324.9 670.2,320.3 "/>
<polygon points="634.7,299.8 664.5,313 670.2,320.3 670.2,324.9 634.6,304.4 634.7,299.8 "/>
<polygon class="st8" points="634.7,299.8 653.5,289 689,309.5 670.2,320.3 634.7,299.8 "/>
<polygon class="st17" points="345.1,447.8 353.9,442.7 381.6,458.7 372.7,463.8 345.1,447.8 "/>
<polygon class="st20" points="485.1,396.5 555.4,355.8 555.1,372.8 484.8,413.4 485.1,396.5 "/>
<polygon class="st3" points="485,405.5 555.3,364.9 555.1,372.8 484.8,413.4 485,405.5 "/>
<polygon class="st8" points="402.8,349 482,379.7 485.1,396.5 484.8,413.4 402.6,365.8 402.8,349 "/>
<polygon class="st22" points="402.6,358 485,405.5 484.8,413.4 402.6,365.8 402.6,358 "/>
<polygon class="st9" points="402.8,349 473.2,308.3 555.4,355.8 485.1,396.5 402.8,349 "/>
<polygon class="st20" points="496.4,376.4 519.5,363.1 459.3,328.3 436.1,341.6 496.4,376.4 "/>
<polygon class="st20" points="695.1,282.1 765.4,241.5 765.1,258.4 694.8,299 695.1,282.1 "/>
<polygon class="st3" points="694.9,291.2 765.3,250.5 765.1,258.4 694.8,299 694.9,291.2 "/>
<polygon class="st8" points="612.8,234.6 692,265.3 695.1,282.1 694.8,299 612.5,251.5 612.8,234.6 "/>
<polygon class="st22" points="612.6,243.6 694.9,291.2 694.8,299 612.5,251.5 612.6,243.6 "/>
<polygon class="st9" points="612.8,234.6 683.1,194 765.4,241.5 695.1,282.1 612.8,234.6 "/>
<path class="st23" d="M495.8,303.8c-1.7,0-3.3-0.4-4.8-1.2c-2.4-1.4-2.6-3.5-0.7-5.1v2c0.1,1,0.7,1.8,1.6,2.2c2.4,1.2,5.3,1.2,7.8,0
	c0.9-0.4,1.5-1.3,1.6-2.2v-2c2,1.5,1.8,3.7-0.6,5.1C499.1,303.5,497.5,303.9,495.8,303.8"/>
<path class="st16" d="M501.2,286.5v13c-0.1,1-0.7,1.8-1.6,2.2c-2.4,1.2-5.3,1.2-7.8,0c-0.9-0.4-1.5-1.3-1.6-2.2v-13H501.2"/>
<path class="st13" d="M491.9,288.7c2.4,1.2,5.3,1.2,7.8,0c2.1-1.2,2.1-3.2,0-4.4c-2.4-1.2-5.3-1.2-7.8,0
	C489.7,285.5,489.7,287.5,491.9,288.7z"/>
<path class="st23" d="M508.7,310.7c-1.7,0-3.4-0.4-4.8-1.2c-2.6-1.5-2.6-4,0-5.6c1.5-0.8,3.2-1.2,4.8-1.1c1.7,0,3.3,0.4,4.8,1.1
	c2.7,1.5,2.7,4.1,0,5.6C512,310.4,510.4,310.8,508.7,310.7"/>
<path class="st16" d="M514.1,293.4v13c-0.1,1-0.7,1.9-1.6,2.3c-2.4,1.2-5.3,1.2-7.7,0c-0.9-0.4-1.6-1.3-1.6-2.3v-13H514.1z"/>
<path class="st13" d="M504.8,295.6c2.4,1.2,5.3,1.2,7.7,0c2.1-1.2,2.1-3.2,0-4.4c-2.4-1.3-5.3-1.3-7.7,0
	C502.6,292.4,502.6,294.4,504.8,295.6z"/>
<path class="st23" d="M522.3,318.9c-1.7,0-3.3-0.4-4.8-1.2c-2.3-1.4-2.6-3.5-0.8-5v1.9c0.1,1,0.7,1.8,1.6,2.2c2.4,1.2,5.3,1.2,7.7,0
	c0.9-0.4,1.6-1.2,1.7-2.2v-2c2,1.5,1.8,3.7-0.6,5.1C525.6,318.6,524,319,522.3,318.9"/>
<path class="st16" d="M527.8,301.6v13.1c-0.1,1-0.7,1.8-1.7,2.2c-2.4,1.2-5.3,1.2-7.7,0c-0.9-0.4-1.5-1.2-1.6-2.2v-13.1H527.8"/>
<path class="st13" d="M518.4,303.8c2.4,1.3,5.3,1.3,7.7,0c2.2-1.2,2.2-3.2,0-4.4c-2.4-1.2-5.3-1.2-7.7,0
	C516.2,300.6,516.2,302.6,518.4,303.8z"/>
<path class="st23" d="M535.2,325.8c-1.7,0-3.3-0.4-4.8-1.2c-2.6-1.5-2.6-4,0-5.5c3-1.6,6.6-1.6,9.6,0c2.6,1.5,2.6,4,0,5.5
	C538.6,325.5,536.9,325.9,535.2,325.8"/>
<path class="st16" d="M540.6,308.6v13c-0.1,1-0.7,1.9-1.6,2.2c-2.4,1.2-5.3,1.2-7.8,0c-0.9-0.4-1.5-1.3-1.6-2.2v-13H540.6z"/>
<path class="st13" d="M531.2,310.8c2.4,1.2,5.3,1.2,7.8,0c2.2-1.3,2.2-3.2,0-4.5c-2.4-1.2-5.3-1.2-7.8,0
	C529.1,307.6,529.1,309.5,531.2,310.8z"/>
<path class="st23" d="M644.2,192.6c-1.7,0-3.3-0.4-4.8-1.2c-2.4-1.4-2.6-3.5-0.7-5.1v2c0.1,1,0.7,1.8,1.6,2.2c2.4,1.2,5.3,1.2,7.7,0
	c0.9-0.4,1.5-1.2,1.6-2.2v-2.1c2,1.6,1.8,3.8-0.6,5.2C647.6,192.2,645.9,192.6,644.2,192.6"/>
<path class="st16" d="M649.6,175.3v13c-0.1,1-0.7,1.8-1.6,2.2c-2.4,1.2-5.3,1.2-7.7,0c-0.9-0.4-1.5-1.2-1.6-2.2v-13H649.6"/>
<path class="st13" d="M640.3,177.5c2.4,1.3,5.3,1.3,7.7,0c2.1-1.2,2.1-3.2,0-4.5c-2.4-1.2-5.3-1.2-7.7,0
	C638.1,174.3,638.1,176.3,640.3,177.5z"/>
<path class="st23" d="M657.1,199.5c-1.7,0-3.3-0.4-4.8-1.1c-2.7-1.6-2.7-4,0-5.6c3-1.5,6.6-1.5,9.6,0c2.7,1.5,2.7,4,0,5.6
	C660.4,199.2,658.8,199.6,657.1,199.5"/>
<path class="st16" d="M662.5,182.2v13.1c-0.1,1-0.7,1.8-1.6,2.2c-2.4,1.2-5.3,1.2-7.8,0c-0.9-0.4-1.5-1.2-1.6-2.2v-13.1H662.5z"/>
<path class="st13" d="M653.1,184.5c2.4,1.2,5.3,1.2,7.8,0c2.2-1.2,2.2-3.2,0-4.5c-2.4-1.2-5.3-1.2-7.8,0
	C651,181.2,651,183.2,653.1,184.5z"/>
<path class="st23" d="M372.1,347.8c-1.7,0-3.3-0.4-4.8-1.2c-2.4-1.4-2.6-3.5-0.8-5v1.9c0.1,1,0.7,1.8,1.6,2.3
	c1.2,0.6,2.5,0.9,3.9,0.9c1.4,0,2.7-0.3,3.9-0.9c0.9-0.4,1.5-1.3,1.6-2.3v-2.1c2.1,1.5,1.9,3.8-0.5,5.2
	C375.4,347.4,373.8,347.9,372.1,347.8"/>
<path class="st16" d="M377.5,330.5v13c-0.1,1-0.7,1.8-1.6,2.3c-2.4,1.2-5.3,1.2-7.8,0c-0.9-0.4-1.5-1.3-1.6-2.3v-13H377.5"/>
<path class="st13" d="M368.1,332.7c2.4,1.3,5.3,1.3,7.8,0c2.1-1.2,2.1-3.2,0-4.5c-2.4-1.2-5.3-1.2-7.8,0
	C366,329.5,366,331.5,368.1,332.7z"/>
<path class="st23" d="M385,354.7c-1.7,0-3.3-0.4-4.8-1.1c-2.7-1.5-2.7-4,0-5.6c3-1.5,6.6-1.5,9.6,0c2.7,1.6,2.7,4,0,5.6
	C388.3,354.4,386.7,354.8,385,354.7"/>
<path class="st16" d="M390.4,337.4v13c-0.1,1-0.7,1.8-1.6,2.2c-2.4,1.2-5.3,1.2-7.7,0c-0.9-0.4-1.5-1.3-1.6-2.2v-13H390.4z"/>
<path class="st13" d="M381,339.6c2.4,1.3,5.3,1.3,7.7,0c2.2-1.2,2.2-3.2,0-4.5c-2.4-1.2-5.3-1.2-7.7,0
	C378.8,336.4,378.9,338.4,381,339.6z"/>
<path class="st23" d="M403.4,276.3c-1.7,0-3.3-0.4-4.8-1.1c-2.4-1.4-2.6-3.5-0.7-5.1v2c0.1,1,0.7,1.8,1.6,2.2c2.4,1.2,5.3,1.2,7.8,0
	c0.9-0.4,1.5-1.3,1.6-2.2V270c2,1.5,1.9,3.8-0.6,5.2C406.7,276,405,276.3,403.4,276.3"/>
<path class="st16" d="M408.8,259v13c-0.1,1-0.7,1.8-1.6,2.2c-2.4,1.2-5.3,1.2-7.8,0c-0.9-0.4-1.5-1.2-1.6-2.2v-13H408.8"/>
<path class="st13" d="M399.4,261.3c2.4,1.2,5.3,1.2,7.8,0c2.1-1.2,2.1-3.2,0-4.5c-2.5-1.2-5.3-1.2-7.8,0
	C397.3,258,397.3,260,399.4,261.3z"/>
<path class="st23" d="M416.3,283.3c-1.7,0-3.3-0.4-4.8-1.1c-2.7-1.5-2.7-4.1,0-5.6c1.5-0.8,3.1-1.2,4.8-1.2c1.7,0,3.3,0.4,4.8,1.2
	c2.7,1.5,2.7,4,0,5.6C419.6,283,417.9,283.3,416.3,283.3"/>
<path class="st16" d="M421.7,266v13c-0.1,1-0.7,1.8-1.7,2.2c-2.4,1.2-5.3,1.2-7.8,0c-0.9-0.4-1.5-1.2-1.6-2.2v-13H421.7z"/>
<path class="st13" d="M412.3,268.2c2.4,1.2,5.3,1.2,7.8,0c2.2-1.2,2.2-3.2,0-4.5c-2.4-1.2-5.3-1.2-7.8,0
	C410.1,265,410.2,267,412.3,268.2z"/>
<path class="st0" d="M512.4,200.7c0.2-0.2,0.4-0.4,0.6-0.6v0.2L512.4,200.7"/>
<g>
	<defs>
		<path id="SVGID_5_" d="M511.8,202.9c-0.2-0.8,0.1-1.6,0.6-2.2l0.6-0.4v1.7c0,0.1,0,0.1,0,0.2L511.8,202.9"/>
	</defs>
	<clipPath id="SVGID_6_">
		<use xlink:href="#SVGID_5_"  style="overflow:visible;"/>
	</clipPath>
	<g class="st24">
		<g>
			<defs>
				<rect id="SVGID_7_" x="511.6" y="200.3" width="1.4" height="2.6"/>
			</defs>
			<clipPath id="SVGID_8_">
				<use xlink:href="#SVGID_7_"  style="overflow:visible;"/>
			</clipPath>
			<g class="st25">
				
					<image style="overflow:visible;enable-background:new    ;" width="9" height="6" xlink:href="B52CD693.png"  transform="matrix(3.8333 0 0 -3.8333 500.46 215.51)">
				</image>
			</g>
		</g>
	</g>
</g>
<path class="st23" d="M518.6,206.3c-1.7,0-3.3-0.4-4.8-1.2c-0.9-0.5-1.6-1.3-1.9-2.2l1.2-0.7c0.2,0.9,0.8,1.7,1.6,2.1
	c1.2,0.6,2.5,0.9,3.8,0.9c1.4,0,2.7-0.3,3.9-0.9c0.9-0.4,1.5-1.3,1.6-2.3v-2c2,1.5,1.8,3.7-0.6,5.2
	C521.9,206,520.3,206.4,518.6,206.3"/>
<path class="st16" d="M524,189v13c-0.1,1-0.7,1.8-1.6,2.2c-2.4,1.2-5.3,1.2-7.8,0c-0.9-0.4-1.6-1.3-1.7-2.2v-13H524"/>
<path class="st13" d="M514.6,191.2c2.4,1.2,5.3,1.2,7.8,0c2.1-1.3,2.1-3.2,0-4.5c-2.4-1.2-5.3-1.2-7.8,0
	C512.5,188,512.5,190,514.6,191.2z"/>
<path class="st23" d="M531.4,213.2c-1.7,0-3.3-0.4-4.8-1.2c-2.7-1.5-2.7-4,0-5.6c1.5-0.8,3.1-1.2,4.8-1.1c1.7,0,3.3,0.4,4.8,1.1
	c2.7,1.6,2.7,4.1,0,5.6C534.8,212.9,533.1,213.3,531.4,213.2"/>
<path class="st16" d="M536.8,195.9V209c-0.1,1-0.7,1.8-1.6,2.2c-2.4,1.2-5.3,1.2-7.8,0c-0.9-0.4-1.5-1.2-1.6-2.2v-13.1H536.8z"/>
<path class="st13" d="M527.5,198.2c2.4,1.3,5.3,1.3,7.8,0c2.1-1.2,2.1-3.2,0-4.4c-2.4-1.2-5.3-1.2-7.8,0
	C525.3,194.9,525.3,196.9,527.5,198.2z"/>
<path class="st22" d="M456.8,524.1c0-10.9-7.6-24.1-17.1-29.6L197.5,354.7L192,358l247.7,176c2.2,1.3,4.6,2.1,7.2,2.3l0.5,1.6
	l5.7-3.7C455.4,532.1,456.8,528.7,456.8,524.1L456.8,524.1z"/>
<path class="st3" d="M434.1,497.8L192,358v39.4l242.2,139.8c9.4,5.5,17.1,1,17.1-9.9S443.6,503.3,434.1,497.8L434.1,497.8z"/>
<polygon class="st8" points="312.4,440.1 312.4,461.8 316.3,459.5 316.3,437.8 312.4,440.1 "/>
<polygon class="st20" points="249.7,403.8 276,423.1 312.4,440.1 316.3,437.8 253.6,401.5 249.7,403.8 "/>
<polygon class="st9" points="249.7,403.8 249.7,425.5 312.4,461.8 312.4,440.1 249.7,403.8 "/>
<polygon class="st8" points="255.9,413 255.9,423.3 306.2,452.4 306.2,442.1 255.9,413 "/>
<polygon class="st8" points="372.3,474.7 372.4,496.3 376.2,494 376.2,472.4 372.3,474.7 "/>
<polygon class="st20" points="330.3,450.3 356.6,469.6 372.3,474.7 376.2,472.4 334.1,448 330.3,450.3 "/>
<polygon class="st9" points="330.3,450.3 330.2,472 372.4,496.3 372.3,474.7 330.3,450.3 "/>
<polygon class="st8" points="336.5,459.5 336.5,469.9 366.1,487 366.1,476.7 336.5,459.5 "/>
</svg>
