<?xml version="1.0" encoding="utf-8"?>
<!-- Generator: Adobe Illustrator 25.2.1, SVG Export Plug-In . SVG Version: 6.00 Build 0)  -->
<svg version="1.1" id="Layer_1" xmlns="http://www.w3.org/2000/svg" xmlns:xlink="http://www.w3.org/1999/xlink" x="0px" y="0px"
	 viewBox="0 0 300 300" style="enable-background:new 0 0 300 300;" xml:space="preserve">
<style type="text/css">
	.st0{fill:#5EC0EE;}
	.st1{fill:#23934A;}
	.st2{fill:#D8D9D8;}
	.st3{fill:#2A964F;}
	.st4{fill:#414141;}
	.st5{fill:#F3F3F3;}
	.st6{fill:#C4C6C4;}
</style>
<g>
	<g>
		<g>
			
				<rect x="80.2" y="52.66" transform="matrix(1.899700e-03 -1 1 1.899700e-03 18.2577 278.9768)" class="st0" width="137.36" height="155.37"/>
		</g>
	</g>
	<g>
		<g>
			
				<rect x="204.79" y="133.95" transform="matrix(1.895154e-03 -1 1 1.895154e-03 54.5219 360.17)" class="st1" width="5.8" height="37.65"/>
		</g>
	</g>
	<g>
		<g>
			
				<rect x="204.84" y="111.9" transform="matrix(1.902968e-03 -1 1 1.902968e-03 76.6183 338.2198)" class="st1" width="5.8" height="37.65"/>
		</g>
	</g>
	<g>
		<g>
			
				<rect x="204.89" y="89.95" transform="matrix(1.903002e-03 -1 1 1.903002e-03 98.621 316.3654)" class="st1" width="5.8" height="37.65"/>
		</g>
	</g>
	<g>
		<g>
			
				<rect x="87.07" y="133.72" transform="matrix(1.895154e-03 -1 1 1.895154e-03 -62.7502 242.2281)" class="st1" width="5.8" height="37.65"/>
		</g>
	</g>
	<g>
		<g>
			
				<rect x="87.12" y="111.68" transform="matrix(1.910817e-03 -1 1 1.910817e-03 -40.6533 220.2768)" class="st1" width="5.8" height="37.65"/>
		</g>
	</g>
	<g>
		<g>
			
				<rect x="87.17" y="89.73" transform="matrix(1.895188e-03 -1 1 1.895188e-03 -18.649 198.4243)" class="st1" width="5.8" height="37.65"/>
		</g>
	</g>
	<g>
		<g>
			
				<rect x="156.61" y="179.35" transform="matrix(1.886467e-03 -1 1 1.886467e-03 -9.7092 355.5458)" class="st1" width="33.29" height="6.57"/>
		</g>
	</g>
	<g>
		<g>
			
				<rect x="131.67" y="179.31" transform="matrix(1.931285e-03 -1 1 1.931285e-03 -34.5575 330.5542)" class="st1" width="33.29" height="6.57"/>
		</g>
	</g>
	<g>
		<g>
			
				<rect x="106.85" y="179.26" transform="matrix(1.886467e-03 -1 1 1.886467e-03 -59.2843 305.6884)" class="st1" width="33.29" height="6.57"/>
		</g>
	</g>
	<g>
		<g>
			
				<rect x="156.87" y="75.07" transform="matrix(1.976299e-03 -1 1 1.976299e-03 94.8104 251.7069)" class="st1" width="33.29" height="6.56"/>
		</g>
	</g>
	<g>
		<g>
			
				<rect x="131.93" y="75.02" transform="matrix(1.886467e-03 -1 1 1.886467e-03 69.9841 226.7305)" class="st1" width="33.29" height="6.57"/>
		</g>
	</g>
	<g>
		<g>
			
				<rect x="107.1" y="74.98" transform="matrix(1.886467e-03 -1 1 1.886467e-03 45.2509 201.8563)" class="st1" width="33.28" height="6.56"/>
		</g>
	</g>
	<g>
		<g>
			<path class="st2" d="M179.72,93.33c-0.01,3-2.77,5.43-6.17,5.43c-3.4-0.01-6.15-2.45-6.14-5.45c0.01-3,2.77-5.43,6.17-5.43
				C176.98,87.89,179.73,90.33,179.72,93.33z"/>
		</g>
	</g>
	<g>
		<g>
			<path class="st2" d="M154.69,93.28c-0.01,3-2.77,5.43-6.17,5.43c-3.4-0.01-6.15-2.45-6.14-5.45c0.01-3,2.77-5.43,6.17-5.43
				C151.95,87.84,154.7,90.28,154.69,93.28z"/>
		</g>
	</g>
	<g>
		<g>
			<path class="st2" d="M129.87,93.24c-0.01,3-2.77,5.43-6.17,5.43c-3.4-0.01-6.15-2.45-6.14-5.45c0.01-3,2.77-5.43,6.17-5.43
				S129.87,90.23,129.87,93.24z"/>
		</g>
	</g>
	<g>
		<g>
			<path class="st2" d="M179.54,167.47c-0.01,3-2.77,5.43-6.17,5.43c-3.4-0.01-6.15-2.45-6.14-5.45c0.01-3,2.77-5.43,6.17-5.43
				C176.8,162.03,179.55,164.47,179.54,167.47z"/>
		</g>
	</g>
	<g>
		<g>
			<path class="st2" d="M154.51,167.42c-0.01,3-2.77,5.43-6.16,5.43c-3.4-0.01-6.15-2.45-6.14-5.45c0.01-3,2.77-5.43,6.17-5.43
				C151.77,161.98,154.52,164.42,154.51,167.42z"/>
		</g>
	</g>
	<g>
		<g>
			<path class="st2" d="M129.69,167.38c-0.01,3-2.77,5.43-6.17,5.43c-3.4-0.01-6.15-2.45-6.14-5.45c0.01-3,2.77-5.43,6.17-5.43
				C126.95,161.93,129.69,164.37,129.69,167.38z"/>
		</g>
	</g>
	<g>
		<g>
			<path class="st2" d="M190.58,102.86c3.4,0.01,6.15,2.45,6.14,5.45c-0.01,3-2.77,5.43-6.17,5.43c-3.4-0.01-6.15-2.45-6.14-5.45
				C184.42,105.29,187.18,102.86,190.58,102.86z"/>
		</g>
	</g>
	<g>
		<g>
			<path class="st2" d="M190.53,124.99c3.4,0.01,6.15,2.45,6.14,5.45c-0.01,3-2.77,5.43-6.17,5.43c-3.4-0.01-6.15-2.45-6.14-5.45
				C184.37,127.42,187.13,124.99,190.53,124.99z"/>
		</g>
	</g>
	<g>
		<g>
			<path class="st2" d="M190.47,146.94c3.4,0.01,6.15,2.45,6.14,5.45c-0.01,3-2.77,5.43-6.17,5.43c-3.4-0.01-6.15-2.45-6.14-5.45
				C184.32,149.36,187.08,146.93,190.47,146.94z"/>
		</g>
	</g>
	<g>
		<g>
			<path class="st2" d="M106.44,102.7c3.4,0.01,6.15,2.45,6.14,5.45c-0.01,3-2.77,5.43-6.17,5.43c-3.4-0.01-6.15-2.45-6.14-5.45
				C100.29,105.13,103.05,102.7,106.44,102.7z"/>
		</g>
	</g>
	<g>
		<g>
			<path class="st2" d="M106.39,124.83c3.4,0.01,6.15,2.45,6.14,5.45c-0.01,3-2.77,5.43-6.17,5.43c-3.4-0.01-6.15-2.45-6.14-5.45
				C100.23,127.26,102.99,124.83,106.39,124.83z"/>
		</g>
	</g>
	<g>
		<g>
			<path class="st2" d="M106.34,146.77c3.4,0.01,6.15,2.45,6.14,5.45c-0.01,3-2.77,5.43-6.17,5.43c-3.4-0.01-6.15-2.45-6.14-5.45
				C100.18,149.2,102.94,146.77,106.34,146.77z"/>
		</g>
	</g>
	<g>
		<g>
			<g>
				<g>
					<polygon class="st3" points="127.9,94.45 119.57,94.41 119.5,105.97 127.83,106 					"/>
				</g>
			</g>
		</g>
		<g>
			<g>
				<g>
					<polygon class="st3" points="152.79,94.56 144.46,94.52 144.39,106.07 152.72,106.11 					"/>
				</g>
			</g>
		</g>
		<g>
			<g>
				<g>
					<polygon class="st3" points="177.67,94.67 169.35,94.63 169.28,106.18 177.61,106.22 					"/>
				</g>
			</g>
		</g>
		<g>
			<g>
				<g>
					<polygon class="st3" points="108.05,148.5 108.01,155.86 120.87,155.92 120.91,148.56 					"/>
				</g>
			</g>
		</g>
		<g>
			<g>
				<g>
					<polygon class="st3" points="108.17,126.5 108.13,133.86 121,133.92 121.04,126.55 					"/>
				</g>
			</g>
		</g>
		<g>
			<g>
				<g>
					<polygon class="st3" points="108.29,104.49 108.25,111.86 121.12,111.91 121.16,104.55 					"/>
				</g>
			</g>
		</g>
		<g>
			<g>
				<g>
					<polygon class="st3" points="176.03,103.48 126.83,103.26 126.82,106 176.01,106.21 					"/>
				</g>
			</g>
		</g>
		<g>
			<g>
				<g>
					<polygon class="st3" points="118.03,111.36 117.79,154.46 120.88,154.47 121.12,111.37 					"/>
				</g>
			</g>
		</g>
		<g>
			<g>
				<g>
					<polygon class="st4" points="175.74,154.71 120.88,154.47 121.15,105.97 176.01,106.21 					"/>
				</g>
			</g>
		</g>
		<g>
			<g>
				<g>
					<g>
						<polygon class="st5" points="126.21,93.12 121.22,93.1 121.15,105.97 126.14,106 						"/>
					</g>
				</g>
			</g>
			<g>
				<g>
					<g>
						<polygon class="st5" points="151.14,93.23 146.16,93.21 146.09,106.08 151.07,106.1 						"/>
					</g>
				</g>
			</g>
			<g>
				<g>
					<g>
						<polygon class="st5" points="176.08,93.34 171.1,93.31 171.03,106.19 176.01,106.21 						"/>
					</g>
				</g>
			</g>
			<g>
				<g>
					<g>
						<polygon class="st6" points="126.15,102.82 121.17,102.8 121.15,105.97 126.14,106 						"/>
					</g>
				</g>
			</g>
			<g>
				<g>
					<g>
						<polygon class="st6" points="151.09,102.93 146.11,102.91 146.09,106.08 151.07,106.1 						"/>
					</g>
				</g>
			</g>
			<g>
				<g>
					<g>
						<polygon class="st6" points="176.03,103.04 171.04,103.02 171.03,106.19 176.01,106.21 						"/>
					</g>
				</g>
			</g>
		</g>
		<g>
			<g>
				<g>
					<polygon class="st3" points="127.5,166.05 119.17,166.02 119.23,154.46 127.56,154.5 					"/>
				</g>
			</g>
		</g>
		<g>
			<g>
				<g>
					<polygon class="st3" points="152.39,166.16 144.06,166.12 144.12,154.57 152.45,154.61 					"/>
				</g>
			</g>
		</g>
		<g>
			<g>
				<g>
					<polygon class="st3" points="177.28,166.27 168.95,166.23 169.01,154.68 177.34,154.72 					"/>
				</g>
			</g>
		</g>
		<g>
			<g>
				<g>
					<polygon class="st3" points="175.73,157.45 126.53,157.23 126.55,154.5 175.74,154.71 					"/>
				</g>
			</g>
		</g>
		<g>
			<g>
				<g>
					<g>
						<polygon class="st5" points="125.8,167.37 120.81,167.35 120.88,154.47 125.87,154.49 						"/>
					</g>
				</g>
			</g>
			<g>
				<g>
					<g>
						<polygon class="st5" points="150.73,167.48 145.75,167.45 145.82,154.58 150.8,154.6 						"/>
					</g>
				</g>
			</g>
			<g>
				<g>
					<g>
						<polygon class="st5" points="175.67,167.58 170.69,167.56 170.76,154.69 175.74,154.71 						"/>
					</g>
				</g>
			</g>
			<g>
				<g>
					<g>
						<polygon class="st6" points="125.85,157.67 120.86,157.65 120.88,154.47 125.87,154.49 						"/>
					</g>
				</g>
			</g>
			<g>
				<g>
					<g>
						<polygon class="st6" points="150.79,157.78 145.8,157.75 145.82,154.58 150.8,154.6 						"/>
					</g>
				</g>
			</g>
			<g>
				<g>
					<g>
						<polygon class="st6" points="175.72,157.88 170.74,157.86 170.76,154.69 175.74,154.71 						"/>
					</g>
				</g>
			</g>
		</g>
		<g>
			<g>
				<g>
					<g>
						<polygon class="st5" points="106.56,110.32 106.59,105.91 121.15,105.97 121.13,110.38 						"/>
					</g>
				</g>
			</g>
			<g>
				<g>
					<g>
						<polygon class="st5" points="106.44,132.36 106.46,127.96 121.03,128.02 121,132.43 						"/>
					</g>
				</g>
			</g>
			<g>
				<g>
					<g>
						<polygon class="st5" points="106.32,154.41 106.34,150 120.91,150.07 120.88,154.47 						"/>
					</g>
				</g>
			</g>
			<g>
				<g>
					<g>
						<polygon class="st6" points="117.54,110.37 117.56,105.96 121.15,105.97 121.13,110.38 						"/>
					</g>
				</g>
			</g>
			<g>
				<g>
					<g>
						<polygon class="st6" points="117.41,132.41 117.44,128 121.03,128.02 121,132.43 						"/>
					</g>
				</g>
			</g>
			<g>
				<g>
					<g>
						<polygon class="st6" points="117.29,154.46 117.32,150.05 120.91,150.07 120.88,154.47 						"/>
					</g>
				</g>
			</g>
		</g>
		<g>
			<g>
				<g>
					<polygon class="st3" points="188.64,148.85 188.6,156.21 175.73,156.16 175.77,148.79 					"/>
				</g>
			</g>
		</g>
		<g>
			<g>
				<g>
					<polygon class="st3" points="188.76,126.84 188.72,134.21 175.86,134.15 175.9,126.79 					"/>
				</g>
			</g>
		</g>
		<g>
			<g>
				<g>
					<polygon class="st3" points="188.89,104.84 188.85,112.2 175.98,112.15 176.02,104.79 					"/>
				</g>
			</g>
		</g>
		<g>
			<g>
				<g>
					<polygon class="st3" points="179.08,111.62 178.84,154.72 175.74,154.71 175.98,111.61 					"/>
				</g>
			</g>
		</g>
		<g>
			<g>
				<g>
					<g>
						<polygon class="st5" points="190.55,110.68 190.57,106.27 176.01,106.21 175.99,110.62 						"/>
					</g>
				</g>
			</g>
			<g>
				<g>
					<g>
						<polygon class="st5" points="190.43,132.73 190.45,128.32 175.89,128.26 175.86,132.66 						"/>
					</g>
				</g>
			</g>
			<g>
				<g>
					<g>
						<polygon class="st5" points="190.31,154.77 190.33,150.37 175.77,150.3 175.74,154.71 						"/>
					</g>
				</g>
			</g>
			<g>
				<g>
					<g>
						<polygon class="st6" points="179.58,110.63 179.6,106.23 176.01,106.21 175.99,110.62 						"/>
					</g>
				</g>
			</g>
			<g>
				<g>
					<g>
						<polygon class="st6" points="179.46,132.68 179.48,128.27 175.89,128.26 175.86,132.66 						"/>
					</g>
				</g>
			</g>
			<g>
				<g>
					<g>
						<polygon class="st6" points="179.33,154.72 179.36,150.32 175.77,150.3 175.74,154.71 						"/>
					</g>
				</g>
			</g>
		</g>
	</g>
	<g>
		<path class="st5" d="M205.45,166.28c0,2.35-2.16,4.26-4.82,4.26c-2.66,0-4.82-1.91-4.82-4.26c0-2.35,2.16-4.26,4.82-4.26
			C203.29,162.02,205.45,163.93,205.45,166.28z"/>
	</g>
	<g>
		<path class="st5" d="M219.78,166.28c0,2.35-2.16,4.26-4.82,4.26c-2.66,0-4.82-1.91-4.82-4.26c0-2.35,2.16-4.26,4.82-4.26
			C217.62,162.02,219.78,163.93,219.78,166.28z"/>
	</g>
	<g>
		<path class="st5" d="M205.45,178.37c0,2.35-2.16,4.26-4.82,4.26c-2.66,0-4.82-1.91-4.82-4.26c0-2.35,2.16-4.26,4.82-4.26
			C203.29,174.11,205.45,176.02,205.45,178.37z"/>
	</g>
	<g>
		<path class="st5" d="M219.78,178.37c0,2.35-2.16,4.26-4.82,4.26c-2.66,0-4.82-1.91-4.82-4.26c0-2.35,2.16-4.26,4.82-4.26
			C217.62,174.11,219.78,176.02,219.78,178.37z"/>
	</g>
	<g>
		<path class="st5" d="M205.45,190.46c0,2.35-2.16,4.26-4.82,4.26c-2.66,0-4.82-1.91-4.82-4.26c0-2.35,2.16-4.26,4.82-4.26
			C203.29,186.2,205.45,188.11,205.45,190.46z"/>
	</g>
	<g>
		<path class="st5" d="M219.78,190.46c0,2.35-2.16,4.26-4.82,4.26c-2.66,0-4.82-1.91-4.82-4.26c0-2.35,2.16-4.26,4.82-4.26
			C217.62,186.2,219.78,188.11,219.78,190.46z"/>
	</g>
</g>
</svg>
