<?xml version="1.0" encoding="utf-8"?>
<!-- Generator: Adobe Illustrator 25.2.1, SVG Export Plug-In . SVG Version: 6.00 Build 0)  -->
<svg version="1.1" id="Layer_1" xmlns="http://www.w3.org/2000/svg" xmlns:xlink="http://www.w3.org/1999/xlink" x="0px" y="0px"
	 viewBox="0 0 300 300" style="enable-background:new 0 0 300 300;" xml:space="preserve">
<style type="text/css">
	.st0{fill:#010101;}
	.st1{fill:#09090A;}
	.st2{fill:#54545A;}
	.st3{fill:#0D8175;}
	.st4{fill:#56C8E2;}
	.st5{fill:#4DC1B7;}
	.st6{fill:#151517;}
	.st7{fill:#313133;}
	.st8{fill:#E5D9B0;}
	.st9{fill:#BDBEC0;}
	.st10{fill:#939598;}
	.st11{fill:#117671;}
	.st12{fill:#BA6328;}
	.st13{fill:#F6851F;}
	.st14{fill:#AB203C;}
	.st15{fill:#F05277;}
	.st16{fill:#EE325A;}
	.st17{fill:#A8AAAD;}
	.st18{clip-path:url(#SVGID_2_);}
	.st19{fill:#101011;}
	.st20{fill:#232324;}
	.st21{fill:#FF5722;}
	.st22{fill:#126471;}
	.st23{fill:#1BB8D0;}
	.st24{fill:#0FA89F;}
	.st25{fill:#F0C7B7;}
	.st26{fill:#C8A697;}
	.st27{fill:#603B1A;}
	.st28{fill:#102033;}
	.st29{fill:#1D384E;}
	.st30{fill:#E12229;}
	.st31{fill:#9C2A22;}
	.st32{fill:#2E5F87;}
	.st33{fill:#154868;}
	.st34{fill:#3977AB;}
	.st35{fill:none;}
	.st36{clip-path:url(#SVGID_4_);fill:none;}
	.st37{fill:#101010;}
	.st38{fill:#EF454F;}
	.st39{fill:#121212;}
	.st40{fill:#B73D25;}
	.st41{fill:#C8A698;}
	.st42{fill:#075951;}
	.st43{fill:#838383;}
</style>
<polyline class="st0" points="264.5,202.9 179.2,156.2 179.2,50.9 264.5,97.4 264.5,202.9 "/>
<polyline class="st1" points="243.8,181.1 182.1,147.4 182.1,143.7 182.4,143.6 243.8,177.4 243.8,181.1 "/>
<polyline class="st2" points="130.6,174.9 244,237.4 271.9,223.1 269.4,195.1 182.1,147.4 150.7,154.7 130.6,174.9 "/>
<polygon class="st2" points="183.6,111.4 136.8,136.9 138.4,137.8 185.2,112.2 "/>
<path class="st0" d="M179.9,114.7l-41.5,22.6v-8.7l41.5-22.6V114.7 M129.5,41.9v134.3l52.6-28.8V13.2L129.5,41.9"/>
<polyline class="st3" points="208.4,84.1 208.4,84.1 177.9,67.6 176.9,68.1 208.4,87.8 237.7,171.6 238.7,170.9 238.7,100.7 
	208.4,84.1 "/>
<polyline class="st4" points="176.9,68.1 176.9,138.4 237.7,171.6 237.7,101.2 176.9,68.1 "/>
<polygon class="st3" points="186.3,75.2 186.3,79.2 190.3,81.4 190.3,77.6 "/>
<polygon class="st5" points="188.5,91.5 188.5,107.6 205.7,116.9 205.7,100.9 "/>
<polygon class="st5" points="189,127.5 189,143.6 206.2,152.9 206.2,136.9 "/>
<polygon class="st2" points="194.9,81.2 194.9,84.4 195.5,84.1 195.5,80.8 "/>
<polygon class="st6" points="191.4,79.2 194.2,81.4 194.9,81.2 195.5,80.8 192,78.9 "/>
<polygon class="st7" points="191.4,79.2 191.4,82.5 194.9,84.4 194.9,81.2 "/>
<polygon class="st8" points="193.5,81 193.5,81.6 192,80.8 192,80.2 "/>
<polygon class="st2" points="187.2,84.9 187.3,90 187.9,89.7 187.9,84.5 "/>
<polygon class="st6" points="183.7,82.9 186.6,85.1 187.2,84.9 187.9,84.5 184.4,82.6 "/>
<polygon class="st7" points="183.7,82.9 183.8,88.1 187.3,90 187.2,84.9 "/>
<polygon class="st8" points="185.8,84.7 185.8,85.2 184.3,84.5 184.3,83.9 "/>
<polygon class="st2" points="186.1,126.9 186.1,130.2 186.7,129.9 186.7,126.6 "/>
<polygon class="st6" points="182.6,125 185.4,127.2 186.1,126.9 186.7,126.6 183.2,124.7 "/>
<polygon class="st7" points="182.6,125 182.6,128.2 186.1,130.2 186.1,126.9 "/>
<polygon class="st8" points="184.7,126.8 184.7,127.4 183.2,126.6 183.2,126 "/>
<polygon class="st2" points="184.4,75.2 184.4,80.6 185.4,80 185.4,74.6 "/>
<polygon class="st9" points="184.9,74.9 184.9,80.2 185.4,80 185.4,74.6 "/>
<polygon class="st6" points="178.6,72.1 183.2,75.6 184.4,75.2 185.4,74.6 179.6,71.5 "/>
<polygon class="st10" points="179.2,71.8 184.9,74.9 185.4,74.6 179.6,71.5 "/>
<polygon class="st7" points="178.6,72.1 178.6,77.4 184.4,80.6 184.4,75.2 "/>
<polygon class="st8" points="183.5,75.8 183.5,77.5 179.3,75.2 179.3,73.5 "/>
<polygon class="st2" points="183.5,119.2 183.5,123.2 184.5,122.6 184.5,118.6 "/>
<polygon class="st9" points="184,118.9 184,122.9 184.5,122.6 184.5,118.6 "/>
<polygon class="st6" points="177.7,116 182.4,119.5 183.5,119.2 184.5,118.6 178.8,115.4 "/>
<polygon class="st10" points="178.3,115.7 184,118.9 184.5,118.6 178.8,115.4 "/>
<polygon class="st7" points="177.7,116 177.7,120.1 183.5,123.2 183.5,119.2 "/>
<polygon class="st8" points="182.7,119.7 182.7,121.5 178.5,119.2 178.5,117.4 "/>
<polygon class="st7" points="204.5,93.2 204.5,98.7 205.5,98.1 205.5,92.7 "/>
<polygon class="st0" points="198.8,90.2 203.4,93.7 204.5,93.2 205.5,92.7 199.8,89.6 "/>
<polygon class="st6" points="198.8,90.2 198.8,95.5 204.5,98.7 204.5,93.2 "/>
<polygon class="st8" points="201.8,94.8 201.8,96.5 199.4,95.2 199.4,93.4 "/>
<polygon class="st7" points="195.7,87.2 195.7,94.7 197.1,93.9 197.1,86.4 "/>
<polygon class="st0" points="187.7,82.9 194.1,87.7 195.7,87.2 197.1,86.4 189.1,82 "/>
<polygon class="st6" points="187.7,82.9 187.7,90.2 195.7,94.7 195.7,87.2 "/>
<polygon class="st7" points="196.2,121.8 196.2,129.2 197.6,128.5 197.6,121 "/>
<polygon class="st0" points="188.1,117.4 194.6,122.2 196.2,121.8 197.6,121 189.6,116.7 "/>
<polygon class="st6" points="188.1,117.4 188.2,124.9 196.2,129.2 196.2,121.8 "/>
<polygon class="st7" points="185.1,97.7 185.1,102.9 186,102.2 186,97.1 "/>
<polygon class="st0" points="179.5,94.6 184,98 185.1,97.7 186,97.1 180.5,94.1 "/>
<polygon class="st6" points="179.5,94.6 179.5,99.8 185.1,102.9 185.1,97.7 "/>
<polygon class="st7" points="186.9,106.2 186.9,111.5 187.9,110.9 187.9,105.6 "/>
<polygon class="st0" points="181.1,103 185.7,106.6 186.9,106.2 187.9,105.6 182.2,102.5 "/>
<polygon class="st6" points="181.1,103 181.1,108.4 186.9,111.5 186.9,106.2 "/>
<polygon class="st8" points="184.2,107.6 184.2,109.4 181.8,108.1 181.8,106.2 "/>
<polygon class="st7" points="203.5,87.2 203.5,90.4 204.2,90.1 204.2,86.8 "/>
<polygon class="st0" points="197.8,84.1 202.1,87 203.5,87.2 204.2,86.8 198.5,83.7 "/>
<polygon class="st6" points="197.8,84.1 197.8,87.2 203.5,90.4 203.5,87.2 "/>
<polygon class="st7" points="183.2,137.9 183.2,141.2 183.8,140.8 183.8,137.4 "/>
<polygon class="st0" points="177.5,134.8 181.8,137.7 183.2,137.9 183.8,137.4 178.2,134.4 "/>
<polygon class="st6" points="177.5,134.8 177.5,138.1 183.2,141.2 183.2,137.9 "/>
<polygon class="st7" points="182,82.7 177.4,80.2 178.4,79.7 183,82.2 "/>
<polygon class="st0" points="182,92.2 181.2,84.7 182,82.7 183,82.2 183,91.7 "/>
<polygon class="st6" points="182,92.2 177.4,89.7 177.4,80.2 182,82.7 "/>
<polygon class="st7" points="184.1,131.7 184.1,136.9 185.1,136.4 185.1,131.1 "/>
<polygon class="st0" points="178.4,128.5 183,132 184.1,131.7 185.1,131.1 179.4,128 "/>
<polygon class="st6" points="178.4,128.5 178.4,133.9 184.1,136.9 184.1,131.7 "/>
<polygon class="st8" points="181.4,133.1 181.4,134.9 179,133.6 179,131.8 "/>
<polygon class="st7" points="205.8,128.7 205.8,131.9 206.4,131.6 206.4,128.2 "/>
<polygon class="st0" points="200.2,125.6 204.4,128.5 205.8,128.7 206.4,128.2 200.8,125.2 "/>
<polygon class="st6" points="200.2,125.6 200.2,128.8 205.8,131.9 205.8,128.7 "/>
<polygon class="st7" points="205.8,132.9 205.8,136.2 206.4,135.9 206.4,132.6 "/>
<polygon class="st0" points="200.1,129.9 204.3,132.8 205.8,132.9 206.4,132.6 200.8,129.5 "/>
<polygon class="st6" points="200.1,129.9 200.1,133.1 205.8,136.2 205.8,132.9 "/>
<polygon class="st3" points="197.5,80.8 197.5,82.2 201.9,84.8 201.9,83.2 "/>
<polygon class="st2" points="201.6,103 201.5,115.2 203.9,113.9 203.9,101.7 "/>
<polygon class="st9" points="202.8,102.2 202.8,114.6 203.9,113.9 203.9,101.7 "/>
<polygon class="st6" points="188.4,95.8 199,103.9 201.6,103 203.9,101.7 190.7,94.5 "/>
<polygon class="st10" points="189.6,95.1 202.8,102.2 203.9,101.7 190.7,94.5 "/>
<polyline class="st7" points="188.4,95.8 188.4,108.1 201.5,115.2 201.6,103 188.4,95.8 "/>
<polygon class="st2" points="199.7,106 199.7,110 190.1,104.8 190,100.7 "/>
<polygon class="st2" points="202.5,139.1 202.5,151.2 204.8,149.9 204.8,137.8 "/>
<polygon class="st9" points="203.7,138.4 203.7,150.6 204.8,149.9 204.8,137.8 "/>
<polygon class="st6" points="189.3,131.9 199.9,139.9 202.5,139.1 204.8,137.8 191.7,130.6 "/>
<polygon class="st10" points="190.6,131.2 203.7,138.4 204.8,137.8 191.7,130.6 "/>
<polygon class="st7" points="189.3,131.9 189.3,144.2 202.5,151.2 202.5,139.1 "/>
<path class="st11" d="M191.2,112.2c-0.1,0-0.2,0-0.4-0.1c-0.5-0.3-0.8-0.8-0.9-1.4c0-0.4,0.2-0.6,0.5-0.6c0.1,0,0.3,0.1,0.4,0.1
	c0.5,0.3,0.8,0.8,0.8,1.4C191.7,112.1,191.5,112.2,191.2,112.2"/>
<path class="st12" d="M189.2,113.2l2-1.1c0.1-0.1,0.2-0.3,0.2-0.4c0-0.4-0.3-0.8-0.7-1.1c-0.1-0.1-0.3-0.1-0.5-0.1l-2,1.1
	L189.2,113.2L189.2,113.2L189.2,113.2z"/>
<path class="st13" d="M188.7,111.6c0.4,0.2,0.7,0.7,0.7,1.1s-0.3,0.6-0.7,0.4s-0.7-0.7-0.7-1.1C188.1,111.6,188.4,111.4,188.7,111.6
	z"/>
<path class="st11" d="M193.4,113.6c-0.1,0-0.3,0-0.4-0.1c-0.5-0.3-0.9-0.8-0.9-1.4c0-0.4,0.2-0.6,0.5-0.6c0.1,0,0.3,0,0.4,0.1
	c0.5,0.3,0.8,0.8,0.9,1.4C193.9,113.4,193.7,113.6,193.4,113.6"/>
<path class="st12" d="M191.5,114.4l2-1.1c0.1-0.1,0.2-0.3,0.2-0.4c0-0.4-0.3-0.9-0.7-1.1c-0.1-0.1-0.3-0.1-0.5,0l-2,1.1L191.5,114.4
	L191.5,114.4z"/>
<path class="st13" d="M190.9,112.9c0.4,0.2,0.7,0.7,0.7,1.1s-0.3,0.6-0.7,0.4s-0.7-0.7-0.7-1.1S190.5,112.7,190.9,112.9L190.9,112.9
	z"/>
<path class="st11" d="M195.9,114.9c-0.1,0-0.3,0-0.4-0.1c-0.5-0.3-0.8-0.8-0.8-1.4c0-0.4,0.2-0.6,0.5-0.6c0.1,0,0.3,0,0.4,0.1
	c0.5,0.3,0.9,0.8,0.9,1.4C196.4,114.7,196.2,114.9,195.9,114.9"/>
<path class="st12" d="M193.9,115.7l2-1.1c0.1-0.1,0.2-0.2,0.2-0.4c0-0.4-0.3-0.9-0.7-1.1c-0.1-0.1-0.3-0.1-0.5-0.1l-2,1.1
	L193.9,115.7L193.9,115.7L193.9,115.7z"/>
<path class="st13" d="M193.4,114.2c0.4,0.2,0.6,0.7,0.7,1.1c0,0.4-0.3,0.6-0.7,0.4s-0.7-0.7-0.7-1.1
	C192.7,114.1,193.1,114,193.4,114.2z"/>
<path class="st11" d="M198.1,116.2c-0.1,0-0.3-0.1-0.4-0.1c-0.5-0.3-0.8-0.8-0.8-1.4c0-0.4,0.2-0.6,0.5-0.6c0.1,0,0.3,0,0.4,0.1
	c0.5,0.3,0.9,0.8,0.9,1.4C198.6,115.9,198.4,116.1,198.1,116.2"/>
<path class="st12" d="M196.1,117l2-1.1c0.1-0.1,0.2-0.3,0.2-0.4c0-0.4-0.3-0.9-0.7-1.1c-0.1-0.1-0.3-0.1-0.5,0l-2,1.1L196.1,117
	L196.1,117z"/>
<path class="st13" d="M195.6,115.5c0.4,0.2,0.7,0.7,0.7,1.1s-0.3,0.6-0.7,0.4s-0.7-0.7-0.7-1.1C194.9,115.4,195.2,115.2,195.6,115.5
	L195.6,115.5z"/>
<path class="st11" d="M185.8,140.4c-0.1,0-0.2,0-0.4-0.1c-0.5-0.3-0.8-0.8-0.8-1.3c0-0.3,0.2-0.5,0.4-0.5c0.1,0,0.2,0,0.3,0.1
	c0.5,0.3,0.8,0.8,0.8,1.3C186.3,140.2,186.1,140.4,185.8,140.4"/>
<path class="st12" d="M184.1,141.2l1.8-1c0.1-0.1,0.2-0.2,0.2-0.4c0-0.4-0.2-0.8-0.6-1c-0.1-0.1-0.3-0.1-0.4,0l-1.8,1L184.1,141.2
	L184.1,141.2L184.1,141.2z"/>
<path class="st13" d="M183.6,139.8c0.4,0.2,0.6,0.6,0.6,1s-0.3,0.5-0.6,0.3c-0.4-0.2-0.6-0.6-0.6-1
	C183,139.8,183.3,139.6,183.6,139.8z"/>
<path class="st11" d="M187.8,141.6c-0.1,0-0.2,0-0.3-0.1c-0.4-0.3-0.7-0.8-0.8-1.3c0-0.3,0.2-0.6,0.4-0.6c0.1,0,0.2,0,0.3,0.1
	c0.4,0.3,0.7,0.8,0.8,1.3C188.2,141.4,188.1,141.6,187.8,141.6"/>
<path class="st12" d="M186.1,142.4l1.8-1c0.1-0.1,0.2-0.2,0.2-0.4c0-0.4-0.3-0.8-0.6-1c-0.1-0.1-0.3-0.1-0.4,0l-1.8,1L186.1,142.4
	L186.1,142.4z"/>
<path class="st13" d="M185.6,140.9c0.4,0.2,0.6,0.6,0.6,1s-0.3,0.6-0.6,0.3c-0.4-0.2-0.6-0.6-0.6-1S185.3,140.8,185.6,140.9
	L185.6,140.9z"/>
<path class="st11" d="M185.6,93.1c-0.1,0-0.2,0-0.2,0l0.3-0.2c0.1-0.1,0.2-0.2,0.2-0.4c0-0.4-0.3-0.8-0.6-1
	c-0.1-0.1-0.2-0.1-0.3-0.1s-0.1,0-0.2,0l-0.3,0.2c0-0.2,0.2-0.4,0.4-0.4c0.1,0,0.2,0,0.3,0.1c0.5,0.3,0.8,0.7,0.8,1.3
	C186,92.9,185.8,93.1,185.6,93.1"/>
<path class="st12" d="M183.8,93.9l1.8-1c0.1-0.1,0.2-0.2,0.2-0.4c0-0.4-0.3-0.8-0.6-1c-0.1-0.1-0.3-0.1-0.4,0l-1.8,1L183.8,93.9"/>
<path class="st13" d="M183.4,92.5c0.4,0.2,0.6,0.6,0.6,1s-0.3,0.5-0.6,0.3c-0.4-0.2-0.6-0.6-0.6-1C182.7,92.5,183,92.2,183.4,92.5
	L183.4,92.5z"/>
<path class="st11" d="M187.6,94.2c-0.1,0-0.2,0-0.4-0.1c-0.4-0.3-0.7-0.8-0.8-1.3c0-0.3,0.2-0.6,0.4-0.6c0.1,0,0.2,0,0.3,0.1
	c0.5,0.3,0.7,0.8,0.8,1.3C188,94.1,187.8,94.2,187.6,94.2"/>
<path class="st12" d="M185.8,95.1l1.8-1c0.1-0.1,0.2-0.2,0.2-0.4c0-0.4-0.3-0.8-0.6-1c-0.1-0.1-0.3-0.1-0.4,0l-1.8,1L185.8,95.1
	L185.8,95.1z"/>
<path class="st13" d="M185.4,93.7c0.4,0.2,0.6,0.6,0.6,1s-0.3,0.5-0.6,0.3c-0.4-0.2-0.6-0.6-0.6-1C184.7,93.6,185,93.5,185.4,93.7
	L185.4,93.7z"/>
<path class="st11" d="M178.2,102.6c-0.1,0-0.2,0-0.4-0.1c-0.4-0.3-0.7-0.8-0.8-1.3c0-0.3,0.2-0.5,0.4-0.5c0.1,0,0.2,0,0.3,0.1
	c0.5,0.3,0.8,0.8,0.8,1.3C178.6,102.4,178.4,102.6,178.2,102.6"/>
<path class="st12" d="M176.4,103.4l1.8-1c0.1-0.1,0.2-0.2,0.2-0.4c0-0.4-0.2-0.8-0.6-1c-0.1-0.1-0.3-0.1-0.4,0l-1.8,1L176.4,103.4
	L176.4,103.4z"/>
<path class="st13" d="M176,102c0.4,0.2,0.6,0.6,0.6,1c0,0.2-0.1,0.4-0.3,0.4c-0.1,0-0.2,0-0.3-0.1c-0.4-0.2-0.6-0.6-0.6-1
	C175.3,102,175.6,101.8,176,102z"/>
<path class="st11" d="M180.2,103.8c-0.1,0-0.2,0-0.4-0.1c-0.5-0.3-0.8-0.8-0.8-1.3c0-0.3,0.2-0.5,0.4-0.5c0.1,0,0.2,0,0.3,0.1
	c0.5,0.3,0.8,0.8,0.8,1.3C180.6,103.6,180.4,103.8,180.2,103.8"/>
<path class="st12" d="M178.4,104.6l1.8-1c0.1-0.1,0.2-0.2,0.2-0.4c0-0.4-0.2-0.8-0.6-1c-0.1-0.1-0.3-0.1-0.4,0l-1.8,1L178.4,104.6
	L178.4,104.6z"/>
<path class="st13" d="M178,103.2c0.4,0.2,0.6,0.6,0.6,1s-0.3,0.5-0.6,0.3c-0.4-0.2-0.6-0.6-0.6-1C177.3,103.1,177.6,103,178,103.2z"
	/>
<path class="st0" d="M176.9,122.4c-0.2-0.2-0.3-0.5-0.3-0.8s0.1-0.5,0.3-0.5V122.4"/>
<path class="st11" d="M177.7,123c-0.1,0-0.2,0-0.3-0.1c-0.2-0.1-0.3-0.2-0.4-0.4v-1.4h0.1c0.1,0,0.2,0,0.3,0.1
	c0.4,0.3,0.7,0.8,0.8,1.3C178.1,122.8,177.9,123,177.7,123"/>
<path class="st12" d="M175.9,123.7l1.8-1c0.1-0.1,0.2-0.2,0.2-0.4c0-0.4-0.3-0.8-0.6-1c-0.1-0.1-0.3-0.1-0.4,0l-1.8,1L175.9,123.7
	L175.9,123.7z"/>
<path class="st13" d="M175.5,122.2c0.4,0.2,0.6,0.6,0.6,1s-0.3,0.5-0.6,0.3c-0.4-0.2-0.6-0.6-0.6-1
	C174.9,122.2,175.2,122.1,175.5,122.2L175.5,122.2z"/>
<path class="st11" d="M179.7,124.1c-0.1,0-0.2,0-0.4-0.1c-0.4-0.3-0.7-0.8-0.8-1.3c0-0.3,0.2-0.5,0.4-0.5c0.1,0,0.2,0,0.3,0.1
	c0.5,0.3,0.8,0.7,0.8,1.3C180.1,123.9,179.9,124.1,179.7,124.1"/>
<path class="st12" d="M177.9,124.9l1.8-1c0.1-0.1,0.2-0.2,0.2-0.4c0-0.4-0.3-0.8-0.6-1c-0.1-0.1-0.3-0.1-0.4,0l-1.8,1L177.9,124.9
	L177.9,124.9z"/>
<path class="st13" d="M177.5,123.5c0.4,0.2,0.6,0.6,0.6,1s-0.3,0.5-0.6,0.3c-0.4-0.2-0.6-0.6-0.6-1
	C176.9,123.5,177.2,123.2,177.5,123.5z"/>
<polygon class="st3" points="216.7,91.9 216.7,95.7 220.7,97.9 220.7,94.1 "/>
<polygon class="st5" points="218.9,108.1 218.9,124.1 236.1,133.4 236.1,117.5 "/>
<polyline class="st5" points="219.4,144.1 219.4,160.2 236.6,169.4 236.6,153.4 219.4,144.1 "/>
<polygon class="st2" points="225.3,97.7 225.3,101 225.9,100.7 225.9,97.4 "/>
<polygon class="st6" points="221.8,95.8 224.6,98 225.3,97.7 225.9,97.4 222.4,95.5 "/>
<polygon class="st7" points="221.8,95.8 221.8,99.1 225.3,101 225.3,97.7 "/>
<polygon class="st8" points="223.9,97.6 223.9,98.2 222.4,97.4 222.4,96.8 "/>
<polygon class="st2" points="217.6,101.4 217.7,106.6 218.3,106.2 218.2,101.1 "/>
<polygon class="st6" points="214.1,99.5 216.9,101.7 217.6,101.4 218.2,101.1 214.7,99.2 "/>
<polygon class="st7" points="214.1,99.5 214.2,104.7 217.7,106.6 217.6,101.4 "/>
<polygon class="st8" points="216.2,101.2 216.2,101.9 214.7,101.1 214.7,100.4 "/>
<polygon class="st2" points="216.5,143.4 216.5,146.8 217.1,146.4 217.1,143.2 "/>
<polygon class="st6" points="213,141.6 215.8,143.7 216.5,143.4 217.1,143.2 213.6,141.2 "/>
<polygon class="st7" points="213,141.6 213,144.9 216.5,146.8 216.5,143.4 "/>
<polygon class="st8" points="215.1,143.2 215.1,143.9 213.6,143.2 213.6,142.4 "/>
<polygon class="st2" points="214.7,91.8 214.7,97.1 215.8,96.6 215.8,91.2 "/>
<polygon class="st9" points="215.3,91.5 215.3,96.8 215.8,96.6 215.8,91.2 "/>
<polygon class="st6" points="209,88.7 213.6,92.2 214.7,91.8 215.8,91.2 210,88.1 "/>
<polygon class="st10" points="209.5,88.2 215.3,91.5 215.8,91.2 210,88.1 "/>
<polygon class="st7" points="209,88.7 209,94 214.7,97.1 214.7,91.8 "/>
<polygon class="st8" points="213.9,92.2 213.9,94.1 209.7,91.8 209.7,90 "/>
<polygon class="st2" points="214.4,134.2 214.4,140.2 215.6,139.7 215.6,133.6 "/>
<polygon class="st9" points="215.1,133.9 215.1,139.9 215.6,139.7 215.6,133.6 "/>
<polygon class="st6" points="207.9,130.7 213.2,134.7 214.4,134.2 215.6,133.6 209,130 "/>
<polygon class="st10" points="208.5,130.2 215.1,133.9 215.6,133.6 209,130 "/>
<polygon class="st7" points="207.9,130.7 207.9,136.7 214.4,140.2 214.4,134.2 "/>
<polygon class="st7" points="234.9,109.9 234.9,115.2 235.9,114.6 235.9,109.2 "/>
<polygon class="st0" points="229.1,106.7 233.8,110.2 234.9,109.9 235.9,109.2 230.2,106.2 "/>
<polygon class="st6" points="229.1,106.7 229.1,112.1 234.9,115.2 234.9,109.9 "/>
<polygon class="st8" points="232.2,111.2 232.2,113.1 229.8,111.8 229.8,110 "/>
<polygon class="st7" points="226.1,103.8 226.1,111.2 227.5,110.5 227.5,103 "/>
<polygon class="st0" points="218.1,99.4 224.5,104.2 226.1,103.8 227.5,103 219.5,98.6 "/>
<polygon class="st6" points="218.1,99.4 218.1,106.9 226.1,111.2 226.1,103.8 "/>
<polygon class="st7" points="226.5,138.4 226.5,145.9 228,144.9 228,137.6 "/>
<polygon class="st0" points="218.5,133.9 225,138.9 226.5,138.4 228,137.6 220,133.2 "/>
<polygon class="st6" points="218.5,133.9 218.5,141.4 226.5,145.9 226.5,138.4 "/>
<polygon class="st7" points="215.4,114.2 215.4,119.4 216.4,118.9 216.4,113.7 "/>
<polygon class="st0" points="209.9,111.2 214.4,114.6 215.4,114.2 216.4,113.7 210.9,110.6 "/>
<polygon class="st6" points="209.9,111.2 209.9,116.4 215.4,119.4 215.4,114.2 "/>
<polygon class="st7" points="235.7,137.2 235.7,142.4 236.7,141.9 236.7,136.6 "/>
<polygon class="st0" points="230,133.9 234.6,137.4 235.7,137.2 236.7,136.6 231,133.4 "/>
<polygon class="st6" points="230,133.9 230,139.4 235.7,142.4 235.7,137.2 "/>
<polygon class="st8" points="233.1,138.6 233.1,140.4 230.7,139.1 230.7,137.2 "/>
<polygon class="st7" points="233.9,103.7 233.9,107 234.5,106.7 234.5,103.4 "/>
<polygon class="st0" points="228.2,100.6 232.4,103.5 233.9,103.7 234.5,103.4 228.9,100.2 "/>
<polygon class="st6" points="228.2,100.6 228.2,103.9 233.9,107 233.9,103.7 "/>
<polygon class="st7" points="213.6,154.4 213.6,157.7 214.2,157.4 214.2,154.1 "/>
<polygon class="st0" points="207.9,151.4 212.2,154.2 213.6,154.4 214.2,154.1 208.6,150.9 "/>
<polygon class="st6" points="207.9,151.4 207.9,154.7 213.6,157.7 213.6,154.4 "/>
<polygon class="st7" points="212.4,99.2 207.8,96.7 208.8,96.2 213.4,98.7 "/>
<polygon class="st0" points="212.4,108.7 211.5,101.2 212.4,99.2 213.4,98.7 213.4,108.2 "/>
<polygon class="st6" points="212.4,108.7 207.8,106.2 207.8,96.7 212.4,99.2 "/>
<polygon class="st7" points="214.5,148.2 214.5,153.6 215.5,152.9 215.5,147.7 "/>
<polygon class="st0" points="208.7,145.1 213.4,148.6 214.5,148.2 215.5,147.7 209.7,144.4 "/>
<polygon class="st6" points="208.7,145.1 208.7,150.4 214.5,153.6 214.5,148.2 "/>
<polygon class="st8" points="211.8,149.7 211.8,151.4 209.4,150.1 209.4,148.4 "/>
<polygon class="st7" points="236.2,145.2 236.2,148.4 236.8,148.2 236.8,144.9 "/>
<polygon class="st0" points="230.5,142.1 234.8,144.9 236.2,145.2 236.8,144.9 231.2,141.8 "/>
<polygon class="st6" points="230.5,142.1 230.5,145.4 236.2,148.4 236.2,145.2 "/>
<polygon class="st7" points="236.2,149.4 236.2,152.8 236.8,152.4 236.8,149.2 "/>
<polygon class="st0" points="230.5,146.4 234.7,149.2 236.2,149.4 236.8,149.2 231.2,146.1 "/>
<polygon class="st6" points="230.5,146.4 230.5,149.7 236.2,152.8 236.2,149.4 "/>
<polygon class="st3" points="227.9,97.4 227.9,98.9 232.3,101.2 232.3,99.8 "/>
<polygon class="st2" points="232,119.6 231.9,131.8 234.3,130.5 234.3,118.2 "/>
<polygon class="st9" points="233.2,118.9 233.2,131.1 234.3,130.5 234.3,118.2 "/>
<polygon class="st6" points="218.8,112.4 229.4,120.4 232,119.6 234.3,118.2 221.1,111.1 "/>
<polygon class="st10" points="220,111.7 233.2,118.9 234.3,118.2 221.1,111.1 "/>
<polygon class="st7" points="218.8,112.4 218.8,124.7 231.9,131.8 232,119.6 "/>
<polygon class="st2" points="230.1,122.5 230.1,126.6 220.4,121.2 220.4,117.2 "/>
<polygon class="st2" points="232.9,155.6 232.9,167.9 235.2,166.6 235.2,154.2 "/>
<polygon class="st9" points="234.1,154.9 234.1,167.2 235.2,166.6 235.2,154.2 "/>
<polygon class="st6" points="219.7,148.4 230.3,156.4 232.9,155.6 235.2,154.2 222.1,147.2 "/>
<polygon class="st10" points="221,147.8 234.1,154.9 235.2,154.2 222.1,147.2 "/>
<polygon class="st7" points="219.7,148.4 219.7,160.7 232.9,167.9 232.9,155.6 "/>
<path class="st11" d="M219.7,129.2c-0.1,0-0.2,0-0.3-0.1c-0.5-0.3-0.8-0.8-0.8-1.3c0-0.3,0.2-0.5,0.4-0.5c0.1,0,0.2,0,0.4,0.1
	c0.4,0.3,0.7,0.8,0.8,1.3C220.2,129,220,129.2,219.7,129.2"/>
<path class="st12" d="M218,130l1.8-1c0.1-0.1,0.2-0.2,0.2-0.4c0-0.4-0.2-0.8-0.6-1c-0.1-0.1-0.3-0.1-0.5,0l-1.8,1L218,130L218,130z"
	/>
<path class="st13" d="M217.5,128.6c0.4,0.2,0.6,0.6,0.6,1s-0.3,0.5-0.6,0.3c-0.4-0.2-0.6-0.6-0.6-1c0-0.2,0.1-0.4,0.3-0.4
	C217.4,128.5,217.5,128.5,217.5,128.6z"/>
<path class="st11" d="M221.8,130.2c-0.1,0-0.2,0-0.4-0.1c-0.5-0.3-0.8-0.7-0.8-1.3c0-0.3,0.2-0.5,0.4-0.5c0.1,0,0.2,0,0.4,0.1
	c0.4,0.3,0.7,0.8,0.8,1.3C222.2,130.2,222,130.2,221.8,130.2"/>
<path class="st12" d="M220,131.1l1.8-1c0.1-0.1,0.2-0.2,0.2-0.4c0-0.4-0.2-0.8-0.6-1c-0.1-0.1-0.3-0.1-0.4,0l-1.8,1L220,131.1
	L220,131.1z"/>
<path class="st13" d="M219.5,129.7c0.4,0.2,0.6,0.6,0.6,1s-0.3,0.6-0.6,0.3c-0.4-0.2-0.6-0.6-0.6-1
	C218.9,129.7,219.2,129.5,219.5,129.7z"/>
<path class="st11" d="M224,131.5c-0.1,0-0.2,0-0.4-0.1c-0.4-0.3-0.7-0.8-0.8-1.3c0-0.3,0.2-0.5,0.4-0.5c0.1,0,0.2,0,0.3,0.1
	c0.5,0.3,0.8,0.7,0.8,1.3C224.4,131.2,224.2,131.5,224,131.5"/>
<path class="st12" d="M222.2,132.2l1.8-1c0.1-0.1,0.2-0.2,0.2-0.4c0-0.4-0.3-0.8-0.6-1c-0.1-0.1-0.3-0.1-0.4-0.1l-1.8,1L222.2,132.2
	L222.2,132.2z"/>
<path class="st13" d="M221.8,130.9c0.4,0.2,0.6,0.6,0.6,1s-0.3,0.6-0.6,0.3c-0.4-0.2-0.6-0.6-0.6-1
	C221.2,130.9,221.4,130.7,221.8,130.9z"/>
<path class="st11" d="M226,132.7c-0.1,0-0.2,0-0.4-0.1c-0.4-0.3-0.7-0.7-0.8-1.2c0-0.3,0.2-0.6,0.4-0.6c0.1,0,0.2,0,0.3,0.1
	c0.5,0.3,0.8,0.7,0.8,1.3C226.4,132.5,226.2,132.7,226,132.7"/>
<path class="st12" d="M224.2,133.4l1.8-1c0.1-0.1,0.2-0.2,0.2-0.4c0-0.4-0.2-0.8-0.6-1c-0.1-0.1-0.3-0.1-0.4,0l-1.8,1L224.2,133.4
	L224.2,133.4z"/>
<path class="st13" d="M223.7,132.1c0.4,0.2,0.6,0.6,0.6,1s-0.3,0.5-0.6,0.3c-0.4-0.2-0.6-0.6-0.6-1
	C223.1,132,223.4,131.9,223.7,132.1L223.7,132.1z"/>
<path class="st11" d="M216.2,156.9c-0.1,0-0.2,0-0.4-0.1c-0.5-0.3-0.8-0.8-0.8-1.3c0-0.3,0.2-0.5,0.4-0.5c0.1,0,0.2,0,0.3,0.1
	c0.5,0.3,0.8,0.8,0.8,1.3C216.7,156.8,216.5,156.9,216.2,156.9"/>
<path class="st12" d="M214.5,157.8l1.8-1c0.1-0.1,0.2-0.2,0.2-0.4c0-0.4-0.2-0.8-0.6-1c-0.1-0.1-0.3-0.1-0.4,0l-1.8,1L214.5,157.8
	L214.5,157.8z"/>
<path class="st13" d="M214,156.4c0.4,0.2,0.6,0.6,0.6,1s-0.3,0.5-0.6,0.3c-0.4-0.2-0.6-0.6-0.6-1C213.4,156.2,213.7,156.2,214,156.4
	z"/>
<path class="st11" d="M218.2,158.2c-0.1,0-0.2,0-0.3-0.1c-0.4-0.3-0.7-0.8-0.8-1.3c0-0.3,0.2-0.5,0.4-0.5c0.1,0,0.2,0,0.4,0.1
	c0.4,0.3,0.7,0.8,0.8,1.3C218.6,157.9,218.4,158.2,218.2,158.2"/>
<path class="st12" d="M216.4,158.9l1.8-1c0.1-0.1,0.2-0.2,0.2-0.4c0-0.4-0.3-0.8-0.6-1c-0.1-0.1-0.3-0.1-0.4,0l-1.9,1L216.4,158.9
	L216.4,158.9z"/>
<path class="st13" d="M216,157.4c0.4,0.2,0.6,0.6,0.6,1s-0.3,0.6-0.6,0.3c-0.4-0.2-0.6-0.6-0.6-1C215.4,157.4,215.7,157.2,216,157.4
	z"/>
<path class="st11" d="M216,109.7c-0.1,0-0.2,0-0.4-0.1c-0.4-0.3-0.7-0.8-0.8-1.3c0-0.3,0.2-0.5,0.4-0.5c0.1,0,0.2,0,0.3,0.1
	c0.5,0.3,0.8,0.7,0.8,1.3C216.4,109.5,216.2,109.7,216,109.7"/>
<path class="st12" d="M214.2,110.5l1.8-1c0.1-0.1,0.2-0.2,0.2-0.4c0-0.4-0.3-0.8-0.6-1c-0.1-0.1-0.3-0.1-0.4,0l-1.8,1L214.2,110.5z"
	/>
<path class="st13" d="M213.7,109.1c0.4,0.2,0.6,0.6,0.6,1s-0.3,0.5-0.6,0.3c-0.4-0.2-0.6-0.6-0.6-1
	C213.1,109,213.4,108.9,213.7,109.1z"/>
<path class="st11" d="M217.9,110.9c-0.1,0-0.2,0-0.4-0.1c-0.4-0.3-0.7-0.8-0.8-1.3c0-0.3,0.2-0.5,0.4-0.5c0.1,0,0.2,0,0.3,0.1
	c0.5,0.3,0.7,0.8,0.8,1.3C218.4,110.7,218.2,110.9,217.9,110.9"/>
<path class="st12" d="M216.2,111.6l1.8-1c0.1-0.1,0.2-0.2,0.2-0.4c0-0.4-0.3-0.8-0.6-1c-0.1-0.1-0.3-0.1-0.4,0l-1.8,1L216.2,111.6
	L216.2,111.6z"/>
<path class="st13" d="M215.8,110.2c0.4,0.2,0.6,0.6,0.6,1c0,0.2-0.1,0.4-0.3,0.4c-0.1,0-0.2,0-0.3-0.1c-0.4-0.2-0.6-0.6-0.6-1
	C215.1,110.2,215.4,110.1,215.8,110.2L215.8,110.2z"/>
<path class="st11" d="M208.6,119.2c-0.1,0-0.2,0-0.4-0.1c-0.5-0.3-0.8-0.8-0.8-1.3c0-0.3,0.2-0.5,0.4-0.5c0.1,0,0.2,0,0.4,0.1
	c0.5,0.3,0.8,0.8,0.8,1.3C209,119,208.8,119.2,208.6,119.2"/>
<path class="st12" d="M206.8,119.9l1.8-1c0.1-0.1,0.2-0.2,0.2-0.4c0-0.4-0.2-0.8-0.6-1c-0.1-0.1-0.3-0.1-0.4,0l-1.8,1L206.8,119.9
	L206.8,119.9z"/>
<path class="st13" d="M206.4,118.6c0.4,0.2,0.6,0.6,0.6,1c0,0.2-0.1,0.4-0.3,0.4c-0.1,0-0.2,0-0.3-0.1c-0.4-0.2-0.6-0.6-0.6-1
	C205.7,118.5,206,118.4,206.4,118.6z"/>
<path class="st11" d="M210.6,120.2c-0.1,0-0.2,0-0.4-0.1c-0.4-0.3-0.7-0.8-0.8-1.3c0-0.3,0.2-0.5,0.4-0.5c0.1,0,0.2,0,0.3,0.1
	c0.5,0.3,0.8,0.8,0.8,1.3C211,120.2,210.8,120.4,210.6,120.2"/>
<path class="st12" d="M208.8,121.1l1.8-1c0.1-0.1,0.2-0.2,0.2-0.4c0-0.4-0.2-0.8-0.6-1c-0.1-0.1-0.3-0.1-0.4,0l-1.8,1L208.8,121.1
	L208.8,121.1z"/>
<path class="st13" d="M208.4,119.7c0.4,0.2,0.6,0.6,0.6,1s-0.3,0.5-0.6,0.3c-0.4-0.2-0.6-0.6-0.6-1
	C207.7,119.7,208,119.5,208.4,119.7z"/>
<path class="st11" d="M208.1,139.4c-0.1,0-0.2,0-0.2-0.1l0.3-0.2c0.1-0.1,0.2-0.2,0.2-0.4c0-0.4-0.3-0.8-0.6-1
	c-0.1-0.1-0.2-0.1-0.3-0.1s-0.1,0-0.1,0l-0.3,0.1c0-0.2,0.2-0.4,0.4-0.4c0.1,0,0.2,0,0.3,0.1c0.4,0.3,0.7,0.8,0.8,1.3
	C208.5,139.2,208.3,139.4,208.1,139.4"/>
<path class="st12" d="M206.3,140.2l1.8-1c0.1-0.1,0.2-0.2,0.2-0.4c0-0.4-0.3-0.8-0.6-1c-0.1-0.1-0.3-0.1-0.4,0l-1.8,1L206.3,140.2"
	/>
<path class="st13" d="M205.9,138.9c0.4,0.2,0.6,0.6,0.6,1s-0.3,0.5-0.6,0.3c-0.4-0.2-0.6-0.6-0.6-1
	C205.2,138.9,205.5,138.7,205.9,138.9z"/>
<path class="st11" d="M210.1,140.7c-0.1,0-0.2,0-0.4-0.1c-0.4-0.3-0.7-0.8-0.8-1.3c0-0.3,0.2-0.5,0.4-0.5c0.1,0,0.2,0,0.3,0.1
	c0.5,0.3,0.8,0.7,0.8,1.3C210.5,140.4,210.3,140.7,210.1,140.7"/>
<path class="st12" d="M208.3,141.4l1.8-1c0.1-0.1,0.2-0.2,0.2-0.4c0-0.4-0.3-0.8-0.6-1c-0.1-0.1-0.3-0.1-0.4,0l-1.8,1L208.3,141.4
	L208.3,141.4z"/>
<path class="st13" d="M207.9,140.1c0.4,0.2,0.6,0.6,0.6,1s-0.3,0.5-0.6,0.3c-0.4-0.2-0.6-0.6-0.6-1
	C207.3,139.9,207.5,139.9,207.9,140.1z"/>
<polygon class="st14" points="212,131.4 212,135.9 216.4,133.4 216.4,129 "/>
<polygon class="st15" points="175.2,111.4 182.2,116.7 212,131.4 216.4,129 179.6,108.9 "/>
<polygon class="st16" points="175.2,111.4 175.2,115.9 212,135.9 212,131.4 "/>
<polygon class="st6" points="210.4,133.6 176.4,115 176.4,113.8 210.4,132.2 "/>
<polygon class="st6" points="246.6,106.2 215.6,89.6 215.6,215.7 246.6,232.4 "/>
<polygon class="st0" points="256.7,123.5 218.6,102.8 218.6,95.4 256.7,116.2 "/>
<polygon class="st0" points="256.7,133.2 218.6,112.5 218.6,105.2 256.7,126 "/>
<polygon class="st0" points="256.7,142.9 218.6,122.2 218.6,115 256.7,135.7 "/>
<polygon class="st0" points="256.7,152.8 218.6,132.1 218.6,124.7 256.7,145.4 "/>
<polygon class="st0" points="256.7,162.6 218.6,141.8 218.6,134.4 256.7,155.2 "/>
<polyline class="st0" points="256.7,172.2 218.6,151.6 218.6,144.2 256.7,164.9 256.7,172.2 "/>
<polyline class="st0" points="256.7,182.1 218.6,161.4 218.6,153.9 256.7,174.8 256.7,182.1 "/>
<polygon class="st0" points="256.7,191.9 218.6,171.1 218.6,163.8 256.7,184.4 "/>
<polygon class="st0" points="256.7,201.6 218.6,180.9 218.6,173.6 256.7,194.2 "/>
<polygon class="st0" points="256.7,211.4 218.6,190.7 218.6,183.2 256.7,204.1 "/>
<polygon class="st0" points="256.7,221.2 218.6,200.4 218.6,193.1 256.7,213.8 "/>
<polygon class="st0" points="256.7,230.9 218.6,210.2 218.6,202.9 256.7,223.6 "/>
<polygon class="st9" points="166.2,95.5 207.9,40.9 178.5,24.9 136.8,47.7 "/>
<polygon class="st10" points="136.8,79.5 166.2,95.5 166.2,63.6 136.8,47.7 "/>
<polygon class="st2" points="149,79.8 162.1,86.9 162.1,76 149,68.9 "/>
<polygon class="st17" points="166.2,95.5 207.9,72.8 207.9,40.9 166.2,63.6 "/>
<polyline class="st6" points="245.3,239.2 297.9,210.6 297.9,76.2 245.3,105 244.5,208.4 245.3,239.2 "/>
<path class="st7" d="M130.9,45.4l112.9,61.7v128.6L130.9,174V45.4 M129.5,41.9v134.3l115.8,63.1V105L129.5,41.9"/>
<polygon class="st7" points="253,109.5 253,124.2 290.7,103.6 290.7,88.9 "/>
<polygon class="st7" points="253,126.4 253,141.1 290.7,120.5 290.7,105.9 "/>
<polygon class="st7" points="253,143.1 253,157.8 290.7,137.2 290.7,122.5 "/>
<polygon class="st2" points="129.5,41.9 182.1,13.2 297.9,76.2 245.3,105 "/>
<polygon class="st0" points="260.7,168.4 260.7,171.4 292.8,153.9 292.8,143.7 290.1,145.2 290.1,152.4 "/>
<polyline class="st7" points="260.7,161.2 260.7,168.4 290.1,152.4 290.1,145.2 260.7,161.2 "/>
<polygon class="st17" points="284.2,151.7 288.5,149.2 288.5,146.9 284.2,149.2 "/>
<polygon class="st0" points="284.9,150.8 287.8,149.2 287.8,147.7 284.9,149.2 "/>
<polygon class="st17" points="284.2,154.8 288.5,152.4 288.5,149.9 284.2,152.4 "/>
<polygon class="st0" points="284.9,153.9 287.8,152.4 287.8,150.9 284.9,152.4 "/>
<polygon class="st0" points="251.2,207.4 251.2,210.2 292.8,187.6 292.8,159.2 290.1,160.6 290.1,186.1 "/>
<polygon class="st7" points="251.2,181.9 251.2,207.4 290.1,186.1 290.1,160.6 "/>
<polygon class="st0" points="251.2,218.7 251.2,221.7 292.8,198.9 292.8,192.4 290.1,193.9 290.1,197.4 "/>
<polygon class="st7" points="251.2,215.2 251.2,218.7 290.1,197.4 290.1,193.9 "/>
<polygon class="st0" points="251.2,228.2 251.2,231.2 292.8,208.4 292.8,202.1 290.1,203.6 290.1,206.9 "/>
<polygon class="st7" points="251.2,224.8 251.2,228.2 290.1,206.9 290.1,203.6 "/>
<g>
	<g>
		<g>
			<g>
				<g>
					<defs>
						<path id="SVGID_1_" d="M253,171.9c-1.1,0-1.8-0.8-1.8-2.2c0.1-2.1,1.3-4.1,3.2-5.3c0.4-0.3,0.9-0.4,1.4-0.4
							c1.1,0,1.8,0.8,1.8,2.2c-0.1,2.1-1.3,4.1-3.2,5.3C254,171.8,253.5,171.9,253,171.9"/>
					</defs>
					<clipPath id="SVGID_2_">
						<use xlink:href="#SVGID_1_"  style="overflow:visible;"/>
					</clipPath>
					<g class="st18">
						<rect x="251.2" y="163.9" class="st19" width="6.5" height="7.9"/>
					</g>
				</g>
			</g>
		</g>
	</g>
</g>
<path class="st3" d="M256.5,169.1L256.5,169.1l-1.8,3l-1.9-1c-0.5-0.4-0.8-1-0.8-1.6c0.1-1.7,1.1-3.3,2.6-4.3
	c0.5-0.4,1.2-0.4,1.8-0.2l1.9,1L256.5,169.1z"/>
<path class="st4" d="M256.4,166.2c-1.5,0.9-2.5,2.5-2.6,4.3c0,1.6,1.2,2.2,2.6,1.4c1.5-0.9,2.5-2.5,2.6-4.3
	C259,165.9,257.9,165.4,256.4,166.2L256.4,166.2z"/>
<path class="st20" d="M279.7,154.9c-0.4,0-0.7-0.3-0.7-0.9c0-0.9,0.5-1.6,1.3-2.1c0.2-0.1,0.4-0.2,0.6-0.2c0.4,0,0.7,0.3,0.7,0.9
	c0,0.9-0.5,1.6-1.3,2.1C280.2,154.9,279.9,154.9,279.7,154.9"/>
<path class="st3" d="M281.1,153.9L281.1,153.9l-0.7,1.2l-0.8-0.4c-0.2-0.1-0.3-0.4-0.3-0.6c0-0.7,0.4-1.3,1-1.7
	c0.2-0.1,0.5-0.2,0.7-0.1l0.8,0.4L281.1,153.9z"/>
<path class="st5" d="M281.1,152.7c-0.6,0.4-1,1-1.1,1.7c0,0.6,0.5,0.9,1.1,0.6c0.6-0.4,1-1,1-1.7
	C282.2,152.6,281.7,152.4,281.1,152.7L281.1,152.7z"/>
<path class="st4" d="M281.1,153.2c-0.4,0.2-0.6,0.6-0.6,1s0.3,0.6,0.6,0.3c0.4-0.2,0.6-0.6,0.6-1
	C281.7,153.2,281.5,152.9,281.1,153.2z"/>
<path class="st20" d="M276.4,156.8c-0.4,0-0.7-0.3-0.7-0.9c0-0.9,0.5-1.6,1.3-2.1c0.2-0.1,0.4-0.2,0.6-0.2c0.4,0,0.7,0.3,0.7,0.9
	c0,0.9-0.5,1.6-1.3,2.1C276.8,156.7,276.6,156.8,276.4,156.8"/>
<path class="st12" d="M277.8,155.6L277.8,155.6l-0.7,1.2l-0.7-0.4c-0.2-0.1-0.3-0.4-0.3-0.6c0.1-0.7,0.4-1.3,1-1.7
	c0.2-0.1,0.5-0.2,0.7-0.1l0.7,0.4L277.8,155.6L277.8,155.6z"/>
<path class="st21" d="M277.8,154.4c-0.6,0.4-1,1-1.1,1.7c0,0.6,0.5,0.9,1.1,0.6c0.6-0.4,1-1,1-1.7S278.3,154.2,277.8,154.4z"/>
<path class="st0" d="M277.8,154.9c-0.4,0.2-0.6,0.6-0.6,1s0.3,0.6,0.6,0.3c0.4-0.2,0.6-0.6,0.6-1
	C278.4,154.9,278.1,154.8,277.8,154.9z"/>
<path class="st20" d="M273,158.6c-0.4,0-0.7-0.3-0.7-0.9c0-0.9,0.5-1.7,1.3-2.1c0.2-0.1,0.4-0.2,0.6-0.2c0.4,0,0.7,0.3,0.7,0.9
	c-0.1,0.9-0.5,1.6-1.3,2.1C273.4,158.6,273.2,158.6,273,158.6"/>
<path class="st14" d="M274.4,157.4L274.4,157.4l-0.7,1.2l-0.8-0.4c-0.2-0.1-0.3-0.4-0.3-0.6c0-0.7,0.4-1.3,1-1.7
	c0.2-0.1,0.5-0.2,0.7-0.1l0.7,0.4L274.4,157.4L274.4,157.4z"/>
<path class="st15" d="M274.3,156.2c-0.6,0.4-1,1-1,1.7c0,0.6,0.5,0.9,1,0.6c0.6-0.4,1-1,1.1-1.7
	C275.4,156.2,274.9,155.9,274.3,156.2z"/>
<path class="st0" d="M274.4,156.9c-0.4,0.2-0.6,0.6-0.6,1s0.3,0.5,0.6,0.3c0.4-0.2,0.6-0.6,0.6-1
	C274.9,156.8,274.7,156.7,274.4,156.9z"/>
<path class="st22" d="M250.9,217.4c1.3-0.3,2.7,0.4,3,1.6c0,0.1,0.1,0.2,0.1,0.3c0.5,1.9,1.2,5.2,1.5,5.4c0.6,0,1.2,0.1,1.7,0.2
	l-0.3,2.5c0,0-2.4,0.1-3.1-0.2c-0.6-0.3-3.2-8.8-3.2-8.8L250.9,217.4z"/>
<path class="st23" d="M258.1,227.2c0,0-0.4,1.2-2.2,0.5c-1-0.4-0.9-2.5,0-2.9c1.5-0.8,2.1,0.5,2.1,0.5L258.1,227.2L258.1,227.2z"/>
<path class="st10" d="M260.5,225.2c0,0,0.4-0.9,0.8-0.9c0.4-0.1,0.8,0,1.2,0.2c0.1,0.1,0.2,0.2,0.2,0.4c0.4,0.1,0.8,0.3,1.1,0.6
	c0.5,0.6-0.2,1.8-0.6,1.9c-0.9,0.2-1.9,0.1-2.7-0.4l-0.5-0.4l-0.1-1.1L260.5,225.2L260.5,225.2z"/>
<path class="st17" d="M261.4,228.4l0.1,0.7l0.4-1.2c0,0-0.2,0-0.2,0.2C261.6,228.2,261.5,228.2,261.4,228.4L261.4,228.4z"/>
<path class="st13" d="M261.5,228.1c0,0.1,0.1,0.2,0.1,0.2c0.1,0,0.2-0.1,0.2-0.1l0.5-1.6c0-0.1,0-0.2-0.1-0.2l0,0
	c-0.1,0-0.2,0.1-0.2,0.1L261.5,228.1L261.5,228.1z"/>
<path class="st12" d="M261.7,227.9c0.1,0,0.2,0,0.2-0.1l0,0C261.9,227.9,261.8,227.9,261.7,227.9c-0.1,0-0.1,0-0.1-0.1l0,0
	C261.6,227.9,261.6,227.9,261.7,227.9L261.7,227.9z"/>
<path class="st24" d="M262.1,225.8c0-0.1,0.2-0.2,0.3-0.2l0,0c0.1,0,0.2,0.2,0.1,0.3l0,0l-0.6,1.9l-0.1,0.1
	c-0.1,0.1-0.1,0.1-0.2,0.1s-0.1-0.1-0.1-0.1v-0.1L262.1,225.8L262.1,225.8z"/>
<path class="st3" d="M262.2,226.4c0.1,0,0.2,0,0.3-0.1l0,0C262.4,226.4,262.3,226.4,262.2,226.4s-0.2-0.1-0.2-0.1l0,0
	C262,226.2,262.1,226.2,262.2,226.4z"/>
<path class="st24" d="M262.7,223.7c0-0.2,0.2-0.3,0.4-0.2l0,0c0.2,0.1,0.2,0.2,0.2,0.4l-0.7,2.3l-0.1,0.1c-0.1,0.1-0.2,0.1-0.3,0.1
	s-0.2-0.1-0.2-0.2v-0.1L262.7,223.7L262.7,223.7z"/>
<path class="st13" d="M263.1,224.4c0,0,0.2,0,0.1,0.2l-0.4,1.4c-0.1,0.2-0.2,0.4-0.3,0.6l0.6-2H263h-0.1L263.1,224.4L263.1,224.4
	L263.1,224.4z"/>
<path class="st10" d="M262.7,225.4c-0.2,0.5-0.5,0.8-0.8,0.7s-0.4-0.6-0.2-1c0.2-0.4,0.5-0.8,0.8-0.7
	C262.8,224.6,262.8,225.1,262.7,225.4z"/>
<path class="st25" d="M257.2,224.9c1.1,0.2,2.2,0.3,3.3,0.3c-0.3,0.5-0.3,1.2,0,1.7c-1.1,0.1-2.2,0.2-3.2,0.4
	C256.2,227.6,256.3,224.9,257.2,224.9L257.2,224.9z"/>
<path class="st26" d="M246.1,216.2c0,0.8-0.2,1.5-0.6,2.2l1.2,1.1l1.1,0.6h1.3l0.9-0.7l-0.8-2.4l-1.5-1.1
	C247.7,215.9,246.1,215.9,246.1,216.2L246.1,216.2z"/>
<path class="st23" d="M249.3,218.9c0,0,0.4,0.4-0.4,0.8c-1.1,0.6-3.4-1.4-3.4-1.4l-0.5,0.6l-0.5,0.6l-0.6,0.4l-0.4,0.4l2.9,11.1
	l2.9,0.4l4.2-2.9c0,0,0.7-6.4,0.5-7.8c-0.2-1.4-2.4-2.8-2.4-2.8L249.3,218.9L249.3,218.9z"/>
<path class="st27" d="M252.9,251.9c0.8,1,3.3,1.4,3.3,2.2c0,0.2,0.1,0.8-0.3,1c-1.4,0.3-3.9-1-3.9-1s-2.3-0.1-2.5-0.5s0-1.9,0-1.9
	S252.7,251.7,252.9,251.9L252.9,251.9z"/>
<path class="st28" d="M254.2,233.4c0.3,4.6-1,8.6-1.2,9.6c-0.4,3.6,0.1,7.9,0.1,8.9c0,0.9-3.5,1.7-4,0c-0.2-1.6-0.2-6.3,0.4-8.5
	c0.2-0.9-0.8-8-0.8-8S254.1,232.4,254.2,233.4L254.2,233.4z"/>
<path class="st27" d="M246.2,254.9c-0.1,0.5,1.5,2.8,1.1,3.4s-2.1,0.3-2.8-0.2s-1.3-2.2-1.4-2.8c-0.1-0.5-0.1-1,0-1.5l3.1,0.2
	C246.2,254.4,246.2,254.7,246.2,254.9L246.2,254.9z"/>
<path class="st29" d="M254.1,229.9c0,0-4,2.8-5.5,2.8c-1.2-0.1-2.2-0.6-3-1.5c-0.5,0.8-0.9,1.6-1.2,2.4c-0.3,0.9-0.1,9.6-0.6,10.8
	c-0.4,0.8-0.7,1.6-0.9,2.4c-0.2,0.9-0.3,5.7-0.1,7.2s2.7,2,3.6,1c-0.1-3.9,0-7.7,0.8-9c1-1.8,2.6-8.6,2.7-8.9c2.1-1,4.4-3.3,4.4-3.7
	C254.2,232.9,254.2,233.2,254.1,229.9L254.1,229.9z"/>
<path class="st29" d="M249,216.6c3.6,1.3,5,4.9,5,4.9l-1,0.7c0,0-1.5-4.1-5.2-4.7C247.8,217.2,248.7,216.7,249,216.6z"/>
<path class="st29" d="M248.4,232.7c1.3-3.3-0.2-8.1-0.2-8.1s4.1-1.6,6-3.5c0.5,3,0.5,6,0,9l-0.7,1.9l-2.9,1.1
	C250.5,232.9,248,233.8,248.4,232.7L248.4,232.7z"/>
<path class="st29" d="M245,218.9c3.6,1.3,5,5.3,5,5.3l-1.3,0.5c-0.5-2.3-2.3-4.1-4.7-4.8C243.9,219.6,244.7,218.9,245,218.9
	L245,218.9z"/>
<polygon class="st30" points="258.5,225.7 254.1,233.2 253.7,233.1 254.4,227.4 258.2,225.4 "/>
<polygon class="st31" points="257.8,231.2 254.1,233.2 254.8,227.7 258.5,225.7 "/>
<path class="st10" d="M252.5,230.4c0.1-0.4,0.3-0.9,0.5-1.2c0.3-0.4,0.8-0.6,1.3-0.5l-0.1,0.6l1-0.1c0,0,0.8-0.5,1-0.4
	s0.2,0.3,0.2,0.4c-0.1,1.3-0.6,1.7-1.2,2c-0.6,0.3-1.2,0.5-1.8,0.7L252.5,230.4z"/>
<path class="st25" d="M249.7,230.2c0.9,0.2,1.9,0.3,2.8,0.2c1,0.2,1.1,1.4,0.9,1.6c-1.4,0.6-4.4,0.4-4.4,0.4L249.7,230.2
	L249.7,230.2z"/>
<path class="st23" d="M247.3,229.9c0,0,0.8-0.9,2.2,0.1c0.9,0.6,0.5,2.6-0.4,2.9c-0.8,0.4-1.9,0.1-2.3-0.6L247.3,229.9L247.3,229.9z
	"/>
<path class="st22" d="M243.5,220.2c0,0-2.9,0.9-0.8,5.1c0.4,1.1,1.4,5.5,2,6c1,0.9,2.6,1.1,3.3,1.2s1.1-2.6,0.2-2.8
	c-0.4-0.1-0.9-0.1-1.4-0.1c-0.2-2-0.6-4.1-1.1-6.1C245.2,220.9,243.5,220.2,243.5,220.2L243.5,220.2z"/>
<path class="st25" d="M250.6,212.9c0.9,0.8,1.3,2,1,3.1c0,0-0.4,2.9-0.7,3.2c-0.3,0.2-0.6,0.4-1,0.4c-0.5,0.1-2.5-1.3-2.7-1.6
	s-0.2-0.6-0.2-0.9c-0.5-0.2-0.9-0.6-1-1.1c-0.1-0.4-0.1-0.8,0-1.2l0.7-1.4l1.5-0.9h1.2C249.9,212.6,250.3,212.7,250.6,212.9
	L250.6,212.9z"/>
<path class="st27" d="M246.1,216.1c0,0,0.2-0.9,0.7-0.4c0.2,0.2,0.1,0.4,0.3,0.7s0.6,0.4,0.7,0.3c0.2-0.6,0.2-1.2,0.1-1.8
	c-0.1-0.4-0.9-0.7-0.4-1.3s2.5,1,3.1,0.4c0.4-0.5-0.7-3.4-4-1.4C245,213.7,246.1,216.1,246.1,216.1z"/>
<path class="st32" d="M251.8,214.9c0,0-0.6,0.8-3.3,0.8c-1-0.1-2-0.5-2.8-1.1c0-1.1,0.4-2.3,2.3-2.7c1-0.2,2.7-0.1,3.2,0.8
	C251.6,213.4,251.8,214.2,251.8,214.9L251.8,214.9z"/>
<path class="st33" d="M249.2,212.2c0,0.1-0.2,0.2-0.4,0.2s-0.4-0.1-0.4-0.2c0-0.1,0.2-0.2,0.4-0.2
	C249,211.9,249.2,212.1,249.2,212.2z"/>
<path class="st33" d="M253,215.9l-1.5-0.6c0,0,0.3-0.4,0.6-0.3c0.3,0,0.5,0.1,0.7,0.3C252.9,215.4,253,215.7,253,215.9L253,215.9z"
	/>
<path class="st34" d="M248.2,215.7c0,0,1.2,1,2,1c0.5,0,0.6-1.1,1.7-1.3c1.2-0.2,0.9,0.6,1.1,0.5c0-0.9-0.9-1-1.2-1.2s-1-0.2-1-0.2
	C249.9,214.7,249,215.1,248.2,215.7L248.2,215.7z"/>
<g>
	<g>
		<g>
			<g>
				<g>
					<path class="st35" d="M188.5,285.3"/>
				</g>
				<g>
					<defs>
						<path id="SVGID_3_" d="M188.5,285.3c-0.1-0.1-0.2-0.3-0.2-0.5"/>
					</defs>
					<clipPath id="SVGID_4_">
						<use xlink:href="#SVGID_3_"  style="overflow:visible;"/>
					</clipPath>
					<path class="st36" d="M188.5,285.3"/>
				</g>
			</g>
		</g>
	</g>
</g>
<g>
	<path class="st37" d="M61.7,236.5l-0.4,0.6v1.1h0.6c0.5,0.1,0.9,0.1,1.4,0.1v-2.5c-0.2-0.1-0.5,0-0.7,0.1
		C62.3,236.1,62,236.3,61.7,236.5L61.7,236.5z"/>
	<path class="st25" d="M54.9,236.5c0,0-0.8,0.3-1,0.8c0.4,1-0.4,1.1,0.6,1.6c0.9,0.7,1.9,1.1,3,1.3c2.7-0.1,3.2-1.3,4.4-2
		c-0.4-0.5-0.5-1.1-0.2-1.7c-2,0.7-2.4,0.3-4.2,1.2C56.6,237.3,55.8,236.9,54.9,236.5z"/>
	<path class="st22" d="M48.1,234.3c1.1-1.4,2.6-0.9,4.4,0.2c1.3,0.9,2.8,1.7,4.2,2.5c0.8,0.7-0.8,3-1.7,2.6
		c-0.4-0.2-2.4-1.6-4.5-1.7C48.9,237,47.4,235.8,48.1,234.3L48.1,234.3z"/>
	<path class="st26" d="M44.3,232.5c0-0.2,2.5,0,2.5,0.1l2,2.1l-0.6,1.7l-1.8,0.8l-2.2-1.7l-0.2-0.9
		C44.3,233.9,44.4,233.2,44.3,232.5L44.3,232.5z"/>
	<path class="st23" d="M47.4,234.7l0.8-1.1c0,0,3.6,2.1,3.6,4.6c0,1.7-0.6,8.3-0.6,8.3c-1.1,0.2-2.1,0.6-3.1,1.1
		c-0.5,0.3-1.5,0.6-1.3,1.5c-2.3,0.2-3.7-1.6-3.5-2c0.5-2.1-2.3-5.3-2.3-5.8s-0.1-4.3-0.1-4.3l0.9-0.4l0.9-0.2l0.3-0.8l1-0.9
		c0,0,2,2,3.1,1.4C47.9,235.6,47.4,234.7,47.4,234.7L47.4,234.7z"/>
	<path class="st27" d="M49.5,267.4c-0.2-0.3-3,0-3,0s-0.3,1.6,0.1,2.1c0.3,0.4,2.4,0.5,2.4,0.5s2.7,1.4,4.1,1.1
		c0.5-0.2,0.5-1.1,0.2-1.4C52.4,268.7,50.3,268.4,49.5,267.4L49.5,267.4z"/>
	<path class="st28" d="M51.6,248.5L51.6,248.5c0-0.9-5.7,2.2-5.7,2.2s1.2,8.2,1,9.1c-0.6,2.3-0.9,5.9-0.7,7.5c0.4,1.4,4,0.8,4,0
		c-0.1-2.7,0-5.5,0.3-8.3C50.7,258,51.9,253.1,51.6,248.5L51.6,248.5z"/>
	<path class="st27" d="M44.1,270.6c0-0.3,0-0.6,0-0.9l-2.6-0.2c0,0-0.1,0.7-0.1,1.3c0,0.9,0.6,2.4,1.2,2.9s2,0.4,2.4-0.2
		C45.6,272.7,44,271.1,44.1,270.6L44.1,270.6z"/>
	<path class="st29" d="M51.5,245.8c0,1.4,0.1,3,0.2,3.5c0,0.4-2.2,2.5-4.3,3.5c-0.1,0.3-1.9,6.9-2.9,8.7c-0.7,1.3-0.4,5-0.3,8.9
		c-0.4,1.1-3.6,1.2-3.8-0.3s-0.4-6.6-0.2-7.5c0.3-0.9,0.5-1.7,0.9-2.6c0.5-1.2,0.6-8.7,1.1-10.5c0.3-0.8,0.7-1.6,1.2-2.4
		c0.6,0.8,1.6,1.4,2.7,1.4C47.6,248.6,51.5,245.8,51.5,245.8L51.5,245.8z"/>
	<path class="st30" d="M63.8,267.9c0.2-0.1,0.5,0,0.5,0.3s-0.2,0.6-0.5,0.8c-0.3,0.1-0.5,0-0.5-0.3
		C63.3,268.4,63.5,268.1,63.8,267.9L63.8,267.9z"/>
	<path class="st38" d="M63.1,269.7l-0.8-0.5c-0.2-0.1-0.3-0.4-0.3-0.6V267l2-1.1v1l-1.2,0.6v1.6C62.8,269.3,62.9,269.6,63.1,269.7
		L63.1,269.7z"/>
	<path class="st31" d="M63.8,267.9c0.2-0.1,0.5,0,0.5,0.3s-0.2,0.6-0.5,0.8c-0.3,0.1-0.5,0-0.5-0.3
		C63.3,268.4,63.5,268.1,63.8,267.9L63.8,267.9z M62.8,267.4v1.6c0,0.7,0.4,0.9,1,0.6l0,0c0.6-0.4,1-1,1-1.7v-1.6L62.8,267.4
		L62.8,267.4z"/>
	<path class="st39" d="M63,269.6L63,269.6L63,269.6z"/>
	<path class="st40" d="M60.2,253.1L60.2,253.1l6.1,0.1l-0.1,11.6l0,0c0,1.6-1.3,2.8-3,2.8h-0.1l0,0c-1.7,0-3-1.3-3-2.9L60.2,253.1
		L60.2,253.1z"/>
	<path class="st38" d="M65.4,251.9c-1.3-0.6-2.9-0.6-4.3,0c-1.2,0.7-1.2,1.8,0,2.4c1.3,0.6,2.9,0.6,4.3,0
		C66.6,253.6,66.6,252.6,65.4,251.9z"/>
	<path class="st40" d="M60.3,251.3l6.1-0.4l-0.1,2.2c0,0.5-0.3,1-0.8,1.2c-1.3,0.6-3,0.6-4.4,0c-0.5-0.2-0.7-0.6-0.8-1.1l0.1-2.1
		L60.3,251.3z"/>
	<path class="st38" d="M65.5,252.2c1.2-0.6,1.2-1.7,0-2.4c-1.3-0.6-2.9-0.6-4.3,0c-1.2,0.7-1.2,1.7,0,2.4
		C62.5,252.8,64.1,252.8,65.5,252.2L65.5,252.2z"/>
	<polygon class="st10" points="63.3,230.9 63.2,251.7 62.5,251.4 62.6,230.6 61.9,229.1 62.7,226.7 63.5,226.3 64,226.6 63.3,227.1 
		62.5,229.4 	"/>
	<polygon class="st9" points="63.3,227.1 64,226.7 64.8,228.2 64.1,230.5 64,250.9 63.2,251.3 63.3,230.9 62.6,229.4 	"/>
	<path class="st12" d="M63.8,264.6c0,0.3-0.2,0.5-0.5,0.5l0,0c-0.3,0-0.5-0.2-0.5-0.5v0.3c0,0.3,0.2,0.5,0.5,0.5l0,0
		c0.3,0,0.5-0.2,0.5-0.5V264.6L63.8,264.6z"/>
	<path class="st13" d="M63.9,256.9c0-0.3-0.3-0.5-0.5-0.5l0,0c-0.3,0-0.5,0.2-0.5,0.5v7.7c0,0.3,0.2,0.5,0.5,0.5l0,0l0,0
		c0.3,0,0.5-0.2,0.5-0.5V256.9L63.9,256.9z"/>
	<path class="st12" d="M66,255.7c0-0.3-0.2-0.4-0.3-0.3c0.1,0.1,0.1,0.2,0.1,0.3v7.9c-0.1,0.4-0.2,0.6-0.5,0.8l0,0h-0.1
		c0.1,0.1,0.2,0.1,0.3,0l0,0c0.3-0.2,0.5-0.5,0.5-0.8V255.7L66,255.7z"/>
	<path class="st13" d="M65.7,255.7c0-0.1,0-0.3-0.1-0.3h-0.1l0,0c-0.3,0.2-0.5,0.5-0.5,0.8v7.9c0,0.1,0,0.2,0.1,0.3h0.1l0,0
		c0.3-0.2,0.5-0.5,0.5-0.8V255.7L65.7,255.7z"/>
	<path class="st12" d="M61.4,264.4L61.4,264.4L61.4,264.4c-0.3-0.2-0.5-0.5-0.5-0.8v-7.9c0-0.1,0-0.2,0.1-0.3
		c-0.2-0.1-0.4,0.1-0.4,0.3v7.9c0.1,0.3,0.2,0.6,0.5,0.8l0,0C61.2,264.4,61.3,264.5,61.4,264.4L61.4,264.4z"/>
	<path class="st13" d="M61.6,256.2c0-0.4-0.2-0.7-0.5-0.8l0,0H61c-0.1,0.1-0.1,0.2-0.1,0.3v7.9c0.1,0.3,0.2,0.6,0.5,0.8l0,0h0.1
		c0.1-0.1,0.1-0.2,0.1-0.3V256.2L61.6,256.2z"/>
	<path class="st29" d="M45.8,233.9c2.3,0.6,4.1,2.5,4.4,4.7l1-0.7c0,0-0.4-3.2-4.5-4.8C46.4,233.2,45.8,233.6,45.8,233.9z"/>
	<path class="st29" d="M45.8,248.9c-0.3,1,2.7,0,2.6,0l2.3-1.9l0.8-1.2c0.4-2.8,0.3-5.7-0.1-8.5c-1.9,1.9-5.8,3.4-5.8,3.4
		S47.1,245.7,45.8,248.9L45.8,248.9z"/>
	<path class="st29" d="M43,235.5c-0.3,0-1.1,0.7-1.2,1c3.7,0.5,4.3,4.4,4.3,4.4l1.3-0.5C47.4,240.4,47.2,237.1,43,235.5L43,235.5z"
		/>
	<path class="st25" d="M48.5,228.8c-0.3-0.1-0.9-0.4-0.9-0.4h-1.2l-1.5,0.9l-0.7,1.4c-0.1,0.4-0.1,0.9,0,1.3c0.1,1.1,1,1.2,1,1.2
		c0,0.3,0,0.6,0.2,0.9c0.3,0.3,2.2,1.5,2.7,1.4c0.4-0.1,0.7-0.3,1-0.5c0.3-0.3,0.5-3.2,0.5-3.2S49.8,229.7,48.5,228.8L48.5,228.8z"
		/>
	<path class="st27" d="M44.8,228.1c2.9-1.5,3.8,0.9,3.4,1.4c-0.7,0.6-2.5-0.7-3-0.1c-0.5,0.5,0.4,0.9,0.5,1.3
		c0.1,0.6,0.1,1.2-0.1,1.8c-0.1,0.1-0.4,0-0.6-0.3s-0.1-0.5-0.3-0.7c-0.7-0.6-0.5,0.8-0.5,0.8S42.3,229.9,44.8,228.1z"/>
	<path class="st25" d="M39.5,242.9c-0.2-0.7-1.5-2-2.3-1.9c-1,1.2-1.9,2.7-1.9,3.6c0,1.2,4.5,3.9,6,4.9c0.6,0.2,1.5-0.6,1.1-1.3
		c-1.6-1.7-2.6-3.4-4-4.2C38.3,244,39.5,243,39.5,242.9z"/>
	<path class="st37" d="M45.8,250.8c-0.2-0.7-0.7-1.3-1.4-1.8c-0.6-0.4-1.4-0.6-2.1-0.8c-0.6,0.2-1.1,0.7-1.1,1.3
		c1,0.9,0.5,1.1,1.6,1.8c0.6,0.3,1.2,0.6,1.8,0.7C45.3,252.1,46,251.1,45.8,250.8L45.8,250.8z"/>
	<path class="st22" d="M42.5,237c0.5,0.3,1.1,2-0.4,3.7c-1.4,1.4-1.8,1.7-3.2,3.1c-0.9,0.7-3.3-0.9-2.9-1.8
		C36.4,241.7,39.7,235.6,42.5,237L42.5,237z"/>
	<path class="st37" d="M62.8,235.7c-0.2,0-0.4,0.4-0.4,0.9s0.2,0.9,0.4,0.9s0.4-0.4,0.4-0.9S63.1,235.7,62.8,235.7z"/>
	<path class="st37" d="M63.6,236.8c0.1-0.2,0.3-0.3,0.5-0.3v-0.4c0.3,0,0.5,0.2,0.7,0.4c0.2,0.4-0.2,1.9-0.4,2.1
		c-0.1,0.2-0.5,0.3-0.8,0.1C63.3,238.6,63.4,237.1,63.6,236.8L63.6,236.8z"/>
</g>
<g>
	<path class="st7" d="M141.1,182.6l3-0.1c0,0,0.3,1.3,0,1.9c-0.8,0.4-1.6,0.7-2.5,0.9c-0.5,0.4-1.1,0.7-1.8,0.9
		c-0.7,0.3-1.5,0.3-2.2,0.1c0-0.1-0.5-1.4,0-1.6C138.8,184.1,140,183.4,141.1,182.6L141.1,182.6z"/>
	<path class="st32" d="M144.3,159.3l5.1,3.7c0,0-4.2,13.7-5,19.7c-1.1,1.1-4.6,0.4-4.3-0.4C141.9,176.6,142.2,166,144.3,159.3
		L144.3,159.3z"/>
	<path class="st7" d="M158.1,177.7L158.1,177.7l-2.7,1.2c-0.4,1.2-1.1,2.3-2,3.2l-0.1,0.1c-0.4,0.5-0.2,1.1,0.3,1.5
		c0.3,0.1,2.1,0.6,2.8-0.3c0.5-0.7,1.8-3.2,2.1-3.7C158.9,179.1,158.1,177.7,158.1,177.7L158.1,177.7z"/>
	<path class="st34" d="M154.2,159.8c-0.1-0.3-9.7-1-9.8-0.2c1.5,3.6,4.4,4.6,4.4,4.6s0.9,6.8,1.8,9.9c0.3,1,2.2,2.2,4.1,5.1
		c1.2,1.8,4.3-1.1,3.3-2.1c-0.9-0.9-1.9-3.4-3.6-4.8C154,170.4,155.3,163.8,154.2,159.8L154.2,159.8z"/>
	<path class="st21" d="M153.9,142.5c-0.2-0.2,0.5-1.2,0.5-1.2s3.5,1.5,0.7,6.1C153.4,145.6,154.2,143.3,153.9,142.5L153.9,142.5z"/>
	<path class="st0" d="M154.5,142c0.2-0.4,0.1-0.8-0.2-0.9s-0.7,0.2-0.8,0.6s-0.1,0.8,0.2,0.9S154.3,142.4,154.5,142L154.5,142z"/>
	<path class="st25" d="M143.4,148.5l3,1.5c0,0-1.6,1.3-2.3,1.9c-1.5,1.3-5,1.4-7.3,1.9c-0.3,0.5-0.9,0.7-1.5,0.8c-0.8,0-2-1.4-2-1.9
		s1.2-0.7,1.2-0.7c0.1-0.3,0.4-0.5,0.8-0.5c0.6,0,0.7,0.5,0.9,0.5c2.2-0.3,4.8-2,6-2.1C142.7,149.4,143.4,148.5,143.4,148.5
		L143.4,148.5z"/>
	<path class="st7" d="M148.8,143.5L148.8,143.5c-2.2-1-3.5,1.9-4.3,2.5c-0.4,0.6-1.2,1.6-1.5,2.1c-0.5,0.8,2.8,2.9,3.5,2
		c0.5-0.7,1.7-2.2,2-2.6C149.1,146.5,150.9,144.5,148.8,143.5L148.8,143.5z"/>
	<path class="st41" d="M153.5,142.6c-0.2-0.2-0.6,0-0.5,0l-3.2,0.9l-1.3,2.2l0.8,1.1h2.7l2-1.8l-0.3-1.1
		C153.5,143.5,153.5,143,153.5,142.6L153.5,142.6z"/>
	<path class="st2" d="M156.1,150.4c-0.8,3.3-1.3,6.8-1.4,10.3c0,0.9-0.7,2.1-3.9,1.7s-6.9-2.4-6.7-3.2c1-4.9,1.4-8.2,1.8-11.1
		c0.3-1.8,1.3-3.6,2.7-4.9c0.6,0.1,1.1,0.3,1.5,0.6c-0.6,0.3-1.7,1.5-0.5,2.2c1.5,0.9,3.9-0.6,4.1-2.1c0.9,1,1.9,2,3,2.9
		L156.1,150.4z"/>
	<path class="st25" d="M156.9,153.1h1.2c0,0,0.5,3.8,0.2,4.9c-0.5,2.1-2.8,3-4.8,4.2l-0.6-1.5c0.5-0.4,1.8-2.9,2.8-3.3
		c-0.4-1.3-0.7-2.6-0.8-3.9C155.2,153,156.9,153.2,156.9,153.1z"/>
	<path class="st13" d="M149.9,153l-2.5-1.5c0,0.3,0.5,0.9,1.2,1.3C149.3,153.2,149.9,153.4,149.9,153z M147.7,150
		c0,0.2,0.1,0.5,0.3,0.6s0.4,0,0.4-0.2s-0.1-0.5-0.3-0.6S147.7,149.8,147.7,150z M149.5,150.2c-0.2-0.1-0.4,0.1-0.4,0.5
		c0,0.3,0.1,0.7,0.3,0.9c0.2,0.1,0.4-0.1,0.4-0.5C149.8,150.8,149.7,150.4,149.5,150.2L149.5,150.2z M149.7,149.7
		c0.5,0.4,0.9,1,0.8,1.6l-0.2,2.5c-0.1,0.6-0.5,0.8-1,0.5l-1.8-1.1c-0.5-0.4-0.8-1-0.8-1.6l0.2-2.5c0.1-0.6,0.5-0.8,1-0.5
		L149.7,149.7L149.7,149.7z"/>
	<path class="st25" d="M148.7,138.9l1.3-0.5l2.2,1l1.5,1.6c0,0,0.3,0.2-0.2,1.2c-0.1,0.4-0.5,0.8-1,0.8c0,0.3-0.1,0.5-0.2,0.7
		c-0.3,0.4-1.2,1.6-2.7,1.8c-0.4,0-0.9-0.1-1.2-0.4c-0.2-0.2-0.5-2.3-0.5-2.7c0-0.2,0-0.5,0.1-0.7c-0.1-0.2-0.2-0.4-0.2-0.6
		C147.9,140.3,148.2,139.6,148.7,138.9L148.7,138.9z"/>
	<path class="st21" d="M153.5,141.4c0.4,0,0.1,1,0.1,1.1c0.4-0.5,0.7-1,0.7-1.6s0.3-3.1-2.5-3.4c-2.6-0.3-4.1,1.7-2.7,2.4
		c1.1,0.5,1.6,0.1,2,0.3c0.2,0.1,0.3,0.7,0.5,1.1c0.3,0.8,0.9,0.7,0.9,0.7C152.7,141.7,153.1,141.5,153.5,141.4L153.5,141.4z"/>
	<path class="st7" d="M155.7,146.9c-2.3,0.6-1.4,3.6-1.4,4.6c0.1,0.7,0.2,1.9,0.3,2.5c0.1,0.8,4.1,0.4,4-0.7
		c-0.1-0.8-0.2-2.7-0.3-3.2C158,149,158,146.3,155.7,146.9L155.7,146.9z"/>
	<polygon class="st30" points="150.5,156 146.7,153.5 146.7,154.5 	"/>
	<path class="st25" d="M152.9,160.7L152.9,160.7l-1.3-0.1c-0.2,0-0.4,0.1-0.5,0.3c-0.3-0.1-0.6-0.1-0.9,0c0,0-1.1-0.7-1.5-0.7
		c-0.5,0,0.4,1.4,0.5,1.5c0.3,0.3,0.7,0.6,1.1,0.7c1,0.2,2.1,0.1,3.1-0.2l0.3-0.7l-0.2-0.6L152.9,160.7L152.9,160.7z"/>
	<polygon class="st42" points="156.7,157.7 156.7,157.1 121.8,157.1 121.8,157.7 139.3,167.3 	"/>
	<polygon class="st22" points="156.7,157.1 139.3,147.5 121.8,157.1 139.3,166.6 	"/>
	<path class="st4" d="M127.4,157.1l11.9-6.5l11.9,6.5l-11.9,6.5L127.4,157.1L127.4,157.1z M152.1,157l-12.8-7l-12.8,7l12.8,7
		L152.1,157z"/>
	<polygon class="st2" points="148.7,157.1 148.7,156.1 129.8,156.1 129.8,157.1 139.3,162.2 	"/>
	<polygon class="st9" points="148.7,156.1 139.3,151 129.8,156.1 139.3,161.3 	"/>
	<polygon class="st10" points="144.6,156.2 139.2,153.3 137.7,154 143.1,157 	"/>
	<polygon class="st10" points="142.5,158.3 135.3,154.4 133.3,155.5 140.6,159.4 	"/>
	<polygon class="st10" points="150.4,159.8 150.4,159.5 148.8,159.2 148.8,159.6 149.9,160.1 	"/>
	<polygon class="st9" points="150.4,159.5 149.4,159 148.8,159.2 149.9,159.8 	"/>
	<polygon class="st10" points="147.7,161.3 147.7,161 146.1,160.7 146.1,161.1 147.1,161.6 	"/>
	<polygon class="st9" points="147.7,161 146.6,160.4 146.1,160.7 147.1,161.3 	"/>
	<polygon class="st10" points="144.9,162.8 144.9,162.5 143.4,162.2 143.4,162.6 144.4,163.1 	"/>
	<polygon class="st9" points="144.9,162.5 143.9,161.9 143.4,162.2 144.4,162.8 	"/>
	<path class="st25" d="M151.5,160.5l0.7,0.5l0.7-0.3c-0.4-1-2.1-1.6-2.4-1.4S151.5,160.5,151.5,160.5L151.5,160.5z"/>
	<polygon class="st10" points="131.7,153.7 131.7,153.3 130.1,153.1 130.1,153.4 131.1,154 	"/>
	<polygon class="st9" points="131.7,153.3 130.6,152.8 130.1,153.1 131.1,153.6 	"/>
	<polygon class="st10" points="128.9,155.2 128.9,154.8 127.4,154.6 127.4,154.9 128.4,155.5 	"/>
	<polygon class="st9" points="128.9,154.8 127.9,154.3 127.4,154.6 128.4,155.1 	"/>
	<polygon class="st10" points="134.4,152.2 134.4,151.8 132.8,151.6 132.8,151.9 133.9,152.5 	"/>
	<polygon class="st9" points="134.4,151.8 133.4,151.3 132.8,151.6 133.9,152.2 	"/>
	<polygon class="st10" points="137.1,150.7 137.1,150.4 135.6,150.1 135.6,150.4 136.6,151 	"/>
	<polygon class="st9" points="137.1,150.4 136.1,149.8 135.6,150.1 136.6,150.7 	"/>
</g>
<path class="st12" d="M146.8,231.8c-4.1-3.6-13.4-3.6-17.6-0.1c-2.1,1.8-2.1,4.1,0,5.9c0.4,0.3,0.8,0.6,1.2,0.9
	c4.1-2.4,11-2.3,15.1,0.1c0.4-0.2,0.9-0.5,1.2-0.9C148.9,235.9,148.9,233.6,146.8,231.8L146.8,231.8z"/>
<path class="st21" d="M146.8,237.7c-0.4,0.3-0.8,0.6-1.2,0.9c-4.1,2.4-11,2.3-15.1-0.1c-0.4-0.2-0.8-0.5-1.2-0.9
	c-2.1-1.8-2.1-4.2,0-5.9c4.2-3.5,13.5-3.5,17.6,0.1C148.9,233.6,148.9,235.9,146.8,237.7L146.8,237.7z M127,224.9l-6.9-3.8l-6.6,3.6
	l6.8,3.8c-0.1,0.1-0.2,0.2-0.4,0.3c-1,0.9-1.8,2-2.3,3.1h-3.5h-6.2l0.1,5.1l9.6,0.1c0.2,0.4,0.4,0.9,0.7,1.3
	c0.5,0.8,1.2,1.6,1.9,2.2l-6.9,3.7l0.7,0.4l5.7,3.2l0.1,0.1l6.9-3.7c0.6,0.2,1.3,0.4,1.9,0.6c1.5,0.4,3,0.7,4.5,0.9v1.6v3.7l9.5,0.1
	l-0.1-3.8v-1.6c1.5-0.2,3-0.5,4.5-0.9c0.6-0.2,1.3-0.4,1.9-0.6l6.9,3.8l0.1,0.1l5.7-3.2l1-0.5l-6.8-3.9c0.8-0.6,1.2-1.2,1.8-2
	c0.3-0.4,0.6-0.9,0.8-1.4l9.7,0.1l-0.2-5.2h-6.2l-3.2,0.1c-0.5-1.2-1.3-2.4-2.3-3.2c-0.1-0.1-0.1-0.1-0.3-0.3l6.7-3.8l-6.8-3.6
	l-6.9,3.7c-2.1-0.7-4.2-1.2-6.4-1.5v-5.3h-9.4v5.3C131.2,223.9,129.1,224.2,127,224.9L127,224.9z"/>
<polygon class="st13" points="113,243.7 119.6,247.4 119.6,255 113,251.4 "/>
<polygon class="st12" points="126.7,244.4 126.7,252 119.8,255.7 119.8,248.1 "/>
<polygon class="st13" points="142.6,251.1 142.6,258.7 133.2,258.7 133.3,250.9 "/>
<path class="st13" d="M133.3,245.7v7.6c-2.2-0.3-4.3-0.8-6.4-1.5v-7.6C128.8,244.9,133.3,245.7,133.3,245.7L133.3,245.7z"/>
<polygon class="st12" points="117.9,236.5 117.8,241.5 113.6,243.7 113.6,244.1 108.1,244.1 108.2,236.5 "/>
<path class="st13" d="M117.7,237.2c0.6,1.3,1.5,2.5,2.6,3.5l-2.7,1.5L117.7,237.2L117.7,237.2L117.7,237.2z"/>
<polygon class="st13" points="155.9,248.2 155.9,255.8 149,251.9 149,244.4 "/>
<polygon class="st12" points="162.6,244.6 162.5,252.2 155.9,255.8 155.9,248.2 "/>
<path class="st12" d="M149,244.4c0-0.5,0,7.6,0,7.6c-2.1,0.7-4.2,1.2-6.4,1.4c0-0.5-0.1-7.5-0.1-7.5
	C144.5,245.6,146.8,245.1,149,244.4L149,244.4z"/>
<polygon class="st13" points="168.1,237.4 168.1,244.9 162.6,244.9 162.6,244.6 158.4,242.2 158.4,237.2 "/>
<path class="st12" d="M158.4,237.2v4.9l-2.6-1.4C156.9,239.8,157.7,238.7,158.4,237.2z"/>
<path class="st12" d="M162.7,224.9v7.2l-4.2,0.1c-0.6-1.3-1.5-2.5-2.6-3.5L162.7,224.9L162.7,224.9L162.7,224.9z"/>
<path class="st12" d="M120.3,228.7c-1.1,1-2.1,2.2-2.7,3.5h-4.2l0.1-7.2L120.3,228.7L120.3,228.7z"/>
<path class="st12" d="M172.6,275.6c-1.8-1.5-5.7-1.5-7.4,0c-0.7,0.5-0.9,1.5-0.3,2.2c0.1,0.1,0.2,0.2,0.3,0.3
	c0.2,0.1,0.3,0.3,0.5,0.4c2-1,4.4-1,6.4,0c0.2-0.1,0.4-0.2,0.5-0.4c0.7-0.5,0.9-1.5,0.3-2.2C172.8,275.8,172.7,275.7,172.6,275.6
	L172.6,275.6z"/>
<path class="st21" d="M172.6,278.1c-0.2,0.1-0.3,0.2-0.5,0.4c-2,1-4.4,1-6.4,0c-0.2-0.1-0.4-0.2-0.5-0.4c-0.7-0.5-0.9-1.5-0.3-2.2
	c0.1-0.1,0.2-0.2,0.3-0.3c1.8-1.5,5.7-1.5,7.4,0c0.7,0.5,0.9,1.5,0.3,2.2C172.8,278,172.7,278.1,172.6,278.1L172.6,278.1z
	 M164.2,272.8l-2.9-1.6l-2.8,1.5l2.9,1.6c-0.1,0-0.1,0.1-0.1,0.1c-0.4,0.4-0.8,0.8-1,1.3h-1.5h-2.6v2.2h4.1c0.1,0.2,0.2,0.4,0.3,0.5
	c0.2,0.4,0.5,0.7,0.8,1l-2.9,1.6l0.3,0.2l2.4,1.3h0.1l2.9-1.6c0.3,0.1,0.5,0.2,0.8,0.2c0.6,0.2,1.3,0.3,1.9,0.4v2.2h4v-1.6v-0.7
	c0.6-0.1,1.3-0.2,1.9-0.4c0.3-0.1,0.5-0.1,0.8-0.2l2.9,1.6h0.1l2.4-1.3l0.3-0.2l-2.9-1.6c0.3-0.3,0.6-0.6,0.8-0.9
	c0.1-0.2,0.2-0.4,0.3-0.5h4.1v-2.2H179h-1.5c-0.2-0.5-0.6-1-1-1.3c-0.1,0-0.1-0.1-0.2-0.1l2.9-1.6l-2.8-1.5l-2.9,1.6
	c-0.9-0.3-1.8-0.5-2.7-0.6V270h-4v2.2C165.9,272.3,165,272.5,164.2,272.8L164.2,272.8z"/>
<polygon class="st13" points="158.4,281 161.2,282.5 161.2,285.8 158.4,284.2 "/>
<polygon class="st12" points="164.2,280.9 164.1,284.2 161.2,285.8 161.2,282.5 "/>
<polygon class="st13" points="170.8,283.8 170.8,287.1 166.8,287.1 166.9,283.8 "/>
<path class="st13" d="M166.9,281.6v3.2c-0.9-0.1-1.8-0.3-2.7-0.6V281C165,281.2,165.9,281.4,166.9,281.6L166.9,281.6z"/>
<polygon class="st12" points="160.2,277.9 160.2,280 158.4,281 158.4,281.1 156.1,281.1 156.1,277.9 "/>
<path class="st13" d="M160.2,277.9c0.2,0.6,0.6,1.1,1.1,1.5l-1.1,0.6V277.9L160.2,277.9L160.2,277.9z"/>
<polygon class="st13" points="176.5,282.6 176.4,285.8 173.5,284.2 173.6,281 "/>
<polygon class="st12" points="179.3,281.1 179.3,284.3 176.4,285.8 176.5,282.6 "/>
<path class="st12" d="M173.6,281c0-0.2,0,3.2,0,3.2c-0.9,0.3-1.8,0.5-2.7,0.6c0-0.2,0-3.2,0-3.2C171.8,281.5,172.7,281.3,173.6,281
	L173.6,281z"/>
<polygon class="st13" points="181.6,278 181.6,281.3 179.3,281.2 179.3,281.1 177.5,280.1 177.5,278 "/>
<path class="st12" d="M177.5,278v2.1l-1.1-0.6C176.9,279.1,177.3,278.6,177.5,278L177.5,278z"/>
<path class="st12" d="M179.3,272.8v3.1h-1.8c-0.2-0.6-0.6-1.1-1.1-1.5L179.3,272.8L179.3,272.8z"/>
<path class="st12" d="M161.4,274.3c-0.5,0.4-0.9,0.9-1.1,1.5h-1.8v-3.1L161.4,274.3L161.4,274.3z"/>
<path class="st10" d="M23,213.3c-0.3-0.3-0.5-0.7-0.5-1.1v1.5L23,213.3L23,213.3z"/>
<path class="st43" d="M30,212.2v0.1V212.2z"/>
<path class="st10" d="M29,213.7c-1.5,0.6-3,0.8-4.5,0.3l-10.1,5.5c0.6,0.7,0.4,1.4-0.6,2c-1.5,0.6-3,0.7-4.4,0
	c-0.5-0.3-0.9-0.7-0.9-1.2l0,0v1.8l0,0c0.1,0.5,0.4,1,0.9,1.2c1.4,0.7,3,0.7,4.4,0c0.5-0.2,0.9-0.7,0.9-1.2v-0.9l9.8-5.3
	c1.5,0.5,3.1,0.3,4.5-0.3c0.6-0.3,1-0.8,1.1-1.5l0,0v-1.7C30.1,212.9,29.6,213.3,29,213.7L29,213.7z"/>
<polygon class="st17" points="13.2,219.4 10.9,219 10.9,220.8 13,221.1 13.2,221 "/>
<polygon class="st10" points="10.1,221.2 9.9,221.2 9.2,219.9 10.9,219 10.9,220.8 "/>
<polygon class="st10" points="13.2,221 13.2,219.4 13.9,220.6 "/>
<polygon class="st17" points="28.3,212.9 25.6,212.6 25.6,210.8 28.3,211.2 "/>
<polygon class="st10" points="25.6,212.6 24.3,213.3 23.6,211.9 25.6,210.8 "/>
<polygon class="st10" points="29,212.6 28.3,213 28.3,212.9 28.3,211.2 "/>
<path class="st9" d="M29,212.6l-2,1.1l-2.7-0.4l-0.7-1.4l2-1.1l2.7,0.4L29,212.6z M13.9,220.6l-1.7,0.9l-2.3-0.3l-0.6-1.3L11,219
	l2.2,0.4L13.9,220.6L13.9,220.6z M23.6,210.8c-1.2,0.7-1.4,1.7-0.6,2.5l-10,5.5c-1.2-0.3-2.5-0.2-3.6,0.3c-1.2,0.7-1.2,1.7,0,2.4
	c1.4,0.7,3,0.6,4.4,0c1-0.6,1.2-1.3,0.6-2l10.1-5.5c1.5,0.5,3.1,0.3,4.5-0.3c1.5-0.8,1.5-2.1,0-2.9C27.3,210,25.4,210,23.6,210.8
	L23.6,210.8z"/>
<path class="st10" d="M39.5,213.2c-0.3-0.3-0.5-0.7-0.5-1.1l0,0v1.5L39.5,213.2z"/>
<path class="st10" d="M45.4,213.5c-1.4,0.7-3,0.8-4.5,0.3l-17.1,9.5c0.6,0.6,0.4,1.4-0.6,2c-1.4,0.7-3,0.7-4.4,0
	c-0.5-0.2-0.8-0.7-0.9-1.2l0,0v1.8l0,0c0.1,0.5,0.4,1,0.9,1.2c1.4,0.7,3,0.7,4.4,0c0.5-0.2,0.9-0.7,0.9-1.2V225l16.8-9.3
	c1.5,0.5,3.1,0.3,4.5-0.3c0.6-0.3,1-0.8,1.1-1.5l0,0v-1.7C46.4,212.7,46,213.3,45.4,213.5L45.4,213.5z"/>
<polygon class="st17" points="22.7,223.2 20.4,222.9 20.4,224.6 22.4,224.9 22.7,224.8 "/>
<polygon class="st10" points="19.6,225.1 19.3,225 18.7,223.8 20.4,222.9 20.4,224.6 "/>
<polygon class="st10" points="22.7,224.8 22.7,223.2 23.3,224.4 "/>
<polygon class="st17" points="44.7,212.8 42.1,212.4 42.1,210.6 44.7,211 "/>
<polygon class="st10" points="42.1,212.4 40.8,213.1 40.1,211.7 42.1,210.6 "/>
<polygon class="st10" points="45.5,212.5 44.8,212.9 44.7,212.8 44.7,211 "/>
<path class="st9" d="M45.5,212.5l-2,1.1l-2.5-0.4l-0.9-1.5l2-1.1l2.6,0.4L45.5,212.5L45.5,212.5z M23.3,224.4l-1.7,0.9l-2.3-0.3
	l-0.6-1.2l1.7-0.9l2.3,0.3L23.3,224.4L23.3,224.4z M40.1,210.7c-1.2,0.7-1.4,1.7-0.6,2.5l-17.1,9.5c-1.2-0.3-2.5-0.2-3.6,0.3
	c-1.2,0.7-1.2,1.7,0,2.4c1.4,0.7,3,0.7,4.4,0c1-0.6,1.2-1.3,0.6-2l17.1-9.5c1.5,0.5,3.1,0.3,4.5-0.3c1.5-0.8,1.5-2.1,0-2.9
	C43.8,209.9,41.8,209.9,40.1,210.7L40.1,210.7z"/>
</svg>
